<svg viewBox="0 0 24 24" fill="none" xmlns="http://www.w3.org/2000/svg">
    <path
        fill-rule="evenodd"
        clip-rule="evenodd"
        d="M9.21028 4.52083L4.13872 13.8013C3.82174 14.4192 4.06649 15.1775 4.68439 15.4945C4.78069 15.5427 4.88501 15.5828 4.98933 15.6028C6.75475 16.0201 10.1251 14.985 12.8735 16.0201C15.622 17.0553 16.8939 19.1738 18.559 20.2973C18.9321 20.5661 19.3775 20.7105 19.8349 20.7145H19.8429C19.9392 20.7145 20.0275 20.7105 20.1158 20.6985C20.5411 20.6463 20.9423 20.4698 21.2673 20.1929C21.4519 20.0324 21.6083 19.8399 21.7327 19.6272C22.142 18.9571 22.158 18.1226 21.7728 17.4405L14.7112 4.52886C13.8806 3.0122 11.9748 2.45449 10.4581 3.28504C9.92849 3.5659 9.49516 3.99522 9.21028 4.52083Z"
        fill="url(#Alqo_a)"
    />
    <path
        fill-rule="evenodd"
        clip-rule="evenodd"
        d="M5.76361 17.4084C5.18183 16.4535 3.93801 16.1486 2.97906 16.7303C2.02413 17.3121 1.7192 18.556 2.30098 19.5149C2.87876 20.4658 4.11856 20.7708 5.07349 20.197C6.03244 19.6232 6.3454 18.3754 5.76762 17.4165C5.76762 17.4165 5.76361 17.4124 5.76361 17.4084Z"
        fill="url(#Alqo_b)"
    />
    <path
        fill-rule="evenodd"
        clip-rule="evenodd"
        d="M6.05666 18.4838C6.04061 19.6032 5.12179 20.498 4.00236 20.4819C2.87891 20.4659 1.98416 19.547 2.00021 18.4276C2.00824 17.902 2.21688 17.4045 2.58601 17.0313C2.0604 17.9702 2.37336 18.7325 2.75052 19.0174C3.3323 19.4628 4.77272 19.3705 6.05666 18.4838Z"
        fill="url(#Alqo_c)"
    />
    <path
        fill-rule="evenodd"
        clip-rule="evenodd"
        d="M5.57917 13.9297C5.14584 14.0461 4.69647 13.7853 4.58011 13.352C4.56005 13.2838 4.55202 13.2115 4.55202 13.1433C4.55202 13.039 4.57208 12.9387 4.60819 12.8424L4.08258 13.8013C3.76561 14.4192 4.01036 15.1776 4.63227 15.4945C4.72856 15.5427 4.82887 15.5788 4.9372 15.6029C6.70262 16.0202 10.073 14.985 12.8214 16.0202C16.6532 17.4606 17.6603 20.9593 20.0717 20.7025C21.2834 20.546 22.138 19.4386 21.9815 18.2309C21.9454 17.9541 21.8571 17.6853 21.7247 17.4405L18.4988 11.5625C17.1266 9.05076 13.5236 9.59242 11.3128 10.5714C9.10199 11.5504 6.61836 13.6168 5.57917 13.9297Z"
        fill="url(#Alqo_d)"
    />
    <path
        fill-rule="evenodd"
        clip-rule="evenodd"
        d="M4.37935 13.2598L4.08244 13.8014C3.76547 14.4193 4.01022 15.1777 4.62812 15.4946C4.72441 15.5428 4.82873 15.5829 4.93305 15.603C6.69847 16.0202 10.0688 14.9851 12.8173 16.0202C15.3691 16.9792 16.649 18.877 18.1496 20.0446C18.3663 20.2452 18.6512 20.3536 18.9481 20.3536C19.586 20.3536 20.1036 19.836 20.1036 19.198C20.1036 18.7727 19.7947 18.3233 19.59 17.9542C15.2808 10.1703 10.7068 12.9629 5.51484 14.6922C5.43058 14.7203 5.3383 14.7323 5.25003 14.7283C4.70034 14.7243 4.25898 14.2789 4.25898 13.7332C4.263 13.5687 4.30312 13.4042 4.37935 13.2598Z"
        fill="url(#Alqo_e)"
    />
    <defs>
        <linearGradient
            id="Alqo_a"
            x1="7.707"
            y1="8.80595"
            x2="16.6858"
            y2="12.5677"
            gradientUnits="userSpaceOnUse"
        >
            <stop stop-color="#5F6DED" />
            <stop offset="1" stop-color="#49B9D9" />
        </linearGradient>
        <linearGradient
            id="Alqo_b"
            x1="2.83495"
            y1="18.6911"
            x2="5.67611"
            y2="18.145"
            gradientUnits="userSpaceOnUse"
        >
            <stop stop-color="#5F6EED" />
            <stop offset="1" stop-color="#45C8D4" />
        </linearGradient>
        <linearGradient
            id="Alqo_c"
            x1="2.79849"
            y1="18.9065"
            x2="5.38291"
            y2="18.2895"
            gradientUnits="userSpaceOnUse"
        >
            <stop stop-color="#578BE5" />
            <stop offset="1" stop-color="#43CED3" />
        </linearGradient>
        <linearGradient
            id="Alqo_d"
            x1="6.14044"
            y1="12.0355"
            x2="21.1874"
            y2="16.2213"
            gradientUnits="userSpaceOnUse"
        >
            <stop stop-color="#5788E6" />
            <stop offset="1" stop-color="#3FDDCF" />
        </linearGradient>
        <linearGradient
            id="Alqo_e"
            x1="18.3536"
            y1="17.1833"
            x2="5.73357"
            y2="13.4826"
            gradientUnits="userSpaceOnUse"
        >
            <stop stop-color="#4452CF" />
            <stop offset="1" stop-color="#0BD3B9" />
        </linearGradient>
    </defs>
</svg>
