<svg width="24" height="24" viewBox="0 0 24 24" fill="none" xmlns="http://www.w3.org/2000/svg">
<path d="M20.7834 9.06641C22.4055 10.6885 22.4055 13.3114 20.7834 14.9163L14.9336 20.7834C13.3114 22.4055 10.6885 22.4055 9.08368 20.7834L3.21657 14.9336C1.59448 13.3114 1.59448 10.6885 3.21657 9.08367L9.06641 3.21657C10.6885 1.59448 13.3114 1.59448 14.9336 3.21657L20.7834 9.06641ZM16.4003 13.4668C17.2113 12.6557 17.2113 11.3443 16.4003 10.5332L13.4668 7.59965C12.6557 6.7886 11.3443 6.7886 10.5332 7.59965L7.59964 10.5332C6.78861 11.3443 6.78861 12.6557 7.59964 13.4668L10.5332 16.4003C11.3443 17.2113 12.6557 17.2113 13.4668 16.4003L16.4003 13.4668Z" fill="#004BEF"/>
</svg>
