<svg viewBox="0 0 24 24" fill="none" xmlns="http://www.w3.org/2000/svg">
    <path
        d="M7.13072 11.9247C7.10853 12.3112 7.24066 12.6906 7.49807 12.9797C7.75548 13.2687 8.11711 13.4438 8.50352 13.4664H8.58315C8.86772 13.466 9.14598 13.3824 9.38358 13.2258C9.62117 13.0692 9.80771 12.8464 9.92016 12.585C10.0326 12.3235 10.0661 12.0349 10.0164 11.7547C9.96667 11.4745 9.83602 11.215 9.64054 11.0082C9.44506 10.8014 9.1933 10.6563 8.91633 10.5909C8.63936 10.5255 8.34932 10.5427 8.08198 10.6403C7.81465 10.7378 7.58173 10.9115 7.41198 11.1399C7.24223 11.3683 7.14307 11.6414 7.12674 11.9255L7.13072 11.9247Z"
        fill="#0033AD"
    />
    <path
        d="M1.69686 11.5553C1.60395 11.5501 1.5116 11.5725 1.43145 11.6198C1.35131 11.6671 1.28698 11.737 1.2466 11.8209C1.20621 11.9047 1.19158 11.9986 1.20455 12.0908C1.21752 12.1829 1.25751 12.2691 1.31947 12.3385C1.38144 12.4079 1.46258 12.4574 1.55266 12.4807C1.64274 12.5041 1.73771 12.5001 1.82557 12.4695C1.91342 12.4388 1.99022 12.3828 2.04625 12.3086C2.10229 12.2343 2.13505 12.145 2.14039 12.0522C2.14404 11.9904 2.13546 11.9285 2.11512 11.87C2.09479 11.8116 2.0631 11.7577 2.02189 11.7115C1.98067 11.6654 1.93074 11.6278 1.87496 11.601C1.81918 11.5742 1.75865 11.5586 1.69686 11.5553Z"
        fill="#0033AD"
    />
    <path
        d="M7.03835 3.46738C7.12109 3.42489 7.18941 3.35888 7.23471 3.27764C7.28002 3.1964 7.30028 3.10358 7.29294 3.01086C7.2856 2.91814 7.251 2.82965 7.19348 2.75655C7.13597 2.68345 7.05812 2.629 6.96972 2.60005C6.88133 2.5711 6.78635 2.56895 6.69673 2.59387C6.60712 2.61878 6.52688 2.66965 6.46611 2.74007C6.40534 2.81049 6.36677 2.89732 6.35524 2.98961C6.34371 3.08191 6.35974 3.17555 6.40132 3.25876C6.42927 3.31445 6.46796 3.36406 6.51517 3.40473C6.56238 3.4454 6.61718 3.47632 6.67639 3.49571C6.73561 3.51511 6.79808 3.52259 6.8602 3.51773C6.92232 3.51286 6.98287 3.49575 7.03835 3.46738Z"
        fill="#0033AD"
    />
    <path
        d="M8.51705 6.04576C8.64555 5.98094 8.75195 5.87948 8.8228 5.7542C8.89364 5.62891 8.92575 5.48544 8.91506 5.34192C8.90438 5.19839 8.85138 5.06125 8.76276 4.94784C8.67415 4.83443 8.5539 4.74984 8.41722 4.70476C8.28054 4.65968 8.13356 4.65614 7.99487 4.69459C7.85617 4.73303 7.73199 4.81173 7.63801 4.92074C7.54404 5.02975 7.4845 5.16417 7.46691 5.30702C7.44933 5.44986 7.47449 5.59472 7.53921 5.72326C7.58222 5.80867 7.64163 5.88477 7.71405 5.9472C7.78648 6.00963 7.8705 6.05719 7.96131 6.08713C8.05212 6.11708 8.14794 6.12885 8.2433 6.12175C8.33866 6.11465 8.43168 6.08883 8.51705 6.04576Z"
        fill="#0033AD"
    />
    <path
        d="M3.54106 7.81909C3.64017 7.88427 3.75639 7.91859 3.87502 7.91769C3.99364 7.9168 4.10933 7.88074 4.20746 7.81408C4.30558 7.74742 4.38173 7.65315 4.42626 7.5432C4.47079 7.43325 4.48171 7.31256 4.45763 7.1964C4.43355 7.08024 4.37556 6.97384 4.29099 6.89065C4.20642 6.80746 4.09908 6.75123 3.98254 6.72906C3.866 6.7069 3.74551 6.7198 3.63631 6.76613C3.5271 6.81247 3.4341 6.89015 3.36906 6.98936C3.28195 7.12223 3.25114 7.28424 3.28339 7.43981C3.31563 7.59538 3.40831 7.7318 3.54106 7.81909Z"
        fill="#0033AD"
    />
    <path
        d="M4.42732 11.2901C4.28364 11.282 4.14077 11.3167 4.01679 11.3897C3.89281 11.4628 3.79327 11.571 3.73076 11.7006C3.66825 11.8303 3.64557 11.9755 3.66559 12.118C3.68562 12.2605 3.74744 12.3939 3.84325 12.5013C3.93906 12.6087 4.06456 12.6853 4.20388 12.7213C4.3432 12.7574 4.49009 12.7514 4.62597 12.704C4.76186 12.6566 4.88065 12.57 4.96732 12.4551C5.054 12.3402 5.10467 12.2022 5.11293 12.0585C5.1238 11.8657 5.05769 11.6765 4.92914 11.5324C4.80059 11.3884 4.6201 11.3012 4.42732 11.2901Z"
        fill="#0033AD"
    />
    <path
        d="M3.62068 16.1833C3.51486 16.2368 3.42727 16.3204 3.36899 16.4237C3.3107 16.5269 3.28434 16.6451 3.29323 16.7634C3.30211 16.8816 3.34586 16.9946 3.41892 17.0879C3.49199 17.1813 3.5911 17.2509 3.70373 17.288C3.81635 17.3251 3.93744 17.3279 4.05168 17.2961C4.16592 17.2644 4.26818 17.1995 4.34554 17.1096C4.4229 17.0198 4.47188 16.909 4.4863 16.7913C4.50071 16.6736 4.47991 16.5543 4.42653 16.4485C4.39105 16.3781 4.34206 16.3154 4.28236 16.264C4.22265 16.2126 4.1534 16.1735 4.07856 16.1489C4.00372 16.1242 3.92476 16.1146 3.8462 16.1205C3.76763 16.1264 3.691 16.1478 3.62068 16.1833Z"
        fill="#0033AD"
    />
    <path
        d="M6.44989 9.78592C6.59162 9.8788 6.7577 9.92757 6.92715 9.92607C7.09659 9.92456 7.26178 9.87285 7.40184 9.77747C7.54189 9.68208 7.65052 9.54731 7.71398 9.39019C7.77744 9.23308 7.79289 9.06067 7.75838 8.89477C7.72386 8.72888 7.64093 8.57694 7.52007 8.45817C7.39921 8.3394 7.24584 8.25914 7.07937 8.22753C6.91289 8.19592 6.74078 8.21439 6.5848 8.28059C6.42882 8.34679 6.29596 8.45775 6.20304 8.59945C6.14123 8.69353 6.09857 8.79887 6.07752 8.90945C6.05647 9.02004 6.05744 9.13368 6.08037 9.24389C6.1033 9.3541 6.14774 9.4587 6.21115 9.55171C6.27456 9.64472 6.35569 9.72431 6.44989 9.78592Z"
        fill="#0033AD"
    />
    <path
        d="M15.4256 5.98843C15.5463 6.06714 15.6876 6.10831 15.8317 6.10673C15.9757 6.10516 16.1161 6.0609 16.235 5.97957C16.3539 5.89823 16.4461 5.78347 16.4998 5.64978C16.5535 5.51608 16.5664 5.36947 16.5368 5.22847C16.5072 5.08747 16.4364 4.95841 16.3335 4.85761C16.2305 4.75681 16.1 4.68878 15.9584 4.66214C15.8169 4.6355 15.6705 4.65143 15.538 4.70792C15.4055 4.76442 15.2927 4.85894 15.2138 4.97953C15.1613 5.05964 15.1252 5.14932 15.1074 5.24342C15.0897 5.33753 15.0906 5.43422 15.1103 5.52795C15.13 5.62167 15.168 5.71059 15.2221 5.78961C15.2762 5.86863 15.3454 5.93619 15.4256 5.98843Z"
        fill="#0033AD"
    />
    <path
        d="M16.9195 3.41801C16.9975 3.46914 17.0889 3.49598 17.1821 3.49514C17.2754 3.49431 17.3663 3.46582 17.4434 3.4133C17.5204 3.36078 17.5802 3.28658 17.6151 3.20009C17.65 3.1136 17.6584 3.01871 17.6394 2.92741C17.6203 2.83612 17.5746 2.75254 17.508 2.68723C17.4414 2.62192 17.357 2.57783 17.2653 2.56054C17.1737 2.54324 17.079 2.55352 16.9932 2.59006C16.9074 2.62661 16.8343 2.68779 16.7833 2.76585C16.715 2.87042 16.6909 2.99783 16.7165 3.12011C16.742 3.24239 16.815 3.34953 16.9195 3.41801Z"
        fill="#0033AD"
    />
    <path
        d="M15.5403 10.5376C15.3492 10.5266 15.1578 10.5534 14.9771 10.6164C14.7963 10.6794 14.6297 10.7774 14.4868 10.9047C14.1982 11.1619 14.0237 11.5233 14.0015 11.9092C13.9793 12.2952 14.1114 12.6741 14.3686 12.9627C14.6258 13.2513 14.9871 13.4259 15.3731 13.448C15.401 13.448 15.4296 13.448 15.4575 13.448C15.7386 13.4479 16.0138 13.3664 16.2496 13.2135C16.4855 13.0605 16.6721 12.8425 16.7869 12.5859C16.9018 12.3293 16.9399 12.0449 16.8967 11.7671C16.8535 11.4893 16.7309 11.2299 16.5436 11.0202C16.4168 10.8772 16.2628 10.7608 16.0905 10.678C15.9182 10.5951 15.7312 10.5474 15.5403 10.5376Z"
        fill="#0033AD"
    />
    <path
        d="M8.99562 9.68479C9.1166 9.92647 9.30263 10.1296 9.53279 10.2712C9.76295 10.4129 10.0281 10.4875 10.2983 10.4867C10.5475 10.4867 10.7925 10.4229 11.01 10.3013C11.2275 10.1798 11.4103 10.0045 11.5407 9.79221C11.6712 9.57995 11.7451 9.33778 11.7554 9.08882C11.7657 8.83987 11.712 8.59243 11.5995 8.37012C11.4777 8.12954 11.2913 7.92763 11.0612 7.78699C10.8311 7.64635 10.5664 7.57255 10.2968 7.57384C10.0484 7.57426 9.80418 7.63814 9.58739 7.75942C9.37061 7.8807 9.18841 8.05535 9.05807 8.26681C8.92773 8.47827 8.85358 8.71953 8.84265 8.96769C8.83172 9.21585 8.88438 9.46269 8.99562 9.68479Z"
        fill="#0033AD"
    />
    <path
        d="M20.4223 7.8175C20.5282 7.76409 20.6158 7.6805 20.6742 7.5773C20.7325 7.4741 20.759 7.35592 20.7502 7.23769C20.7414 7.11947 20.6977 7.0065 20.6247 6.91308C20.5517 6.81965 20.4527 6.74996 20.3401 6.7128C20.2275 6.67565 20.1065 6.6727 19.9922 6.70433C19.878 6.73596 19.7757 6.80075 19.6982 6.89051C19.6208 6.98027 19.5717 7.09098 19.5571 7.20864C19.5426 7.32629 19.5632 7.44562 19.6165 7.55154C19.6882 7.6936 19.8133 7.80141 19.9644 7.85128C20.1155 7.90115 20.2802 7.889 20.4223 7.8175Z"
        fill="#0033AD"
    />
    <path
        d="M16.7268 8.28174C16.5754 8.35796 16.4501 8.47736 16.3666 8.62482C16.2831 8.77228 16.2452 8.94119 16.2577 9.11019C16.2702 9.27919 16.3326 9.44068 16.4368 9.57425C16.5411 9.70782 16.6827 9.80747 16.8436 9.86059C17.0045 9.91371 17.1776 9.91792 17.3409 9.87268C17.5042 9.82745 17.6504 9.7348 17.7611 9.60646C17.8717 9.47812 17.9419 9.31985 17.9626 9.15166C17.9833 8.98347 17.9536 8.81291 17.8774 8.66156C17.8269 8.561 17.757 8.47139 17.6718 8.39785C17.5866 8.32432 17.4877 8.26831 17.3809 8.23303C17.274 8.19775 17.1612 8.18389 17.049 8.19225C16.9367 8.20061 16.8272 8.23102 16.7268 8.28174Z"
        fill="#0033AD"
    />
    <path
        d="M11.9666 3.19824C12.085 3.20498 12.2027 3.17645 12.305 3.11626C12.4072 3.05607 12.4892 2.96692 12.5407 2.86008C12.5923 2.75325 12.6109 2.63353 12.5944 2.51608C12.5779 2.39862 12.5269 2.28871 12.4479 2.20024C12.3689 2.11176 12.2654 2.04871 12.1506 2.01905C12.0358 1.98939 11.9147 1.99446 11.8027 2.03361C11.6908 2.07276 11.5929 2.14424 11.5216 2.23901C11.4503 2.33377 11.4087 2.44756 11.402 2.56599C11.3931 2.72468 11.4476 2.88042 11.5534 2.99897C11.6593 3.11753 11.8079 3.1892 11.9666 3.19824Z"
        fill="#0033AD"
    />
    <path
        d="M11.9602 6.97184C12.1293 6.98133 12.2975 6.94045 12.4434 6.85439C12.5893 6.76833 12.7065 6.64094 12.78 6.48832C12.8536 6.33571 12.8802 6.16472 12.8566 5.99696C12.833 5.8292 12.7602 5.67221 12.6474 5.54583C12.5346 5.41944 12.3868 5.32933 12.2228 5.2869C12.0588 5.24446 11.8859 5.25159 11.7259 5.3074C11.566 5.3632 11.4261 5.46517 11.3241 5.60042C11.2221 5.73567 11.1625 5.89813 11.1528 6.06726C11.1399 6.29427 11.2178 6.51709 11.3692 6.68672C11.5206 6.85635 11.7332 6.9589 11.9602 6.97184Z"
        fill="#0033AD"
    />
    <path
        d="M7.31785 15.7183C7.46918 15.642 7.59448 15.5225 7.67791 15.375C7.76134 15.2275 7.79915 15.0585 7.78656 14.8895C7.77397 14.7205 7.71153 14.559 7.60716 14.4255C7.50279 14.292 7.36116 14.1924 7.20019 14.1394C7.03923 14.0864 6.86615 14.0823 6.70286 14.1276C6.53956 14.173 6.39338 14.2657 6.28281 14.3942C6.17224 14.5226 6.10223 14.6809 6.08166 14.8492C6.06108 15.0174 6.09085 15.1879 6.16721 15.3392C6.26957 15.542 6.44828 15.6959 6.66405 15.767C6.87982 15.8381 7.11499 15.8205 7.31785 15.7183Z"
        fill="#0033AD"
    />
    <path
        d="M12.5136 8.22201C12.3359 8.4932 12.2537 8.81591 12.2801 9.13906C12.3064 9.46221 12.4398 9.76735 12.659 10.0062C12.8783 10.245 13.171 10.4039 13.4907 10.4577C13.8104 10.5115 14.139 10.4571 14.4243 10.3032C14.7097 10.1492 14.9355 9.90454 15.0662 9.60779C15.1968 9.31105 15.2247 8.97921 15.1455 8.66481C15.0664 8.3504 14.8846 8.07138 14.629 7.87191C14.3734 7.67243 14.0586 7.5639 13.7343 7.56348C13.4922 7.56332 13.2538 7.62343 13.0407 7.73839C12.8276 7.85336 12.6465 8.01956 12.5136 8.22201Z"
        fill="#0033AD"
    />
    <path
        d="M15.0474 14.316C14.9307 14.0845 14.7542 13.8883 14.5364 13.7477C14.3185 13.6071 14.0671 13.5272 13.808 13.5162C13.549 13.5053 13.2917 13.5636 13.0627 13.6852C12.8337 13.8068 12.6413 13.9874 12.5054 14.2082C12.3695 14.429 12.2949 14.682 12.2894 14.9412C12.2839 15.2005 12.3477 15.4565 12.4741 15.6828C12.6006 15.9092 12.7851 16.0977 13.0088 16.2289C13.2324 16.3602 13.487 16.4293 13.7463 16.4293C13.9744 16.4278 14.199 16.3733 14.4024 16.2701C14.7465 16.0959 15.0076 15.7925 15.1285 15.4262C15.2494 15.06 15.2202 14.6608 15.0474 14.316Z"
        fill="#0033AD"
    />
    <path
        d="M17.5939 14.2141C17.4523 14.1211 17.2862 14.0722 17.1168 14.0736C16.9473 14.0749 16.7821 14.1265 16.6419 14.2218C16.5018 14.3171 16.3931 14.4518 16.3295 14.6089C16.2659 14.766 16.2504 14.9384 16.2848 15.1043C16.3192 15.2702 16.402 15.4222 16.5228 15.5411C16.6436 15.6599 16.7969 15.7403 16.9634 15.772C17.1299 15.8037 17.302 15.7853 17.458 15.7192C17.6141 15.6531 17.747 15.5422 17.84 15.4005C17.9643 15.2105 18.0082 14.9789 17.962 14.7565C17.9159 14.5341 17.7836 14.3391 17.5939 14.2141Z"
        fill="#0033AD"
    />
    <path
        d="M20.3841 12.0251C20.3922 11.8814 20.3576 11.7385 20.2845 11.6145C20.2114 11.4906 20.1032 11.391 19.9736 11.3285C19.844 11.266 19.6987 11.2433 19.5562 11.2633C19.4137 11.2834 19.2803 11.3452 19.1729 11.441C19.0655 11.5368 18.989 11.6623 18.9529 11.8016C18.9168 11.941 18.9229 12.0878 18.9703 12.2237C19.0176 12.3596 19.1043 12.4784 19.2191 12.5651C19.334 12.6518 19.472 12.7024 19.6157 12.7107C19.8085 12.7216 19.9977 12.6555 20.1418 12.5269C20.2859 12.3983 20.373 12.2179 20.3841 12.0251Z"
        fill="#0033AD"
    />
    <path
        d="M22.4003 11.5067C22.3072 11.5013 22.2147 11.5237 22.1343 11.571C22.0539 11.6182 21.9894 11.6883 21.9488 11.7722C21.9082 11.8561 21.8935 11.9502 21.9064 12.0426C21.9193 12.1349 21.9593 12.2214 22.0213 12.291C22.0833 12.3606 22.1646 12.4102 22.2549 12.4336C22.3451 12.457 22.4403 12.4532 22.5283 12.4225C22.6164 12.3918 22.6933 12.3357 22.7495 12.2613C22.8057 12.1869 22.8385 12.0975 22.8439 12.0044C22.8508 11.8796 22.808 11.7572 22.7249 11.6639C22.6418 11.5706 22.5251 11.5141 22.4003 11.5067Z"
        fill="#0033AD"
    />
    <path
        d="M20.502 16.1809C20.4028 16.1159 20.2866 16.0818 20.168 16.0829C20.0494 16.084 19.9338 16.1202 19.8359 16.187C19.7379 16.2537 19.6619 16.348 19.6175 16.458C19.5731 16.5679 19.5623 16.6885 19.5864 16.8046C19.6106 16.9207 19.6686 17.027 19.7532 17.1101C19.8377 17.1933 19.945 17.2494 20.0615 17.2716C20.178 17.2937 20.2984 17.2808 20.4076 17.2345C20.5167 17.1882 20.6097 17.1106 20.6748 17.0114C20.718 16.9456 20.7478 16.8718 20.7625 16.7944C20.7772 16.717 20.7765 16.6375 20.7605 16.5604C20.7444 16.4832 20.7133 16.41 20.669 16.3449C20.6246 16.2798 20.5679 16.2241 20.502 16.1809Z"
        fill="#0033AD"
    />
    <path
        d="M7.12435 20.582C7.04641 20.5308 6.95505 20.504 6.86183 20.5047C6.76861 20.5055 6.67771 20.5339 6.60062 20.5863C6.52354 20.6387 6.46373 20.7128 6.42876 20.7993C6.39378 20.8857 6.38522 20.9805 6.40414 21.0718C6.42307 21.1631 6.46863 21.2467 6.53508 21.3121C6.60152 21.3775 6.68586 21.4217 6.77744 21.4392C6.86901 21.4566 6.9637 21.4465 7.04955 21.4102C7.13539 21.3738 7.20853 21.3129 7.25972 21.2349C7.29372 21.1832 7.31719 21.1252 7.32879 21.0644C7.34039 21.0036 7.33989 20.9411 7.32731 20.8804C7.31474 20.8198 7.29035 20.7622 7.25552 20.711C7.2207 20.6598 7.17612 20.616 7.12435 20.582Z"
        fill="#0033AD"
    />
    <path
        d="M17.0047 20.5326C16.9214 20.5746 16.8525 20.6403 16.8066 20.7215C16.7606 20.8026 16.7398 20.8956 16.7467 20.9885C16.7537 21.0815 16.788 21.1704 16.8454 21.2438C16.9028 21.3173 16.9807 21.3721 17.0693 21.4013C17.1579 21.4305 17.2531 21.4327 17.3429 21.4078C17.4328 21.3829 17.5132 21.3318 17.5741 21.2612C17.6349 21.1905 17.6734 21.1034 17.6848 21.0109C17.6961 20.9183 17.6797 20.8245 17.6377 20.7412C17.6099 20.6859 17.5715 20.6366 17.5246 20.5962C17.4777 20.5557 17.4233 20.5249 17.3645 20.5055C17.3057 20.4862 17.2436 20.4786 17.1819 20.4832C17.1201 20.4879 17.0599 20.5047 17.0047 20.5326Z"
        fill="#0033AD"
    />
    <path
        d="M11.5294 15.7756C11.7071 15.5044 11.7893 15.1816 11.763 14.8584C11.7366 14.5353 11.6032 14.2301 11.3839 13.9913C11.1645 13.7524 10.8718 13.5936 10.552 13.5399C10.2323 13.4861 9.9037 13.5406 9.61836 13.6946C9.33302 13.8486 9.10721 14.0934 8.97667 14.3903C8.84613 14.6871 8.81832 15.019 8.89764 15.3334C8.97696 15.6478 9.15888 15.9268 9.4146 16.1261C9.67032 16.3255 9.98524 16.4339 10.3095 16.4341C10.5517 16.4349 10.7902 16.3751 11.0032 16.2601C11.2163 16.1451 11.3972 15.9785 11.5294 15.7756Z"
        fill="#0033AD"
    />
    <path
        d="M8.61739 18.0124C8.49695 17.9336 8.35586 17.8923 8.21195 17.8936C8.06805 17.895 7.92778 17.939 7.80888 18.0201C7.68998 18.1012 7.59779 18.2157 7.54396 18.3492C7.49014 18.4827 7.47709 18.6291 7.50647 18.77C7.53585 18.9109 7.60633 19.0399 7.70902 19.1407C7.81171 19.2416 7.94198 19.3097 8.08338 19.3365C8.22478 19.3633 8.37095 19.3476 8.50341 19.2913C8.63588 19.2351 8.7487 19.1408 8.82761 19.0205C8.9333 18.8589 8.97052 18.6619 8.9311 18.4729C8.89169 18.2839 8.77885 18.1182 8.61739 18.0124Z"
        fill="#0033AD"
    />
    <path
        d="M12.0151 20.8018C11.8968 20.795 11.779 20.8235 11.6769 20.8837C11.5747 20.9439 11.4926 21.033 11.4411 21.1398C11.3896 21.2466 11.3708 21.3662 11.3873 21.4837C11.4038 21.6011 11.4547 21.711 11.5336 21.7995C11.6125 21.888 11.7159 21.9511 11.8307 21.9808C11.9455 22.0106 12.0665 22.0056 12.1785 21.9666C12.2904 21.9276 12.3883 21.8562 12.4597 21.7615C12.5312 21.6669 12.5729 21.5532 12.5797 21.4348C12.5842 21.3562 12.5732 21.2774 12.5473 21.203C12.5214 21.1286 12.481 21.0601 12.4286 21.0013C12.3762 20.9425 12.3127 20.8946 12.2417 20.8604C12.1708 20.8262 12.0938 20.8062 12.0151 20.8018Z"
        fill="#0033AD"
    />
    <path
        d="M12.0215 17.029C11.8522 17.0187 11.6837 17.0588 11.5372 17.1444C11.3908 17.23 11.2731 17.3571 11.1989 17.5096C11.1248 17.6622 11.0976 17.8333 11.1208 18.0013C11.144 18.1693 11.2165 18.3267 11.3292 18.4534C11.4419 18.5802 11.5896 18.6707 11.7538 18.7134C11.9179 18.7561 12.0911 18.7491 12.2512 18.6934C12.4114 18.6376 12.5514 18.5355 12.6536 18.4001C12.7557 18.2647 12.8154 18.1021 12.825 17.9327C12.838 17.7064 12.7608 17.4841 12.6101 17.3147C12.4595 17.1453 12.2478 17.0425 12.0215 17.029Z"
        fill="#0033AD"
    />
    <path
        d="M15.526 17.9542C15.3974 18.0195 15.2911 18.1214 15.2204 18.2471C15.1498 18.3728 15.1181 18.5166 15.1292 18.6604C15.1404 18.8041 15.1939 18.9413 15.2831 19.0546C15.3723 19.1679 15.4931 19.2522 15.6302 19.2968C15.7673 19.3414 15.9145 19.3444 16.0533 19.3053C16.1921 19.2662 16.3161 19.1868 16.4097 19.0771C16.5034 18.9675 16.5624 18.8325 16.5792 18.6893C16.5961 18.5461 16.5702 18.4012 16.5046 18.2728C16.4613 18.1875 16.4017 18.1116 16.3291 18.0495C16.2564 17.9873 16.1723 17.9401 16.0814 17.9105C15.9905 17.8809 15.8946 17.8696 15.7993 17.8771C15.704 17.8846 15.6111 17.9108 15.526 17.9542Z"
        fill="#0033AD"
    />
</svg>
