<svg viewBox="0 0 24 24" fill="none" xmlns="http://www.w3.org/2000/svg">
    <path
        d="M14.6997 3.69998H7.41957L6.81581 7.07324L13.3871 7.08103C16.624 7.08103 17.5783 8.25739 17.5511 10.205C17.5355 11.2022 17.1031 12.8927 16.9161 13.4419C16.4175 14.9026 15.3931 16.5659 11.5524 16.562L5.16423 16.5581L4.56047 19.9353H11.8251C14.3881 19.9353 15.4749 19.6353 16.6318 19.1056C19.1909 17.9175 20.714 15.3934 21.3255 12.0981C22.2331 7.1901 21.1035 3.69998 14.6997 3.69998Z"
        fill="#008DE4"
    />
    <path
        d="M4.27611 10.1232C2.36746 10.1232 2.09479 11.3658 1.91561 12.1176C1.678 13.0991 1.6001 13.5004 1.6001 13.5004H9.05555C10.9642 13.5004 11.2369 12.2578 11.4161 11.506C11.6537 10.5244 11.7316 10.1232 11.7316 10.1232H4.27611Z"
        fill="#008DE4"
    />
</svg>
