<svg viewBox="0 0 24 24" fill="none" xmlns="http://www.w3.org/2000/svg">
    <path
        d="M20.1275 6.17761L18.4911 8.71437C18.9918 9.69976 19.2767 10.8195 19.2767 12.0004C19.2767 16.0193 16.016 19.2808 11.9982 19.2808C10.8176 19.2808 9.70225 18.9999 8.71712 18.499L6.18509 20.1359C7.82562 21.3086 9.82844 22.0049 12.0022 22.0049C17.5263 22.0049 22.0001 17.5259 22.0001 12.0044C21.996 9.83006 21.304 7.81857 20.1275 6.17761Z"
        fill="url(#Horizen_a)"
    />
    <path
        d="M11.9978 17.0089C14.4606 17.0089 16.5082 15.2376 16.9357 12.9004C16.1581 12.7334 15.3481 12.6439 14.5176 12.6439C12.0222 12.6439 9.71409 13.4419 7.82932 14.7938C8.73303 16.1294 10.2636 17.0089 11.9978 17.0089Z"
        fill="url(#Horizen_b)"
    />
    <path
        d="M14.4729 11.7317C15.3481 11.7317 16.1989 11.8254 17.0212 12.0045C17.0212 9.22753 14.7741 6.97987 11.9979 6.97987C9.2216 6.97987 6.97453 9.22753 6.97453 12.0045C6.97453 12.2326 6.99081 12.4565 7.0193 12.6764C5.75329 13.6373 5.15489 14.3988 5.13453 14.4232C4.86586 13.6658 4.71931 12.8515 4.71931 12.0045C4.71931 7.98562 7.98001 4.72407 11.9979 4.72407C13.1743 4.72407 14.2856 5.00502 15.2708 5.50179L17.8069 3.86083C16.1663 2.68814 14.1635 2 11.9979 2C6.47382 2 2.00003 6.47903 2.00003 12.0005C2.00003 14.2237 2.7287 16.2759 3.95401 17.9372C4.42622 17.0821 5.00427 16.2881 5.66373 15.5755C5.66373 15.5755 6.64886 14.5454 7.40603 14.0282C9.3885 12.5827 11.831 11.7317 14.4729 11.7317Z"
        fill="black"
    />
    <defs>
        <radialGradient
            id="Horizen_a"
            cx="0"
            cy="0"
            r="1"
            gradientUnits="userSpaceOnUse"
            gradientTransform="translate(20.1282 6.16784) scale(16.8241 16.8285)"
        >
            <stop offset="0.0986" stop-color="#26DB8D" />
            <stop offset="0.2628" stop-color="#23D29A" />
            <stop offset="0.5637" stop-color="#1ABBBB" />
            <stop offset="0.886" stop-color="#0E9DE5" />
        </radialGradient>
        <radialGradient
            id="Horizen_b"
            cx="0"
            cy="0"
            r="1"
            gradientUnits="userSpaceOnUse"
            gradientTransform="translate(20.1279 6.168) scale(16.8241 16.8285)"
        >
            <stop offset="0.0986" stop-color="#26DB8D" />
            <stop offset="0.2628" stop-color="#23D29A" />
            <stop offset="0.5637" stop-color="#1ABBBB" />
            <stop offset="0.886" stop-color="#0E9DE5" />
        </radialGradient>
    </defs>
</svg>
