<svg viewBox="0 0 24 24" fill="none" xmlns="http://www.w3.org/2000/svg">
    <path
        d="M6.45945 13.2722L6.98767 9.29395L2.39857 6.10803L6.59151 7.52781L7.58155 6.00917L11.1968 3.76424L19.1696 8.15488L19.5823 14.8569L16.0327 19.7923L13.2267 20.2217L14.6793 17.564V15.0055L13.6229 13.0081L12.5498 12.2984L10.8991 13.9985V15.7979L9.6118 17.0026L7.97733 17.2007L7.25103 17.6134L6.06253 17.2339L5.56752 15.4511L6.45908 14.1966V13.2722H6.45945Z"
        fill="white"
    />
    <path
        d="M13.7881 6.07519C12.9136 5.89371 11.956 5.94313 11.956 5.94313C11.956 5.94313 11.6424 7.39574 9.69444 7.7753C9.71104 7.7753 12.2695 8.65026 13.7881 6.07519ZM14.5805 19.2475C15.6369 18.4223 16.4292 17.2833 16.7926 15.9959C16.8092 15.9465 16.9575 15.8639 17.0567 15.7978C17.2216 15.6986 17.3868 15.6164 17.4197 15.4843C17.4861 15.0971 17.5193 14.7049 17.5189 14.312C17.5189 14.1638 17.3702 14.0151 17.2216 13.8664C17.1061 13.7676 16.9907 13.6518 16.9907 13.5691C16.8254 12.0675 16.1323 10.6639 15.0264 9.64068L14.9106 9.75613C15.9837 10.7631 16.6771 12.1331 16.8254 13.5857C16.842 13.7178 16.9741 13.8498 17.1061 13.9819C17.2216 14.0811 17.3536 14.2298 17.3536 14.2958C17.3536 14.6754 17.3208 15.0549 17.2548 15.4345C17.2382 15.5005 17.0895 15.5666 16.9741 15.6326C16.8092 15.7152 16.6605 15.7978 16.6273 15.9299C16.2312 17.3327 15.3234 18.5544 14.1183 19.3467C14.3333 18.8845 15.0098 17.3825 15.3728 16.623L15.3068 14.18L13.2105 12.1497L12.022 12.315L10.7181 14.4279C10.7181 14.4279 11.3289 15.2036 10.4705 16.1114C9.62841 17.0026 8.96813 17.2006 8.96813 17.2006L8.35766 16.8705C8.53877 16.6396 8.90211 16.2932 9.18282 16.0619C9.66161 15.6658 10.1404 15.6326 10.1404 15.2036C10.1566 14.312 9.19942 14.5599 9.19942 14.5599L8.85268 14.8897L8.70402 16.1114L7.97772 17.0192L7.89547 17.0026L6.70697 16.7385C6.70697 16.7385 7.43328 16.3589 7.54835 15.9299C7.66418 15.5171 7.31745 14.1472 7.30122 14.0645C7.31745 14.0811 7.64758 14.3618 7.79624 14.824C8.06035 14.0977 8.40709 13.4042 8.50594 13.3382C8.60517 13.2722 9.94232 12.5625 9.94232 12.5625L9.49636 13.7344L9.82649 13.5529L10.6188 11.6049C10.6188 11.6049 11.3949 11.2253 11.9726 11.2253C13.0124 11.2087 14.5477 9.93761 13.8542 7.65985C14.0523 7.74248 17.4857 9.4592 18.0799 12.8266C18.5259 15.4179 17.0567 17.8447 14.5805 19.2479V19.2475Z"
        fill="#94A6C3"
    />
    <path
        d="M10.652 6.43815C11.0316 5.99294 10.8829 5.33266 10.8829 5.33266L9.77743 6.96637C9.76083 6.96637 10.1736 6.98298 10.652 6.43815ZM6.93787 15.3689L7.06992 14.7086C7.06992 14.7086 6.5251 15.6658 6.47567 15.7978C6.42625 15.9465 6.50888 16.2102 6.72318 16.194C6.93825 16.1774 7.20236 15.8639 7.20236 15.6326C7.20236 15.3356 6.93824 15.3685 6.93824 15.3685L6.93787 15.3689Z"
        fill="#1B314F"
    />
    <path
        d="M16.7431 4.87011C16.7431 4.87011 17.5682 4.90331 18.4266 5.00216C16.4952 3.4839 14.663 3.03793 13.1776 3.03793C11.1307 3.03793 9.74417 3.87969 9.66116 3.92912L10.3052 2.90588C10.3052 2.90588 7.73014 2.65837 6.82236 5.38172C6.59107 4.80445 6.37676 3.96232 6.37676 3.96232C6.37676 3.96232 5.03961 5.13422 5.66669 7.08222C4.13183 6.52079 1.93669 5.74506 1.85369 5.72846C1.73823 5.71186 1.70503 5.76167 1.70503 5.76167C1.70503 5.76167 1.67221 5.81071 1.77106 5.89372C1.95292 6.042 5.41955 8.60085 6.17868 9.09587C6.01342 9.69012 6.01342 9.97083 6.17868 10.2515C6.40959 10.6311 6.42619 10.8288 6.39299 11.1099C6.36016 11.3902 6.06285 13.817 5.99682 14.114C5.9308 14.4113 5.23769 15.4677 5.27052 15.7813C5.30372 16.0948 5.73271 17.4319 6.11265 17.5806C6.39299 17.6795 7.08609 17.8938 7.54866 17.8938C7.71354 17.8938 7.8622 17.8609 7.92822 17.7949C8.20893 17.5474 8.29156 17.498 8.48965 17.498H8.5387C8.6217 17.498 8.72055 17.5146 8.83601 17.5146C9.10012 17.5146 9.44723 17.4648 9.69437 17.2339C10.0577 16.8705 10.6848 16.3755 10.8829 16.1442C11.012 15.9804 11.1065 15.7921 11.1605 15.5906C11.2144 15.3891 11.2268 15.1787 11.1968 14.9723C11.147 14.5762 11.3617 14.2294 11.6092 13.8831C11.9048 13.4967 12.202 13.1114 12.5007 12.7274C13.6398 13.5857 14.3495 14.8897 14.3495 16.3423C14.3495 18.9174 12.1046 20.9974 9.3314 20.9974C8.9088 20.998 8.48765 20.948 8.07688 20.8488C9.348 21.2944 10.4207 21.443 11.2956 21.443C13.161 21.443 14.1514 20.7661 14.1514 20.7661C14.1514 20.7661 13.8047 21.2121 13.2436 21.7237H13.2599C16.3469 21.2944 17.849 18.7525 17.849 18.7525C17.849 18.7525 17.7335 19.5776 17.5848 20.1391C21.6952 17.0524 21.0017 13.1896 20.9851 13.0575C21.0183 13.1069 21.431 13.6023 21.6454 13.8665C22.3056 7.06562 16.7431 4.87011 16.7431 4.87011ZM10.4207 15.7318C10.3546 15.8141 10.0743 16.062 9.87622 16.2434C9.67814 16.4249 9.46346 16.6064 9.2982 16.7717C9.23217 16.8377 9.10012 16.8705 8.90204 16.8705H8.40739C8.6549 16.5404 9.38121 15.7813 9.62872 15.616C9.92603 15.4179 10.0747 15.2198 9.89283 14.8735C9.71172 14.5264 9.23255 14.6094 9.23255 14.6094C9.23255 14.6094 9.51326 14.4935 9.76077 14.4935C9.44761 14.4113 9.05145 14.4935 8.86959 14.6754C8.67151 14.8565 8.70433 15.5005 8.62208 15.9129C8.53907 16.3423 8.25874 16.557 7.82975 16.9531C7.59846 17.1678 7.43358 17.2339 7.30153 17.2339C7.01575 17.1839 6.73422 17.1121 6.45939 17.0192C6.29451 16.8045 6.047 16.0948 5.98098 15.7979C6.03003 15.6326 6.22849 15.2859 6.32734 15.0878C6.52542 14.7082 6.64125 14.4935 6.67445 14.2954C6.7401 14.0151 6.95479 12.2818 7.03742 11.5555C7.25172 11.8362 7.54904 12.2984 7.48263 12.5953C7.9618 11.9185 7.61469 11.2582 7.44981 10.9941C7.30153 10.73 7.10345 10.2017 7.2687 9.64069C7.43358 9.07927 8.02783 7.52781 8.02783 7.52781C8.02783 7.52781 8.22591 7.87455 8.50625 7.80852C8.78696 7.74249 11.0485 4.34188 11.0485 4.34188C11.0485 4.34188 11.6593 5.67904 11.0153 6.65285C10.355 7.62666 9.71134 7.80852 9.71134 7.80852C9.71134 7.80852 10.6191 7.9734 11.4613 7.36255C11.8076 8.17148 12.1378 9.01324 12.1544 9.12907C12.1049 9.24452 11.4447 10.8292 11.3786 10.928C11.3454 10.9612 11.1145 11.0273 10.9493 11.0601C10.6689 11.1431 10.5041 11.1921 10.4376 11.242C10.3222 11.3408 9.79397 12.7934 9.54646 13.5031C9.24915 13.5861 8.95222 13.751 8.73753 14.0811C8.85299 13.9981 9.21633 13.9491 9.48044 13.9159C9.71134 13.8993 10.421 14.2792 10.6029 14.9889V15.0217C10.6357 15.2859 10.5531 15.5337 10.421 15.7318H10.4207ZM8.86921 15.9299C9.01787 15.7148 9.00127 15.3519 9.01787 15.2364C9.03409 15.121 9.06692 14.9063 9.19897 14.8735C9.33103 14.8403 9.64494 14.8897 9.64494 15.121C9.64494 15.3357 9.41403 15.3851 9.24877 15.5337C9.13332 15.6492 8.90204 15.8967 8.86921 15.9299ZM15.4554 12.7768C15.6206 11.9354 15.6368 11.2087 15.5874 10.6149C16.2311 11.4729 16.6273 12.5127 16.7431 13.5857C16.7593 13.7178 16.8914 13.8499 17.0234 13.9819C17.1393 14.0811 17.2713 14.2132 17.2713 14.2954C17.2713 14.6754 17.2381 15.0549 17.1721 15.4349C17.1555 15.4839 17.0072 15.5669 16.8914 15.6326C16.7265 15.7152 16.5782 15.7979 16.545 15.9299C16.1796 17.1982 15.4156 18.3151 14.3661 19.1155C15.901 17.5146 16.6439 14.8735 15.4554 12.7768ZM14.4155 19.2641C15.4886 18.439 16.3137 17.2833 16.6771 15.9793C16.6933 15.9299 16.8419 15.8473 16.9412 15.7813C17.1061 15.6986 17.2713 15.5998 17.3041 15.4677C17.3706 15.0805 17.4038 14.6883 17.4034 14.2954C17.4034 14.1472 17.2547 13.9985 17.1061 13.8502C17.0234 13.751 16.8914 13.6352 16.8914 13.5529C16.7568 12.3527 16.2878 11.2145 15.538 10.2678C15.2079 8.28694 13.8873 7.67647 13.8541 7.65986C13.8873 7.70929 14.7457 8.94721 14.1514 10.3998C13.5406 11.869 11.9725 11.6381 11.8405 11.6543C11.7084 11.6543 11.1968 12.3146 10.5527 13.5363C10.4705 13.5031 10.1237 13.4209 9.72757 13.4869C10.0245 12.6614 10.4705 11.4895 10.5527 11.3902C10.5859 11.3574 10.8334 11.2914 10.9987 11.242C11.3119 11.1589 11.4609 11.1099 11.5103 11.0439C11.5431 10.9941 11.7084 10.6145 11.8733 10.2183C12.0219 10.2183 12.4015 10.1855 12.4347 10.1689C12.4675 10.1357 12.7814 9.32715 12.7814 9.22792C12.7814 9.14529 12.1374 7.54441 11.8899 6.93356C12.0053 6.80151 12.1212 6.63625 12.2366 6.45477C15.6206 6.81811 18.2617 9.69012 18.2617 13.173C18.2617 15.8473 16.6933 18.1748 14.4155 19.2641Z"
        fill="#1B314F"
    />
    <path
        d="M10.0245 10.3508C10.3384 9.98745 10.1731 9.31057 9.59547 9.19512C9.74413 8.848 9.95843 8.1549 9.95843 8.1549C9.95843 8.1549 8.27492 10.796 8.12626 10.8458C7.97761 10.8949 7.82933 10.3176 7.82933 10.3176C7.51541 11.5223 8.35755 11.6872 8.4564 11.308C8.91859 11.1922 9.71092 10.6968 10.0245 10.3504V10.3508Z"
        fill="#1B314F"
    />
    <path
        d="M8.58843 10.9945L9.44678 9.52526C9.44678 9.52526 9.94218 9.77277 9.69467 10.1689C9.38076 10.6311 8.58843 10.9945 8.58843 10.9945Z"
        fill="#FFD923"
    />
    <path
        d="M19.2023 17.7949C18.9547 18.1254 18.674 18.4718 18.3439 18.8023C20.4734 14.7086 18.4431 10.9613 18.3605 10.8126C18.5092 10.9613 18.6578 11.1265 18.7899 11.2748C20.4236 13.0908 20.622 15.8145 19.2023 17.7953V17.7949ZM21.1831 12.5293C20.4406 10.5323 19.3837 8.83178 17.0565 7.29693C14.8116 5.81112 12.4014 5.92657 12.2694 5.94317H12.2365C12.3168 5.9135 12.3997 5.89139 12.484 5.87714C12.9957 5.71226 13.6559 5.58021 14.3162 5.49758C16.0661 5.25007 17.8323 5.84432 19.0374 7.11507L19.0702 7.14827C20.4406 8.60088 21.1503 10.4164 21.1831 12.5293ZM16.5283 4.35851C14.0687 3.89632 12.484 4.1276 11.345 4.55659C11.3122 4.42454 11.1967 4.16043 11.0975 3.94574C10.7507 4.35851 10.3878 4.85391 10.1565 5.16744C9.52941 5.59643 9.2653 6.0092 9.2653 6.0092C9.62826 4.77128 10.6847 3.84689 11.9724 3.61561C12.3648 3.54715 12.7626 3.51407 13.1609 3.51675C14.3 3.53335 15.4387 3.81369 16.5283 4.35851ZM7.43313 7.52783C5.50135 7.46181 6.1454 5.21687 6.1786 5.08481C6.1786 5.10141 6.31066 6.85096 7.43313 7.52783ZM9.33132 3.48393C7.84552 4.37511 8.14283 6.5046 8.14283 6.5046C6.72305 4.34191 9.21587 3.53335 9.33132 3.48355V3.48393Z"
        fill="#D82122"
    />
    <path
        d="M6.88829 8.12203C6.98714 8.20466 7.08637 8.35294 6.97092 8.56763C6.90489 8.68308 6.80566 8.66686 6.657 8.60083C6.45892 8.5016 5.27042 7.8085 4.19776 7.09842C5.41908 7.52779 6.657 7.98998 6.85509 8.08883L6.88829 8.12203Z"
        fill="white"
    />
</svg>
