<svg viewBox="0 0 24 24" fill="none" xmlns="http://www.w3.org/2000/svg">
    <path
        d="M12 22C17.5228 22 22 17.5228 22 12C22 6.47715 17.5228 2 12 2C6.47715 2 2 6.47715 2 12C2 17.5228 6.47715 22 12 22Z"
        fill="white"
    />
    <path
        d="M20.3353 17.3583H16.3886V12L12 16.3302L7.61137 12V17.3583H3.66475H3.53846C5.30654 20.1308 8.43226 22 12 22C15.5677 22 18.6935 20.162 20.4615 17.3583H20.3353Z"
        fill="#4C4C4C"
    />
    <path
        d="M5.53312 15.0769V6.83753L12 13.2355L18.4669 6.83753V15.0769H21.4637C21.8107 14.0782 22 13.0171 22 11.8935C22 6.4318 17.5205 2 12 2C6.4795 2 2 6.4318 2 11.8935C2 13.0171 2.18927 14.0782 2.53628 15.0769H5.53312V15.0769Z"
        fill="#FF6B01"
    />
</svg>
