<svg viewBox="0 0 24 24" fill="none" xmlns="http://www.w3.org/2000/svg">
    <path
        d="M12.5671 3C10.7607 3.0071 9.03022 3.72786 7.75285 5.00523C6.47548 6.2826 5.75472 8.01305 5.74762 9.81952C5.74777 10.5723 5.86912 11.3201 6.10701 12.0343C6.19268 12.2683 6.36473 12.4607 6.58782 12.5718C6.8109 12.6829 7.06808 12.7044 7.3065 12.6318C7.5369 12.5436 7.72507 12.3709 7.83272 12.149C7.94037 11.927 7.95943 11.6723 7.88602 11.4368C7.68399 10.8804 7.59391 10.2895 7.62097 9.69822C7.64973 8.74477 7.95509 7.82024 8.49985 7.03721C9.04462 6.25418 9.80529 5.64642 10.6893 5.28794C11.5732 4.92946 12.5424 4.83572 13.4786 5.01813C14.4149 5.20054 15.278 5.65123 15.9627 6.31534C16.6475 6.97944 17.1244 7.8283 17.3353 8.75856C17.5463 9.68883 17.4823 10.6604 17.151 11.5549C16.8197 12.4494 16.2356 13.2283 15.4696 13.7968C14.7036 14.3653 13.7888 14.6988 12.8367 14.7567C12.8367 14.7567 11.8798 14.8151 11.4036 14.8735C11.2282 14.8989 11.0543 14.9333 10.8825 14.9768C10.8766 14.9828 10.8696 14.9876 10.8619 14.9908C10.8542 14.994 10.8459 14.9957 10.8376 14.9957C10.8292 14.9957 10.8209 14.994 10.8132 14.9908C10.8055 14.9876 10.7985 14.9828 10.7926 14.9768C10.7842 14.9659 10.7797 14.9525 10.7797 14.9386C10.7797 14.9248 10.7842 14.9114 10.7926 14.9005L10.9409 14.0918L11.8394 10.0486C11.8912 9.80617 11.8446 9.55305 11.7098 9.34495C11.575 9.13685 11.363 8.99083 11.1206 8.939C10.8781 8.88717 10.625 8.93378 10.4169 9.06858C10.2088 9.20338 10.0628 9.41533 10.0109 9.65779C10.0109 9.65779 7.87254 19.5546 7.87254 19.6445C7.84311 19.7601 7.83702 19.8805 7.85462 19.9986C7.87222 20.1166 7.91317 20.23 7.97507 20.332C8.03696 20.4341 8.11857 20.5227 8.21513 20.5929C8.31168 20.6631 8.42125 20.7133 8.53742 20.7406H8.58684C8.70311 20.7707 8.82423 20.7771 8.94304 20.7596C9.06184 20.742 9.17592 20.7008 9.27853 20.6384C9.38114 20.576 9.4702 20.4936 9.54044 20.3962C9.61068 20.2988 9.66068 20.1883 9.68749 20.0713C9.68578 20.0563 9.68578 20.0413 9.68749 20.0263C9.71444 19.9095 9.98399 18.5932 9.98399 18.5932C10.0837 18.108 10.3296 17.665 10.6886 17.3237C11.0476 16.9824 11.5025 16.7591 11.9921 16.684C12.1988 16.6525 13.0658 16.5941 13.0658 16.5941C14.7908 16.4221 16.3854 15.5992 17.525 14.293C18.6646 12.9867 19.2636 11.2952 19.2001 9.56289C19.1365 7.83054 18.4152 6.18751 17.1829 4.96825C15.9507 3.74899 14.3001 3.04515 12.5671 3V3Z"
        fill="#1E1E1E"
    />
    <path
        d="M12.9805 18.7226C12.8329 18.6919 12.6807 18.6909 12.5327 18.7196C12.3847 18.7482 12.2439 18.8061 12.1185 18.8897C11.9931 18.9733 11.8855 19.081 11.8021 19.2066C11.7187 19.3322 11.6612 19.4731 11.6327 19.6211C11.601 19.7666 11.5983 19.9168 11.6247 20.0633C11.6512 20.2098 11.7062 20.3496 11.7868 20.4748C11.8673 20.6 11.9717 20.7081 12.0941 20.7928C12.2164 20.8776 12.3543 20.9374 12.4998 20.9689H12.5312C12.6746 21.0035 12.8235 21.0093 12.9691 20.9859C13.1148 20.9625 13.2544 20.9105 13.3797 20.8327C13.5051 20.755 13.6138 20.6531 13.6995 20.5331C13.7852 20.413 13.8462 20.2771 13.879 20.1333V20.0704C13.9302 19.7734 13.8656 19.4681 13.6984 19.2174C13.5313 18.9666 13.2743 18.7895 12.9805 18.7226V18.7226Z"
        fill="#E6007A"
    />
</svg>
