<svg viewBox="0 0 24 24" fill="none" xmlns="http://www.w3.org/2000/svg">
    <path
        fill-rule="evenodd"
        clip-rule="evenodd"
        d="M20.6809 8.46918L20.0519 6.79455L20.4889 5.83255C20.5451 5.70872 20.518 5.56338 20.4209 5.46728L19.232 4.28781C18.7121 3.7724 17.9363 3.59521 17.2376 3.83289L16.9053 3.94588L15.1688 2H12.6143H10.9954H8.78391L7.06968 3.96944L6.74647 3.8579C6.04135 3.6146 5.25629 3.79369 4.73296 4.31722L3.52304 5.51879C3.4454 5.59572 3.42415 5.71122 3.46922 5.80985L3.92575 6.80832L3.29995 8.48213L3.70504 9.99121L5.54995 16.8697C5.76236 17.6628 6.25186 18.3573 6.93275 18.8329C6.93275 18.8329 9.17273 20.382 11.3831 21.7889C11.5775 21.9127 11.7808 22.0032 11.999 21.9999C12.2171 22.0028 12.4204 21.9127 12.6143 21.7883C15.097 20.1927 17.0611 18.8266 17.0611 18.8266C17.7414 18.3502 18.23 17.6549 18.4416 16.8615L20.2778 9.98038L20.6809 8.46918Z"
        fill="url(#Brave_a)"
    />
    <path
        fill-rule="evenodd"
        clip-rule="evenodd"
        d="M18.718 8.80128L18.6892 8.89094L18.6434 9.05172C18.5212 9.20101 18.2635 9.48752 18.0706 9.68876L16.297 11.5372C16.1041 11.7382 15.9952 11.9903 16.1053 12.2443L16.3445 12.8223C16.4544 13.0761 16.4653 13.4961 16.3598 13.778C16.2527 14.0649 16.0683 14.3185 15.8266 14.5118L15.6415 14.6597C15.4232 14.8342 15.0365 14.8801 14.782 14.7614L13.9651 14.3815C13.7108 14.2633 13.3313 14.0153 13.1217 13.8306L12.3489 13.1495C12.1981 13.0165 12.1896 12.7879 12.3299 12.6449L14.2121 11.3999C14.4455 11.2456 14.5691 10.9602 14.4364 10.7168L13.7672 9.52318C13.6346 9.27962 13.5815 8.95622 13.6492 8.80418C13.7172 8.65218 13.9881 8.44781 14.2517 8.35L16.4365 7.55426C16.7 7.45648 16.6859 7.35554 16.4054 7.32968L15.0094 7.22792C14.7287 7.20205 14.523 7.2421 14.2517 7.31631L13.1951 7.5726C12.9238 7.64686 12.8664 7.92983 12.9173 8.2009L13.3532 10.5181C13.4043 10.7894 13.4293 11.0626 13.4088 11.1253C13.3884 11.1881 13.1469 11.2892 12.8721 11.3503L12.5107 11.4306C12.236 11.4917 11.7858 11.4944 11.5105 11.4371L11.0733 11.3458C10.7977 11.2882 10.5556 11.1898 10.5349 11.1272C10.5145 11.0644 10.5391 10.7909 10.5901 10.5198L11.0232 8.20216C11.0741 7.93087 11.0163 7.64831 10.745 7.57428L9.68795 7.31925C9.41662 7.24523 9.21076 7.20603 8.93028 7.23186L7.53423 7.33489C7.25375 7.36094 7.23991 7.46188 7.50334 7.55928L9.68944 8.35271C9.95287 8.4503 10.2242 8.65426 10.2921 8.80626C10.3603 8.95808 10.3075 9.28151 10.1752 9.52507L9.50732 10.7191C9.37505 10.9627 9.49884 11.2481 9.73246 11.4022L11.6163 12.6453C11.7569 12.7881 11.7486 13.0169 11.598 13.1499L10.8258 13.832C10.6167 14.017 10.2374 14.2651 9.98313 14.384L9.16685 14.765C8.91257 14.8836 8.5256 14.8384 8.30731 14.6643L8.12226 14.5166C7.88011 14.3235 7.69524 14.0702 7.5792 13.7605C7.48209 13.5013 7.49233 13.0817 7.60179 12.8275L7.84055 12.2495C7.95023 11.9953 7.84092 11.7432 7.64775 11.5424L5.87211 9.69606C5.67917 9.49526 5.42105 9.20894 5.29879 9.06006L5.2526 8.89905L5.22383 8.80939C5.22108 8.70618 5.25878 8.37713 5.30158 8.28806C5.34438 8.19945 5.50837 7.93962 5.66614 7.7111L6.04607 7.16037C6.20388 6.93181 6.4767 6.56832 6.65218 6.35253L7.20905 5.66856C7.38454 5.45291 7.53427 5.27735 7.55683 5.2788C7.55791 5.27735 7.78513 5.31885 8.06178 5.37077L8.90531 5.52943C9.18196 5.58139 9.48711 5.63852 9.58359 5.65624C9.67987 5.67418 9.978 5.61913 10.2461 5.53405L10.8529 5.34155C11.1208 5.25628 11.5275 5.1441 11.7564 5.09196L11.9685 5.09509L12.1807 5.09174C12.4096 5.14347 12.8164 5.25524 13.0845 5.3401L13.6916 5.53196C13.9598 5.61682 14.2579 5.67146 14.3542 5.65352C14.437 5.63811 14.6735 5.59337 14.9139 5.54789L15.0322 5.52549L15.8756 5.36619C16.1522 5.31382 16.3794 5.27214 16.3956 5.27336C16.4031 5.27214 16.5528 5.44707 16.7287 5.6629L17.2864 6.34624C17.4624 6.56166 17.7354 6.92473 17.8936 7.15326L18.2741 7.70335C18.4322 7.93169 18.679 8.34732 18.6943 8.44178C18.7101 8.53624 18.7205 8.69803 18.718 8.80128ZM12.0836 14.3172C12.1083 14.3172 12.3417 14.4033 12.6019 14.509L12.8434 14.607C13.1037 14.7125 13.5224 14.901 13.7734 15.026L14.486 15.3804C14.7371 15.5052 14.7552 15.7387 14.526 15.8993L13.9183 16.3251C13.6891 16.4857 13.3288 16.7642 13.1178 16.9448C13.0599 16.9943 12.9921 17.0522 12.9198 17.114C12.7278 17.2781 12.5041 17.4693 12.3513 17.6C12.1409 17.78 11.7999 17.7808 11.5936 17.6023C11.387 17.4236 11.0452 17.131 10.8337 16.9523C10.6224 16.7734 10.2613 16.4969 10.0311 16.338L9.4254 15.9189C9.19517 15.7595 9.21158 15.525 9.4614 15.3976L10.1778 15.0322C10.4276 14.9046 10.8448 14.7136 11.105 14.6081L11.3465 14.5096C11.6065 14.4039 11.8398 14.3172 11.8647 14.3172H11.9741H12.0836Z"
        fill="url(#Brave_b)"
    />
    <defs>
        <linearGradient
            id="Brave_a"
            x1="3.29995"
            y1="22.1411"
            x2="20.681"
            y2="22.1411"
            gradientUnits="userSpaceOnUse"
        >
            <stop stop-color="#FF5500" />
            <stop offset="0.409877" stop-color="#FF5500" />
            <stop offset="0.49434" stop-color="#FF4530" />
            <stop offset="0.572365" stop-color="#FF2000" />
            <stop offset="1" stop-color="#FF2000" />
        </linearGradient>
        <linearGradient
            id="Brave_b"
            x1="11.971"
            y1="20.6922"
            x2="18.2821"
            y2="20.6922"
            gradientUnits="userSpaceOnUse"
        >
            <stop stop-color="white" />
            <stop offset="1" stop-color="#F4F4F4" />
        </linearGradient>
    </defs>
</svg>
