<svg viewBox="0 0 24 24" fill="none" xmlns="http://www.w3.org/2000/svg">
    <path
        d="M14.6997 3.69998H7.41954L6.81578 7.07324L13.387 7.08103C16.624 7.08103 17.5783 8.25739 17.551 10.205C17.5354 11.2022 17.1031 12.8927 16.9161 13.4419C16.4175 14.9026 15.3931 16.5659 11.5524 16.562L5.1642 16.5581L4.56044 19.9353H11.825C14.3881 19.9353 15.4749 19.6353 16.6318 19.1056C19.1909 17.9175 20.714 15.3934 21.3255 12.0981C22.2331 7.1901 21.1035 3.69998 14.6997 3.69998Z"
        fill="#008DE4"
    />
    <path
        d="M4.27609 10.1232C2.36743 10.1232 2.09477 11.3658 1.91559 12.1176C1.67798 13.0991 1.60007 13.5004 1.60007 13.5004H9.05552C10.9642 13.5004 11.2368 12.2578 11.416 11.506C11.6536 10.5244 11.7315 10.1232 11.7315 10.1232H4.27609Z"
        fill="#008DE4"
    />
</svg>
