<svg viewBox="0 0 24 24" fill="none" xmlns="http://www.w3.org/2000/svg">
    <path
        fill-rule="evenodd"
        clip-rule="evenodd"
        d="M5.66461 3.38857L2.01636 11.0502C2.00177 11.0779 1.99675 11.1097 2.00206 11.1406C2.00738 11.1715 2.02275 11.1998 2.04578 11.2211L11.894 20.6627C11.9223 20.6883 11.9591 20.7024 11.9973 20.7024C12.0354 20.7024 12.0722 20.6883 12.1005 20.6627L21.9546 11.2211C21.9774 11.1997 21.9926 11.1714 21.9979 11.1406C22.0032 11.1097 21.9983 11.078 21.984 11.0502L18.3358 3.38857C18.3261 3.36192 18.3082 3.33901 18.2848 3.3231C18.2613 3.3072 18.2334 3.29911 18.205 3.29999H5.79404C5.76608 3.30076 5.73891 3.3095 5.71575 3.3252C5.69258 3.34089 5.67439 3.36288 5.66331 3.38857H5.66461Z"
        fill="url(#Tether_a)"
    />
    <path
        fill-rule="evenodd"
        clip-rule="evenodd"
        d="M13.2677 11.834C13.1971 11.8399 12.8317 11.8634 12.0182 11.8634C11.37 11.8634 10.9101 11.8458 10.7451 11.834C8.24047 11.7222 6.37222 11.2859 6.37222 10.7672C6.37222 10.2485 8.24047 9.80659 10.7451 9.69481V11.398C10.9085 11.4098 11.3759 11.4392 12.024 11.4392C12.8019 11.4392 13.1909 11.4039 13.2618 11.398V9.69481C15.7605 9.80659 17.6288 10.2429 17.6288 10.7613C17.6288 11.2797 15.7658 11.7222 13.2677 11.834ZM13.2677 9.52387V7.99717H16.7568V5.66937H7.25633V7.99717H10.7451V9.52387C7.91035 9.65461 5.77703 10.2132 5.77703 10.8911C5.77703 11.5689 7.91035 12.1229 10.7451 12.2583V17.1443H13.2677V12.2583C16.0965 12.1275 18.2243 11.5686 18.2243 10.8969C18.2243 10.2253 16.0965 9.6533 13.2677 9.52419V9.52387Z"
        fill="white"
    />
    <defs>
        <linearGradient
            id="Tether_a"
            x1="1.6835"
            y1="11.6958"
            x2="21.0819"
            y2="11.6958"
            gradientUnits="userSpaceOnUse"
        >
            <stop stop-color="#D8B35D" />
            <stop offset="1" stop-color="#F5E7BF" />
        </linearGradient>
    </defs>
</svg>
