<svg viewBox="0 0 24 24" fill="none" xmlns="http://www.w3.org/2000/svg">
    <path
        d="M12 22C17.5228 22 22 17.5228 22 12C22 6.47715 17.5228 2 12 2C6.47715 2 2 6.47715 2 12C2 17.5228 6.47715 22 12 22Z"
        fill="white"
    />
    <path
        d="M17.4003 7.41265L16.6403 6.65265L14.9843 8.30865L13.4243 6.74865L12.6643 5.98865L11.9803 6.67265L5.9963 12.6566L6.7563 13.4166L8.3163 14.9766L6.6123 16.6806L7.3723 17.4406L9.0683 15.7446C9.9083 16.4966 11.0163 16.9566 12.2363 16.9566C14.8603 16.9566 16.9843 14.8326 16.9843 12.2086C16.9843 10.9926 16.5283 9.88065 15.7723 9.04065L17.4003 7.41265ZM7.4403 12.7286L12.7403 7.42865L14.3003 8.98865L9.0043 14.2886L7.4403 12.7286ZM15.9083 12.1286C15.9083 14.2126 14.2203 15.9006 12.1363 15.9006C11.2323 15.9006 10.4043 15.5846 9.7563 15.0526L15.0603 9.74865C15.5923 10.3966 15.9083 11.2286 15.9083 12.1286Z"
        fill="black"
    />
</svg>
