<svg viewBox="0 0 24 24" fill="none" xmlns="http://www.w3.org/2000/svg">
    <path
        d="M21.9999 12.0017C22.0068 17.4733 17.5722 22 12.0016 22C6.43112 22 1.99653 17.4699 1.99994 11.9949C2.00335 6.51987 6.43112 2 12.0051 2C17.579 2 22.0102 6.53352 21.9999 12.0017Z"
        fill="#FE9B00"
    />
    <path
        d="M19.6872 13.2434C19.6701 13.2093 19.6838 13.182 19.6838 13.1547C19.7418 12.5612 19.3631 12.0359 18.79 11.9131C18.4148 11.8346 18.0805 11.9403 17.7939 12.1859C17.446 12.4827 17.1151 12.8 16.7876 13.1206C16.3885 13.5129 15.9974 13.912 15.6142 14.318C15.3447 14.6045 15.0309 14.8262 14.6556 14.9559C13.5981 15.3174 12.4417 14.7512 12.0392 13.7688C11.9915 13.6494 11.9949 13.6255 12.0904 13.5436C12.3121 13.3492 12.5373 13.1581 12.759 12.9637C12.7658 12.9569 12.7726 12.9535 12.7795 12.9467C12.8067 12.9296 12.8272 12.8887 12.8613 12.9057C12.8954 12.9228 12.875 12.9603 12.8784 12.9876C12.8918 13.2513 12.997 13.5021 13.1758 13.6964C13.3546 13.8908 13.5957 14.0165 13.8574 14.0519C14.3998 14.1269 14.9422 13.796 15.1059 13.2775C15.3003 12.6635 14.9763 12.0529 14.3486 11.8517C13.9666 11.7288 13.6186 11.8107 13.315 12.0631C13.066 12.2678 12.8272 12.4827 12.585 12.6976C12.4247 12.8409 12.2644 12.9876 12.1006 13.1274C12.0381 13.1811 11.996 13.2545 11.9812 13.3355C11.8516 13.9939 11.4832 14.4851 10.8999 14.8092C10.5346 15.0129 10.1148 15.0975 9.69912 15.0514C9.24702 15.0127 8.81968 14.8284 8.48131 14.526C8.24208 14.3162 8.05518 14.0534 7.93551 13.7585C7.92836 13.7443 7.92264 13.7295 7.91846 13.7142C7.90646 13.6892 7.90364 13.6608 7.9105 13.634C7.91736 13.6072 7.93347 13.5836 7.95598 13.5675C8.03444 13.5027 8.10949 13.4379 8.18794 13.3731C8.34827 13.2332 8.5086 13.0933 8.67234 12.9569C8.69963 12.933 8.72692 12.8921 8.76103 12.9057C8.79514 12.9194 8.7815 12.9671 8.78491 13.0012C8.7928 13.2587 8.88632 13.5061 9.05067 13.7045C9.21501 13.9028 9.44079 14.0406 9.69229 14.0962C9.97667 14.1568 10.2734 14.1065 10.522 13.9556C10.7705 13.8047 10.9521 13.5646 11.0295 13.2844C11.2342 12.5305 10.6372 11.7868 9.85944 11.8244C9.62242 11.8314 9.39492 11.9192 9.21472 12.0734C8.99299 12.2576 8.77468 12.4486 8.55977 12.6396C8.33804 12.8341 8.11972 13.0319 7.89799 13.2264C7.86826 13.2506 7.8445 13.2814 7.82853 13.3163C7.81256 13.3512 7.80482 13.3893 7.80589 13.4276V14.9081C7.80589 15.048 7.78542 15.0684 7.64556 15.065C7.51413 15.065 7.38424 15.0366 7.26475 14.9819C7.14526 14.9271 7.03896 14.8473 6.95308 14.7478C6.88486 14.6693 6.87121 14.6693 6.77911 14.7205C6.4414 14.9081 6.08322 15.0104 5.69775 14.9968C4.90635 14.9695 4.30256 14.6113 3.89322 13.9325C3.7005 13.6126 3.60124 13.2451 3.60667 12.8716C3.60704 12.3814 3.77971 11.9068 4.09448 11.531C4.41513 11.1387 4.82448 10.8829 5.32593 10.801C5.99453 10.6952 6.60855 10.8181 7.12364 11.2854C7.28731 11.4346 7.42964 11.6056 7.54664 11.7937C7.56341 11.8314 7.59219 11.8626 7.6285 11.8824C7.65352 11.8663 7.67392 11.8441 7.68768 11.8177C7.70144 11.7914 7.70809 11.7619 7.70696 11.7323C7.70355 11.3945 7.70696 11.0568 7.70696 10.7157C7.70696 9.94819 7.70583 9.1818 7.70355 8.41655C7.70355 8.26646 7.72061 8.24941 7.87411 8.24941C8.10047 8.24968 8.3188 8.3333 8.48743 8.48431C8.65606 8.63532 8.76317 8.84314 8.78832 9.0681C8.79513 9.12241 8.79854 9.1771 8.79855 9.23184V11.0227C8.80196 11.1046 8.81902 11.1148 8.89407 11.0773C9.11337 10.9612 9.35111 10.8838 9.59678 10.8488C10.2074 10.7635 10.7532 10.917 11.2376 11.299C11.3997 11.4293 11.5412 11.5835 11.6572 11.7561C11.664 11.7683 11.672 11.7797 11.681 11.7902C11.7049 11.8244 11.7254 11.8619 11.7697 11.8687C11.7936 11.8721 11.8618 11.7834 11.8652 11.7459C11.871 11.6995 11.8733 11.6528 11.8721 11.606V9.20796C11.8721 8.71333 12.1791 8.34151 12.6669 8.24941C12.7205 8.23682 12.7755 8.23108 12.8306 8.23235C12.9023 8.23576 12.933 8.26305 12.95 8.33127C12.9613 8.38508 12.9659 8.44008 12.9637 8.49501V11.0159C12.9705 11.0602 12.9841 11.0739 13.0285 11.0568C13.0865 11.033 13.1445 11.0057 13.2024 10.9818C14.0211 10.6543 14.9388 10.8522 15.5323 11.4866C15.7315 11.7012 15.8868 11.9527 15.9894 12.2269L16.0099 12.2883C16.044 12.377 16.0542 12.3804 16.1259 12.3156L17.0878 11.4662C17.3574 11.2204 17.6848 11.0467 18.0396 10.9613C18.5374 10.8447 19.0605 10.9112 19.5134 11.1486C19.9662 11.386 20.3185 11.7784 20.5059 12.2542C20.5255 12.2931 20.5314 12.3374 20.5228 12.3801C20.5141 12.4228 20.4913 12.4614 20.4581 12.4895C20.2227 12.7215 19.9942 12.9569 19.7588 13.1923C19.7388 13.2141 19.7144 13.2316 19.6872 13.2434V13.2434Z"
        fill="#191C31"
    />
    <path
        d="M18.7627 14.1678C18.7619 14.1808 18.7581 14.1933 18.7516 14.2046C18.7451 14.2158 18.736 14.2254 18.7252 14.2326C18.4762 14.4816 18.2272 14.7306 17.9816 14.9831C17.9615 15.0066 17.9344 15.023 17.9043 15.0297C17.8741 15.0365 17.8426 15.0333 17.8144 15.0206C17.2277 14.8023 16.8127 14.4054 16.5693 13.8301C16.5318 13.7448 16.5386 13.7175 16.6069 13.6595C16.8491 13.448 17.0947 13.2365 17.3369 13.0284C17.3522 13.0113 17.3724 12.9994 17.3948 12.9943C17.4187 13.0182 17.4119 13.0489 17.4153 13.0762C17.4276 13.2366 17.468 13.3937 17.5347 13.5401C17.695 13.8744 17.9679 14.0655 18.3193 14.1507C18.3942 14.1678 18.4711 14.1747 18.5478 14.1712C18.6161 14.1644 18.6877 14.1678 18.7627 14.1678Z"
        fill="#191C31"
    />
    <path
        d="M6.87466 12.8988C6.89172 13.506 6.37322 14.0348 5.74214 14.0416C5.44063 14.0431 5.15078 13.9252 4.93599 13.7136C4.7212 13.502 4.59895 13.214 4.59597 12.9125C4.58574 12.2916 5.07354 11.7595 5.74214 11.7458C6.35957 11.7322 6.87808 12.237 6.87466 12.8988Z"
        fill="#FF9C00"
    />
</svg>
