<svg viewBox="0 0 24 24" fill="none" xmlns="http://www.w3.org/2000/svg">
    <g clip-path="url(#Aion_a)">
        <path
            d="M12.2925 21.1481C12.738 21.1481 13.1736 21.016 13.544 20.7685C13.9145 20.521 14.2032 20.1691 14.3737 19.7575C14.5442 19.3459 14.5888 18.8929 14.5019 18.4559C14.415 18.019 14.2005 17.6176 13.8854 17.3025C13.5704 16.9875 13.169 16.7729 12.732 16.686C12.295 16.5991 11.842 16.6437 11.4304 16.8142C11.0188 16.9847 10.6669 17.2734 10.4194 17.6439C10.1719 18.0143 10.0398 18.4499 10.0398 18.8954C10.0398 19.4929 10.2771 20.0659 10.6996 20.4883C11.122 20.9108 11.695 21.1481 12.2925 21.1481Z"
            fill="#1C1C1C"
        />
        <path
            d="M14.7367 2H9.83701L3 20.8666H7.13938L12.2925 6.66032L17.4343 20.8666H21.585L14.7367 2Z"
            fill="#1C1C1C"
        />
    </g>
    <defs>
        <clipPath id="Aion_a">
            <rect
                width="18.585"
                height="19.1481"
                fill="white"
                transform="translate(3 2)"
            />
        </clipPath>
    </defs>
</svg>
