<svg viewBox="0 0 24 24" fill="none" xmlns="http://www.w3.org/2000/svg">
    <g clip-path="url(#Ankr_a)">
        <path
            fill-rule="evenodd"
            clip-rule="evenodd"
            d="M13.2 2.3L19.75 5.65C20.7 6.15 21.3 7.1 21.3 8.2V9.75H18.9V8.2C18.9 8.05 18.8 7.9 18.65 7.8L12.1 4.45C12 4.4 11.85 4.4 11.7 4.45L5.15 7.8C5 7.85 4.9 8 4.9 8.2V9.75H2.5V8.2C2.5 7.15 3.1 6.15 4.05 5.65L10.6 2.3C11.4 1.9 12.35 1.9 13.2 2.3ZM13.95 11.9C13.95 10.75 13 9.85 11.9 9.85C10.75 9.85 9.85 10.75 9.85 11.9C9.85 13.05 10.8 13.95 11.9 13.95C13 13.95 13.95 13.05 13.95 11.9ZM18.6 16.2C18.75 16.15 18.85 16 18.85 15.8V14.25H21.25V15.8C21.25 16.85 20.65 17.85 19.7 18.35L13.15 21.7C12.75 21.9 12.3 22 11.85 22C11.4 22 10.95 21.9 10.55 21.7L4.05 18.35C3.1 17.85 2.5 16.9 2.5 15.8V14.25H4.9V15.8C4.9 15.95 5 16.1 5.15 16.2L10.7 19V16.2C8.8 15.65 7.45 13.95 7.45 11.9C7.45 9.45 9.45 7.4 11.95 7.4C14.4 7.4 16.45 9.4 16.45 11.9C16.45 13.95 15.05 15.7 13.2 16.2V19L18.6 16.2Z"
            fill="#245AE5"
            fill-opacity="0.9"
        />
    </g>
    <defs>
        <clipPath id="Ankr_a">
            <rect
                width="18.75"
                height="20"
                fill="white"
                transform="translate(2.5 2)"
            />
        </clipPath>
    </defs>
</svg>
