<svg viewBox="0 0 25 24" fill="none" xmlns="http://www.w3.org/2000/svg">
    <path
        d="M12.4293 3.34982C14.2102 3.34982 15.9275 4.01767 17.1678 5.25795C18.4399 6.49823 19.1395 8.12014 19.1395 9.86926V20.6502H5.71903V9.86926C5.71903 8.12014 6.41867 6.49823 7.69076 5.25795C8.93104 4.01767 10.6166 3.34982 12.4293 3.34982ZM12.4293 3C10.5529 3 8.77203 3.69965 7.43634 5.00353C6.10065 6.30742 5.3692 8.02473 5.3692 9.86926V21H19.4893V9.86926C19.4893 8.02473 18.7579 6.30742 17.4222 5.03534C16.0865 3.69965 14.3056 3 12.4293 3Z"
        fill="#070001"
    />
    <path
        d="M16.5839 5.89877L16.2659 5.58075C15.2164 4.65849 13.8807 4.18146 12.4496 4.18146C10.8913 4.18146 9.39661 4.7857 8.31534 5.89877C7.20226 7.01185 6.59802 8.47474 6.59802 10.033V19.7645H18.3012V10.0648C18.3012 8.47474 17.6652 7.01185 16.5839 5.89877ZM14.7712 19.1603C14.2305 19.3511 13.6263 19.4465 13.0221 19.4465H8.79237V17.5065C8.69696 17.4111 8.60156 17.2839 8.53795 17.1885C7.8065 16.2345 7.42488 15.0578 7.42488 13.8493V10.1921C7.42488 8.76096 7.96551 7.42527 8.91958 6.3758C9.04679 6.3758 9.2058 6.3758 9.36481 6.40761C10.3507 6.50301 11.6864 6.85284 12.8312 7.64789C13.8489 8.34754 15.0892 9.61962 15.0892 11.6868V19.0648C14.9938 19.0967 14.8984 19.1285 14.7712 19.1603Z"
        fill="#070001"
    />
    <path
        d="M12.863 7.64788C11.7181 6.88463 10.3825 6.503 9.39659 6.4076C9.23758 6.4076 9.07857 6.37579 8.95136 6.37579C7.9973 7.42526 7.45667 8.76095 7.45667 10.192V13.8493C7.45667 15.0578 7.83829 16.2345 8.56974 17.1885C8.66515 17.2839 8.72875 17.4111 8.82416 17.5065V19.4465H13.0538C13.6581 19.4465 14.2305 19.3511 14.803 19.1602C14.9302 19.1284 15.0256 19.0966 15.1528 19.033V11.6549C15.121 9.58781 13.8807 8.34753 12.863 7.64788ZM9.14218 19.0966V17.8564C9.71462 18.397 10.3825 18.8422 11.1139 19.0966H9.14218ZM14.7712 18.8104C14.2305 19.0012 13.6263 19.0966 13.022 19.0966C11.6227 19.0966 10.3189 18.556 9.30119 17.5383L9.11038 17.3475C8.98317 17.2203 8.85596 17.0613 8.76055 16.9023C8.09271 16.0118 7.74288 14.9306 7.74288 13.8175V10.192C7.74288 8.91996 8.21992 7.67968 9.04677 6.72562C11.2729 6.82102 14.7394 8.34752 14.7394 11.6549V18.8104H14.7712Z"
        fill="#070001"
    />
    <path
        d="M11.0927 14.8431C10.9973 14.8431 10.9019 14.7477 10.9019 14.6523V11.4085C10.9019 10.5498 11.6015 9.85016 12.4602 9.85016C13.3188 9.85016 14.0185 10.5498 14.0185 11.4085C14.0185 11.5039 13.9231 11.5993 13.8277 11.5993C13.7322 11.5993 13.6368 11.5039 13.6368 11.4085C13.6368 10.7724 13.0962 10.2318 12.4602 10.2318C11.8241 10.2318 11.2835 10.7724 11.2835 11.4085V14.6523C11.2835 14.7477 11.1881 14.8431 11.0927 14.8431Z"
        fill="#070001"
    />
    <path
        d="M13.0326 12.3307C12.9372 12.3307 12.8418 12.2353 12.8418 12.1399C12.8418 11.9173 12.6828 11.7583 12.4602 11.7583C12.2375 11.7583 12.0785 11.9173 12.0785 12.1399C12.0785 12.2353 11.9831 12.3307 11.8877 12.3307C11.7923 12.3307 11.6969 12.2353 11.6969 12.1399C11.6969 11.6947 12.0467 11.3448 12.492 11.3448C12.9372 11.3448 13.287 11.6947 13.287 12.1399C13.2234 12.2353 13.128 12.3307 13.0326 12.3307Z"
        fill="#070001"
    />
    <path
        d="M11.0926 14.8431C10.5202 14.8431 10.0432 14.366 10.0432 13.7936C10.0432 13.6982 10.1386 13.6028 10.234 13.6028C10.3294 13.6028 10.4248 13.6982 10.4248 13.7936C10.4248 14.1434 10.711 14.4296 11.0608 14.4296C11.4106 14.4296 11.6969 14.1434 11.6969 13.7936C11.6969 13.6982 11.7923 13.6028 11.8877 13.6028C11.9831 13.6028 12.0785 13.6982 12.0785 13.7936C12.1103 14.366 11.6651 14.8431 11.0926 14.8431Z"
        fill="#070001"
    />
    <path
        d="M9.97955 12.6487C9.91595 12.6487 9.88415 12.6169 9.85235 12.5851L8.99369 11.7265V12.4579C8.99369 12.5533 8.89828 12.6487 8.80288 12.6487C8.70747 12.6487 8.58026 12.5533 8.58026 12.4261V11.2494C8.58026 11.154 8.64387 11.0904 8.70747 11.0586C8.80288 11.0268 8.86648 11.0268 8.93008 11.0904L9.78874 11.9491V11.4402C9.78874 11.3448 9.88415 11.2494 9.97955 11.2494C10.075 11.2494 10.1704 11.3448 10.1704 11.4402V12.4261C10.1704 12.5215 10.1068 12.5851 10.0432 12.6169C10.0432 12.6487 10.0114 12.6487 9.97955 12.6487Z"
        fill="#070001"
    />
    <path
        d="M11.0609 11.6311C10.9655 11.6311 10.8701 11.5357 10.8701 11.4403C10.8701 11.4085 10.8701 10.6134 10.3294 10.6134C10.234 10.6134 10.1386 10.518 10.1386 10.4226C10.1386 10.3272 10.234 10.2318 10.3294 10.2318C11.0609 10.2318 11.2517 11.0269 11.2517 11.4403C11.2517 11.5357 11.1563 11.6311 11.0609 11.6311Z"
        fill="#070001"
    />
</svg>
