<svg viewBox="0 0 24 24" fill="none" xmlns="http://www.w3.org/2000/svg">
    <path
        d="M12.2453 21.4906C17.3513 21.4906 21.4906 17.3513 21.4906 12.2453C21.4906 7.13925 17.3513 3 12.2453 3C7.13925 3 3 7.13925 3 12.2453C3 17.3513 7.13925 21.4906 12.2453 21.4906Z"
        stroke="#222326"
        stroke-width="2"
    />
    <path
        d="M13.717 15.4843C13.6541 15.4214 13.6541 15.2956 13.5912 15.1698C13.5912 15.044 13.5283 14.9182 13.5283 14.7925C13.4025 14.9182 13.2767 14.9811 13.1509 15.1069C13.0252 15.2327 12.8365 15.2956 12.7107 15.3585C12.522 15.4214 12.3962 15.4843 12.1447 15.5472C11.956 15.6101 11.7044 15.6101 11.5157 15.6101C11.1384 15.6101 10.8239 15.5472 10.5094 15.4214C10.195 15.2956 9.9434 15.1698 9.69182 14.9811C9.44025 14.7925 9.31447 14.5409 9.18868 14.2893C9.06289 14.0377 9 13.7233 9 13.4088C9 12.6541 9.31447 12.0252 9.8805 11.6478C10.4465 11.2075 11.327 11.0189 12.4591 11.0189H13.5283V10.5786C13.5283 10.2013 13.4025 9.94969 13.2138 9.76101C12.9623 9.57233 12.6478 9.44654 12.2075 9.44654C11.8302 9.44654 11.5786 9.50943 11.3899 9.69811C11.2013 9.88679 11.1384 10.0755 11.1384 10.327H9.25157C9.25157 10.0126 9.31447 9.69811 9.44025 9.44654C9.56604 9.19497 9.75472 8.9434 10.0692 8.69182C10.3208 8.50314 10.6352 8.31447 11.0126 8.18868C11.3899 8.06289 11.8302 8 12.3333 8C12.7736 8 13.1509 8.06289 13.5283 8.18868C13.9057 8.31447 14.2201 8.44025 14.5346 8.69182C14.7862 8.8805 15.0377 9.19497 15.1635 9.50943C15.2893 9.8239 15.4151 10.2013 15.4151 10.6415V13.7862C15.4151 14.1635 15.4151 14.478 15.478 14.7296C15.5409 14.9811 15.6038 15.2327 15.6667 15.3585V15.4843H13.717ZM11.8931 14.1635C12.0818 14.1635 12.2704 14.1635 12.3962 14.1006C12.5849 14.0377 12.7107 13.9748 12.8365 13.912C12.9623 13.8491 13.088 13.7862 13.1509 13.6604C13.2138 13.5975 13.3396 13.4717 13.4025 13.4088V12.1509H12.4591C12.1447 12.1509 11.8931 12.1509 11.7044 12.2138C11.5157 12.2767 11.327 12.3396 11.2013 12.4654C11.0755 12.5912 10.9497 12.6541 10.8868 12.8428C10.8239 12.9686 10.8239 13.1572 10.8239 13.283C10.8239 13.5346 10.8868 13.7233 11.0755 13.912C11.2642 14.1006 11.5786 14.1635 11.8931 14.1635Z"
        fill="#222326"
    />
</svg>
