<svg viewBox="0 0 24 24" fill="none" xmlns="http://www.w3.org/2000/svg">
    <path
        fill-rule="evenodd"
        clip-rule="evenodd"
        d="M12.7313 8.49172L15.4779 10.297L13.5655 11.6313L12.0096 10.6159L5.12783 15.1378L12.0096 19.6582L18.8924 15.1378L16.7206 13.7112L18.6899 12.4061L21.1828 14.0307C21.7909 14.427 21.9626 15.2412 21.5663 15.8493C21.4674 16.001 21.3382 16.1307 21.1868 16.2302L12.7312 21.7842C12.2932 22.0719 11.7261 22.0719 11.2881 21.7842L2.84277 16.2362C2.23616 15.8377 2.06745 15.0229 2.46595 14.4162C2.56451 14.2662 2.69275 14.138 2.84277 14.0394L11.2879 8.49155C11.726 8.20375 12.2932 8.20381 12.7313 8.49172ZM12.7483 2.21581L21.1937 7.76383C21.8003 8.16234 21.969 8.97715 21.5705 9.58376C21.4719 9.73378 21.3437 9.86203 21.1937 9.96058L12.7485 15.5085C12.3104 15.7963 11.7432 15.7962 11.3052 15.5083L8.55855 13.703L10.4709 12.3687L12.0268 13.3841L18.9086 8.86221L12.0268 4.34179L5.14406 8.86221L7.31583 10.2888L5.34657 11.5939L2.85361 9.96926C2.24554 9.57299 2.07384 8.7588 2.47012 8.15073C2.56903 7.99896 2.69824 7.86928 2.84964 7.76983L11.3053 2.21577C11.7433 1.92806 12.3103 1.92808 12.7483 2.21581Z"
        fill="#22E6AA"
    />
</svg>
