<svg viewBox="0 0 24 24" fill="none" xmlns="http://www.w3.org/2000/svg">
    <path
        fill-rule="evenodd"
        clip-rule="evenodd"
        d="M18.962 18.3502C18.9077 18.2898 18.8141 18.2858 18.7547 18.3422L18.7527 18.3452C18.6932 18.4016 18.6922 18.4952 18.7506 18.5526L21.9999 21.7536L18.962 18.3502Z"
        fill="black"
    />
    <path
        fill-rule="evenodd"
        clip-rule="evenodd"
        d="M17.7362 13.3344L17.7332 13.3374C17.6738 13.3938 17.6738 13.4874 17.7311 13.5447L21.1194 16.8776L17.9435 13.3424C17.8892 13.282 17.7956 13.278 17.7362 13.3344Z"
        fill="black"
    />
    <path
        fill-rule="evenodd"
        clip-rule="evenodd"
        d="M14.9661 12.669L12.8639 10.6149C12.8322 11.6989 12.6617 13.9374 12.2285 14.9844C12.2217 15.0006 12.2122 15.0172 12.2045 15.0335C12.5107 15.2285 13.1546 15.6053 13.4108 15.6053C13.7308 15.6044 14.3686 15.2509 14.5994 15.0293C14.7996 14.8354 15.0118 14.4467 15.217 14.0707C15.3826 13.7675 15.5537 13.4538 15.7317 13.2132C15.8383 13.0694 15.937 12.964 16.0336 12.8908C16.2336 12.7404 16.5637 12.6194 16.9131 12.4912C17.3808 12.3198 17.9108 12.1254 18.072 11.8616C18.2336 11.5978 18.1385 10.6832 18.0736 10.2482C17.6319 10.2963 15.8392 10.4296 14.5473 9.60008C13.9323 9.20483 13.0262 8.34081 12.6073 7.92902C12.7575 8.81269 12.856 9.72615 12.8655 10.3399L14.9661 12.669Z"
        fill="#FECD0F"
    />
    <path
        fill-rule="evenodd"
        clip-rule="evenodd"
        d="M14.8291 18.7941L14.827 18.7962C14.7677 18.8525 14.7667 18.9471 14.8251 19.0035L18.0865 22.2196L15.0365 18.8022C14.9821 18.7418 14.8885 18.7378 14.8291 18.7941Z"
        fill="black"
    />
    <path
        fill-rule="evenodd"
        clip-rule="evenodd"
        d="M15.4562 15.8881C15.42 15.8881 15.3848 15.9012 15.3566 15.9283C15.2972 15.9847 15.2962 16.0793 15.3555 16.1367L17.6466 18.3442L15.565 15.9384C15.5367 15.9052 15.4965 15.8881 15.4562 15.8881Z"
        fill="black"
    />
    <path
        fill-rule="evenodd"
        clip-rule="evenodd"
        d="M12.1757 18.2174V18.4751L12.665 18.1002C12.7095 18.0662 12.7692 18.0581 12.8211 18.0793C12.8731 18.1006 12.9087 18.1467 12.9166 18.2023C12.9326 18.4567 12.9937 19.1425 13.0903 19.3495C13.1813 19.5441 13.5111 19.9282 14.019 20.4308C14.0334 20.4451 14.049 20.4424 14.057 20.4394C14.0653 20.4365 14.0795 20.4285 14.0816 20.4082C14.1046 20.2909 14.1233 20.1505 14.1169 20.1142C13.9999 19.467 13.0172 17.8242 12.8214 17.5015C12.8088 17.481 12.7911 17.4645 12.7689 17.4528L11.9481 17.021V17.3454L12.1757 17.5278V18.2174Z"
        fill="#FECD0F"
    />
    <path
        fill-rule="evenodd"
        clip-rule="evenodd"
        d="M10.7392 19.7907H10.7382C10.6788 19.847 10.6778 19.9416 10.7361 19.999L13.1168 22.3202L10.9475 19.8017C10.8932 19.7392 10.7986 19.7342 10.7392 19.7907Z"
        fill="black"
    />
    <mask
        id="BeanCash_a"
        style="mask-type:alpha"
        maskUnits="userSpaceOnUse"
        x="3"
        y="1"
        width="10"
        height="18"
    >
        <path
            d="M10.9242 11.3388L11.1504 11.5991L10.9662 11.6243C10.6678 11.665 10.2017 11.7676 10.1002 11.8679C9.9629 12.004 9.82891 12.6055 9.77674 12.9527L9.77281 12.9788L9.75659 12.9997C9.66696 13.1145 9.35753 13.49 9.1369 13.4993C9.13316 13.4995 9.12936 13.4995 9.12555 13.4995C8.98637 13.4995 8.82664 13.3932 8.63916 13.178C8.46049 13.1668 8.03595 13.1107 7.88656 12.8346C7.79998 12.6746 7.95812 12.3182 8.03766 12.1587C8.035 12.138 8.03348 12.1172 8.03348 12.0962C8.03697 11.8822 8.25722 11.4722 8.45833 11.3711C8.60278 11.2979 8.81872 11.3211 9.04747 11.3456C9.24985 11.3672 9.4791 11.3918 9.5665 11.3262C9.69783 11.2283 9.76064 10.6381 9.76178 10.27L9.76261 10.0017L10.2563 10.57C10.3497 10.3381 10.4516 10.0404 10.4416 9.92673C10.4272 9.76942 10.1715 9.34209 10.0137 9.10993L10.1802 8.99666C10.225 9.06264 10.6183 9.64785 10.6422 9.90879C10.66 10.1123 10.4757 10.5703 10.4038 10.7398L10.7881 11.1821C10.9752 10.9121 11.2933 10.4134 11.3051 10.2052C11.3198 9.93161 10.9924 9.23618 10.7076 8.72361C10.6914 8.69332 10.6822 8.6776 10.6816 8.67652L10.8551 8.57441C10.8551 8.57441 10.866 8.59286 10.8844 8.62746C11.035 8.89836 11.5275 9.81841 11.5061 10.2163C11.4893 10.5135 11.0725 11.1286 10.9242 11.3388ZM7.34293 7.86846C7.26136 8.02254 7.16775 8.17346 7.04193 8.30535C7.02279 8.3245 7.0027 8.34465 6.98153 8.36271C7.07217 8.34465 7.17884 8.3527 7.26542 8.44727C7.35599 8.54697 7.33888 8.91636 7.22213 8.98278C7.05201 9.07741 6.57487 8.70396 6.44804 8.60128C6.34739 8.62645 6.24674 8.6466 6.14406 8.66169C6.08765 8.66974 6.03733 8.62848 6.03232 8.57213C6.02826 8.51876 6.06857 8.47243 6.12188 8.46742C6.25581 8.45633 6.39068 8.43624 6.52049 8.406C6.60105 8.38693 6.68059 8.36474 6.75405 8.33356C6.82751 8.30434 6.89292 8.26612 6.95738 8.21275C7.08421 8.11007 7.19196 7.97621 7.28957 7.83633C7.38622 7.69536 7.47375 7.54635 7.54924 7.39037C7.4929 7.55447 7.42343 7.71349 7.34293 7.86846ZM4.5526 7.23331C3.97785 7.23331 3.51181 6.76726 3.51181 6.19353C3.51181 5.61878 3.97785 5.15267 4.5526 5.15267C4.65325 5.15267 4.75092 5.16781 4.84353 5.19494C4.80727 5.06412 4.78718 4.9262 4.78718 4.78429C4.78718 3.91253 5.49281 3.20696 6.36451 3.20696C7.23518 3.20696 7.94082 3.91253 7.94082 4.78429C7.94082 5.65497 7.23518 6.3606 6.36451 6.3606C6.08265 6.3606 5.81891 6.28613 5.59042 6.15727C5.59143 6.16938 5.59245 6.18142 5.59245 6.19353C5.59245 6.76726 5.1264 7.23331 4.5526 7.23331ZM12.6648 10.5188H12.7655L12.693 10.4484L12.7655 10.379L12.6648 10.38C12.6583 9.70534 12.5361 8.63424 12.3534 7.65138C12.2805 7.25309 12.2022 6.90049 12.127 6.63137C11.5507 4.56638 10.0034 2.94558 7.77019 2.06754C7.09746 1.80343 5.556 1.80235 5.00946 2.15133C2.36865 3.83533 3.10065 6.52451 3.34118 7.40824C3.5762 8.27303 4.28133 9.40934 5.49497 9.76606L6.29098 9.84142L5.61362 9.90024C5.62832 9.96508 5.61653 10.043 5.59194 10.1197L5.96989 10.1364L5.56025 10.2045C5.52596 10.2844 5.48552 10.3538 5.46011 10.3883C5.37898 10.4974 5.23966 10.618 5.0923 10.7456C4.91185 10.9019 4.70732 11.0791 4.64368 11.2141C4.6227 11.2586 4.60179 11.3098 4.57986 11.3706C4.45056 11.7367 4.37855 12.2897 4.37741 12.9269C4.37545 13.7212 4.48453 14.5397 4.65534 15.0124C4.85392 15.563 5.81695 16.4128 6.34454 16.6952C6.47866 16.7667 6.67514 16.828 6.92835 16.8775L6.90877 16.9776L6.91035 16.976L6.92962 16.8785C7.47033 16.9853 8.1586 17.0147 8.56969 16.9975C8.93794 16.982 10.0436 16.669 10.393 16.5678L10.1417 15.9534L10.328 15.8772L11.2109 18.0353L11.9743 18.1068V17.6245L11.2774 17.0656L10.9549 15.5589L11.1516 15.5166L11.2672 16.0563C11.4914 15.7643 11.8305 15.3077 11.9866 15.0216C12.008 14.9828 12.0272 14.9435 12.0425 14.9071C12.4396 13.9474 12.6317 11.7843 12.6639 10.5646L12.6648 10.5188Z"
            fill="white"
        />
    </mask>
    <g mask="url(#BeanCash_a)">
        <path
            fill-rule="evenodd"
            clip-rule="evenodd"
            d="M10.9242 11.3388L11.1504 11.5991L10.9662 11.6243C10.6678 11.665 10.2017 11.7676 10.1002 11.8679C9.9629 12.004 9.82891 12.6055 9.77674 12.9527L9.77281 12.9788L9.75659 12.9997C9.66696 13.1145 9.35753 13.49 9.1369 13.4993C9.13316 13.4995 9.12936 13.4995 9.12555 13.4995C8.98637 13.4995 8.82664 13.3932 8.63916 13.178C8.46049 13.1668 8.03595 13.1107 7.88656 12.8346C7.79998 12.6746 7.95812 12.3182 8.03766 12.1587C8.035 12.138 8.03348 12.1172 8.03348 12.0962C8.03697 11.8822 8.25722 11.4722 8.45833 11.3711C8.60278 11.2979 8.81872 11.3211 9.04747 11.3456C9.24985 11.3672 9.4791 11.3918 9.5665 11.3262C9.69783 11.2283 9.76064 10.6381 9.76178 10.27L9.76261 10.0017L10.2563 10.57C10.3497 10.3381 10.4516 10.0404 10.4416 9.92673C10.4272 9.76942 10.1715 9.34209 10.0137 9.10993L10.1802 8.99666C10.225 9.06264 10.6183 9.64785 10.6422 9.90879C10.66 10.1123 10.4757 10.5703 10.4038 10.7398L10.7881 11.1821C10.9752 10.9121 11.2933 10.4134 11.3051 10.2052C11.3198 9.93161 10.9924 9.23618 10.7076 8.72361C10.6914 8.69332 10.6822 8.6776 10.6816 8.67652L10.8551 8.57441C10.8551 8.57441 10.866 8.59286 10.8844 8.62746C11.035 8.89836 11.5275 9.81841 11.5061 10.2163C11.4893 10.5135 11.0725 11.1286 10.9242 11.3388ZM7.34293 7.86846C7.26136 8.02254 7.16775 8.17346 7.04193 8.30535C7.02279 8.3245 7.0027 8.34465 6.98153 8.36271C7.07217 8.34465 7.17884 8.3527 7.26542 8.44727C7.35599 8.54697 7.33888 8.91636 7.22213 8.98278C7.05201 9.07741 6.57487 8.70396 6.44804 8.60128C6.34739 8.62645 6.24674 8.6466 6.14406 8.66169C6.08765 8.66974 6.03733 8.62848 6.03232 8.57213C6.02826 8.51876 6.06857 8.47243 6.12188 8.46742C6.25581 8.45633 6.39068 8.43624 6.52049 8.406C6.60105 8.38693 6.68059 8.36474 6.75405 8.33356C6.82751 8.30434 6.89292 8.26612 6.95738 8.21275C7.08421 8.11007 7.19196 7.97621 7.28957 7.83633C7.38622 7.69536 7.47375 7.54635 7.54924 7.39037C7.4929 7.55447 7.42343 7.71349 7.34293 7.86846ZM4.5526 7.23331C3.97785 7.23331 3.51181 6.76726 3.51181 6.19353C3.51181 5.61878 3.97785 5.15267 4.5526 5.15267C4.65325 5.15267 4.75092 5.16781 4.84353 5.19494C4.80727 5.06412 4.78718 4.9262 4.78718 4.78429C4.78718 3.91253 5.49281 3.20696 6.36451 3.20696C7.23518 3.20696 7.94082 3.91253 7.94082 4.78429C7.94082 5.65497 7.23518 6.3606 6.36451 6.3606C6.08265 6.3606 5.81891 6.28613 5.59042 6.15727C5.59143 6.16938 5.59245 6.18142 5.59245 6.19353C5.59245 6.76726 5.1264 7.23331 4.5526 7.23331ZM12.6648 10.5188H12.7655L12.693 10.4484L12.7655 10.379L12.6648 10.38C12.6583 9.70534 12.5361 8.63424 12.3534 7.65138C12.2805 7.25309 12.2022 6.90049 12.127 6.63137C11.5507 4.56638 10.0034 2.94558 7.77019 2.06754C7.09746 1.80343 5.556 1.80235 5.00946 2.15133C2.36865 3.83533 3.10065 6.52451 3.34118 7.40824C3.5762 8.27303 4.28133 9.40934 5.49497 9.76606L6.29098 9.84142L5.61362 9.90024C5.62832 9.96508 5.61653 10.043 5.59194 10.1197L5.96989 10.1364L5.56025 10.2045C5.52596 10.2844 5.48552 10.3538 5.46011 10.3883C5.37898 10.4974 5.23966 10.618 5.0923 10.7456C4.91185 10.9019 4.70732 11.0791 4.64368 11.2141C4.6227 11.2586 4.60179 11.3098 4.57986 11.3706C4.45056 11.7367 4.37855 12.2897 4.37741 12.9269C4.37545 13.7212 4.48453 14.5397 4.65534 15.0124C4.85392 15.563 5.81695 16.4128 6.34454 16.6952C6.47866 16.7667 6.67514 16.828 6.92835 16.8775L6.90877 16.9776L6.91035 16.976L6.92962 16.8785C7.47033 16.9853 8.1586 17.0147 8.56969 16.9975C8.93794 16.982 10.0436 16.669 10.393 16.5678L10.1417 15.9534L10.328 15.8772L11.2109 18.0353L11.9743 18.1068V17.6245L11.2774 17.0656L10.9549 15.5589L11.1516 15.5166L11.2672 16.0563C11.4914 15.7643 11.8305 15.3077 11.9866 15.0216C12.008 14.9828 12.0272 14.9435 12.0425 14.9071C12.4396 13.9474 12.6317 11.7843 12.6639 10.5646L12.6648 10.5188Z"
            fill="url(#BeanCash_b)"
        />
    </g>
    <mask
        id="BeanCash_c"
        style="mask-type:alpha"
        maskUnits="userSpaceOnUse"
        x="6"
        y="16"
        width="2"
        height="3"
    >
        <path
            d="M6.44446 16.9573C6.54137 17.3277 6.71821 17.9251 6.86272 18.1101C7.00438 18.2905 7.54046 18.6031 7.85946 18.7758V17.6249C7.68345 17.6338 7.36914 17.6376 7.23927 17.5683C7.1035 17.4948 6.92306 17.2013 6.84478 17.0657C6.69216 17.0342 6.55798 16.998 6.44446 16.9573Z"
            fill="white"
        />
    </mask>
    <g mask="url(#BeanCash_c)">
        <path
            fill-rule="evenodd"
            clip-rule="evenodd"
            d="M6.44446 16.9573C6.54137 17.3277 6.71821 17.9251 6.86272 18.1101C7.00438 18.2905 7.54046 18.6031 7.85946 18.7758V17.6249C7.68345 17.6338 7.36914 17.6376 7.23927 17.5683C7.1035 17.4948 6.92306 17.2013 6.84478 17.0657C6.69216 17.0342 6.55798 16.998 6.44446 16.9573Z"
            fill="#356C00"
        />
    </g>
    <path
        fill-rule="evenodd"
        clip-rule="evenodd"
        d="M9.68707 11.4875C9.53648 11.6003 9.28859 11.5737 9.02606 11.5457C8.92497 11.5349 8.8162 11.5233 8.72405 11.5233C8.6516 11.5233 8.58942 11.5305 8.54905 11.551C8.4252 11.6132 8.2374 11.9402 8.23486 12.0979C8.23486 12.1194 8.23759 12.1426 8.2431 12.1651L8.24355 12.1672C8.29793 12.4136 8.59468 12.7999 8.69217 12.9267C8.71112 12.9515 8.73488 12.9819 8.76239 13.0133C8.98816 13.2822 9.09889 13.2973 9.12855 13.2982C9.21196 13.2947 9.42594 13.0913 9.5818 12.8962C9.60968 12.7194 9.74342 11.9382 9.95879 11.7248C10.0982 11.5869 10.5072 11.497 10.7577 11.4532L9.95493 10.5303C9.93642 10.8523 9.87684 11.3461 9.68707 11.4875Z"
        fill="#FECD0F"
    />
    <path
        fill-rule="evenodd"
        clip-rule="evenodd"
        d="M8.46885 17.6184H8.06055V18.583L9.39163 19.9019L8.46885 17.6184Z"
        fill="#FECD0F"
    />
    <path
        fill-rule="evenodd"
        clip-rule="evenodd"
        d="M8.06424 12.7398C8.12711 12.8517 8.29572 12.9179 8.47361 12.9518C8.35432 12.7974 8.22411 12.6142 8.13631 12.4415C8.08061 12.5811 8.04885 12.7031 8.06424 12.7398Z"
        fill="#FECD0F"
    />
    <path
        fill-rule="evenodd"
        clip-rule="evenodd"
        d="M5.00569 4.78424C5.00569 4.36648 5.34288 4.02929 5.76063 4.02929C6.17737 4.02929 6.51558 4.36648 6.51558 4.78424C6.51558 5.20091 6.17737 5.53918 5.76063 5.53918C5.34288 5.53918 5.00569 5.20091 5.00569 4.78424ZM4.41782 6.72994C4.12189 6.72994 3.88129 6.4894 3.88129 6.19347C3.88129 5.89653 4.12189 5.65593 4.41782 5.65593C4.71477 5.65593 4.95537 5.89653 4.95537 6.19347C4.95537 6.4894 4.71477 6.72994 4.41782 6.72994ZM6.3646 6.36055C7.23528 6.36055 7.94092 5.65492 7.94092 4.78424C7.94092 3.91248 7.23528 3.20691 6.3646 3.20691C5.49291 3.20691 4.78728 3.91248 4.78728 4.78424C4.78728 4.92615 4.80737 5.06407 4.84362 5.19489C4.75102 5.16776 4.65335 5.15261 4.5527 5.15261C3.97795 5.15261 3.5119 5.61872 3.5119 6.19347C3.5119 6.76721 3.97795 7.23326 4.5527 7.23326C5.1265 7.23326 5.59255 6.76721 5.59255 6.19347C5.59255 6.18137 5.59153 6.16932 5.59052 6.15722C5.81901 6.28607 6.08274 6.36055 6.3646 6.36055Z"
        fill="white"
    />
    <path
        fill-rule="evenodd"
        clip-rule="evenodd"
        d="M6.95739 8.2127C6.89293 8.26607 6.82752 8.30429 6.75406 8.33351C6.6806 8.36469 6.60105 8.38688 6.52049 8.40595C6.39069 8.43619 6.25581 8.45628 6.12188 8.46737C6.06858 8.47238 6.02827 8.51871 6.03232 8.57208C6.03733 8.62843 6.08766 8.66969 6.14407 8.66164C6.24675 8.64655 6.3474 8.6264 6.44805 8.60123C6.48728 8.59122 6.52556 8.58114 6.56385 8.57005C6.64935 8.54387 6.73491 8.5137 6.81852 8.47339C6.8779 8.44525 6.93222 8.40595 6.98153 8.36266C7.0027 8.3446 7.0228 8.32444 7.04194 8.3053C7.16775 8.1734 7.26137 8.02249 7.34294 7.86841C7.42343 7.71344 7.4929 7.55442 7.54925 7.39032C7.47376 7.5463 7.38623 7.69531 7.28957 7.83628C7.19196 7.97616 7.08421 8.11002 6.95739 8.2127Z"
        fill="black"
    />
    <path
        fill-rule="evenodd"
        clip-rule="evenodd"
        d="M6.56398 8.57016C6.5257 8.58125 6.48741 8.59133 6.44818 8.60135C6.57501 8.70403 7.05215 9.07747 7.22227 8.98284C7.33902 8.91642 7.35613 8.54703 7.26556 8.44733C7.17898 8.35276 7.0723 8.34471 6.98167 8.36278C6.93236 8.40607 6.87804 8.44536 6.81865 8.47351C6.73505 8.51382 6.64948 8.54399 6.56398 8.57016Z"
        fill="#CA1117"
    />
    <path
        fill-rule="evenodd"
        clip-rule="evenodd"
        d="M6.5155 4.7843C6.5155 4.36655 6.1773 4.02936 5.76056 4.02936C5.34281 4.02936 5.00562 4.36655 5.00562 4.7843C5.00562 5.20098 5.34281 5.53925 5.76056 5.53925C6.1773 5.53925 6.5155 5.20098 6.5155 4.7843Z"
        fill="black"
    />
    <path
        fill-rule="evenodd"
        clip-rule="evenodd"
        d="M4.41788 5.65601C4.12195 5.65601 3.88135 5.8966 3.88135 6.19355C3.88135 6.48948 4.12195 6.73001 4.41788 6.73001C4.71482 6.73001 4.95542 6.48948 4.95542 6.19355C4.95542 5.8966 4.71482 5.65601 4.41788 5.65601Z"
        fill="black"
    />
    <path
        fill-rule="evenodd"
        clip-rule="evenodd"
        d="M3.48522 11.1168C3.40599 11.1212 3.35414 11.1474 3.32695 11.1972C3.24215 11.3522 3.38792 11.7188 3.55259 12.0101L3.55931 12.0219C3.56299 12.0287 3.56603 12.0346 3.5692 12.0389C3.5813 12.0582 3.58606 12.0677 3.58606 12.0677L3.49605 12.1128C3.49555 12.112 3.49225 12.1055 3.48604 12.0954C3.48319 12.092 3.47755 12.0822 3.47114 12.0706L3.46588 12.0611C3.30293 11.7967 3.06937 11.5218 2.90698 11.5448C2.79847 11.5597 2.73268 11.7138 2.69655 11.8403C2.68419 11.8838 2.75499 11.9801 2.80665 12.0502C2.85095 12.1105 2.89278 12.1674 2.90933 12.2174C2.92695 12.2692 2.93164 12.3428 2.93658 12.4208C2.94241 12.5131 2.949 12.6178 2.97879 12.662C3.04243 12.7537 3.21812 12.9328 3.33646 12.9328C3.33715 12.9328 3.33792 12.9328 3.33868 12.9328C3.37531 12.9324 3.45099 12.8435 3.49631 12.7639L3.62878 12.5311L3.5898 12.7962C3.5737 12.9057 3.58213 13.0252 3.60723 13.0419C3.74502 13.1354 4.01978 13.0167 4.17621 12.9287C4.17621 12.928 4.17614 12.9271 4.17614 12.9264C4.17722 12.2981 4.24707 11.7467 4.37218 11.3605C4.27787 11.3141 4.04184 11.2003 3.94746 11.1745C3.83654 11.1436 3.60152 11.1113 3.48522 11.1168Z"
        fill="#FECD0F"
    />
    <path
        fill-rule="evenodd"
        clip-rule="evenodd"
        d="M11.9866 15.0216C11.8306 15.3077 11.4914 15.7643 11.2672 16.0563L11.1517 15.5166L10.9549 15.5589L11.2774 17.0656L11.9743 17.6245V18.1068L11.2109 18.0352L10.328 15.8772L10.1417 15.9534L10.3931 16.5678C10.0436 16.669 8.938 16.982 8.56975 16.9975C8.15865 17.0147 7.47038 16.9853 6.92967 16.8785L6.9104 16.9759L6.90882 16.9776L6.9284 16.8774C6.67519 16.828 6.47871 16.7667 6.34459 16.6952C5.817 16.4128 4.85397 15.563 4.6554 15.0124C4.48458 14.5397 4.3755 13.7212 4.37747 12.9268C4.37861 12.2897 4.45061 11.7367 4.57991 11.3706C4.60184 11.3098 4.62275 11.2586 4.64373 11.2141C4.70737 11.0791 4.9119 10.9019 5.09235 10.7456C5.23972 10.618 5.37903 10.4973 5.46016 10.3883C5.48557 10.3538 5.52601 10.2844 5.5603 10.2045L5.96994 10.1364L5.59199 10.1197C5.61659 10.043 5.62837 9.96506 5.61367 9.90022L6.29103 9.8414L5.49502 9.76604C4.28138 9.40933 3.57625 8.27302 3.34123 7.40823C3.1007 6.52449 2.3687 3.83532 5.00951 2.15132C5.55606 1.80234 7.09751 1.80342 7.77025 2.06753C10.0034 2.94556 11.5508 4.56637 12.1271 6.63136C12.2023 6.90048 12.2805 7.25307 12.3535 7.65136C12.5361 8.63423 12.6583 9.70532 12.6649 10.38L12.7655 10.3789L12.693 10.4484L12.7655 10.5188H12.6649L12.6639 10.5646C12.6317 11.7843 12.4397 13.9474 12.0426 14.9071C12.0273 14.9435 12.0081 14.9828 11.9866 15.0216ZM11.9481 17.021L12.7689 17.4528C12.7911 17.4645 12.8089 17.481 12.8214 17.5015C13.0172 17.8242 13.9999 19.4671 14.1169 20.1142C14.1233 20.1506 14.1046 20.2909 14.0816 20.4082C14.0795 20.4286 14.0654 20.4365 14.057 20.4395C14.0491 20.4424 14.0334 20.4451 14.019 20.4308C13.5111 19.9282 13.1813 19.5441 13.0903 19.3495C12.9937 19.1425 12.9326 18.4567 12.9166 18.2023C12.9088 18.1467 12.8731 18.1006 12.8211 18.0794C12.7693 18.0581 12.7095 18.0662 12.665 18.1002L12.1757 18.4751V17.5278L11.9481 17.3454V17.021ZM7.23917 17.5683C7.36904 17.6376 7.68335 17.6337 7.85936 17.6249V18.7758C7.54036 18.603 7.00427 18.2904 6.86261 18.1101C6.7181 17.9251 6.54127 17.3277 6.44436 16.9572C6.55787 16.998 6.69205 17.0342 6.84468 17.0657C6.92295 17.2013 7.1034 17.4947 7.23917 17.5683ZM4.17616 12.9263C4.17616 12.9271 4.17623 12.9279 4.17623 12.9286C4.0198 13.0167 3.74504 13.1354 3.60725 13.0418C3.58215 13.0251 3.57372 12.9057 3.58982 12.7962L3.6288 12.5311L3.49633 12.7639C3.45101 12.8434 3.37533 12.9324 3.3387 12.9327C3.33794 12.9327 3.33718 12.9327 3.33648 12.9327C3.21814 12.9327 3.04245 12.7537 2.97881 12.662C2.94902 12.6178 2.94243 12.513 2.9366 12.4207C2.93166 12.3427 2.92697 12.2692 2.90935 12.2173C2.8928 12.1674 2.85097 12.1104 2.80667 12.0502C2.75501 11.98 2.68421 11.8838 2.69657 11.8402C2.7327 11.7137 2.79849 11.5597 2.907 11.5447C3.06939 11.5217 3.30295 11.7966 3.46591 12.0611L3.47117 12.0706C3.47757 12.0822 3.48321 12.092 3.48606 12.0954C3.49227 12.1054 3.49557 12.1119 3.49608 12.1128L3.58608 12.0677C3.58608 12.0677 3.58132 12.0581 3.56922 12.0389C3.56605 12.0346 3.56301 12.0287 3.55933 12.0219L3.55261 12.01C3.38795 11.7187 3.24217 11.3522 3.32697 11.1971C3.35416 11.1474 3.40601 11.1212 3.48524 11.1167C3.60154 11.1113 3.83656 11.1436 3.94748 11.1745C4.04186 11.2003 4.27789 11.3141 4.37221 11.3604C4.24709 11.7467 4.17724 12.2981 4.17616 12.9263ZM14.5472 9.60005C15.8392 10.4296 17.6319 10.2962 18.0735 10.2481C18.1385 10.6831 18.2335 11.5978 18.0719 11.8615C17.9107 12.1254 17.3807 12.3198 16.913 12.4912C16.5636 12.6193 16.2335 12.7404 16.0335 12.8908C15.937 12.964 15.8382 13.0694 15.7316 13.2131C15.5536 13.4537 15.3825 13.7674 15.2169 14.0707C15.0117 14.4467 14.7996 14.8354 14.5993 15.0293C14.3685 15.2509 13.7307 15.6044 13.4107 15.6052C13.1546 15.6052 12.5106 15.2285 12.2045 15.0335C12.2121 15.0172 12.2216 15.0005 12.2284 14.9844C12.6616 13.9374 12.8321 11.6988 12.8638 10.6149L14.966 12.669L12.8655 10.3399C12.856 9.72611 12.7574 8.81265 12.6072 7.92898C13.0261 8.34077 13.9322 9.2048 14.5472 9.60005ZM8.06066 17.6185H8.46897L9.39175 19.902L8.06066 18.5831V17.6185ZM13.4111 15.8066C13.7939 15.8055 14.4804 15.4224 14.739 15.1743C14.9616 14.9589 15.1715 14.5743 15.3937 14.1671C15.5559 13.8698 15.7237 13.5623 15.8934 13.3329C15.9883 13.2048 16.074 13.1127 16.1548 13.0514C16.3308 12.9192 16.6473 12.8031 16.9824 12.6802C17.5052 12.4885 18.0459 12.2902 18.2436 11.9667C18.4888 11.5667 18.2816 10.2667 18.2571 10.1198L18.241 10.0229L18.1437 10.0367C18.1228 10.0397 16.0443 10.3222 14.656 9.43069C13.9236 8.96008 12.7192 7.75854 12.5457 7.58405C12.4733 7.19292 12.3957 6.84508 12.3209 6.57716C11.7273 4.44994 10.1373 2.78191 7.84377 1.88017C7.19429 1.62519 5.55016 1.56726 4.90119 1.98165C2.13552 3.74525 2.8968 6.54211 3.14697 7.46109C3.39447 8.37157 4.13826 9.56702 5.42042 9.95302C5.42707 10.0068 5.36806 10.1738 5.29841 10.2685C5.23059 10.3596 5.09945 10.4731 4.96052 10.5935C4.75548 10.7711 4.54353 10.9547 4.46164 11.1283C4.44281 11.1682 4.42412 11.2141 4.40504 11.2644C4.30185 11.2138 4.07387 11.1047 3.97436 11.0774C3.85571 11.0445 3.60864 11.0097 3.47991 11.0163C3.36449 11.0227 3.2833 11.0673 3.23868 11.1489C3.17302 11.2688 3.20268 11.4499 3.26517 11.6298C3.14893 11.5121 3.01855 11.427 2.89325 11.445C2.763 11.463 2.66425 11.5867 2.59979 11.8127C2.57387 11.9037 2.651 12.0085 2.7256 12.1098C2.76332 12.1611 2.8023 12.214 2.81389 12.2494C2.82733 12.289 2.83177 12.3591 2.83614 12.4269C2.84305 12.5373 2.85028 12.6513 2.89572 12.7188C2.94256 12.7863 3.15704 13.0382 3.34028 13.0334C3.3908 13.0328 3.4403 12.9966 3.48162 12.9534C3.48612 13.0236 3.50368 13.0939 3.55096 13.1253C3.60459 13.1618 3.66847 13.1761 3.73623 13.1761C3.8898 13.1761 4.06246 13.1022 4.17693 13.0425C4.18529 13.8215 4.29634 14.6112 4.46601 15.0807C4.67821 15.669 5.63617 16.5275 6.20946 16.8498C6.2608 17.0592 6.49018 17.9604 6.70409 18.2343C6.92859 18.5201 7.81379 18.981 7.91393 19.0326L8.06066 19.1082V18.8665L9.32621 20.1205C9.36113 20.1554 9.40652 20.1734 9.45234 20.1734C9.48638 20.1734 9.52073 20.1635 9.55134 20.1432C9.62341 20.0955 9.65104 20.0062 9.61859 19.9261L8.60467 17.4171H8.06066V17.409L7.95215 17.4175C7.74648 17.4336 7.41866 17.436 7.33456 17.3911C7.2867 17.3652 7.19759 17.2485 7.11044 17.1138C7.52077 17.1767 7.977 17.2034 8.332 17.2034C8.42131 17.2034 8.50421 17.2017 8.57824 17.1986C8.98116 17.1816 10.1385 16.8518 10.4698 16.7552L11.0707 18.2244L11.9743 18.309V18.5697C11.9743 18.6291 12.0076 18.6822 12.061 18.7084C12.1144 18.7347 12.1769 18.728 12.2238 18.6919L12.7224 18.3099C12.7404 18.5543 12.797 19.197 12.9079 19.4348C13.0372 19.7113 13.5066 20.2068 13.877 20.5735C13.9226 20.619 13.9824 20.6432 14.044 20.6432C14.0707 20.6432 14.0978 20.6385 14.1242 20.6292C14.2118 20.5982 14.2722 20.5215 14.2805 20.4384C14.2927 20.3772 14.3312 20.1702 14.3151 20.0788C14.1949 19.4134 13.2732 17.8579 12.9932 17.3967C12.9617 17.3453 12.9167 17.3031 12.8627 17.2747L11.9929 16.8171C11.94 16.7902 11.878 16.7924 11.8273 16.8235C11.7769 16.8544 11.7468 16.9081 11.7468 16.9671V17.1839L11.4593 16.9533L11.3224 16.3139C11.5478 16.0253 11.9081 15.5495 12.1094 15.2117C12.369 15.3767 13.077 15.8066 13.4111 15.8066Z"
        fill="black"
    />
    <path
        fill-rule="evenodd"
        clip-rule="evenodd"
        d="M9.9589 11.7247C9.74353 11.9381 9.60979 12.7193 9.5819 12.8961C9.42605 13.0913 9.21207 13.2947 9.12866 13.2981C9.099 13.2972 8.98827 13.2821 8.7625 13.0132C8.73499 12.9818 8.71123 12.9514 8.69227 12.9267C8.59479 12.7998 8.29804 12.4135 8.24366 12.1672L8.24321 12.165C8.2377 12.1426 8.23497 12.1194 8.23497 12.0978C8.23751 11.9401 8.42531 11.6131 8.54916 11.5509C8.58953 11.5304 8.65171 11.5233 8.72416 11.5233C8.81631 11.5233 8.92508 11.5349 9.02617 11.5456C9.2887 11.5736 9.53659 11.6002 9.68718 11.4874C9.87695 11.346 9.93653 10.8522 9.95503 10.5302L10.7578 11.4532C10.5073 11.4969 10.0983 11.5868 9.9589 11.7247ZM8.06422 12.7397C8.04939 12.703 8.08 12.581 8.13369 12.4415C8.2183 12.6142 8.3438 12.7973 8.45877 12.9517C8.28733 12.9179 8.12481 12.8516 8.06422 12.7397ZM10.8553 8.57434L10.6818 8.67645C10.6824 8.67753 10.6916 8.69325 10.7078 8.72354C10.9926 9.23611 11.32 9.93154 11.3053 10.2052C11.2935 10.4134 10.9754 10.9121 10.7883 11.1821L10.404 10.7397C10.4759 10.5702 10.6602 10.1122 10.6424 9.90872C10.6185 9.64778 10.2252 9.06257 10.1804 8.99659L10.0139 9.10986C10.1717 9.34202 10.4274 9.76935 10.4418 9.92666C10.4518 10.0404 10.3498 10.3381 10.2565 10.5699L9.7628 10.0016L9.76197 10.2699C9.76083 10.6381 9.69802 11.2283 9.56669 11.3261C9.47929 11.3917 9.25004 11.3671 9.04766 11.3455C8.81891 11.3211 8.60297 11.2978 8.45852 11.3711C8.25741 11.4721 8.03716 11.8821 8.03367 12.0962C8.03367 12.1171 8.03519 12.1379 8.03785 12.1587C7.95831 12.3181 7.80017 12.6745 7.88675 12.8346C8.03614 13.1107 8.46068 13.1668 8.63935 13.178C8.82683 13.3932 8.98656 13.4994 9.12574 13.4994C9.12955 13.4994 9.13335 13.4994 9.13709 13.4993C9.35772 13.4899 9.66715 13.1145 9.75678 12.9996L9.773 12.9788L9.77693 12.9526C9.82909 12.6054 9.96308 12.0039 10.1004 11.8678C10.2019 11.7675 10.668 11.665 10.9664 11.6242L11.1505 11.5991L10.9244 11.3387C11.0727 11.1285 11.4895 10.5134 11.5063 10.2163C11.5277 9.81834 11.0352 8.89829 10.8846 8.62739C10.8662 8.59279 10.8553 8.57434 10.8553 8.57434Z"
        fill="black"
    />
    <defs>
        <linearGradient
            id="BeanCash_b"
            x1="6.83901"
            y1="1.87848"
            x2="12.1985"
            y2="15.8372"
            gradientUnits="userSpaceOnUse"
        >
            <stop stop-color="#B8E27F" />
            <stop offset="1" stop-color="#2A6700" />
        </linearGradient>
    </defs>
</svg>
