<svg viewBox="0 0 24 24" fill="none" xmlns="http://www.w3.org/2000/svg">
    <path
        d="M12.0682 9.97717C11.3849 9.97717 10.717 10.1798 10.149 10.5594C9.58085 10.939 9.13808 11.4785 8.87661 12.1097C8.61514 12.741 8.54673 13.4356 8.68003 14.1057C8.81332 14.7758 9.14233 15.3913 9.62546 15.8745C10.1086 16.3576 10.7241 16.6866 11.3942 16.8199C12.0644 16.9532 12.759 16.8848 13.3902 16.6233C14.0214 16.3618 14.561 15.9191 14.9405 15.351C15.3201 14.7829 15.5227 14.115 15.5227 13.4317C15.523 12.978 15.4339 12.5286 15.2604 12.1094C15.0869 11.6901 14.8324 11.3092 14.5116 10.9883C14.1907 10.6675 13.8098 10.413 13.3905 10.2395C12.9713 10.066 12.5219 9.97687 12.0682 9.97717V9.97717Z"
        fill="#2EAA8F"
    />
    <path
        d="M12.0682 4.86364C10.8782 4.8589 9.70072 5.10678 8.61364 5.59091V8.52273C9.71268 7.74848 11.0398 7.3656 12.3824 7.43547C13.7249 7.50533 15.0052 8.02389 16.0179 8.90804C17.0307 9.79219 17.7173 10.9907 17.9677 12.3116C18.2181 13.6324 18.0178 14.9991 17.399 16.1926C16.7802 17.3861 15.7786 18.3372 14.5547 18.8937C13.3309 19.4501 11.9557 19.5796 10.6496 19.2613C9.3434 18.9431 8.18189 18.1955 7.35118 17.1385C6.52047 16.0815 6.06867 14.7762 6.06818 13.4318V2H3.5V13.4318C3.5 15.1264 4.00252 16.783 4.944 18.192C5.88548 19.6011 7.22365 20.6993 8.78928 21.3478C10.3549 21.9963 12.0777 22.166 13.7398 21.8354C15.4018 21.5048 16.9285 20.6887 18.1268 19.4904C19.3251 18.2922 20.1411 16.7655 20.4717 15.1034C20.8023 13.4413 20.6327 11.7186 19.9842 10.1529C19.3356 8.58729 18.2374 7.24912 16.8284 6.30764C15.4194 5.36615 13.7628 4.86364 12.0682 4.86364V4.86364Z"
        fill="#003F6B"
    />
</svg>
