<svg viewBox="0 0 24 24" fill="none" xmlns="http://www.w3.org/2000/svg">
    <path
        d="M18.3079 6.19726L17.7588 6.74641C19.0691 8.17938 19.7958 10.0508 19.7958 11.9926C19.7958 13.9344 19.0691 15.8058 17.7588 17.2388L18.3079 17.788C19.7652 16.2073 20.5742 14.1361 20.5742 11.9862C20.5742 9.8363 19.7652 7.76512 18.3079 6.18445V6.19726Z"
        fill="#5A5564"
    />
    <path
        d="M6.75935 6.24484C8.19232 4.93449 10.0638 4.20782 12.0056 4.20782C13.9473 4.20782 15.8188 4.93449 17.2518 6.24484L17.8009 5.6957C16.2202 4.23844 14.1491 3.42938 11.9991 3.42938C9.84924 3.42938 7.77806 4.23844 6.19739 5.6957L6.75935 6.24484Z"
        fill="#5A5564"
    />
    <path
        d="M6.24506 17.2443C4.93625 15.8117 4.21055 13.9413 4.21055 12.0009C4.21055 10.0604 4.93625 8.19005 6.24506 6.7574L5.69591 6.20825C4.23865 7.78892 3.4296 9.8601 3.4296 12.01C3.4296 14.1599 4.23865 16.2311 5.69591 17.8118L6.24506 17.2443Z"
        fill="#5A5564"
    />
    <path
        d="M17.2442 17.7515C15.8112 19.0618 13.9397 19.7885 11.998 19.7885C10.0562 19.7885 8.18472 19.0618 6.75175 17.7515L6.2026 18.3006C7.78327 19.7579 9.85445 20.5669 12.0044 20.5669C14.1543 20.5669 16.2254 19.7579 17.8061 18.3006L17.2442 17.7515Z"
        fill="#5A5564"
    />
    <path
        d="M15.4672 10.1677C15.3573 9.02177 14.3689 8.63736 13.1187 8.52021V6.94232H12.1521V8.49092C11.8977 8.49092 11.6378 8.49092 11.3797 8.49092V6.94232H10.4205V8.53119H8.46004V9.56542C8.46004 9.56542 9.17393 9.55261 9.16295 9.56542C9.29167 9.55126 9.42086 9.58762 9.5233 9.66684C9.62574 9.74606 9.69343 9.86195 9.7121 9.9901V14.3394C9.70935 14.3846 9.69756 14.4287 9.67744 14.4693C9.65732 14.5099 9.62927 14.546 9.59495 14.5755C9.56127 14.6056 9.52186 14.6286 9.47907 14.643C9.43629 14.6575 9.39103 14.6632 9.346 14.6597C9.35881 14.6707 8.64309 14.6597 8.64309 14.6597L8.46004 15.8147H10.4022V17.4292H11.3687V15.8385H12.1412V17.4219H13.1095V15.8257C14.7423 15.7269 15.8809 15.3242 16.0236 13.7957C16.139 12.5656 15.5605 12.0165 14.6361 11.795C15.1981 11.5186 15.5459 11.006 15.4672 10.1677ZM14.1126 13.6053C14.1126 14.8061 12.0551 14.6688 11.3998 14.6688V12.5381C12.0551 12.54 14.1126 12.3514 14.1126 13.6053ZM13.6641 10.6033C13.6641 11.7016 11.9471 11.568 11.4016 11.568V9.63132C11.9471 9.63132 13.6641 9.45925 13.6641 10.6033Z"
        fill="#F09242"
    />
    <path
        d="M11.9982 22C10.0205 21.9996 8.08735 21.4129 6.44314 20.3139C4.79893 19.215 3.51748 17.6532 2.76084 15.826C2.00419 13.9988 1.80631 11.9883 2.19222 10.0487C2.57813 8.10901 3.5305 6.32735 4.92891 4.92894C6.32733 3.53052 8.10899 2.57815 10.0486 2.19224C11.9883 1.80633 13.9988 2.00421 15.826 2.76086C17.6532 3.51751 19.215 4.79895 20.3139 6.44316C21.4129 8.08737 21.9996 10.0205 22 11.9982C22.0002 13.3117 21.7417 14.6124 21.2391 15.826C20.7366 17.0396 19.9999 18.1423 19.071 19.0711C18.1422 19.9999 17.0396 20.7366 15.826 21.2392C14.6124 21.7417 13.3117 22.0002 11.9982 22ZM11.9982 2.7798C10.1761 2.78124 8.39541 3.32282 6.8811 4.33606C5.3668 5.3493 4.18686 6.78874 3.49043 8.47242C2.79401 10.1561 2.61236 12.0085 2.96844 13.7954C3.32452 15.5823 4.20235 17.2235 5.49098 18.5116C6.7796 19.7997 8.42118 20.6769 10.2082 21.0323C11.9953 21.3876 13.8475 21.2052 15.5309 20.5082C17.2144 19.8111 18.6533 18.6306 19.666 17.1158C20.6786 15.6011 21.2195 13.8202 21.2202 11.9982C21.2207 10.7872 20.9824 9.58792 20.5191 8.46904C20.0558 7.35016 19.3765 6.33358 18.52 5.47743C17.6635 4.62128 16.6466 3.94235 15.5276 3.47947C14.4085 3.01659 13.2092 2.77883 11.9982 2.7798Z"
        fill="#282138"
    />
</svg>
