<svg viewBox="0 0 24 24" fill="none" xmlns="http://www.w3.org/2000/svg">
    <path
        d="M12 22C17.5228 22 22 17.5228 22 12C22 6.47715 17.5228 2 12 2C6.47715 2 2 6.47715 2 12C2 17.5228 6.47715 22 12 22Z"
        fill="#272D63"
    />
    <path
        d="M14.6344 6.5L14.1969 8.27625C15.5494 8.74875 16.545 9.4575 16.3506 10.77C16.2944 11.1687 16.1569 11.5681 15.8731 11.87C15.63 12.1306 15.25 12.2688 14.9256 12.375C14.5367 12.5066 14.1299 12.578 13.7194 12.5869C13.4444 12.5869 13.1769 12.5787 12.9019 12.5544C12.4569 12.5212 12.0031 12.4806 11.5662 12.3831C11.4287 12.3506 11.2987 12.3263 11.1775 12.2931L10.5862 14.6806L10.2381 15.9844L9.80062 17.7694L8.72437 17.5006L9.17 15.6994C8.91875 15.6344 8.65937 15.5613 8.40062 15.4956L7 15.1456L7.53437 13.9144C7.53437 13.9144 8.32812 14.1269 8.31937 14.1106C8.6275 14.1838 8.75687 13.98 8.81312 13.85L9.42062 11.405L9.70375 10.2725L10.0281 8.96875C10.0437 8.74062 9.96312 8.4475 9.52562 8.34125C9.54187 8.33312 8.74062 8.14563 8.74062 8.14563L9.02375 6.98875L10.505 7.36375C10.7325 7.42 10.9587 7.46938 11.1937 7.52625L11.6312 5.75L12.7075 6.01875L12.2787 7.7625C12.5619 7.82813 12.8537 7.89312 13.1369 7.96625L13.5575 6.23063L14.6344 6.5ZM14.5456 12.9375C14.845 12.8881 15.2094 12.7662 15.4681 12.66C15.4762 12.6519 15.4931 12.6519 15.5006 12.6438C16.0594 13.1406 16.3262 13.9475 15.9619 14.9825C15.3869 16.6613 14.0031 16.7994 12.1731 16.4494L11.7281 18.25L10.6594 17.9812L11.0719 16.2619L11.0881 16.205L11.4125 14.8844C12.3675 15.0969 13.655 15.235 13.8975 14.2406C14.0275 13.7112 13.7762 13.3281 13.3712 13.0512L13.7925 13.0262C14.0925 13.0106 14.2456 12.9863 14.5456 12.9369V12.9375ZM14.2294 10.7531C14.5456 9.47375 12.5856 9.19688 11.9794 9.03438L11.4444 11.2013C12.0519 11.3563 13.93 11.9756 14.2294 10.7531Z"
        fill="#FEFEFE"
    />
</svg>
