<svg viewBox="0 0 24 24" fill="none" xmlns="http://www.w3.org/2000/svg">
    <path
        d="M6.80489 4.02191C7.35575 4.17214 7.90661 4.2723 8.45748 4.42254C9.00834 4.57277 9.5592 4.67293 10.1101 4.82316C10.2603 4.87324 10.3104 4.82316 10.3604 4.67293C10.5608 3.8216 10.7611 3.02034 10.9614 2.16901C11.0115 2.01878 11.0615 1.9687 11.2118 2.01878C11.7126 2.16901 12.1633 2.26917 12.664 2.36933C12.8143 2.41941 12.8143 2.46948 12.7642 2.56964C12.5639 3.37089 12.3636 4.22222 12.1633 5.02347C12.1633 5.07355 12.1633 5.12363 12.1132 5.22379C12.5138 5.32394 12.9645 5.4241 13.3651 5.52426C13.4152 5.52426 13.4653 5.4241 13.5154 5.37402C13.6656 4.723 13.8158 4.12207 14.0162 3.47105C14.0662 3.27074 14.1163 3.07042 14.1664 2.87011C14.1664 2.76995 14.2165 2.71987 14.3166 2.76995C14.8174 2.92019 15.3182 3.02034 15.8691 3.17058C15.9191 3.17058 15.9191 3.22066 15.9692 3.22066C15.819 3.87167 15.6687 4.47261 15.5185 5.07355C15.4684 5.32394 15.4184 5.57433 15.3182 5.82473C15.2681 5.97496 15.3182 6.02504 15.4684 6.07512C16.0193 6.32551 16.5702 6.5759 17.121 6.82629C17.6218 7.12676 18.0725 7.52739 18.423 8.02817C18.8737 8.77934 18.9238 9.58059 18.7235 10.3818C18.5733 10.9327 18.373 11.4335 17.9723 11.8341C17.6719 12.1346 17.2712 12.3349 16.8706 12.4851C16.8205 12.4851 16.7705 12.5352 16.6703 12.5352C16.8706 12.6854 17.0709 12.7856 17.2712 12.9358C17.8722 13.3865 18.2728 13.9374 18.4731 14.6385C18.5733 15.1894 18.5232 15.7903 18.373 16.3412C18.1727 17.0423 17.9223 17.6432 17.4716 18.1941C16.9207 18.8451 16.2196 19.1956 15.4184 19.2958C14.3667 19.446 13.3651 19.3459 12.3636 19.1956C12.2133 19.1455 12.1132 19.1956 12.0631 19.3459C11.8628 20.1471 11.6625 20.9984 11.4622 21.7997C11.4121 22 11.4121 22.0501 11.1617 21.9499C10.711 21.8498 10.2102 21.6995 9.75951 21.5994C9.60928 21.5493 9.60927 21.4992 9.65935 21.3991C9.85967 20.5477 10.06 19.6964 10.3104 18.8951C10.3104 18.795 10.3604 18.7449 10.2603 18.6948C9.85967 18.5947 9.45904 18.4945 9.00834 18.3944C8.90818 18.8451 8.75794 19.2958 8.65779 19.7465C8.55763 20.1972 8.4074 20.6479 8.30724 21.0986C8.25716 21.1987 8.25716 21.2488 8.10693 21.1987C7.60615 21.0485 7.10536 20.9484 6.60458 20.8482C6.45435 20.7981 6.45435 20.748 6.50442 20.6479C6.70474 19.7966 6.90505 18.9452 7.15544 18.144C7.15544 18.0939 7.20552 18.0438 7.20552 17.9437C6.05372 17.6432 4.90192 17.3427 3.70004 17.0423C3.8002 16.8419 3.85028 16.6917 3.95043 16.4914C4.15075 16.0407 4.35106 15.59 4.50129 15.1894C4.55137 15.0391 4.60145 15.0391 4.75169 15.0391C5.10223 15.1393 5.50286 15.2394 5.85341 15.2895C6.25403 15.3897 6.5545 15.1894 6.60458 14.8388C7.2556 12.2848 7.90662 9.73083 8.50755 7.12676C8.60771 6.72613 8.35732 6.27543 7.90661 6.1252C7.45591 5.97496 7.00521 5.8748 6.60458 5.77465C6.50442 5.77465 6.45435 5.72457 6.50442 5.62441C6.65466 5.07355 6.80489 4.47261 6.95513 3.92175C6.75482 4.07199 6.75482 4.07199 6.80489 4.02191ZM9.35888 16.3912C9.40896 16.3912 9.45904 16.4413 9.45904 16.4413C10.2603 16.6416 11.1116 16.892 11.963 16.9421C12.5639 16.9922 13.1148 16.9922 13.6656 16.7919C14.6171 16.4914 15.0177 15.2394 14.4669 14.4382C14.2165 14.0376 13.8158 13.7872 13.4152 13.5368C12.5138 13.036 11.4622 12.8357 10.4606 12.6354C10.3104 12.5853 10.3104 12.6354 10.2603 12.7856C10.1601 13.2864 10.0099 13.7371 9.90974 14.2379C9.70943 14.939 9.5592 15.6401 9.35888 16.3912ZM13.5655 11.2833C13.6656 11.2833 13.916 11.2332 14.1163 11.1831C15.0678 10.9828 15.5686 9.88106 15.0678 9.02973C14.8174 8.57903 14.3667 8.27856 13.916 8.07825C13.2149 7.77778 12.5138 7.62754 11.7626 7.42723C11.6124 7.37715 11.5623 7.42723 11.5122 7.57746C11.2619 8.62911 11.0115 9.63067 10.711 10.6823C10.6609 10.7825 10.711 10.8326 10.8112 10.8826C11.0115 10.9327 11.1617 10.9828 11.362 11.0329C12.1132 11.133 12.7642 11.2833 13.5655 11.2833Z"
        fill="#F5B300"
    />
</svg>
