<svg viewBox="0 0 24 24" fill="none" xmlns="http://www.w3.org/2000/svg">
    <path
        d="M12 22C17.5228 22 22 17.5228 22 12C22 6.47715 17.5228 2 12 2C6.47715 2 2 6.47715 2 12C2 17.5228 6.47715 22 12 22Z"
        fill="#FB2EA3"
    />
    <path
        d="M16.1451 10.7625C16.0032 11.7219 15.4713 12.1863 14.7657 12.3488C15.7345 12.8531 16.2282 13.6275 15.7582 14.9688C15.1751 16.635 13.7901 16.775 11.9482 16.4269L11.5001 18.2188L10.4201 17.9494L10.8613 16.1819C10.5734 16.1104 10.2863 16.0358 10.0001 15.9581L9.55758 17.7344L8.4782 17.4656L8.9257 15.67C8.6732 15.6056 8.41695 15.5369 8.15508 15.4713L6.74945 15.1213L7.2857 13.8837C7.2857 13.8837 8.08195 14.0962 8.0707 14.08C8.37695 14.1556 8.51258 13.9562 8.56633 13.8237L9.27258 10.9913L9.38695 11.0194C9.35028 11.005 9.31269 10.9931 9.27445 10.9837L9.7782 8.96187C9.79133 8.73187 9.71258 8.44313 9.27508 8.33313C9.29195 8.32188 8.49008 8.13812 8.49008 8.13812L8.77758 6.98438L10.2676 7.35625L10.2663 7.3625C10.4901 7.4175 10.7213 7.47062 10.9563 7.52437L11.3995 5.75L12.4795 6.01875L12.0457 7.75875C12.3351 7.825 12.627 7.89125 12.9107 7.9625L13.342 6.23438L14.422 6.50312L13.9795 8.27813C15.3438 8.74813 16.3413 9.4525 16.1451 10.7625ZM13.6763 14.2238C14.0263 12.825 11.6776 12.4631 10.9451 12.28L10.352 14.6581C11.0845 14.84 13.3432 15.5656 13.677 14.2238H13.6763ZM14.0107 10.7431C14.3282 9.47 12.3645 9.18688 11.7545 9.03438L11.217 11.1913C11.8263 11.3438 13.7063 11.9638 14.0107 10.7431ZM17.1544 15.5112C17.1021 15.5042 17.0488 15.5076 16.9978 15.5213C16.9467 15.5349 16.8989 15.5585 16.857 15.5906C16.7757 15.6603 16.7206 15.7555 16.7007 15.8606C16.6879 15.9191 16.6837 15.9791 16.6882 16.0387C16.6936 16.1067 16.7154 16.1724 16.752 16.23C16.7895 16.2925 16.8495 16.3512 16.9307 16.4062C17.012 16.4606 17.1245 16.5044 17.2682 16.5375C17.3457 16.5563 17.4257 16.565 17.5076 16.5644C17.5901 16.5644 17.6663 16.5512 17.7363 16.525C17.8104 16.4989 17.8763 16.454 17.9278 16.3947C17.9793 16.3354 18.0145 16.2638 18.0301 16.1869C18.0448 16.132 18.0485 16.0748 18.041 16.0184C18.0335 15.9621 18.0149 15.9078 17.9863 15.8587C17.9288 15.7625 17.8345 15.6888 17.7026 15.6375L17.7988 15.2212C18.0363 15.3169 18.2026 15.4537 18.2988 15.6306C18.3951 15.8081 18.4151 16.0188 18.3588 16.2625C18.3304 16.3977 18.2739 16.5254 18.1932 16.6375C18.1207 16.7364 18.0277 16.8185 17.9206 16.8782C17.8135 16.938 17.6948 16.974 17.5726 16.9838C17.4381 16.9959 17.3026 16.986 17.1713 16.9544C17.0363 16.9242 16.9067 16.8737 16.787 16.8044C16.6766 16.7411 16.5802 16.6561 16.5038 16.5544C16.4295 16.4533 16.3787 16.337 16.3551 16.2138C16.3299 16.0724 16.3352 15.9273 16.3707 15.7881C16.3946 15.6825 16.4331 15.5807 16.4851 15.4856C16.5357 15.3931 16.5976 15.315 16.672 15.2512C16.7457 15.1875 16.8307 15.1412 16.927 15.1125C17.0238 15.0831 17.1313 15.0775 17.2507 15.0944L17.1544 15.5112ZM18.837 14.1906C18.8075 14.3296 18.7503 14.4612 18.6688 14.5775C18.592 14.6838 18.5001 14.7675 18.3938 14.8294C18.2839 14.8918 18.1621 14.9306 18.0363 14.9431C17.8967 14.9571 17.7558 14.9474 17.6194 14.9144C17.4836 14.8844 17.3539 14.8315 17.2357 14.7581C17.1282 14.6917 17.0358 14.6036 16.9645 14.4994C16.8944 14.3947 16.8475 14.2762 16.827 14.1519C16.8049 14.0118 16.8113 13.8688 16.8457 13.7313C16.8752 13.5923 16.9323 13.4607 17.0138 13.3444C17.0913 13.2381 17.1826 13.1537 17.2894 13.0925C17.3994 13.0301 17.5212 12.9913 17.647 12.9788C17.7782 12.9644 17.9157 12.9738 18.0595 13.0069C18.1965 13.0368 18.3275 13.0897 18.447 13.1631C18.5595 13.2344 18.6495 13.3206 18.7182 13.4225C18.787 13.5244 18.8326 13.64 18.8557 13.7694C18.8778 13.9096 18.8715 14.0529 18.837 14.1906ZM17.197 12.4419L17.2876 12.0513L17.6526 12.1356L17.6545 12.1281C17.6035 12.1019 17.5582 12.0658 17.5213 12.0219C17.4365 11.9233 17.3803 11.8033 17.3588 11.675C17.3484 11.6102 17.3505 11.544 17.3651 11.48C17.3764 11.4273 17.3923 11.3756 17.4126 11.3256L17.8144 11.4181C17.8027 11.4468 17.7917 11.4758 17.7813 11.505C17.7708 11.5338 17.7621 11.5633 17.7551 11.5931C17.7378 11.6617 17.7363 11.7333 17.7505 11.8026C17.7648 11.8718 17.7946 11.937 17.8376 11.9931C17.8863 12.056 17.9465 12.1091 18.0151 12.1494C18.0895 12.195 18.1788 12.23 18.2838 12.2544L19.1826 12.4619L19.0863 12.8781L17.197 12.4419ZM18.622 11.0731C18.6944 11.0906 18.7676 11.0963 18.8407 11.0919C18.9101 11.0875 18.9781 11.0697 19.0407 11.0394C19.1028 11.009 19.1573 10.965 19.2001 10.9106C19.2484 10.847 19.2817 10.7733 19.2976 10.695C19.3266 10.5923 19.3229 10.483 19.287 10.3825C19.2464 10.29 19.1774 10.2127 19.0901 10.1619L19.1807 9.7675C19.3163 9.82912 19.4321 9.92709 19.5154 10.0505C19.5987 10.174 19.6462 10.3181 19.6526 10.4669C19.6588 10.5669 19.6501 10.6681 19.627 10.7706C19.5926 10.9194 19.5376 11.0456 19.4626 11.1487C19.3905 11.25 19.2968 11.3339 19.1883 11.3945C19.0797 11.455 18.9591 11.4906 18.8351 11.4987C18.5613 11.5206 18.2876 11.4559 18.0526 11.3138C17.9451 11.2466 17.8514 11.1596 17.7763 11.0575C17.7032 10.9567 17.6519 10.8417 17.6257 10.72C17.5976 10.5962 17.6007 10.4637 17.6326 10.3219C17.6624 10.1823 17.7262 10.0522 17.8182 9.94312C17.9044 9.84201 18.0117 9.76095 18.1326 9.70563C18.2562 9.65091 18.3893 9.62117 18.5245 9.61812C18.6657 9.61313 18.8045 9.63562 18.9419 9.685L18.6213 11.0737L18.622 11.0731ZM18.5082 14.115C18.5288 14.0349 18.5288 13.9509 18.5083 13.8708C18.4878 13.7908 18.4473 13.7171 18.3907 13.6569C18.336 13.5973 18.2713 13.5477 18.1995 13.5106C18.0503 13.4322 17.8835 13.3934 17.7151 13.3981C17.6343 13.3997 17.5544 13.416 17.4795 13.4462C17.4025 13.4759 17.3343 13.5245 17.2811 13.5876C17.2279 13.6506 17.1914 13.726 17.1751 13.8069C17.1543 13.8867 17.1539 13.9704 17.174 14.0504C17.1941 14.1303 17.234 14.2039 17.2901 14.2644C17.342 14.3231 17.4057 14.3713 17.4813 14.4106C17.6306 14.4888 17.7973 14.5275 17.9657 14.5231C18.0467 14.5211 18.1267 14.5048 18.202 14.475C18.2792 14.4456 18.3477 14.3972 18.4013 14.3343C18.4548 14.2714 18.4916 14.1959 18.5082 14.115ZM18.572 10.0381C18.5057 10.0278 18.4384 10.0271 18.372 10.0363C18.3087 10.0433 18.2475 10.0628 18.1919 10.0936C18.1362 10.1244 18.0872 10.1658 18.0476 10.2156C18.0066 10.271 17.9772 10.3341 17.9611 10.4011C17.945 10.4681 17.9425 10.5377 17.9538 10.6056C17.9663 10.6712 17.9895 10.7306 18.0245 10.7838C18.1016 10.8955 18.2162 10.976 18.3476 11.0106L18.572 10.0381Z"
        fill="white"
    />
</svg>
