<svg viewBox="0 0 24 24" fill="none" xmlns="http://www.w3.org/2000/svg">
    <path
        d="M3.68229 18.45C4.51131 19.3378 9.0701 23.5913 16.225 18.6545C21.3999 14.5862 21.2701 5.7663 20.7734 3.10129C20.6003 3.48925 14.5964 16.7776 3.68229 18.45V18.45ZM20.7734 3.09954C20.7094 3.07333 14.0529 2.15762 7.47262 6.43736C3.38633 9.09364 2.84461 12.9837 3.03153 15.5823C12.5974 14.4953 20.5553 3.40537 20.7734 3.09954Z"
        fill="#97C554"
    />
    <path
        d="M20.7734 3.09954C20.7094 3.07333 14.0529 2.15762 7.47262 6.43736C3.38633 9.09364 2.84461 12.9837 3.03153 15.5823C12.5974 14.4953 20.5553 3.40537 20.7734 3.09954Z"
        fill="#709B30"
    />
</svg>
