<svg viewBox="0 0 24 24" fill="none" xmlns="http://www.w3.org/2000/svg">
    <path
        d="M5.34936 6.76321H8.16884L5.97661 12.1774C5.97661 12.1774 4.83061 12.1585 4.4802 11.1474C4.38204 10.8472 4.3738 10.5244 4.4565 10.2195L5.34936 6.76321Z"
        fill="#D53127"
    />
    <path
        d="M16.2845 6.87908L12.6993 6.81613L13.5061 4.12918C13.5804 3.88321 13.5967 3.62309 13.5537 3.36963C13.5107 3.11616 13.4095 2.87639 13.2582 2.66947C13.107 2.46256 12.9099 2.29425 12.6827 2.178C12.4555 2.06176 12.2045 2.0008 11.9499 2.00002H8.67771L4.93669 15.567C4.93669 15.567 3.59616 21.369 8.67771 21.894C8.67771 21.894 16.7109 23.5523 19.2885 13.7513C19.2885 13.7513 20.649 7.82342 16.2845 6.87908ZM13.8341 13.6078C13.8341 13.6078 13.6907 16.1109 11.8202 16.5503C11.544 16.6205 11.2522 16.5901 10.9959 16.4647C10.7029 16.3136 10.3998 16.0001 10.4073 15.3428C10.4122 15.1529 10.4424 14.9644 10.4971 14.7825L11.1879 12.1774H13.0734C13.0734 12.1774 13.9276 12.4582 13.8341 13.6078Z"
        fill="#F47320"
    />
    <path
        d="M19.4607 11.019C19.1178 7.03646 16.2846 6.87907 16.2846 6.87907L12.6994 6.81612L11.1594 12.2089H13.0399C13.3853 12.2278 14.015 12.8032 13.8105 13.8218"
        fill="url(#Bithumb_a)"
    />
    <defs>
        <linearGradient
            id="Bithumb_a"
            x1="18.8023"
            y1="16.3463"
            x2="13.0752"
            y2="7.64235"
            gradientUnits="userSpaceOnUse"
        >
            <stop offset="0.41" stop-color="#F47320" />
            <stop offset="0.5" stop-color="#F16D21" />
            <stop offset="0.62" stop-color="#E95C22" />
            <stop offset="0.75" stop-color="#DC4125" />
            <stop offset="0.81" stop-color="#D53127" />
        </linearGradient>
    </defs>
</svg>
