<svg viewBox="0 0 24 24" fill="none" xmlns="http://www.w3.org/2000/svg">
    <path
        d="M18.0772 11.6933C18.9206 10.6265 19.3783 9.3058 19.3762 7.94592C19.3762 4.60072 16.6658 2 13.3221 2H5.97044V2.75658H13.1591C16.1142 2.75658 18.51 5.04485 18.51 8.00001C18.5118 9.14887 18.1423 10.2676 17.4566 11.1893L18.0772 11.6933Z"
        fill="#55A49F"
    />
    <path
        d="M17.2573 11.0668C18.0619 10.2489 18.5121 9.14718 18.5107 7.99991C18.5107 6.83874 18.0495 5.72512 17.2285 4.90398C16.4075 4.08284 15.2939 3.62144 14.1328 3.62125H7.91638V4.37855H14.2943C14.763 4.37827 15.2271 4.47033 15.6601 4.64948C16.0932 4.82862 16.4867 5.09134 16.8181 5.42262C17.1496 5.7539 17.4126 6.14725 17.592 6.58019C17.7714 7.01313 17.8637 7.47717 17.8637 7.94581C17.8643 8.46616 17.7508 8.98031 17.5312 9.45204C17.3116 9.92376 16.9912 10.3416 16.5925 10.6761L17.2573 11.0668Z"
        fill="#4A8C89"
    />
    <path
        d="M16.058 10.4962C17.0808 10.0492 17.8637 9.07552 17.8637 7.94598C17.8637 6.39366 16.389 5.1353 14.8367 5.1353H9.42955V5.56733H14.7812C16.0623 5.56733 17.3214 6.60861 17.3214 7.89189C17.3214 8.93175 16.4972 9.8136 15.5014 10.109L16.058 10.4962Z"
        fill="#5AABA5"
    />
    <path d="M3.80818 21.2434H4.99751V22H3.80818V21.2434Z" fill="#4A8C8A" />
    <path d="M4.99751 19.7297H9.7541V20.2699H4.99751V19.7297Z" fill="#5AABA6" />
    <path
        d="M4.99751 16.3788H10.0787V16.8116H4.99751V16.3788Z"
        fill="#4B8F8E"
    />
    <path
        d="M11.0516 16.3788H14.2951V16.8116H11.0516V16.3788Z"
        fill="#7CC6C7"
    />
    <path
        d="M5.97044 14.8648H7.69998V15.2976H5.97044V14.8648Z"
        fill="#5AB5B4"
    />
    <path
        d="M8.67299 14.8648H14.2944V15.2976H8.67299V14.8648Z"
        fill="#428989"
    />
    <path
        d="M10.5107 8.05429H14.1862V8.48703H10.5107V8.05429Z"
        fill="#549391"
    />
    <path d="M6.18684 5.1353H8.24094V5.56804H6.18684V5.1353Z" fill="#306563" />
    <path
        d="M6.72705 6.75655H14.2943V7.18929H6.72705V6.75655Z"
        fill="#64B9B9"
    />
    <path
        d="M4.78115 8.05429H9.42956V8.48703H4.78115V8.05429Z"
        fill="#7FD6D5"
    />
    <path
        d="M6.07866 21.1353V21.8919H14.2943C17.6395 21.8919 20.3484 19.2897 20.3484 15.946C20.3484 14.3403 19.7106 12.8004 18.5752 11.6651C17.4399 10.5297 15.9 9.89185 14.2943 9.89185H8.99752V10.541H14.1328C15.552 10.5411 16.913 11.1051 17.9165 12.1087C18.9199 13.1123 19.4837 14.4734 19.4837 15.8926C19.4837 18.8484 17.0879 21.136 14.1328 21.136L6.07866 21.1353Z"
        fill="#55A49F"
    />
    <path
        d="M7.37543 11.5132V12.2705H15.2673C15.7358 12.2704 16.1997 12.3626 16.6326 12.5418C17.0655 12.721 17.4588 12.9838 17.7902 13.315C18.1215 13.6463 18.3843 14.0396 18.5636 14.4724C18.7429 14.9053 18.8352 15.3692 18.8352 15.8377C18.8352 16.784 18.4593 17.6915 17.7902 18.3607C17.1211 19.0298 16.2135 19.4057 15.2673 19.4057H10.6189V20.2705H15.1029C15.6778 20.2705 16.2472 20.1572 16.7784 19.9372C17.3096 19.7171 17.7922 19.3946 18.1988 18.988C18.6053 18.5813 18.9278 18.0986 19.1477 17.5674C19.3677 17.0362 19.4809 16.4668 19.4808 15.8918C19.4808 14.7307 19.0196 13.617 18.1986 12.7959C17.3776 11.9748 16.264 11.5134 15.1029 11.5132H7.37543Z"
        fill="#4A8C89"
    />
    <path
        d="M9.64592 13.1352V13.5673H15.7541C17.0353 13.5673 18.2943 14.6086 18.2943 15.8918C18.2943 17.173 17.0381 18.2164 15.7541 18.2164H3.7V18.7566H15.8082C17.3605 18.7566 18.8353 17.4982 18.8353 15.9459C18.8353 14.3936 17.3605 13.1352 15.8082 13.1352H9.64592Z"
        fill="#5AABA5"
    />
</svg>
