<svg viewBox="0 0 24 24" fill="none" xmlns="http://www.w3.org/2000/svg">
    <path
        d="M17.816 15.3962V5.43396L20.7217 7.09434V17.0566L15.3632 20.1132L12.4575 18.4528L17.816 15.3962ZM3.25 10.9434L6.15566 9.28302V15.3585L14.9104 20.3396L12.0047 22L3.25 17.0189V10.9434ZM12.0047 2L17.3632 5.01887V8.33962L12.0047 5.32075L3.25 10.3396V7.01887L12.0047 2ZM8.7217 7.92453L10.684 6.79245V10.9811C10.9104 10.8302 11.3632 10.4528 12.0802 10.4528C13.0236 10.4528 13.816 10.7547 14.4575 11.434C15.1368 12.0755 15.4387 12.8679 15.4387 13.7736C15.4387 14.6792 15.0991 15.4717 14.4575 16.1132C13.7783 16.7547 13.0236 17.0943 12.0802 17.0943C11.1368 17.0943 10.3443 16.8302 9.70283 16.1509C9.02359 15.5094 8.7217 14.717 8.7217 13.8113V7.92453ZM11.0991 14.7925C11.3632 15.0566 11.7028 15.2075 12.0802 15.2075C12.4575 15.2075 12.7972 15.0566 13.0613 14.7925C13.3255 14.5283 13.4764 14.1887 13.4764 13.8113C13.4764 13.434 13.3255 13.0943 13.0613 12.8302C12.7972 12.566 12.4575 12.4151 12.0802 12.4151C11.7028 12.4151 11.3632 12.566 11.0991 12.8302C10.8349 13.0943 10.684 13.434 10.684 13.8113C10.7217 14.1887 10.8349 14.4906 11.0991 14.7925Z"
        fill="url(#Bitrue_a)"
    />
    <defs>
        <linearGradient
            id="Bitrue_a"
            x1="11.9883"
            y1="2.01532"
            x2="11.9883"
            y2="21.9848"
            gradientUnits="userSpaceOnUse"
        >
            <stop stop-color="#FEE276" />
            <stop offset="1" stop-color="#F0B734" />
        </linearGradient>
    </defs>
</svg>
