<svg viewBox="0 0 24 24" fill="none" xmlns="http://www.w3.org/2000/svg">
    <path
        fill-rule="evenodd"
        clip-rule="evenodd"
        d="M13.1937 10.8485C12.8451 10.7934 12.4872 10.8127 12.1354 10.8095C11.613 10.8095 11.0906 10.8163 10.5709 10.8064C10.5647 11.7518 10.5647 12.6969 10.5709 13.642C11.1982 13.6353 11.8227 13.6388 12.4486 13.6388C12.7806 13.6388 13.1207 13.6514 13.4388 13.5322C13.6533 13.4554 13.8449 13.3255 13.9956 13.1545C14.1463 12.9835 14.2511 12.7771 14.3003 12.5546C14.3743 12.1805 14.3357 11.771 14.1211 11.4484C13.9177 11.1259 13.5615 10.9225 13.1937 10.8485V10.8485Z"
        fill="#149F49"
    />
    <path
        fill-rule="evenodd"
        clip-rule="evenodd"
        d="M12 2C6.47715 2 2 6.47715 2 12C2 17.5228 6.47715 22 12 22C17.5228 22 22 17.5228 22 12C22 6.47715 17.5228 2 12 2ZM7.83333 13.7518C8.36559 13.7612 8.875 13.4225 9.09453 12.9418C9.1966 12.7165 9.24095 12.4694 9.22357 12.2227C9.24597 11.7451 9.01389 11.2581 8.60753 10.9969C8.38351 10.8356 8.10753 10.7728 7.83647 10.7549C7.83333 10.3772 7.83647 10.0031 7.83333 9.62903C8.22357 9.64516 8.60394 9.46461 8.8638 9.17742C9.11501 8.89494 9.24391 8.52435 9.22222 8.14695C9.17742 7.68907 8.9086 7.24686 8.49328 7.03719C8.29301 6.92115 8.06407 6.87903 7.83513 6.86962C7.82841 6.45654 7.83513 6.04704 7.83199 5.6371C9.60932 5.63396 11.3866 5.63082 13.1671 5.6371C13.8737 5.6819 14.5901 5.931 15.1156 6.41801C15.4694 6.74943 15.7069 7.18603 15.793 7.66308C15.8705 8.23387 15.819 8.85663 15.4736 9.33737C15.2545 9.67921 14.9189 9.92742 14.5609 10.1147C15.1156 10.3275 15.6125 10.7177 15.8898 11.25C16.2706 11.9794 16.2608 12.9019 15.8513 13.6147C15.5703 14.1147 15.0995 14.4919 14.5739 14.7115C14.0484 14.931 13.4642 15.0081 12.8965 15.0018H7.83378C7.83244 14.5838 7.83557 14.1676 7.83244 13.7518H7.83333ZM16.1667 18.3611C15.0345 18.3741 13.8992 18.3647 12.7616 18.3678C11.1196 18.3647 9.47805 18.3741 7.83602 18.3611C7.82616 17.9162 7.82616 17.4677 7.83602 17.0193C9.55197 17.0063 11.2684 17.0193 12.9884 17.0161C14.0466 17.0193 15.108 17.0063 16.1658 17.0193C16.1743 17.4677 16.1743 17.9162 16.1644 18.3611H16.1667Z"
        fill="#149F49"
    />
    <path
        fill-rule="evenodd"
        clip-rule="evenodd"
        d="M12.2679 9.5806C12.5483 9.57433 12.8324 9.60659 13.103 9.51922C13.5483 9.39333 13.9484 9.02236 14.0192 8.55148C14.0837 8.16439 14.0098 7.73562 13.7387 7.43858C13.4516 7.11914 13.0062 6.96457 12.5837 6.9807H10.5645C10.5676 7.84853 10.5676 8.71277 10.5645 9.57926L12.2679 9.5806Z"
        fill="#149F49"
    />
    <path
        d="M12.8967 15C13.4644 15.0063 14.0482 14.9355 14.5742 14.7097C15.1001 14.4839 15.5706 14.1129 15.8515 13.6129C16.261 12.9001 16.2708 11.9776 15.89 11.2482C15.6127 10.716 15.1158 10.3257 14.5612 10.1129C14.9196 9.92565 15.2547 9.67744 15.4738 9.33559C15.8192 8.85486 15.8708 8.2321 15.7932 7.66131C15.7071 7.18426 15.4696 6.74765 15.1158 6.41623C14.5894 5.92923 13.8725 5.68057 13.1673 5.63532C11.3869 5.62905 9.60955 5.63218 7.83221 5.63532C7.83535 6.04527 7.82863 6.45477 7.83535 6.86785C8.06429 6.87726 8.29324 6.91937 8.49351 7.03541C8.90928 7.24509 9.1772 7.68729 9.22245 8.14518C9.24414 8.52258 9.11524 8.89317 8.86403 9.17564C8.60238 9.46283 8.222 9.64339 7.83356 9.62726C7.8367 10.0014 7.83356 10.3755 7.83669 10.7532C8.10775 10.7724 8.38508 10.8338 8.60775 10.9951C9.01412 11.2563 9.24619 11.7433 9.22379 12.2209C9.24117 12.4676 9.19683 12.7147 9.09476 12.94C8.87523 13.4207 8.36582 13.7594 7.83356 13.75C7.8367 14.1658 7.83356 14.582 7.83356 14.9982L12.8967 15ZM14.3 12.5547C14.2508 12.7772 14.1459 12.9836 13.9952 13.1546C13.8446 13.3255 13.653 13.4555 13.4384 13.5323C13.1225 13.6515 12.7802 13.6389 12.4483 13.6389C11.821 13.6389 11.1965 13.6353 10.5706 13.642C10.5643 12.6967 10.5643 11.7515 10.5706 10.8065C11.0903 10.8163 11.6127 10.8096 12.1351 10.8096C12.4868 10.8127 12.8448 10.7935 13.1933 10.8486C13.5612 10.9225 13.916 11.1259 14.119 11.4485C14.3354 11.7711 14.3739 12.1806 14.3 12.5547V12.5547ZM10.5643 6.98075H12.5836C13.0061 6.96462 13.4514 7.11919 13.7386 7.43864C14.0096 7.73568 14.0836 8.16444 14.019 8.55154C13.9483 9.02242 13.5482 9.39339 13.1028 9.51928C12.834 9.60665 12.5482 9.57439 12.2677 9.58066H10.5652C10.5674 8.71283 10.5674 7.84858 10.5643 6.98075V6.98075Z"
        fill="white"
    />
    <path
        d="M12.9871 17.0162C11.268 17.0193 9.55162 17.0063 7.83478 17.0193C7.82492 17.4674 7.82492 17.9154 7.83478 18.3612C9.4768 18.3742 11.1184 18.3648 12.7604 18.3679C13.8962 18.3648 15.0315 18.3742 16.1654 18.3612C16.1753 17.9163 16.1753 17.4678 16.1654 17.0193C15.1067 17.0063 14.0453 17.0193 12.9871 17.0162V17.0162Z"
        fill="#73C692"
    />
</svg>
