<svg viewBox="0 0 24 24" fill="none" xmlns="http://www.w3.org/2000/svg">
    <path
        d="M9.89282 19.8947C13.057 19.8947 15.622 17.3027 15.622 14.1053C15.622 10.9078 13.057 8.31579 9.89282 8.31579C6.72866 8.31579 4.16366 10.9078 4.16366 14.1053C4.16366 17.3027 6.72866 19.8947 9.89282 19.8947ZM9.89282 22C5.57824 22 2.08032 18.4653 2.08032 14.1053C2.08032 9.74526 5.57824 6.21053 9.89282 6.21053C14.2074 6.21053 17.7053 9.74526 17.7053 14.1053C17.7053 18.4653 14.2074 22 9.89282 22Z"
        fill="#FBCC5C"
    />
    <path
        d="M14.0595 15.6842C17.2237 15.6842 19.7887 13.0922 19.7887 9.89474C19.7887 6.69726 17.2237 4.10526 14.0595 4.10526C10.8953 4.10526 8.33033 6.69726 8.33033 9.89474C8.33033 13.0922 10.8953 15.6842 14.0595 15.6842ZM14.0595 17.7895C9.74491 17.7895 6.24699 14.2547 6.24699 9.89474C6.24699 5.53474 9.74491 2 14.0595 2C18.3741 2 21.872 5.53474 21.872 9.89474C21.872 14.2547 18.3741 17.7895 14.0595 17.7895Z"
        fill="#35D07F"
    />
    <path
        d="M14.3158 17.7853C14.8572 17.1223 15.2453 16.3455 15.4516 15.5116C16.2768 15.3031 17.0455 14.911 17.7016 14.364C17.6717 15.3295 17.4659 16.2812 17.0945 17.1714C16.2135 17.5468 15.2716 17.755 14.316 17.7853H14.3158ZM8.50096 8.488C7.67576 8.69647 6.90705 9.08854 6.25096 9.63558C6.28087 8.67004 6.48668 7.71835 6.85804 6.82821C7.73904 6.45288 8.68096 6.24491 9.63659 6.21474C9.0953 6.87761 8.70731 7.65426 8.50096 8.488Z"
        fill="#5EA33B"
    />
</svg>
