<svg viewBox="0 0 24 24" fill="none" xmlns="http://www.w3.org/2000/svg">
    <g clip-path="url(#Celsius_a)">
        <path
            d="M17.0086 10.2843C17.2767 10.2843 17.4939 10.067 17.4939 9.79899C17.4939 9.53098 17.2767 9.31372 17.0086 9.31372C16.7406 9.31372 16.5234 9.53098 16.5234 9.79899C16.5234 10.067 16.7406 10.2843 17.0086 10.2843Z"
            fill="#262761"
        />
        <path
            d="M12.0173 2C6.4714 2 2 6.4714 2 12.0173C2 17.5633 6.4714 22.0347 12.0173 22.0347C17.5633 22.0347 22.0347 17.5633 22.0347 12.0173C22.0347 6.4714 17.5286 2 12.0173 2ZM16.5581 16.1768C15.3795 17.4939 13.6811 18.2218 11.948 18.2218C10.1802 18.2218 8.4818 17.4593 7.30329 16.1421C6.09012 14.7903 5.57019 13.0919 5.7435 11.2894C6.05546 8.41248 8.34315 6.12478 11.2201 5.77816C11.4627 5.7435 11.7054 5.7435 11.948 5.7435C13.3345 5.7435 14.6516 6.19411 15.7608 7.06066C15.8302 7.09532 15.8648 7.19931 15.8648 7.26863C15.8648 7.37262 15.8302 7.44194 15.7608 7.51126L15.1023 8.10052C15.0329 8.16984 14.9289 8.20451 14.825 8.20451C14.7556 8.20451 14.6516 8.16984 14.617 8.13518C13.8198 7.58059 12.8839 7.30329 11.948 7.30329C10.5962 7.30329 9.31369 7.89255 8.44714 8.89775C7.54593 9.90295 7.12998 11.2201 7.30329 12.5719C7.54593 14.721 9.27903 16.4541 11.4281 16.6967C11.6014 16.7314 11.7747 16.7314 11.9827 16.7314C13.2305 16.7314 14.409 16.2461 15.3102 15.3449C15.3795 15.2756 15.4835 15.2409 15.5875 15.2409C15.6568 15.2409 15.7262 15.2756 15.7955 15.3102L16.5234 15.7955C16.5927 15.8302 16.6274 15.8995 16.662 16.0035C16.6274 16.0381 16.5927 16.1075 16.5581 16.1768ZM17.0087 11.3241C16.1768 11.3241 15.4835 10.6308 15.4835 9.79896C15.4835 8.96707 16.1768 8.27383 17.0087 8.27383C17.8406 8.27383 18.5338 8.96707 18.5338 9.79896C18.5338 10.6308 17.8406 11.3241 17.0087 11.3241Z"
            fill="#262761"
        />
    </g>
    <defs>
        <clipPath id="Celsius_a">
            <rect
                width="20"
                height="20"
                fill="white"
                transform="translate(2 2)"
            />
        </clipPath>
    </defs>
</svg>
