<svg viewBox="0 0 24 24" fill="none" xmlns="http://www.w3.org/2000/svg">
  <circle cx="12" cy="12" r="10" fill="#2F2B32" />
  <path
    d="M16.2521 7.09468C15.5222 6.3649 14.6383 6 13.614 6H8L9.56733 7.88061H13.614C14.1185 7.88061 14.5541 8.06306 14.919 8.42795C15.2976 8.79284 15.4805 9.24194 15.4805 9.7472C15.4805 10.2665 15.284 10.7016 14.919 11.0664C14.5541 11.4313 14.1185 11.6137 13.614 11.6137H8V17.2275H9.86651V13.4944H13.614C14.6383 13.4944 15.5222 13.1295 16.2521 12.3997C16.9957 11.6699 17.347 10.7717 17.347 9.7472C17.347 8.72267 16.9821 7.83851 16.2521 7.09468Z"
    fill="#10D078"
  />
</svg>
