<svg viewBox="0 0 24 24" fill="none" xmlns="http://www.w3.org/2000/svg">
    <path
        d="M22 12C22 6.47715 17.5228 2 12 2C6.47715 2 2 6.47715 2 12C2 17.5228 6.47715 22 12 22C17.5228 22 22 17.5228 22 12Z"
        fill="#0052FF"
    />
    <path
        d="M12.0029 15.5156C10.0605 15.5156 8.48724 13.9424 8.48724 12C8.48724 10.0576 10.0605 8.48438 12.0029 8.48438C13.7431 8.48438 15.1875 9.75293 15.4658 11.4141H19.0078C18.7089 7.80469 15.6884 4.96875 12.0029 4.96875C8.12103 4.96875 4.97162 8.11816 4.97162 12C4.97162 15.8818 8.12103 19.0312 12.0029 19.0312C15.6884 19.0312 18.7089 16.1953 19.0078 12.5859H15.4628C15.1845 14.2471 13.7431 15.5156 12.0029 15.5156Z"
        fill="white"
    />
</svg>
