<svg viewBox="0 0 24 24" fill="none" xmlns="http://www.w3.org/2000/svg">
    <path
        d="M21.9986 11.9559C22.0073 13.9335 21.4294 15.8692 20.338 17.5183C19.2466 19.1675 17.6906 20.4559 15.8669 21.2207C14.0432 21.9855 12.0337 22.1924 10.0924 21.8151C8.15113 21.4378 6.36534 20.4933 4.96085 19.1011C3.55637 17.7089 2.59628 15.9314 2.20198 13.9936C1.80769 12.0557 1.9969 10.0444 2.7457 8.21406C3.4945 6.38371 4.76924 4.81652 6.40874 3.71067C8.04823 2.60481 9.97883 2.00996 11.9564 2.00135C14.6081 1.98979 17.1558 3.03206 19.0391 4.89889C20.9224 6.76571 21.9869 9.30418 21.9986 11.9559Z"
        fill="#8DC63F"
    />
    <path
        d="M21.2488 11.9595C21.2571 13.7885 20.7228 15.5788 19.7136 17.1042C18.7043 18.6295 17.2655 19.8213 15.5789 20.5288C13.8923 21.2364 12.0338 21.4279 10.2383 21.0792C8.44291 20.7305 6.7912 19.8572 5.4921 18.5697C4.193 17.2823 3.30485 15.6385 2.93997 13.8463C2.57509 12.0541 2.74986 10.1939 3.44219 8.50103C4.13451 6.80814 5.3133 5.35857 6.82947 4.33563C8.34565 3.3127 10.1311 2.76234 11.9601 2.75415C14.4125 2.74336 16.7687 3.70709 18.5106 5.43337C20.2525 7.15966 21.2375 9.50713 21.2488 11.9595Z"
        fill="#F9E988"
    />
    <path
        d="M12.1702 3.35334C12.758 3.249 13.3597 3.249 13.9475 3.35334C14.541 3.44732 15.1148 3.63954 15.6451 3.92211C16.1726 4.21193 16.6283 4.60536 17.0819 4.97415C17.5355 5.34295 17.9869 5.72044 18.4165 6.13343C18.8551 6.53998 19.2379 7.0029 19.5548 7.51007C19.8811 8.01322 20.1485 8.55219 20.3518 9.11639C20.738 10.251 20.872 11.4733 20.6793 12.6391H20.622C20.4286 11.4835 20.1663 10.3822 19.7526 9.33448C19.5584 8.8069 19.3299 8.29258 19.0686 7.79481C18.796 7.29697 18.4955 6.81487 18.1687 6.35079C17.8364 5.88163 17.429 5.47039 16.9631 5.13355C16.4936 4.79881 15.9538 4.58217 15.4314 4.3764C14.909 4.17063 14.3909 3.95761 13.8461 3.80111C13.3012 3.64461 12.7477 3.52723 12.1695 3.41348L12.1702 3.35334Z"
        fill="white"
    />
    <path
        d="M16.6906 8.69543C16.0197 8.50125 15.3241 8.22592 14.6198 7.9477C14.5793 7.77091 14.4228 7.55064 14.1061 7.28184C13.6461 6.88261 12.7817 6.89276 12.0347 7.06955C11.2101 6.87537 10.3957 6.80653 9.61395 6.99709C3.21982 8.75846 6.84546 13.0558 4.49792 17.3755C4.83194 18.0841 8.43221 22.2184 13.6417 21.1091C13.6417 21.1091 11.86 16.8277 15.8806 14.7729C19.1417 13.0999 21.498 10.0047 16.6906 8.69543Z"
        fill="#8BC53F"
    />
    <path
        d="M17.4804 11.5074C17.4808 11.5841 17.4585 11.6591 17.4163 11.7231C17.374 11.7871 17.3138 11.8371 17.2431 11.8669C17.1724 11.8966 17.0945 11.9047 17.0193 11.8902C16.944 11.8756 16.8747 11.8391 16.8202 11.7852C16.7657 11.7313 16.7284 11.6624 16.713 11.5873C16.6976 11.5122 16.7049 11.4342 16.7338 11.3632C16.7627 11.2923 16.8121 11.2314 16.8756 11.1885C16.9391 11.1455 17.0139 11.1224 17.0906 11.122C17.1933 11.1216 17.292 11.1619 17.3651 11.2342C17.4382 11.3064 17.4796 11.4047 17.4804 11.5074Z"
        fill="white"
    />
    <path
        d="M12.0347 7.06664C12.5006 7.09997 14.1851 7.64628 14.6199 7.9448C14.2576 6.8942 13.0382 6.75436 12.0347 7.06664Z"
        fill="#009345"
    />
    <path
        d="M12.4781 9.72355C12.4783 10.0773 12.3735 10.423 12.1771 10.7172C11.9807 11.0114 11.7015 11.2407 11.3747 11.3761C11.048 11.5116 10.6884 11.5471 10.3415 11.4782C9.9946 11.4093 9.67591 11.239 9.42575 10.989C9.1756 10.7389 9.00522 10.4203 8.93616 10.0734C8.86711 9.72651 8.90248 9.36693 9.0378 9.04014C9.17312 8.71335 9.40232 8.43403 9.6964 8.23751C9.99048 8.04099 10.3362 7.9361 10.6899 7.9361C10.9247 7.936 11.1572 7.98216 11.3742 8.07195C11.5911 8.16174 11.7883 8.29338 11.9543 8.45937C12.1204 8.62536 12.2521 8.82244 12.342 9.03935C12.4319 9.25627 12.4781 9.48876 12.4781 9.72355Z"
        fill="white"
    />
    <path
        d="M11.9478 9.7395C11.9478 9.98827 11.874 10.2315 11.7358 10.4383C11.5976 10.6452 11.4011 10.8064 11.1713 10.9016C10.9415 10.9968 10.6886 11.0217 10.4446 10.9731C10.2006 10.9246 9.97644 10.8048 9.80054 10.6289C9.62463 10.453 9.50483 10.2289 9.4563 9.98489C9.40776 9.7409 9.43267 9.48799 9.52788 9.25816C9.62308 9.02832 9.78429 8.83188 9.99114 8.69367C10.198 8.55546 10.4412 8.48169 10.6899 8.48169C11.0235 8.48169 11.3435 8.61421 11.5794 8.85009C11.8152 9.08598 11.9478 9.40591 11.9478 9.7395Z"
        fill="#58595B"
    />
    <path
        d="M18.9287 12.2957C17.4796 13.3166 15.832 14.0911 13.4946 14.0911C12.4006 14.0911 12.1788 12.9319 11.4557 13.4985C11.0826 13.7926 9.76682 14.4505 8.72275 14.4005C7.67868 14.3505 5.98614 13.7383 5.51446 11.5096C5.32753 13.7383 5.23189 15.3801 4.39503 17.2618C6.06149 19.9303 10.0349 21.9887 13.6417 21.1019C13.2541 18.3957 15.619 15.7453 16.9514 14.3889C17.4586 13.8752 18.4223 13.0369 18.9287 12.2943V12.2957Z"
        fill="#8BC53F"
    />
    <path
        d="M18.8723 12.3624C18.4223 12.7725 17.8869 13.076 17.342 13.3441C16.7905 13.606 16.2156 13.8153 15.6248 13.9694C15.0336 14.1223 14.417 14.2375 13.7925 14.181C13.1679 14.1245 12.5296 13.9122 12.1159 13.4441L12.1354 13.4217C12.6426 13.7506 13.228 13.8665 13.8106 13.8832C14.401 13.9011 14.9916 13.8525 15.5712 13.7383C16.1567 13.6157 16.7294 13.4386 17.2819 13.2094C17.8347 12.9811 18.3817 12.7167 18.8527 12.3399L18.8723 12.3624Z"
        fill="#58595B"
    />
</svg>
