<svg viewBox="0 0 24 24" fill="none" xmlns="http://www.w3.org/2000/svg">
    <path
        d="M12 22C17.5229 22 22 17.5229 22 12C22 6.4771 17.5229 2 12 2C6.4771 2 2 6.4772 2 12C2 17.5228 6.4772 22 12 22Z"
        fill="#070A0E"
    />
    <path
        fill-rule="evenodd"
        clip-rule="evenodd"
        d="M7.77641 15.3532C7.62932 15.2633 7.50775 15.1372 7.42335 14.9869C7.33894 14.8366 7.29451 14.6671 7.29431 14.4947V12.5411C7.29447 12.4673 7.31407 12.3949 7.35115 12.331C7.38823 12.2672 7.44147 12.2143 7.5055 12.1776C7.56954 12.1409 7.64212 12.1217 7.71592 12.122C7.78973 12.1223 7.86216 12.142 7.92591 12.1792L12.3351 14.75C12.4619 14.8239 12.567 14.9298 12.6401 15.057C12.7133 15.1842 12.7518 15.3283 12.7519 15.475V17.4994C12.7521 17.589 12.7284 17.677 12.6832 17.7544C12.638 17.8317 12.573 17.8956 12.4948 17.9395C12.4167 17.9833 12.3283 18.0055 12.2387 18.0037C12.1491 18.0019 12.0617 17.9763 11.9853 17.9294L7.77641 15.3532ZM14.3489 11.6437C14.4756 11.7177 14.5808 11.8235 14.6539 11.9507C14.7269 12.078 14.7654 12.2221 14.7655 12.3688V16.4763C14.7656 16.5358 14.7498 16.5943 14.7198 16.6457C14.6897 16.6971 14.6465 16.7395 14.5946 16.7686L13.6292 17.3121C13.6169 17.3189 13.6039 17.3243 13.5904 17.3282V15.0475C13.5904 14.9023 13.5527 14.7595 13.4811 14.6331C13.4095 14.5067 13.3064 14.401 13.1818 14.3263L9.30981 12.01V9.43513C9.30997 9.36132 9.32957 9.28886 9.36665 9.22504C9.40373 9.16122 9.45696 9.1083 9.521 9.07161C9.58504 9.03492 9.65762 9.01575 9.73142 9.01603C9.80523 9.01631 9.87766 9.03604 9.94141 9.07323L14.3489 11.6437ZM16.2789 8.60993C16.4061 8.68374 16.5117 8.78971 16.5851 8.9172C16.6584 9.0447 16.6969 9.18924 16.6968 9.33633V15.3363C16.6965 15.3968 16.6799 15.4561 16.6487 15.508C16.6176 15.5598 16.5731 15.6023 16.5198 15.631L15.6052 16.125V11.9482C15.6051 11.8033 15.5676 11.6608 15.4962 11.5347C15.4249 11.4085 15.3221 11.303 15.1979 11.2282L11.2398 8.85433V6.41203C11.24 6.33803 11.2593 6.26535 11.2959 6.20103C11.352 6.10481 11.4439 6.03476 11.5515 6.00623C11.6592 5.9777 11.7737 5.99302 11.8701 6.04883L16.2789 8.60993Z"
        fill="#00D395"
    />
</svg>
