<svg viewBox="0 0 24 24" fill="none" xmlns="http://www.w3.org/2000/svg">
    <path
        d="M22.0003 12C22.0003 11.0795 21.2541 10.3333 20.3336 10.3333C19.4131 10.3333 18.6669 11.0795 18.6669 12H18.6666V12H18.6669C18.6669 12.0138 18.6667 12.0276 18.6666 12.0414V12.0562H18.6665C18.6363 15.7122 15.6634 18.6667 12.0001 18.6667C8.31833 18.6667 5.33336 15.6819 5.33336 12C5.33336 8.31807 8.31833 5.33333 12.0001 5.33333C12.7579 5.33333 13.486 5.46007 14.1647 5.69302C14.8401 5.90586 15.3298 6.53713 15.3298 7.28285C15.3298 8.20331 14.5836 8.94952 13.6632 8.94952C13.4687 8.94952 13.2821 8.91628 13.1086 8.85507H13.1085C12.7617 8.733 12.3887 8.66666 12.0001 8.66666C10.1592 8.66666 8.66679 10.1591 8.66679 12C8.66679 13.8409 10.1592 15.3333 12.0001 15.3333C13.8412 15.3333 15.3335 13.8409 15.3335 12H15.3336V12C15.3336 9.23851 17.5722 6.9999 20.3337 6.9999C20.4464 6.9999 20.558 7.00401 20.6688 7.01134C19.4932 4.97298 17.6194 3.38805 15.3739 2.5835C14.3199 2.20573 13.1841 2 12.0001 2C6.47735 2 2 6.47717 2 12C2 17.5228 6.47735 22 12.0001 22C17.5194 22 21.994 17.5289 22.0002 12.0113C22.0002 12.0075 22.0003 12.0038 22.0003 12Z"
        fill="#46B549"
    />
</svg>
