<svg viewBox="0 0 24 24" fill="none" xmlns="http://www.w3.org/2000/svg">
    <path
        fill-rule="evenodd"
        clip-rule="evenodd"
        d="M18.3286 19.7434C14.4004 22.9615 8.59561 22.7374 4.92933 19.0711C1.0238 15.1656 1.0238 8.83421 4.92933 4.92923C8.59561 1.2624 14.4004 1.03829 18.3286 4.25635L17.1643 5.42066C13.8825 2.83768 9.11297 3.05963 6.08608 6.08598C2.82049 9.35211 2.82049 14.6477 6.08608 17.9138C9.11297 20.9401 13.8825 21.1621 17.1643 18.5797L18.3286 19.7434ZM12.0005 18.6698C15.7095 18.6698 18.7164 15.684 18.7164 12.0004C18.7164 8.31681 15.7095 5.33097 12.0005 5.33097C8.29102 5.33097 5.28412 8.31681 5.28412 12.0004C5.28412 15.684 8.29102 18.6698 12.0005 18.6698ZM19.744 5.67179C22.752 9.34402 22.752 14.6563 19.744 18.328L18.5797 17.1637C20.958 14.1417 20.958 9.85867 18.5797 6.8361L19.744 5.67179Z"
        fill="#00B74F"
    />
</svg>
