<?xml version="1.0" encoding="UTF-8" standalone="no"?><!DOCTYPE svg PUBLIC "-//W3C//DTD SVG 1.1//EN" "http://www.w3.org/Graphics/SVG/1.1/DTD/svg11.dtd"><svg viewBox="0 0 24 24" version="1.1" xmlns="http://www.w3.org/2000/svg" xmlns:xlink="http://www.w3.org/1999/xlink" xml:space="preserve" xmlns:serif="http://www.serif.com/" fill-rule="evenodd" clip-rule="evenodd" stroke-linejoin="round" stroke-miterlimit="2"><g transform="matrix(0.594967,0,0,0.594967,15.2555,6.12055)"><g transform="matrix(1,0,0,1,-23.9888,-9.61916)"><path d="M18.518,31.852C25.386,31.852 30.954,26.323 30.954,19.502C30.954,12.681 25.386,7.152 18.518,7.152C11.649,7.152 6.081,12.681 6.081,19.502C6.081,26.323 11.649,31.852 18.518,31.852Z" fill="rgb(0,183,79)" fill-rule="nonzero"/></g><g transform="matrix(1,0,0,1,-23.9888,-9.61916)"><path d="M30.236,33.84C22.962,39.799 12.213,39.384 5.424,32.595C-1.808,25.363 -1.808,13.639 5.424,6.408C12.213,-0.382 22.962,-0.797 30.236,5.162L28.08,7.318C22.003,2.535 13.171,2.946 7.566,8.55C1.519,14.598 1.519,24.404 7.566,30.452C13.171,36.056 22.003,36.467 28.08,31.685L30.236,33.84Z" fill="rgb(0,183,79)" fill-rule="nonzero"/></g><g transform="matrix(1,0,0,1,-23.9888,-9.61916)"><path d="M32.857,31.219C38.427,24.42 38.427,14.583 32.857,7.783L30.701,9.939C35.105,15.536 35.105,23.467 30.701,29.063L32.857,31.219Z" fill="rgb(0,183,79)" fill-rule="nonzero"/></g></g></svg>