<svg viewBox="0 0 24 24" fill="none" xmlns="http://www.w3.org/2000/svg">
    <path
        d="M12 22C17.5228 22 22 17.5228 22 12C22 6.47715 17.5228 2 12 2C6.47715 2 2 6.47715 2 12C2 17.5228 6.47715 22 12 22Z"
        fill="url(#Decentraland_a)"
    />
    <path
        fill-rule="evenodd"
        clip-rule="evenodd"
        d="M9.08493 8.5V16H15.3349L9.08493 8.5Z"
        fill="url(#Decentraland_b)"
    />
    <path
        fill-rule="evenodd"
        clip-rule="evenodd"
        d="M2.8353 16H9.0853V8.5L2.8353 16Z"
        fill="white"
    />
    <path
        fill-rule="evenodd"
        clip-rule="evenodd"
        d="M4 18C4.57 18.755 5.245 19.43 6 20H18C18.755 19.43 19.43 18.755 20 18H4Z"
        fill="#FC9965"
    />
    <path
        fill-rule="evenodd"
        clip-rule="evenodd"
        d="M6 20C7.67 21.255 9.75 22 12 22C14.25 22 16.33 21.255 18 20H6Z"
        fill="#FF2D55"
    />
    <path
        fill-rule="evenodd"
        clip-rule="evenodd"
        d="M15.4151 12.5V18H20.0001L15.4151 12.5Z"
        fill="url(#Decentraland_c)"
    />
    <path
        fill-rule="evenodd"
        clip-rule="evenodd"
        d="M15.4153 16H2.8353C3.1453 16.715 3.5403 17.385 4.0003 18H15.4203V16H15.4153Z"
        fill="#FFBC5B"
    />
    <path
        fill-rule="evenodd"
        clip-rule="evenodd"
        d="M10.8349 18H15.4149V12.5L10.8349 18Z"
        fill="white"
    />
    <path
        d="M15.4151 11C16.7958 11 17.9151 9.88071 17.9151 8.5C17.9151 7.11929 16.7958 6 15.4151 6C14.0344 6 12.9151 7.11929 12.9151 8.5C12.9151 9.88071 14.0344 11 15.4151 11Z"
        fill="#FFC95B"
    />
    <path
        d="M9.08493 7C9.77529 7 10.3349 6.44036 10.3349 5.75C10.3349 5.05964 9.77529 4.5 9.08493 4.5C8.39457 4.5 7.83493 5.05964 7.83493 5.75C7.83493 6.44036 8.39457 7 9.08493 7Z"
        fill="#FFC95B"
    />
    <defs>
        <linearGradient
            id="Decentraland_a"
            x1="19.071"
            y1="4.929"
            x2="4.929"
            y2="19.071"
            gradientUnits="userSpaceOnUse"
        >
            <stop stop-color="#FF2D55" />
            <stop offset="1" stop-color="#FFBC5B" />
        </linearGradient>
        <linearGradient
            id="Decentraland_b"
            x1="12.2078"
            y1="8.5"
            x2="12.2078"
            y2="16"
            gradientUnits="userSpaceOnUse"
        >
            <stop stop-color="#A524B3" />
            <stop offset="1" stop-color="#FF2D55" />
        </linearGradient>
        <linearGradient
            id="Decentraland_c"
            x1="17.706"
            y1="12.5"
            x2="17.706"
            y2="18"
            gradientUnits="userSpaceOnUse"
        >
            <stop stop-color="#A524B3" />
            <stop offset="1" stop-color="#FF2D55" />
        </linearGradient>
    </defs>
</svg>
