<svg viewBox="0 0 24 24" fill="none" xmlns="http://www.w3.org/2000/svg">
    <g clip-path="url(#Decred_a)">
        <path
            d="M10.7914 13.5712H15.7232C17.5555 13.5712 19.0565 12.0897 19.0565 10.2379C19.0565 8.38601 17.575 6.92402 15.7426 6.92402H14.1637L10.7914 4.00004H15.7232C19.1734 3.98055 21.9805 6.76807 21.9805 10.2184C22 12.772 20.4405 15.0722 18.0623 16.0273L21.961 19.3997H17.5165L10.7914 13.5712Z"
            fill="url(#Decred_b)"
        />
        <path
            d="M13.2085 9.84795H8.27674C6.44438 9.84795 4.94341 11.3294 4.94341 13.1813C4.94341 15.0331 6.42489 16.5146 8.27674 16.5146H9.85569L13.2085 19.4386H8.27674C4.82645 19.4386 2.01943 16.6511 1.99994 13.2203C1.98044 10.6472 3.5399 8.34698 5.91807 7.39181L2.01943 4H6.48337L13.2085 9.84795Z"
            fill="#4971FA"
        />
        <path
            d="M13.2085 9.84795H8.27674C6.44438 9.84795 4.94341 11.3294 4.94341 13.1813C4.94341 15.0331 6.42489 16.5146 8.27674 16.5146H9.85569L13.2085 19.4386H8.27674C4.82645 19.4386 2.01943 16.6511 1.99994 13.2203C1.98044 10.6472 3.5399 8.34698 5.91807 7.39181L2.01943 4H6.48337L13.2085 9.84795Z"
            fill="url(#Decred_c)"
        />
    </g>
    <defs>
        <linearGradient
            id="Decred_b"
            x1="10.8009"
            y1="11.7008"
            x2="21.9763"
            y2="11.7008"
            gradientUnits="userSpaceOnUse"
        >
            <stop stop-color="#62D0C9" />
            <stop offset="1" stop-color="#7DE2AC" />
        </linearGradient>
        <linearGradient
            id="Decred_c"
            x1="2.03487"
            y1="11.7097"
            x2="13.2103"
            y2="11.7097"
            gradientUnits="userSpaceOnUse"
        >
            <stop stop-color="#3268FB" />
            <stop offset="1" stop-color="#4795FA" />
        </linearGradient>
        <clipPath id="Decred_a">
            <rect
                width="20"
                height="15.4191"
                fill="white"
                transform="translate(2 4)"
            />
        </clipPath>
    </defs>
</svg>
