<svg viewBox="0 0 24 24" fill="none" xmlns="http://www.w3.org/2000/svg">
    <g clip-path="url(#DefiCoins_a)">
        <path
            d="M9.80295 17.1041C9.3152 17.1009 8.82106 17.0688 8.33972 17.0144C7.79424 16.9439 7.32574 16.8509 6.88934 16.7324C6.40802 16.5946 5.962 16.4248 5.55448 16.2293C5.1213 16.005 4.74908 15.7615 4.4314 15.4923L5.2689 14.8419C5.62187 15.0406 5.94917 15.1912 6.27004 15.3001C6.6198 15.4186 6.99202 15.5116 7.36745 15.5757C7.76854 15.6365 8.15359 15.675 8.52902 15.6878C8.61569 15.691 8.71515 15.691 8.81139 15.691C9.10983 15.691 9.40827 15.6782 9.70348 15.6558C10.1398 15.6173 10.5281 15.5692 10.8779 15.5084C11.2661 15.4347 11.6608 15.3481 12.0395 15.2488C12.8994 15.0245 13.631 14.7874 14.2792 14.5247C15.7585 13.9191 16.9906 13.1725 17.9372 12.2977L18.2902 11.9548C18.3319 11.91 18.3736 11.8651 18.4154 11.8202C18.4827 11.7465 18.5533 11.6761 18.6111 11.6056C18.7843 11.4037 18.9191 11.1826 19.0186 10.9519C19.2207 10.4873 19.2528 10.0066 19.1117 9.59009C19.0411 9.3754 18.9288 9.18315 18.7747 9.01332C18.6143 8.83068 18.4025 8.65444 18.1619 8.50384C17.6838 8.19623 17.0708 7.97193 16.3842 7.84697C16.2013 7.81492 16.0505 7.79249 15.89 7.77968L15.306 7.73482L14.6642 7.722C14.5648 7.722 14.4685 7.7252 14.3691 7.72841C14.2888 7.73161 14.2086 7.73482 14.1284 7.73482C13.3775 7.77006 12.5946 7.8726 11.8277 8.03602C11.1057 8.18662 10.3645 8.41733 9.62004 8.71532C8.9109 8.9973 8.24343 9.33375 7.62735 9.72467C6.44011 10.452 4.92792 11.1185 4.1546 12.3105C4.6263 10.9583 4.9416 9.70544 6.25079 8.68328C7.62418 7.62908 9.28633 6.82801 11.0608 6.35698C12.001 6.10064 12.97 5.93082 13.9295 5.85712C14.0257 5.85071 14.1027 5.8475 14.1797 5.84109C14.3466 5.82828 14.5134 5.81866 14.6835 5.81546L15.4312 5.81226L16.166 5.85071C16.4034 5.86352 16.6602 5.89236 16.9778 5.93722C18.0848 6.11026 19.1053 6.46913 19.9395 6.97541C20.3855 7.24777 20.7706 7.56499 21.085 7.91426C21.4124 8.27634 21.653 8.68008 21.7974 9.10945C22.0605 9.90731 22.0028 10.7564 21.6306 11.5703C21.4508 11.958 21.207 12.3265 20.9086 12.6662C20.8123 12.7719 20.7192 12.8713 20.623 12.9674C20.5781 13.0122 20.5332 13.0571 20.4882 13.1052C20.3759 13.2141 20.2732 13.307 20.1706 13.4L20.0262 13.5281C18.7779 14.6048 17.1768 15.4892 15.3862 16.0979C14.4717 16.4088 13.5636 16.6459 12.6876 16.8061C12.2224 16.8926 11.7635 16.9599 11.2854 17.0144C10.7784 17.0656 10.2875 17.0913 9.81574 17.0945H9.80934H9.80295V17.1041Z"
            fill="#1E3862"
        />
        <path
            d="M4.89346 15.2009C5.24643 15.3996 5.61544 15.5758 6.00692 15.7104C6.4016 15.8449 6.80912 15.9475 7.22626 16.018C7.64661 16.0821 8.07016 16.1269 8.49693 16.1429C8.92371 16.1526 9.35048 16.1429 9.77086 16.1109C10.1944 16.0756 10.6116 16.0244 11.0255 15.9539C11.433 15.877 11.8469 15.7873 12.2512 15.6816C13.0567 15.4733 13.8428 15.2266 14.584 14.9253C16.0633 14.3197 17.3885 13.5379 18.4218 12.5862L18.794 12.2209C18.9063 12.096 19.0346 11.9678 19.1373 11.8492C19.3363 11.6153 19.4935 11.359 19.609 11.0962C19.8401 10.5675 19.8882 10.0004 19.7117 9.49089C19.6251 9.23455 19.4871 8.99423 19.2946 8.77634C19.102 8.55524 18.8485 8.34697 18.5662 8.17073C18.0014 7.80865 17.289 7.55551 16.5382 7.42093C16.3489 7.38889 16.1628 7.36005 15.9606 7.34403L15.351 7.29596L14.7348 7.28315C14.5295 7.27994 14.3241 7.29276 14.1155 7.29596C13.2909 7.33442 12.463 7.44336 11.6576 7.61639C10.849 7.78622 10.0692 8.03295 9.32484 8.33094C8.58037 8.62574 7.87446 8.98462 7.22626 9.39156C5.91065 10.1958 4.88384 11.2564 4.12335 12.426C4.55975 11.1699 5.44859 9.97153 6.70002 8.99743C7.95785 8.03295 9.52053 7.2511 11.2726 6.78649C12.1454 6.54937 13.0598 6.38275 13.9968 6.31226C14.2311 6.29944 14.4653 6.27701 14.7027 6.2706L15.4119 6.2674L16.1242 6.30264C16.3649 6.31546 16.6152 6.3475 16.8559 6.38275C17.8281 6.53335 18.7619 6.85057 19.5448 7.32801C19.9363 7.56833 20.2828 7.8471 20.5684 8.16752C20.8604 8.49116 21.0723 8.85324 21.1974 9.22173C21.4412 9.96833 21.361 10.7374 21.0433 11.4359C20.8829 11.7852 20.6615 12.1184 20.3855 12.4292C20.2508 12.5798 20.1128 12.7112 19.978 12.8554C19.8368 12.9932 19.686 13.1245 19.5384 13.2559C18.3255 14.3037 16.7917 15.1304 15.1199 15.6976C14.2824 15.9827 13.4192 16.2167 12.5304 16.3769C12.0876 16.4602 11.6416 16.5242 11.1827 16.5787C10.7239 16.6268 10.265 16.6524 9.80295 16.6524C9.34086 16.6492 8.88199 16.6204 8.42634 16.5691C7.97392 16.5114 7.52467 16.4281 7.09791 16.3096C6.67114 16.1878 6.26362 16.034 5.88499 15.8513C5.52239 15.6655 5.18546 15.4476 4.89346 15.2009Z"
            fill="#0052FF"
        />
        <path
            d="M12.5177 14.7876C12.4086 14.7843 12.2545 14.7779 12.1422 14.7459L12.0909 14.7299L12.0428 14.7042C11.9241 14.6401 11.8342 14.5408 11.7733 14.4062L11.7476 14.3517L11.7379 14.2909C11.7251 14.2139 11.7187 14.0441 11.7155 13.9128V13.8967L11.7348 12.1857L12.9477 12.1888C13.3295 12.1921 13.6215 12.2337 13.8397 12.317L13.8493 12.3202C14.09 12.4164 14.2825 12.5638 14.4173 12.7592L14.4205 12.7656C14.5552 12.9643 14.6194 13.2014 14.6162 13.4674C14.613 13.7653 14.5232 14.0345 14.3499 14.262L14.3435 14.2716L14.3371 14.278C14.1542 14.4992 13.9328 14.6434 13.6793 14.7074C13.4867 14.7619 13.2493 14.7876 12.9509 14.7876H12.9477H12.5177Z"
            fill="#1E3862"
        />
        <path
            d="M14.1415 13.4642C14.1383 13.6661 14.0838 13.8359 13.9715 13.9801C13.8527 14.1211 13.718 14.214 13.5543 14.2557C13.4003 14.3006 13.1949 14.3198 12.9479 14.3198L12.5275 14.3166C12.3895 14.3134 12.3061 14.3006 12.2708 14.2909C12.2387 14.2749 12.2194 14.2493 12.2002 14.2108C12.197 14.1852 12.1874 14.0763 12.1841 13.9032L12.197 12.66L12.9414 12.6631C13.2687 12.6664 13.5094 12.6984 13.6666 12.7593C13.827 12.8234 13.9394 12.9131 14.0196 13.0285C14.1062 13.1534 14.1447 13.2944 14.1415 13.4642Z"
            fill="#1E3862"
        />
        <path
            d="M11.7251 12.2851L11.7476 9.94275L12.8578 9.94595C13.2942 9.95236 13.5734 9.9844 13.7627 10.0485C14.0034 10.1318 14.1927 10.2664 14.321 10.4522C14.4526 10.6349 14.52 10.8559 14.52 11.1123V11.1187C14.5168 11.3558 14.4462 11.5737 14.3146 11.766L14.305 11.7788L14.2954 11.7916C14.1542 11.9711 13.9584 12.1024 13.7178 12.1857L13.7049 12.189C13.4996 12.253 13.2236 12.2851 12.8675 12.2851H11.7251Z"
            fill="#1E3862"
        />
        <path
            d="M14.0519 11.1124C14.0487 11.2597 14.0069 11.3879 13.93 11.5001C13.8465 11.6058 13.7278 11.6891 13.5673 11.7436C13.4069 11.7949 13.1662 11.8205 12.8389 11.8173L12.2036 11.8141L12.2165 10.4138L12.8518 10.417C13.2208 10.4234 13.4775 10.4491 13.6155 10.4939C13.7598 10.5452 13.869 10.6189 13.9428 10.7246C14.0198 10.8336 14.0519 10.9618 14.0519 11.1124Z"
            fill="#1E3862"
        />
        <path
            d="M12.5177 14.7876C12.4086 14.7843 12.2545 14.7779 12.1422 14.7459L12.0909 14.7299L12.0428 14.7042C11.9241 14.6401 11.8342 14.5408 11.7733 14.4062L11.7476 14.3517L11.7379 14.2909C11.7251 14.2139 11.7187 14.0441 11.7155 13.9128V13.8967L11.7348 12.1857L12.9477 12.1888C13.3295 12.1921 13.6215 12.2337 13.8397 12.317L13.8493 12.3202C14.09 12.4164 14.2825 12.5638 14.4173 12.7592L14.4205 12.7656C14.5552 12.9643 14.6194 13.2014 14.6162 13.4674C14.613 13.7653 14.5232 14.0345 14.3499 14.262L14.3435 14.2716L14.3371 14.278C14.1542 14.4992 13.9328 14.6434 13.6793 14.7074C13.4867 14.7619 13.2493 14.7876 12.9509 14.7876H12.9477H12.5177Z"
            fill="#1E3862"
        />
        <path
            d="M14.026 13.0316C14.1094 13.1534 14.1447 13.2944 14.1415 13.4642C14.1383 13.6661 14.0838 13.8359 13.9715 13.9801C13.8527 14.1211 13.718 14.214 13.5543 14.2557C13.4003 14.3006 13.1949 14.3198 12.9479 14.3198L12.5275 14.3166C12.3895 14.3134 12.3061 14.3006 12.2708 14.2909C12.2387 14.2749 12.2194 14.2493 12.2002 14.2108C12.197 14.1852 12.1874 14.0763 12.1841 13.9032L12.197 12.66L12.9414 12.6631C13.2687 12.6664 13.5094 12.6984 13.6666 12.7593C13.8303 12.8266 13.9458 12.9131 14.026 13.0316Z"
            fill="#1E3862"
        />
        <path
            d="M11.7251 12.2851L11.7476 9.94275L12.8578 9.94595C13.2942 9.95236 13.5734 9.9844 13.7627 10.0485C14.0034 10.1318 14.1927 10.2664 14.321 10.4522C14.4526 10.6349 14.52 10.8559 14.52 11.1123V11.1187C14.5168 11.3558 14.4462 11.5737 14.3146 11.766L14.305 11.7788L14.2954 11.7916C14.1542 11.9711 13.9584 12.1024 13.7178 12.1857L13.7049 12.189C13.4996 12.253 13.2236 12.2851 12.8675 12.2851H11.7251Z"
            fill="#1E3862"
        />
        <path
            d="M13.9396 10.7279C14.0198 10.8336 14.0519 10.9649 14.0519 11.1124C14.0487 11.2597 14.0069 11.3879 13.93 11.5001C13.8465 11.6058 13.7278 11.6891 13.5673 11.7436C13.4069 11.7949 13.1662 11.8205 12.8389 11.8173L12.2036 11.8141L12.2165 10.4138L12.8518 10.417C13.2208 10.4234 13.4775 10.4491 13.6155 10.4939C13.7598 10.5452 13.8658 10.6189 13.9396 10.7279Z"
            fill="#1E3862"
        />
        <path
            d="M12.8645 19.3824C9.4568 19.3824 6.55283 16.9504 5.95599 13.5956C5.27893 9.78566 7.82992 6.136 11.6452 5.4599C12.0527 5.3862 12.4699 5.35095 12.8806 5.35095C16.2851 5.35095 19.1923 7.7862 19.7891 11.1443C20.4662 14.9509 17.9152 18.5974 14.1031 19.2735C13.6924 19.344 13.2785 19.3824 12.8645 19.3824Z"
            fill="#1E3862"
        />
        <path
            d="M8.49385 16.5531C9.50788 16.4377 10.5283 16.3672 11.5422 16.2422C11.6963 16.223 11.8535 16.2006 12.0139 16.1749L11.5519 16.1717L11.5583 15.2265L10.0758 15.2104L10.0822 14.419L10.3069 14.4158C10.4609 14.4222 10.5635 14.4094 10.6181 14.3838C10.6727 14.3581 10.7112 14.3197 10.7272 14.2716C10.7529 14.2267 10.7657 14.1178 10.7657 13.9544L10.7978 10.7501C10.801 10.5803 10.785 10.4746 10.7657 10.4233C10.7464 10.3784 10.7079 10.34 10.6534 10.3111C10.5988 10.2823 10.4962 10.2663 10.3454 10.2695L10.1207 10.2631L10.1271 9.47161L11.6128 9.48763L11.6257 8.54238L12.5979 8.54878L12.5851 9.49404L13.214 9.49725L13.2205 8.55199L14.1959 8.56481L14.1831 9.57735C14.3307 9.60619 14.4622 9.63823 14.5681 9.6895C14.8505 9.80806 15.0719 9.97468 15.2259 10.1958C15.3735 10.4169 15.4506 10.6572 15.4473 10.9167C15.4441 11.109 15.4024 11.2852 15.319 11.4583C15.2356 11.6249 15.12 11.7755 14.9628 11.9101C14.8088 12.035 14.6034 12.144 14.3564 12.2273C14.6227 12.301 14.8313 12.3715 14.9724 12.4612C15.1746 12.5766 15.3383 12.7399 15.457 12.9482C15.5757 13.1565 15.6335 13.3872 15.6302 13.6435C15.6302 13.948 15.534 14.2267 15.3479 14.4799C15.165 14.7362 14.8986 14.9317 14.5649 15.0631C14.4366 15.1079 14.2954 15.1496 14.1317 15.1784L14.1285 15.7199C14.9115 15.5245 15.6912 15.329 16.4581 15.0662C17.2507 14.7939 17.9406 14.4831 18.6978 14.1466C18.8807 14.0665 19.0605 13.9864 19.2434 13.9031C19.4487 13.054 19.484 12.1504 19.3204 11.2372C18.6914 7.6644 15.2901 5.29325 11.7284 5.92449C8.16336 6.55573 5.78886 9.95225 6.42099 13.5122C6.64239 14.7587 7.20714 15.8609 7.99653 16.7389C8.14089 16.6363 8.31739 16.5723 8.49385 16.5531Z"
            fill="#0052FF"
        />
        <path
            d="M16.5642 16.7165C15.7267 16.9889 14.8732 17.1811 14.0197 17.399C12.5693 17.7643 11.0964 17.8989 9.61719 18.0462C10.9039 18.78 12.4441 19.0876 14.0197 18.8089C15.8165 18.4916 17.3086 17.4695 18.2681 16.0788C17.7098 16.3127 17.1418 16.5306 16.5642 16.7165Z"
            fill="#006AF2"
        />
        <path
            d="M12.5306 15.2329L12.5242 16.0788C12.7327 16.0372 12.9413 15.9923 13.1499 15.9443L13.1531 15.2361C13.1306 15.2361 13.1081 15.2393 13.0825 15.2361L12.5306 15.2329Z"
            fill="#0892D0"
        />
        <path
            d="M12.5177 14.7876C12.4086 14.7843 12.2545 14.7779 12.1422 14.7459L12.0909 14.7299L12.0428 14.7042C11.9241 14.6401 11.8342 14.5408 11.7733 14.4062L11.7476 14.3517L11.7379 14.2909C11.7251 14.2139 11.7187 14.0441 11.7155 13.9128V13.8967L11.7348 12.1857L12.9477 12.1888C13.3295 12.1921 13.6215 12.2337 13.8397 12.317L13.8493 12.3202C14.09 12.4164 14.2825 12.5638 14.4173 12.7592L14.4205 12.7656C14.5552 12.9643 14.6194 13.2014 14.6162 13.4674C14.613 13.7653 14.5232 14.0345 14.3499 14.262L14.3435 14.2716L14.3371 14.278C14.1542 14.4992 13.9328 14.6434 13.6793 14.7074C13.4867 14.7619 13.2493 14.7876 12.9509 14.7876H12.9477H12.5177Z"
            fill="#1E3862"
        />
        <path
            d="M14.026 13.0316C14.1094 13.1534 14.1447 13.2944 14.1415 13.4642C14.1383 13.6661 14.0838 13.8359 13.9715 13.9801C13.8527 14.1211 13.718 14.214 13.5543 14.2557C13.4003 14.3006 13.1949 14.3198 12.9479 14.3198L12.5275 14.3166C12.3895 14.3134 12.3061 14.3006 12.2708 14.2909C12.2387 14.2749 12.2194 14.2493 12.2002 14.2108C12.197 14.1852 12.1874 14.0763 12.1841 13.9032L12.197 12.66L12.9414 12.6631C13.2687 12.6664 13.5094 12.6984 13.6666 12.7593C13.8303 12.8266 13.9458 12.9131 14.026 13.0316Z"
            fill="#0892D0"
        />
        <path
            d="M11.7251 12.2851L11.7476 9.94275L12.8578 9.94595C13.2942 9.95236 13.5734 9.9844 13.7627 10.0485C14.0034 10.1318 14.1927 10.2664 14.321 10.4522C14.4526 10.6349 14.52 10.8559 14.52 11.1123V11.1187C14.5168 11.3558 14.4462 11.5737 14.3146 11.766L14.305 11.7788L14.2954 11.7916C14.1542 11.9711 13.9584 12.1024 13.7178 12.1857L13.7049 12.189C13.4996 12.253 13.2236 12.2851 12.8675 12.2851H11.7251Z"
            fill="#1E3862"
        />
        <path
            d="M14.0519 11.1124C14.0487 11.2597 14.0069 11.3879 13.93 11.5001C13.8465 11.6058 13.7278 11.6891 13.5673 11.7436C13.4069 11.7949 13.1662 11.8205 12.8389 11.8173L12.2036 11.8141L12.2165 10.4138L12.8518 10.417C13.2208 10.4234 13.4775 10.4491 13.6155 10.4939C13.7598 10.5452 13.869 10.6189 13.9428 10.7246C14.0198 10.8336 14.0519 10.9618 14.0519 11.1124Z"
            fill="#0892D0"
        />
        <path
            d="M9.10994 18.1904C8.07671 18.1423 7.10766 18.0014 6.21882 17.7738C5.31073 17.5495 4.70937 17.2846 3.89112 16.8392C2.57381 15.7868 2.6449 15.3989 2.1347 14.8222C2.77967 15.2804 3.66601 15.5081 4.33023 15.7868C5.03616 16.0816 5.98137 16.2646 6.76753 16.4185C7.50553 16.5594 8.29171 16.6428 9.10994 16.6588C9.91537 16.6748 10.7561 16.6331 11.6128 16.5274C12.3926 16.4409 13.1915 16.2903 13.997 16.082C14.7125 15.9025 15.4441 15.659 16.2463 15.3322C17.6133 14.7682 18.8936 13.9768 20.052 12.9803L21.066 13.4865C20.1835 14.7042 18.8743 15.7616 17.2828 16.5402C16.5608 16.9055 15.7329 17.2227 14.7606 17.5111C13.8975 17.7578 12.9702 17.9469 11.9947 18.0686C11.109 18.168 10.2331 18.2096 9.37951 18.1904C9.28644 18.1936 9.19977 18.1936 9.10994 18.1904Z"
            fill="#1E3862"
        />
        <path
            d="M20.5174 13.3262C19.6863 14.4733 18.4413 15.4827 16.9332 16.2197C16.1855 16.5978 15.3673 16.899 14.5202 17.1489C13.6698 17.3924 12.781 17.5655 11.8793 17.6808C10.9712 17.7833 10.0535 17.825 9.1294 17.7898C8.20849 17.7481 7.28754 17.6231 6.41154 17.3988C5.53233 17.181 4.71088 16.8541 3.96964 16.4536C3.24445 16.0402 2.6059 15.5532 2.11816 14.9989C2.76313 15.457 3.45944 15.8608 4.21672 16.178C4.97399 16.4952 5.78261 16.7355 6.61048 16.8957C8.27585 17.2162 10.0214 17.2194 11.7125 17.0144C12.5596 16.9182 13.3939 16.758 14.1993 16.5497C15.0111 16.3478 15.7876 16.0755 16.5417 15.7711C18.0467 15.1591 19.3687 14.3163 20.5174 13.3262Z"
            fill="#006AF2"
        />
        <path
            d="M11.2535 15.3387L11.5326 15.4572L13.6151 14.9606L15.5789 14.1851L16.3426 13.4097L16.3586 13.1598C16.3586 13.1598 16.6314 8.34695 15.6848 7.81504C14.7382 7.28314 13.2012 7.05243 13.2012 7.05243L9.62335 8.92692L9.08749 10.9488L8.93346 12.1889V13.3264C8.93346 13.3264 8.83722 13.7269 8.93346 13.8166C9.02975 13.9031 9.14529 14.5184 9.14529 14.5184L9.264 15.1048L9.41158 15.2329L11.2535 15.3387Z"
            fill="#0052FF"
        />
        <path
            d="M21.8008 9.11592C21.6564 8.68655 21.4158 8.28602 21.0885 7.92073C20.9409 7.75731 20.7772 7.6003 20.5975 7.44971C20.5815 7.48174 20.5655 7.51699 20.5494 7.54903C20.4435 7.87908 20.2574 8.16426 19.9975 8.40458C19.6831 8.71859 19.2691 8.95251 18.8295 9.08067C18.9546 9.23769 19.0509 9.41072 19.1151 9.59977C19.2594 10.0163 19.2274 10.5002 19.022 10.9616C18.9226 11.1923 18.7846 11.4102 18.6145 11.6153C18.5568 11.6858 18.4862 11.7562 18.4187 11.8299C18.377 11.8748 18.3353 11.9197 18.2936 11.9645L17.9406 12.3074C16.9941 13.1789 15.7619 13.9287 14.2826 14.5344C13.6344 14.8003 12.8996 15.0374 12.0429 15.2585C11.6642 15.3579 11.2696 15.4444 10.8813 15.5181C10.5283 15.5789 10.1433 15.627 9.70687 15.6654C9.41165 15.6879 9.11004 15.7007 8.81483 15.7007C8.71536 15.7007 8.61907 15.7007 8.53246 15.6975C8.15703 15.6815 7.77198 15.6462 7.37086 15.5853C6.99223 15.5212 6.62322 15.4283 6.27345 15.3098C5.94937 15.1976 5.62207 15.047 5.27231 14.8516L4.43481 15.502C4.75249 15.768 5.12471 16.0147 5.5579 16.239C5.96541 16.4345 6.41143 16.6043 6.89276 16.7421C7.32915 16.8638 7.80085 16.9536 8.3431 17.024C8.82445 17.0786 9.31859 17.1106 9.80633 17.1138H9.81595C10.2877 17.1106 10.7786 17.085 11.2856 17.0337C11.7637 16.9792 12.2226 16.9119 12.6878 16.8254C13.5639 16.6652 14.4719 16.4281 15.3864 16.1173C17.177 15.5084 18.7782 14.624 20.0264 13.5474L20.1708 13.4193C20.2734 13.3263 20.3793 13.2334 20.4884 13.1245C20.5334 13.0764 20.5783 13.0316 20.6232 12.9867C20.7194 12.8905 20.8157 12.7912 20.9088 12.6855C21.2104 12.3458 21.4543 11.9773 21.6308 11.5896C22.0062 10.7629 22.064 9.91379 21.8008 9.11592Z"
            fill="#1E3862"
        />
        <path
            d="M21.2041 9.22178C21.0789 8.85009 20.8671 8.49121 20.5751 8.16758C20.2992 7.85997 19.9687 7.59081 19.5965 7.36011C19.3911 7.73501 19.1601 8.08747 18.9098 8.41751C19.0542 8.53287 19.1857 8.65142 19.2949 8.7796C19.4874 8.99428 19.6253 9.23781 19.712 9.49415C19.8885 10.0036 19.8403 10.574 19.6093 11.0995C19.497 11.3622 19.3365 11.6186 19.1376 11.8525C19.0349 11.9742 18.9066 12.1024 18.7943 12.2242L18.4221 12.5895C17.3888 13.5412 16.0603 14.3262 14.5843 14.9286C13.8431 15.2298 13.0569 15.4765 12.2515 15.6848C11.8472 15.7905 11.4332 15.8802 11.0258 15.9571C10.615 16.0308 10.1947 16.0789 9.7711 16.1142C9.34755 16.1462 8.924 16.159 8.49723 16.1462C8.07045 16.1302 7.65008 16.0853 7.22654 16.0212C6.80939 15.9507 6.40188 15.845 6.00719 15.7136C5.61251 15.5791 5.24671 15.4028 4.89374 15.2042C5.18574 15.4477 5.52266 15.6688 5.89167 15.8578C6.27031 16.0405 6.67783 16.191 7.1046 16.316C7.53459 16.4346 7.98061 16.5147 8.43303 16.5756C8.88868 16.6269 9.34755 16.6557 9.80965 16.6589C10.2717 16.6557 10.7306 16.63 11.1894 16.5852C11.6482 16.5339 12.0943 16.4666 12.5371 16.3833C13.4259 16.2231 14.2891 15.986 15.1266 15.704C16.7984 15.1369 18.3322 14.307 19.5451 13.2623C19.6927 13.1278 19.8435 12.9964 19.9847 12.8619C20.1195 12.7208 20.2575 12.5895 20.3922 12.4357C20.6682 12.1249 20.8864 11.7916 21.05 11.4423C21.3709 10.7374 21.4479 9.96838 21.2041 9.22178Z"
            fill="#0052FF"
        />
        <path
            d="M9.61102 15.6952C9.94796 15.7023 10.2813 15.6917 10.6147 15.6598C10.6866 15.6482 10.757 15.6352 10.8278 15.6215C10.8935 15.6089 10.941 15.5512 10.941 15.4843V11.7868C10.941 11.7097 10.8785 11.6472 10.8013 11.6472H9.65145C9.5743 11.6472 9.51172 11.7097 9.51172 11.7868V15.5923C9.51172 15.6487 9.55494 15.689 9.61102 15.6952Z"
            fill="white"
        />
        <path
            d="M13.0052 15.0153C13.0553 14.9926 13.1039 14.9713 13.152 14.9496C13.2011 14.9275 13.2322 14.8783 13.2322 14.8244V9.61238C13.2322 9.53521 13.1696 9.47266 13.0924 9.47266H11.9426C11.8654 9.47266 11.8029 9.53521 11.8029 9.61238V15.2195C11.8029 15.3113 11.8899 15.3782 11.9783 15.3533C12.3284 15.2548 12.6707 15.1429 13.0052 15.0153Z"
            fill="white"
        />
        <path
            d="M14.261 14.4734C14.4483 14.4006 14.6424 14.338 14.8366 14.2757C14.8453 14.2729 14.8537 14.2693 14.8617 14.2648C14.9219 14.2312 14.9847 14.1945 15.0412 14.1547C15.1629 14.0736 15.2917 14.0068 15.4276 13.9522C15.4825 13.9301 15.5201 13.8778 15.5201 13.8186V7.77064C15.5201 7.69348 15.4575 7.63092 15.3803 7.63092H14.2304C14.1533 7.63092 14.0908 7.69348 14.0908 7.77064V14.3576C14.0908 14.4462 14.178 14.5044 14.261 14.4734Z"
            fill="white"
        />
    </g>
    <defs>
        <clipPath id="DefiCoins_a">
            <rect
                width="20"
                height="14.5161"
                fill="white"
                transform="translate(2 5)"
            />
        </clipPath>
    </defs>
</svg>
