<svg viewBox="0 0 24 24" fill="none" xmlns="http://www.w3.org/2000/svg">
    <path
        fill-rule="evenodd"
        clip-rule="evenodd"
        d="M21 10.1873C20.989 10.9363 20.9127 11.6828 20.7719 12.4186C19.7849 17.5504 16.8398 20.1163 11.9368 20.1163H8.8274L8.83597 20.0794L9.58561 16.5411H11.7275C14.3844 16.5411 15.9936 15.0303 16.5552 12.0089C16.5948 11.8156 16.6274 11.6207 16.6526 11.4231L20.9149 8.96323C20.9714 9.36881 20.9998 9.7778 21 10.1873ZM19.4391 5.73495L15.617 7.94158C14.9588 7.55389 14.2011 7.36859 13.4382 7.40879H7.27082L7.28956 7.31991L8.01886 3.90154H14.4181C15.2366 3.89158 16.0525 3.99483 16.8427 4.20835C17.7515 4.45197 18.5855 4.91748 19.2699 5.56307C19.3278 5.62036 19.3834 5.67658 19.4391 5.73495Z"
        fill="#303136"
    />
    <path
        fill-rule="evenodd"
        clip-rule="evenodd"
        d="M13.3445 10.4524L12.778 13.9864H10.1307L8.83597 20.08L8.8274 20.1169H3L5.18789 17.1644L6.62345 10.4524H13.3445Z"
        fill="#00D0C4"
    />
</svg>
