<svg viewBox="0 0 24 24" fill="none" xmlns="http://www.w3.org/2000/svg">
    <path
        fill-rule="evenodd"
        clip-rule="evenodd"
        d="M22 9.9849C21.9878 10.8171 21.903 11.6466 21.7466 12.4641C20.6499 18.1661 17.3776 21.0172 11.9298 21.0172H8.47489L8.48441 20.9761L9.31735 17.0446H11.6972C14.6493 17.0446 16.4374 15.3661 17.0613 12.0089C17.1053 11.7942 17.1416 11.5776 17.1696 11.3581L21.9054 8.62484C21.9682 9.07548 21.9998 9.52991 22 9.9849ZM20.2657 5.03785L16.0189 7.48966C15.2876 7.0589 14.4456 6.85301 13.598 6.89768H6.74536L6.76618 6.79892L7.57651 3.00073H14.6868C15.5962 2.98967 16.5028 3.10439 17.3808 3.34164C18.3905 3.61233 19.3172 4.12955 20.0777 4.84687C20.142 4.91053 20.2038 4.973 20.2657 5.03785Z"
        fill="#303136"
    />
    <path
        fill-rule="evenodd"
        clip-rule="evenodd"
        d="M13.4939 10.2794L12.8645 14.2061H9.92301L8.48441 20.9767L8.47489 21.0178H2L4.43099 17.7372L6.02606 10.2794H13.4939Z"
        fill="#00D0C4"
    />
</svg>
