<svg viewBox="0 0 24 24" fill="none" xmlns="http://www.w3.org/2000/svg">
    <path
        d="M18.9556 5.27349C17.6518 4.67718 16.2671 4.24257 14.8218 4C14.6399 4.31332 14.4377 4.73781 14.2962 5.07135C12.759 4.84899 11.2328 4.84899 9.71672 5.07135C9.57521 4.73781 9.36295 4.31332 9.19112 4C7.73573 4.24257 6.35105 4.67718 5.05634 5.27349C2.4386 9.13439 1.73111 12.9043 2.08485 16.6237C3.82327 17.8871 5.50106 18.6553 7.14953 19.1607C7.55382 18.6148 7.91768 18.0286 8.231 17.4121C7.63468 17.1897 7.06868 16.9168 6.5229 16.5934C6.6644 16.4924 6.8059 16.3812 6.93729 16.27C10.2322 17.776 13.801 17.776 17.0555 16.27C17.197 16.3812 17.3284 16.4924 17.4699 16.5934C16.9241 16.9168 16.3581 17.1897 15.7618 17.4121C16.0751 18.0286 16.439 18.6148 16.8432 19.1607C18.4907 18.6553 20.1786 17.8871 21.9079 16.6237C22.3425 12.3181 21.2196 8.57854 18.9556 5.27349ZM8.68581 14.3294C7.6953 14.3294 6.88674 13.4299 6.88674 12.3283C6.88674 11.2266 7.67509 10.327 8.68581 10.327C9.68639 10.327 10.505 11.2266 10.4848 12.3283C10.4848 13.4299 9.68639 14.3294 8.68581 14.3294ZM15.3272 14.3294C14.3367 14.3294 13.5271 13.4299 13.5271 12.3283C13.5271 11.2266 14.3164 10.327 15.3272 10.327C16.3278 10.327 17.1464 11.2266 17.1262 12.3283C17.1262 13.4299 16.3379 14.3294 15.3272 14.3294Z"
        fill="#434EE3"
    />
</svg>
