<svg viewBox="0 0 24 24" fill="none" xmlns="http://www.w3.org/2000/svg">
    <path
        d="M22.0803 12C22.0803 6.47715 17.6032 2 12.0803 2C6.55748 2 2.08032 6.47715 2.08032 12C2.08032 17.5228 6.55748 22 12.0803 22C17.6032 22 22.0803 17.5228 22.0803 12Z"
        fill="#5378DF"
    />
    <path
        d="M16.6275 8.04638C17.019 8.04131 17.4091 8.09329 17.7851 8.20065C17.839 8.21142 17.8895 8.23457 17.9325 8.2682C18.0974 8.3671 18.2154 8.52672 18.2604 8.71165C18.3054 8.89658 18.2736 9.09154 18.172 9.2533C18.0349 9.45495 17.8302 9.47713 17.6142 9.47713H15.824C15.9159 9.69924 15.9819 9.93096 16.0205 10.1678C16.0655 10.4259 16.0891 10.6951 16.1228 10.9644V11.4251H17.5374C17.644 11.4211 17.7508 11.4285 17.8558 11.4473C18.1055 11.4927 18.2529 11.6268 18.2652 11.8617V12.5332C18.2539 12.7682 18.1055 12.9033 17.8558 12.9487C17.7508 12.9675 17.644 12.9749 17.5374 12.9708H16.1044V13.4286C16.0696 13.6968 16.0471 13.966 16.0021 14.2231C15.9611 14.4633 15.8924 14.698 15.7973 14.9229H17.6132C17.8291 14.9229 18.0339 14.945 18.171 15.1477C18.2726 15.3098 18.3045 15.505 18.2595 15.6903C18.2146 15.8756 18.0965 16.0355 17.9315 16.1348C17.8887 16.1688 17.8387 16.1929 17.7851 16.2054C17.4075 16.3136 17.0156 16.3663 16.6223 16.3617L16.4648 16.3649L16.1496 16.3708C14.8363 16.3939 13.5344 16.399 12.5433 16.3999L12.3116 16.4C12.274 16.4 12.237 16.4 12.2005 16.4C10.8698 16.4 9.08368 16.3808 7.7346 16.3536C7.34265 16.3582 6.95217 16.3056 6.5759 16.1973C6.5222 16.1861 6.47179 16.163 6.42851 16.1298C6.26341 16.0311 6.14521 15.8714 6.10023 15.6864C6.05524 15.5014 6.0872 15.3064 6.18899 15.1447C6.32513 14.943 6.52984 14.9209 6.74582 14.9209H8.53811C8.44612 14.6987 8.38019 14.467 8.34158 14.2302C8.29552 13.9721 8.273 13.7028 8.23922 13.4336V12.9688H6.82463C6.71802 12.9729 6.61127 12.9654 6.5063 12.9466C6.25655 12.9023 6.10915 12.7682 6.09687 12.5322V11.8617C6.10813 11.6258 6.25552 11.4917 6.5063 11.4463C6.61397 11.427 6.72348 11.4196 6.83282 11.4241H8.26583V10.9623C8.29961 10.6931 8.32213 10.4249 8.36819 10.1668C8.40822 9.92675 8.47694 9.69221 8.57291 9.46806H6.74889C6.53291 9.46806 6.32717 9.44487 6.19104 9.24321C6.08906 9.08134 6.05689 8.88608 6.10167 8.70075C6.14645 8.51542 6.26447 8.35537 6.42953 8.2561C6.47308 8.22265 6.52386 8.19953 6.57795 8.18855C6.95558 8.08237 7.34706 8.03174 7.73971 8.03831L7.89731 8.03509L8.21273 8.02919C9.52667 8.00607 10.8287 8.00096 11.8198 8.00014L12.1626 8C13.4933 8 15.2794 8.01815 16.6275 8.04638ZM14.1535 12.9708L10.2335 12.9709C10.0275 12.9724 10.0291 12.9907 10.0499 13.229C10.0577 13.4665 10.0882 13.7028 10.141 13.9348C10.2303 14.3407 10.5492 14.6595 10.9599 14.7535C11.3278 14.8487 11.7056 14.9014 12.0858 14.9108C12.5236 14.9104 12.9596 14.8562 13.3837 14.7494C13.7939 14.6558 14.1127 14.3379 14.2026 13.9327C14.2555 13.7008 14.286 13.4645 14.2937 13.2269C14.3111 13.0091 14.3121 12.9789 14.1535 12.9708ZM12.2762 9.48218C11.8405 9.48323 11.4065 9.53776 10.9845 9.64451C10.5743 9.73813 10.2555 10.0561 10.1656 10.4612C10.1136 10.6933 10.0832 10.9295 10.0745 11.167C10.0561 11.3848 10.054 11.4181 10.2127 11.4231L14.1337 11.423C14.3396 11.4216 14.338 11.4033 14.3172 11.165C14.3069 10.927 14.2747 10.6904 14.221 10.4582C14.1308 10.0526 13.8124 9.7339 13.4022 9.63846C13.0343 9.54343 12.6564 9.49098 12.2762 9.48218Z"
        fill="white"
    />
</svg>
