<svg viewBox="0 0 24 24" fill="none" xmlns="http://www.w3.org/2000/svg">
    <path
        d="M6 12.9017C8.19965 14.0699 10.4949 15.2926 12.2677 16.2388L18.4841 12.9017C16.2332 16.2456 14.3578 19.0294 12.2677 22.1103C10.1739 19.0362 7.86153 15.6441 6 12.9017ZM6.23908 11.9794L12.2745 8.75883L18.2313 11.9558L12.2779 15.1799L6.23908 11.9794ZM12.2677 7.72701L6 11.0265L12.2404 1.88974L18.4841 11.047L12.2677 7.72701Z"
        fill="#3AB83A"
    />
    <path
        d="M12.2676 16.2388L18.4841 12.9017C16.2332 16.2456 12.2676 22.1103 12.2676 22.1103V16.2388ZM12.2744 8.75883L18.2314 11.9558L12.2778 15.1799L12.2744 8.75883ZM12.2676 7.72725L12.2403 1.88974L18.4841 11.047L12.2676 7.72725Z"
        fill="#0B8311"
    />
    <path
        d="M6.23932 11.9795L12.2751 12.4748L18.2319 11.959L12.2781 15.1833L6.23932 11.9795Z"
        fill="#0B8311"
    />
    <path
        d="M12.2747 12.4748L18.2317 11.959L12.2781 15.1833L12.2747 12.4748Z"
        fill="#146714"
    />
</svg>
