<svg viewBox="0 0 24 24" fill="none" xmlns="http://www.w3.org/2000/svg">
    <path
        d="M20.9286 9.74583C20.6438 8.68333 18.4216 6.27361 16.8036 4.2875C16.768 4.23562 16.7217 4.19202 16.6678 4.15966C16.6138 4.1273 16.5536 4.10695 16.4911 4.1C16.3314 4.1 16.1994 4.25972 16.2689 4.37778C16.3383 4.49583 17.88 7.68333 17.5744 8.71805C17.2688 9.75278 15.8661 9.55833 15.6438 9.55833C15.4216 9.55833 15.6091 9.64861 15.7411 9.77361C16.1581 10.1318 16.4908 10.5778 16.7153 11.0796C16.9398 11.5815 17.0506 12.1267 17.0397 12.6764V13.6417C18.8522 13.4819 21.6091 12.3917 20.88 9.74583H20.9286ZM8.31052 9.77361C8.43552 9.64861 8.53274 9.55833 8.40079 9.55833C8.26885 9.55833 6.75496 9.77361 6.46329 8.71805C6.17163 7.6625 7.74107 4.50278 7.80357 4.37778C7.80955 4.34672 7.80923 4.31478 7.80263 4.28385C7.79603 4.25292 7.78329 4.22364 7.76515 4.19773C7.74702 4.17182 7.72386 4.14982 7.69706 4.13303C7.67026 4.11624 7.64035 4.10501 7.60913 4.1H7.54663C7.38691 4.1 7.26191 4.2875 7.22718 4.2875C5.64385 6.25278 3.39385 8.68333 3.10913 9.74583C2.41468 12.3917 5.19246 13.4819 6.97718 13.6694V12.7042C6.97268 12.1481 7.08967 11.5977 7.31997 11.0915C7.55027 10.5854 7.88833 10.1356 8.31052 9.77361V9.77361ZM13.9841 13.2667C13.9841 13.3014 13.9841 13.3014 13.9494 13.3292C13.9147 13.3569 13.9494 13.3639 13.8869 13.3639H10.1439V12.7042C10.1439 11.8014 11.255 11.3639 12.1161 11.3639C12.9772 11.3639 13.9841 11.8014 13.9841 12.7042V13.2667ZM12.1161 9.33611C10.1786 9.33611 8.05357 10.4611 8.05357 12.6764V16.0444C8.05357 18.2875 10.1786 19.35 12.1161 19.3778C12.8325 19.4075 13.5452 19.2609 14.1917 18.9509C14.8383 18.641 15.3989 18.1771 15.8244 17.6C15.8244 17.6 15.8244 17.5097 15.7897 17.475C15.0952 17.1 14.7411 16.8847 14.0814 16.5375C14.0466 16.5375 14.0466 16.5375 14.0119 16.5722C13.7866 16.8583 13.4983 17.0887 13.1695 17.2452C12.8407 17.4018 12.4802 17.4804 12.1161 17.475C11.255 17.475 10.1439 16.9472 10.1439 16.0444V15.0444H15.4911C15.6225 15.0463 15.7494 14.9964 15.8443 14.9054C15.9391 14.8144 15.9944 14.6897 15.998 14.5583V12.7042C15.998 10.4611 13.998 9.37083 12.1022 9.33611"
        fill="#7AB200"
    />
</svg>
