<svg viewBox="0 0 24 24" fill="none" xmlns="http://www.w3.org/2000/svg">
    <path
        d="M21.9206 9.52419C21.6043 8.34363 19.1351 5.66616 17.3373 3.45937C17.2978 3.40173 17.2463 3.35328 17.1864 3.31733C17.1265 3.28138 17.0595 3.25877 16.9901 3.25104C16.8126 3.25104 16.666 3.42851 16.7432 3.55968C16.8203 3.69085 18.5333 7.23252 18.1938 8.38221C17.8543 9.5319 16.2956 9.31585 16.0487 9.31585C15.8018 9.31585 16.0101 9.41616 16.1567 9.55505C16.6201 9.95306 16.9898 10.4486 17.2392 11.0062C17.4887 11.5638 17.6118 12.1696 17.5996 12.7804V13.8529C19.6135 13.6754 22.6768 12.464 21.8666 9.52419H21.9206ZM7.90057 9.55505C8.03946 9.41616 8.14749 9.31585 8.00088 9.31585C7.85428 9.31585 6.17218 9.55505 5.84811 8.38221C5.52403 7.20937 7.26786 3.69857 7.3373 3.55968C7.34395 3.52517 7.34359 3.48969 7.33626 3.45532C7.32893 3.42095 7.31476 3.38841 7.29461 3.35962C7.27446 3.33084 7.24873 3.30639 7.21895 3.28774C7.18917 3.26909 7.15595 3.2566 7.12125 3.25104H7.05181C6.87434 3.25104 6.73545 3.45937 6.69687 3.45937C4.93761 5.64301 2.43761 8.34363 2.12125 9.52419C1.34965 12.464 4.43607 13.6754 6.41909 13.8838V12.8112C6.41409 12.1933 6.54408 11.5818 6.79997 11.0194C7.05586 10.457 7.43148 9.95722 7.90057 9.55505ZM14.2046 13.4362C14.2046 13.4748 14.2046 13.4748 14.166 13.5057C14.1274 13.5365 14.166 13.5442 14.0966 13.5442H9.93761V12.8112C9.93761 11.8081 11.1722 11.322 12.129 11.322C13.0858 11.322 14.2046 11.8081 14.2046 12.8112V13.4362ZM12.129 9.06894C9.97619 9.06894 7.61508 10.3189 7.61508 12.7804V16.5226C7.61508 19.0149 9.97619 20.1955 12.129 20.2263C12.925 20.2593 13.7169 20.0965 14.4353 19.7521C15.1537 19.4077 15.7766 18.8923 16.2493 18.251C16.2493 18.251 16.2493 18.1507 16.2108 18.1121C15.4392 17.6955 15.0456 17.4563 14.3126 17.0705C14.274 17.0705 14.274 17.0705 14.2355 17.1091C13.9851 17.427 13.6648 17.6829 13.2995 17.8568C12.9341 18.0308 12.5336 18.1182 12.129 18.1121C11.1722 18.1121 9.93761 17.5257 9.93761 16.5226V15.4115H15.879C16.025 15.4136 16.166 15.3581 16.2714 15.257C16.3768 15.1559 16.4382 15.0174 16.4422 14.8714V12.8112C16.4422 10.3189 14.22 9.10752 12.1135 9.06894"
        fill="#7AB200"
    />
</svg>
