<svg viewBox="0 0 25 24" fill="none" xmlns="http://www.w3.org/2000/svg">
    <circle cx="12.3692" cy="12" r="10" fill="#24996E" />
    <path
        fill-rule="evenodd"
        clip-rule="evenodd"
        d="M12.6516 6.92328C12.8661 7.09196 13.2419 7.65346 13.4509 8.06362C13.6663 8.48629 13.6133 8.76315 13.2793 8.95992C13.1618 9.02911 13.057 9.04124 12.4691 9.05356C11.6938 9.06977 11.4376 9.02975 11.2611 8.86485C11.1202 8.73322 11.0693 8.51538 11.1312 8.30876C11.1832 8.13523 11.6321 7.40387 11.8377 7.15789C12.113 6.82845 12.389 6.74892 12.6516 6.92328ZM14.3867 10.4455C14.5164 10.504 14.6751 10.6255 14.8044 10.7653C15.0099 10.9873 17.0027 14.0314 17.2312 14.4725C17.5336 15.0561 17.3282 15.5566 16.7213 15.7147C16.5166 15.768 15.9505 15.776 12.3693 15.776C8.78815 15.776 8.22204 15.768 8.01732 15.7147C7.4212 15.5594 7.21115 15.0719 7.49281 14.4972C7.67119 14.1332 9.68922 11.0384 9.90567 10.7969C10.1259 10.5513 10.3292 10.4257 10.5945 10.3713C10.6854 10.3527 11.5287 10.3405 12.4687 10.3442C14.1762 10.3509 14.1779 10.351 14.3867 10.4455Z"
        fill="white"
    />
</svg>
