<svg viewBox="0 0 24 24" fill="none" xmlns="http://www.w3.org/2000/svg">
    <mask
        id="FileCoin_a"
        style="mask-type:alpha"
        maskUnits="userSpaceOnUse"
        x="0"
        y="0"
        width="24"
        height="24"
    >
        <path
            fill-rule="evenodd"
            clip-rule="evenodd"
            d="M0 0H24V24H0V0Z"
            fill="white"
        />
    </mask>
    <g mask="url(#FileCoin_a)">
        <path
            fill-rule="evenodd"
            clip-rule="evenodd"
            d="M12 21.9996C6.5 21.9996 2 17.4996 2 11.9496C2.05 6.44959 6.5 1.94959 12.05 1.99959C17.55 2.04959 22 6.49959 22 12.0996C21.95 17.5496 17.5 21.9996 12 21.9996Z"
            fill="#0090FF"
        />
        <path
            fill-rule="evenodd"
            clip-rule="evenodd"
            d="M12.8974 10.856L12.5897 12.419L15.5128 12.8097L15.3077 13.5424L12.4359 13.1516C12.2308 13.7866 12.1282 14.4704 11.8718 15.0565C11.6154 15.7404 11.359 16.4242 11.0513 17.0591C10.641 17.8895 9.92308 18.4756 8.94872 18.6221C8.38462 18.7198 7.76923 18.671 7.30769 18.3291C7.15385 18.2314 7 18.036 7 17.8895C7 17.6941 7.10256 17.4499 7.25641 17.3522C7.35897 17.3034 7.61538 17.3522 7.76923 17.401C7.92308 17.5476 8.07692 17.7429 8.17949 17.9383C8.48718 18.3291 8.89744 18.3779 9.30769 18.0849C9.76923 17.6941 10.0256 17.1568 10.1795 16.6195C10.4872 15.4473 10.7949 14.3239 11.0513 13.1516V12.9562L8.33333 12.5655L8.4359 11.8328L11.2564 12.2236L11.6154 10.7094L8.69231 10.2698L8.79487 9.48833L11.8205 9.87909C11.9231 9.58602 11.9744 9.3418 12.0769 9.09758C12.3333 8.21839 12.5897 7.3392 13.2051 6.5577C13.8205 5.7762 14.5385 5.28776 15.6154 5.33661C16.0769 5.33661 16.5385 5.48314 16.8462 5.82504C16.8974 5.87389 17 5.97158 17 6.06926C17 6.26464 17 6.50886 16.8462 6.65539C16.641 6.80192 16.3846 6.75308 16.1795 6.5577C16.0256 6.41117 15.9231 6.26464 15.7692 6.11811C15.4615 5.72736 15 5.67851 14.641 6.02042C14.3846 6.26464 14.1282 6.60655 13.9744 6.94845C13.6154 7.97417 13.359 9.04874 13 10.1233L15.8205 10.5141L15.6154 11.2467L12.8974 10.856Z"
            fill="white"
        />
    </g>
</svg>
