<svg viewBox="0 0 24 24" fill="none" xmlns="http://www.w3.org/2000/svg">
    <path
        d="M12.0803 22C17.6032 22 22.0803 17.5228 22.0803 12C22.0803 6.47715 17.6032 2 12.0803 2C6.55748 2 2.08032 6.47715 2.08032 12C2.08032 17.5228 6.55748 22 12.0803 22Z"
        fill="#00EF8B"
    />
    <path d="M16.4683 10.436H13.6443V13.26H16.4683V10.436Z" fill="white" />
    <path
        d="M10.8223 14.318C10.8223 14.9034 10.3477 15.378 9.76232 15.378C9.1769 15.378 8.70232 14.9034 8.70232 14.318C8.70232 13.7326 9.1769 13.258 9.76232 13.258H10.8223V10.436H9.76232C7.61835 10.436 5.88032 12.174 5.88032 14.318C5.88032 16.462 7.61835 18.2 9.76232 18.2C11.9063 18.2 13.6443 16.462 13.6443 14.318V13.258H10.8223V14.318Z"
        fill="white"
    />
    <path
        d="M14.7043 9.024H17.8803V6.2H14.7043C12.5613 6.2022 10.8245 7.93894 10.8223 10.082V10.436H13.6443V10.082C13.6454 9.49736 14.1197 9.024 14.7043 9.024Z"
        fill="white"
    />
    <path d="M10.8223 13.258H13.6443V10.436H10.8223V13.258Z" fill="#16FF99" />
</svg>
