<svg viewBox="0 0 24 24" fill="none" xmlns="http://www.w3.org/2000/svg">
    <path
        d="M12.0672 2.00006C14.0421 2.0133 15.9689 2.61104 17.6045 3.71788C19.2402 4.82472 20.5115 6.39111 21.2581 8.21952C22.0047 10.0479 22.1932 12.0565 21.7998 13.9918C21.4064 15.9272 20.4487 17.7028 19.0475 19.0946C17.6464 20.4865 15.8644 21.4322 13.9265 21.8127C11.9885 22.1931 9.98126 21.9912 8.15789 21.2324C6.33451 20.4736 4.77666 19.1919 3.68077 17.5489C2.58489 15.9058 2.00004 13.9751 2 12.0001C2.00897 9.33908 3.07463 6.79056 4.96257 4.9152C6.85051 3.03984 9.40609 1.99123 12.0672 2.00006Z"
        fill="#2B61D1"
    />
    <path
        d="M13.2601 17.8068L12.1134 18.4691L9.65002 17.0488L10.7687 16.4029L10.7967 16.3866L10.8397 16.4113L13.2601 17.8068Z"
        fill="white"
    />
    <path
        d="M17.6622 8.85965V10.1926L15.2372 8.79258L14.5795 8.41294L13.9218 8.79258L10.8398 10.5729L10.1821 10.9525V11.7385L8.99636 11.0541L8.33867 10.6745L7.68098 11.0541L6.56552 11.6975V8.85965L12.1135 5.65652L17.6622 8.85965Z"
        fill="white"
    />
    <path
        d="M17.6621 11.7092V15.2711L14.5801 17.0488H14.5762L11.4974 15.2711V11.7092L14.5801 9.92889L17.6621 11.7092Z"
        fill="white"
    />
    <path
        d="M10.111 13.2147V15.2613L8.33786 16.2856L6.56537 15.262V13.2153L8.33852 12.1917L10.111 13.2147Z"
        fill="white"
    />
</svg>
