<svg viewBox="0 0 24 24" fill="none" xmlns="http://www.w3.org/2000/svg">
    <path
        d="M8.08867 4.201C12.3918 4.19968 16.6953 4.19968 20.999 4.201C21.0003 5.59196 21.0003 6.98267 20.999 8.37315C16.6957 8.37447 12.3923 8.37447 8.08867 8.37315C8.08735 6.98219 8.08735 5.59148 8.08867 4.201V4.201Z"
        fill="#02A6C2"
    />
    <path
        d="M3.0054 9.94278C4.39371 9.93558 5.78226 9.93558 7.17106 9.94278C7.17826 11.3311 7.17826 12.7196 7.17106 14.1084C5.7825 14.1156 4.39395 14.1157 3.0054 14.1088C2.9982 12.7202 2.9982 11.3315 3.0054 9.94278ZM8.09183 9.94278C11.1978 9.93618 14.3035 9.93618 17.4091 9.94278C17.4157 11.3311 17.4157 12.7196 17.4091 14.1084C14.3032 14.1149 11.1974 14.1149 8.09183 14.1084C8.08535 12.7201 8.08535 11.3315 8.09183 9.94278Z"
        fill="#5FCADE"
    />
    <path
        d="M8.09574 15.6858C9.48172 15.6708 10.8675 15.6708 12.253 15.6858C12.2674 17.0709 12.2676 18.4566 12.2536 19.843C10.8676 19.8567 9.4819 19.8564 8.09646 19.8423C8.08206 18.4573 8.08182 17.0718 8.09574 15.6858V15.6858Z"
        fill="#ABEBF4"
    />
</svg>
