<svg viewBox="0 0 24 24" fill="none" xmlns="http://www.w3.org/2000/svg">
    <path
        d="M9.83663 11.8432L9.66307 11.6689C9.63389 11.6395 9.59664 11.6195 9.55605 11.6113C9.51547 11.6032 9.47337 11.6072 9.4351 11.623C9.39684 11.6388 9.36413 11.6657 9.34113 11.7001C9.31813 11.7345 9.30588 11.775 9.30593 11.8164V14.3063C9.30598 14.3338 9.31144 14.361 9.322 14.3863C9.33257 14.4117 9.34803 14.4347 9.3675 14.4541C9.38697 14.4735 9.41007 14.4888 9.43548 14.4992C9.46089 14.5097 9.4881 14.515 9.51557 14.5149H12.0059C12.0474 14.5152 12.0881 14.5031 12.1227 14.4802C12.1573 14.4572 12.1842 14.4244 12.2 14.386C12.2158 14.3476 12.2198 14.3054 12.2114 14.2647C12.2031 14.224 12.1827 14.1868 12.153 14.1578C12.1141 14.1186 12.0922 14.0657 12.0922 14.0104C12.0922 13.9552 12.1141 13.9023 12.153 13.8631L14.8022 11.2068C14.8216 11.1874 14.837 11.1644 14.8475 11.1391C14.858 11.1138 14.8633 11.0867 14.8633 11.0593C14.8633 11.0319 14.858 11.0047 14.8475 10.9794C14.837 10.9541 14.8216 10.9311 14.8022 10.9118L14.5608 10.6714C14.5313 10.6423 14.5111 10.605 14.5028 10.5644C14.4945 10.5237 14.4986 10.4816 14.5144 10.4432C14.5303 10.4049 14.5572 10.3721 14.5917 10.3492C14.6262 10.3262 14.6668 10.3141 14.7083 10.3143H17.1975C17.2529 10.3143 17.3061 10.3362 17.3453 10.3753C17.3845 10.4144 17.4066 10.4675 17.4068 10.5228V13.0128C17.4067 13.0541 17.3944 13.0945 17.3713 13.1288C17.3483 13.1631 17.3156 13.1898 17.2774 13.2056C17.2392 13.2214 17.1972 13.2255 17.1567 13.2174C17.1162 13.2094 17.0789 13.1895 17.0497 13.1603L16.8815 12.9928C16.8625 12.9729 16.8396 12.9571 16.8144 12.9463C16.7891 12.9355 16.7618 12.9299 16.7343 12.9299C16.7068 12.9299 16.6796 12.9355 16.6543 12.9463C16.629 12.9571 16.6062 12.9729 16.5872 12.9928L12.123 17.457C12.0837 17.4958 12.0306 17.5175 11.9753 17.5175C11.9201 17.5175 11.867 17.4958 11.8277 17.457L6.36349 11.9928C6.34397 11.9735 6.32848 11.9504 6.3179 11.925C6.30733 11.8997 6.30188 11.8724 6.30188 11.845C6.30188 11.8175 6.30733 11.7902 6.3179 11.7649C6.32848 11.7395 6.34397 11.7165 6.36349 11.6971L13.9287 4.13512C13.9675 4.09576 13.9892 4.04272 13.9892 3.98745C13.9892 3.93218 13.9675 3.87913 13.9287 3.83977L12.148 2.06124C12.1087 2.02227 12.0557 2.0004 12.0003 2.0004C11.945 2.0004 11.8919 2.02227 11.8527 2.06124L2.06109 11.8539C2.02211 11.8932 2.00024 11.9462 2.00024 12.0016C2.00024 12.0569 2.02211 12.11 2.06109 12.1492L11.8527 21.9408C11.8919 21.9798 11.945 22.0017 12.0003 22.0017C12.0557 22.0017 12.1087 21.9798 12.148 21.9408L21.9392 12.1492C21.9782 12.1101 22 12.0571 22 12.0019C22 11.9467 21.9782 11.8937 21.9392 11.8546L16.1786 6.09401C16.1394 6.05506 16.0864 6.0332 16.0311 6.0332C15.9759 6.0332 15.9229 6.05506 15.8836 6.09401L10.1338 11.8439C10.1144 11.8634 10.0914 11.8789 10.066 11.8895C10.0406 11.9001 10.0134 11.9055 9.98592 11.9055C9.95842 11.9055 9.9312 11.9001 9.90583 11.8895C9.88045 11.8789 9.85742 11.8634 9.83806 11.8439L9.83663 11.8432Z"
        fill="#DE5959"
    />
</svg>
