<svg viewBox="0 0 24 24" fill="none" xmlns="http://www.w3.org/2000/svg">
    <path
        d="M9.83662 11.8431L9.66306 11.6689C9.63388 11.6395 9.59663 11.6195 9.55604 11.6113C9.51546 11.6031 9.47336 11.6072 9.43509 11.623C9.39683 11.6388 9.36412 11.6656 9.34112 11.7C9.31812 11.7345 9.30587 11.775 9.30592 11.8164V14.3063C9.30597 14.3338 9.31143 14.361 9.322 14.3863C9.33256 14.4117 9.34802 14.4347 9.36749 14.4541C9.38696 14.4734 9.41006 14.4888 9.43547 14.4992C9.46088 14.5096 9.48809 14.515 9.51556 14.5149H12.0059C12.0474 14.5152 12.0881 14.5031 12.1227 14.4801C12.1573 14.4572 12.1842 14.4244 12.2 14.386C12.2158 14.3476 12.2198 14.3053 12.2114 14.2647C12.2031 14.224 12.1827 14.1868 12.153 14.1577C12.1141 14.1186 12.0922 14.0656 12.0922 14.0104C12.0922 13.9552 12.1141 13.9022 12.153 13.8631L14.8022 11.2067C14.8216 11.1874 14.837 11.1644 14.8475 11.1391C14.8579 11.1137 14.8633 11.0866 14.8633 11.0592C14.8633 11.0318 14.8579 11.0047 14.8475 10.9794C14.837 10.9541 14.8216 10.9311 14.8022 10.9117L14.5608 10.6714C14.5313 10.6423 14.5111 10.605 14.5028 10.5644C14.4945 10.5237 14.4986 10.4815 14.5144 10.4432C14.5302 10.4049 14.5572 10.3721 14.5917 10.3491C14.6262 10.3262 14.6668 10.314 14.7083 10.3142H17.1975C17.2529 10.3142 17.306 10.3362 17.3453 10.3753C17.3845 10.4144 17.4066 10.4674 17.4068 10.5228V13.0128C17.4067 13.0541 17.3943 13.0944 17.3713 13.1288C17.3483 13.1631 17.3156 13.1898 17.2774 13.2056C17.2392 13.2214 17.1972 13.2255 17.1567 13.2174C17.1162 13.2093 17.0789 13.1895 17.0497 13.1603L16.8815 12.9928C16.8625 12.9729 16.8396 12.9571 16.8143 12.9462C16.7891 12.9354 16.7618 12.9299 16.7343 12.9299C16.7068 12.9299 16.6796 12.9354 16.6543 12.9462C16.629 12.9571 16.6062 12.9729 16.5872 12.9928L12.123 17.4569C12.0836 17.4957 12.0306 17.5175 11.9753 17.5175C11.9201 17.5175 11.867 17.4957 11.8277 17.4569L6.36348 11.9928C6.34396 11.9734 6.32847 11.9504 6.31789 11.925C6.30732 11.8996 6.30187 11.8724 6.30187 11.8449C6.30187 11.8174 6.30732 11.7902 6.31789 11.7648C6.32847 11.7395 6.34396 11.7164 6.36348 11.6971L13.9287 4.13509C13.9675 4.09573 13.9892 4.04269 13.9892 3.98742C13.9892 3.93215 13.9675 3.8791 13.9287 3.83974L12.148 2.06121C12.1087 2.02224 12.0557 2.00037 12.0003 2.00037C11.945 2.00037 11.8919 2.02224 11.8527 2.06121L2.06108 11.8539C2.0221 11.8931 2.00023 11.9462 2.00023 12.0015C2.00023 12.0569 2.0221 12.1099 2.06108 12.1492L11.8527 21.9408C11.8919 21.9798 11.945 22.0016 12.0003 22.0016C12.0557 22.0016 12.1087 21.9798 12.148 21.9408L21.9392 12.1492C21.9781 12.1101 22 12.0571 22 12.0019C22 11.9467 21.9781 11.8937 21.9392 11.8546L16.1786 6.09398C16.1394 6.05503 16.0864 6.03317 16.0311 6.03317C15.9759 6.03317 15.9228 6.05503 15.8836 6.09398L10.1338 11.8439C10.1144 11.8634 10.0914 11.8789 10.066 11.8894C10.0406 11.9 10.0134 11.9055 9.98591 11.9055C9.95841 11.9055 9.93119 11.9 9.90582 11.8894C9.88044 11.8789 9.85741 11.8634 9.83805 11.8439L9.83662 11.8431Z"
        fill="#DE5959"
    />
</svg>
