<svg viewBox="0 0 24 24" fill="none" xmlns="http://www.w3.org/2000/svg">
    <path
        fill-rule="evenodd"
        clip-rule="evenodd"
        d="M16.61 9.85453C17.2571 10.7615 17.6084 11.8629 17.5992 12.9735C17.5992 14.0656 17.2479 15.1577 16.61 16.0462L17.9596 17.0734C18.8193 15.8888 19.2907 14.445 19.2907 12.9827C19.3 11.4371 18.7915 9.91937 17.858 8.69769L17.084 9.39537L16.61 9.85453Z"
        fill="#15EBB7"
    />
    <path
        fill-rule="evenodd"
        clip-rule="evenodd"
        d="M19.1613 17.9833L14.6227 14.5313C14.9462 14.1055 15.1311 13.5873 15.1588 13.0504C15.1773 12.5137 15.0387 11.9861 14.7521 11.5327L16.9244 9.5706L19.1983 7.44195C19.3462 7.3031 19.3554 7.06247 19.2075 6.91439L18.8933 6.59972C17.2756 4.96159 15.0941 4.00833 12.8017 3.93429L12.811 2.68487C12.8202 2.60157 12.811 2.51828 12.7925 2.43499C12.7647 2.35169 12.7277 2.27765 12.6723 2.21287C12.6168 2.14808 12.5521 2.1018 12.4689 2.06478C12.395 2.02777 12.3118 2.00926 12.2286 2.00926C12.1454 2.00926 12.0622 2.02777 11.9883 2.06478C11.9143 2.1018 11.8404 2.14808 11.7849 2.21287C11.7294 2.27765 11.6832 2.35169 11.6647 2.42573C11.637 2.50902 11.6277 2.59232 11.6462 2.67561L11.637 3.96206C11.0916 4.01758 10.5462 4.11939 10.0194 4.27673L10.0286 2.67561C10.0379 2.59232 10.0286 2.50902 10.0101 2.42573C9.98242 2.34244 9.9454 2.26839 9.88996 2.20361C9.83451 2.13883 9.76977 2.09255 9.68661 2.05553C9.61265 2.01851 9.5294 2 9.44623 2C9.36307 2 9.27981 2.01851 9.20595 2.05553C9.132 2.09255 9.05805 2.13883 9.00251 2.20361C8.94707 2.26839 8.90084 2.34244 8.88242 2.41647C8.85461 2.49977 8.8454 2.58306 8.86391 2.66636L8.83619 4.71171C6.96895 5.54465 5.4345 6.99768 4.50089 8.82093C3.56728 10.6442 3.27148 12.7358 3.67821 14.7441C4.08492 16.7525 5.16644 18.5664 6.73785 19.8807C8.3093 21.1948 10.2874 21.9353 12.3302 21.9723L18.9394 22C19.1429 22 19.3092 21.8334 19.3092 21.6298V18.2887C19.3092 18.1685 19.2538 18.0574 19.1613 17.9833ZM12.4597 20.3619C10.8328 20.3527 9.25209 19.8066 7.96726 18.8163C6.68239 17.8167 5.75803 16.4193 5.34207 14.8459C4.9261 13.2726 5.04627 11.5974 5.66559 10.0981C6.29416 8.59879 7.39415 7.34012 8.80847 6.52568L8.79916 8.95972C8.78995 9.04307 8.79916 9.12633 8.81768 9.20958C8.8454 9.29293 8.88242 9.36698 8.93786 9.43172C8.9933 9.49656 9.05805 9.54279 9.14121 9.57981C9.21516 9.61684 9.29833 9.63535 9.38158 9.63535C9.46474 9.63535 9.54791 9.61684 9.62186 9.57981C9.69582 9.54279 9.76977 9.49656 9.82521 9.43172C9.88065 9.36698 9.92689 9.29293 9.9454 9.21888C9.97312 9.13563 9.98242 9.05228 9.96391 8.96902L9.97312 5.97964C10.7866 5.68348 11.6462 5.54465 12.5152 5.54465C14.1143 5.54465 15.6673 6.07219 16.9336 7.03471C17.026 7.10874 17.0353 7.23832 16.9521 7.32161L13.495 10.4961C13.1807 10.3665 12.8387 10.2925 12.4967 10.2925C12.1177 10.2925 11.7387 10.3665 11.3874 10.5238C11.0362 10.6812 10.7311 10.9126 10.4815 11.1994C10.232 11.4863 10.0471 11.8287 9.93619 12.1898C9.82521 12.5599 9.79749 12.9393 9.85293 13.3188C9.90847 13.6983 10.0379 14.0593 10.2412 14.3832C10.4446 14.7071 10.7219 14.9754 11.0362 15.1884C11.3597 15.3919 11.7202 15.5308 12.0992 15.5863C12.4781 15.6419 12.8664 15.614 13.2269 15.503L17.6454 18.8626C17.6916 18.8996 17.7194 18.9551 17.7194 19.0106L17.71 20.1953C17.71 20.2971 17.6269 20.3804 17.5252 20.3804L12.4597 20.3619ZM13.5412 12.9579C13.5412 13.1615 13.4765 13.3651 13.3656 13.5409C13.2454 13.7168 13.0883 13.8463 12.8941 13.9297C12.7 14.0129 12.4874 14.0314 12.2933 13.9852C12.0992 13.9389 11.905 13.8463 11.7571 13.6983C11.6093 13.5502 11.5075 13.3651 11.4706 13.1615C11.4337 12.9579 11.4521 12.745 11.5354 12.5599C11.6185 12.3656 11.7479 12.2083 11.9235 12.0879C12.0992 11.9768 12.3025 11.9121 12.5059 11.9121C12.7832 11.9121 13.0513 12.0232 13.2454 12.2268C13.4302 12.4118 13.5412 12.671 13.5412 12.9579Z"
        fill="#0E0333"
    />
</svg>
