<svg width="24" height="24" viewBox="0 0 24 24" fill="none" xmlns="http://www.w3.org/2000/svg">
<path d="M17.5951 2C15.2828 2 13.3964 3.83476 13.3355 6.08382V10.6411C12.9096 10.6411 12.4837 10.7003 11.9969 10.7003C11.5101 10.7003 11.0841 10.7003 10.6582 10.7595V6.08382C10.6582 3.83476 8.71098 2 6.33781 2.05919C4.08635 2.05919 2.26085 3.89394 2.2 6.08382V16.974C2.26085 19.223 4.1472 21.0578 6.52036 20.9986C8.83264 20.9394 10.6582 19.1638 10.6582 16.974V12.4167C11.0841 12.4167 11.5101 12.3575 11.9969 12.3575C12.4837 12.3575 12.9096 12.3575 13.3355 12.2983V16.9148C13.3964 19.1638 15.2828 20.9986 17.6559 20.9394C19.9683 20.8802 21.7937 19.1047 21.7937 16.9148V6.08382C21.7937 3.83476 19.9074 2 17.5951 2ZM6.45951 3.6572C7.85906 3.6572 8.95436 4.72254 8.95436 6.08382V10.8779C7.73736 11.0554 6.52036 11.4105 5.3642 11.884C4.8774 12.1207 4.3906 12.3575 3.96465 12.7126V6.08382C3.96465 4.78173 5.05995 3.6572 6.45951 3.6572ZM8.95436 16.974C8.95436 18.3352 7.85906 19.4006 6.45951 19.4006C5.05995 19.4006 3.96465 18.3352 3.96465 16.974V15.9086C3.96465 14.9617 4.7557 14.0147 6.09441 13.482C7.00716 13.0677 7.98076 12.831 9.01522 12.6534L8.95436 16.974ZM17.5951 19.4006C16.1955 19.4006 15.1002 18.3352 15.1002 16.974V12.1799C16.3173 12.0024 17.5342 11.6473 18.6904 11.1738C19.1772 10.9371 19.664 10.7003 20.09 10.3452V16.974C20.09 18.3352 18.9338 19.4006 17.5951 19.4006ZM17.9602 9.63495C17.0475 10.0493 16.0738 10.286 15.0394 10.4636V6.08382C15.0394 4.72254 16.1347 3.6572 17.5342 3.6572C18.9338 3.6572 20.0291 4.72254 20.0291 6.08382V7.14915C20.09 8.1553 19.2989 9.04311 17.9602 9.63495Z" fill="url(#paint0_linear_8_93)"/>
<defs>
<linearGradient id="paint0_linear_8_93" x1="11.9969" y1="2" x2="-1.13759" y2="15.5038" gradientUnits="userSpaceOnUse">
<stop stop-color="#00E8A2"/>
<stop offset="1" stop-color="#00ADE8"/>
</linearGradient>
</defs>
</svg>
