<svg viewBox="0 0 25 24" fill="none" xmlns="http://www.w3.org/2000/svg">
    <path
        d="M16.3029 13.0325C16.3167 13.0337 16.3299 13.0381 16.3415 13.0453C16.3531 13.0526 16.3628 13.0625 16.3696 13.0743C16.3765 13.086 16.3804 13.0992 16.381 13.1128C16.3816 13.1263 16.3789 13.1398 16.3731 13.1521L12.3757 19.9604C12.3682 19.9722 12.3579 19.982 12.3457 19.9889C12.3334 19.9958 12.3197 19.9996 12.3056 20H9.86184C9.84763 20 9.83367 19.9963 9.82138 19.9893C9.80909 19.9823 9.79891 19.9722 9.79187 19.9601C9.78483 19.9479 9.78119 19.9341 9.78131 19.9201C9.78144 19.9061 9.78533 19.8924 9.79258 19.8804L13.7899 13.0721C13.797 13.0601 13.8071 13.0501 13.8192 13.0432C13.8314 13.0362 13.8452 13.0326 13.8592 13.0325H16.3029ZM13.9268 11.0814C13.9127 11.081 13.8989 11.0771 13.8866 11.0702C13.8744 11.0633 13.8641 11.0536 13.8566 11.0418L9.79258 4.11976C9.78533 4.10773 9.78144 4.09402 9.78131 4.08003C9.78119 4.06604 9.78483 4.05227 9.79187 4.04012C9.79891 4.02797 9.80909 4.01787 9.82138 4.01085C9.83367 4.00384 9.84763 4.00016 9.86184 4.00018H12.3056C12.3197 4.00058 12.3334 4.00439 12.3457 4.0113C12.3579 4.01821 12.3682 4.02798 12.3757 4.03976L16.4397 10.9618C16.447 10.9738 16.4509 10.9875 16.451 11.0015C16.4511 11.0155 16.4475 11.0293 16.4405 11.0414C16.4334 11.0536 16.4232 11.0637 16.4109 11.0707C16.3987 11.0777 16.3847 11.0814 16.3705 11.0814H13.9268Z"
        fill="#E31337"
    />
    <path
        d="M14.4099 4.11976C14.4024 4.10735 14.3985 4.09316 14.3985 4.07872C14.3986 4.06427 14.4027 4.05012 14.4104 4.0378C14.418 4.02549 14.429 4.01547 14.442 4.00884C14.455 4.0022 14.4697 3.99921 14.4843 4.00018H16.9315C16.9455 4.00015 16.9594 4.0038 16.9715 4.01076C16.9837 4.01771 16.9938 4.02772 17.0007 4.03976L21.6599 11.9605C21.667 11.9725 21.6708 11.9862 21.6708 12.0001C21.6708 12.014 21.667 12.0277 21.6599 12.0397L17.0007 19.9604C16.9938 19.9725 16.9837 19.9825 16.9715 19.9894C16.9594 19.9964 16.9455 20 16.9315 20H14.4843C14.47 20.0002 14.456 19.9966 14.4436 19.9896C14.4311 19.9827 14.4208 19.9726 14.4137 19.9604C14.4066 19.9482 14.4028 19.9344 14.4029 19.9204C14.403 19.9063 14.4069 19.8925 14.4142 19.8804L19.0451 12.0001L14.4099 4.11976ZM12.4211 11.9597C12.4286 11.9725 12.4325 11.987 12.4325 12.0018C12.4325 12.0166 12.4286 12.0311 12.4211 12.0439L7.74053 19.9604C7.73268 19.9717 7.72215 19.9809 7.70986 19.9873C7.69757 19.9937 7.68388 19.997 7.66999 19.997C7.65609 19.997 7.64241 19.9937 7.63012 19.9873C7.61782 19.9809 7.6073 19.9717 7.59944 19.9604L2.86674 12.0405C2.85924 12.0277 2.85529 12.0132 2.85529 11.9984C2.85529 11.9836 2.85924 11.9691 2.86674 11.9563L7.54729 4.03976C7.55514 4.02847 7.56567 4.01923 7.57796 4.01285C7.59025 4.00647 7.60393 4.00314 7.61783 4.00314C7.63172 4.00314 7.64541 4.00647 7.6577 4.01285C7.66999 4.01923 7.68052 4.02847 7.68837 4.03976L12.4211 11.9597Z"
        fill="#E31337"
    />
</svg>
