<svg viewBox="0 0 24 24" fill="none" xmlns="http://www.w3.org/2000/svg">
    <g clip-path="url(#Holo_a)">
        <path
            d="M2.52295 5.01542C2.22009 5.03853 1.987 5.08477 2.0001 5.11945C2.1209 5.39852 2.86783 7.04155 2.87804 7.05146C2.88825 7.06137 3.06179 7.07293 3.26596 7.08119C4.17113 7.11421 4.88743 7.28595 5.66158 7.65749C6.21795 7.92334 6.6297 8.20902 7.05846 8.62349C7.68969 9.23447 8.10143 9.91315 8.34304 10.7438C8.37026 10.8395 8.39238 10.9254 8.39238 10.9386C8.39238 10.9568 8.25456 10.9601 7.64545 10.9601C7.2337 10.9601 6.87981 10.9667 6.85769 10.9749C6.82536 10.9865 6.74029 11.1648 6.38639 11.9525C6.14819 12.4826 5.95082 12.9284 5.94742 12.9433C5.93551 12.9862 6.07843 13.0242 6.43573 13.0754C6.50889 13.0869 6.94786 13.0985 7.4668 13.1051L8.37026 13.115L8.31581 13.2967C7.7067 15.3013 5.81641 16.7033 3.50076 16.8717C3.36975 16.88 3.19791 16.8882 3.11794 16.8882H2.97332L2.52754 17.8839C2.14472 18.7344 2.08517 18.8797 2.11069 18.8879C2.22639 18.9292 2.48501 18.9441 3.08391 18.9441C3.84956 18.9441 4.22217 18.9111 4.8534 18.7856C7.43107 18.272 9.57317 16.6802 10.543 14.5533C10.7301 14.1438 10.9496 13.47 10.9888 13.1877L11.0007 13.1068H12.9352L12.942 13.1431C13.0815 13.8069 13.233 14.2544 13.495 14.7828C14.2827 16.3747 15.7596 17.6742 17.5886 18.3876C18.6993 18.8193 19.889 19.0266 21.0851 18.9969C21.5853 18.9821 21.9834 18.9276 21.963 18.8764C21.946 18.8334 21.0987 16.946 21.0936 16.9411C21.0885 16.9361 20.9132 16.9295 20.7005 16.9212C20.1033 16.8981 19.6542 16.8304 19.1471 16.6901C18.3662 16.4721 17.5937 16.0774 17.0016 15.5953C16.2564 14.9859 15.717 14.228 15.4312 13.3875C15.3989 13.2917 15.3665 13.191 15.3614 13.1612L15.3495 13.1084L16.0777 13.1035C16.4776 13.1002 16.8179 13.0919 16.8315 13.0853C16.8536 13.0737 17.7247 11.1566 17.7247 11.1186C17.7247 11.0938 17.5052 11.0311 17.3062 10.9997C17.1599 10.9766 16.9744 10.97 16.2343 10.965L15.3376 10.9568L15.3717 10.8395C15.8685 9.13209 17.393 7.77638 19.3581 7.29585C19.792 7.19017 20.2139 7.13568 20.7618 7.11421C21.0885 7.101 21.1293 7.09605 21.1497 7.06963C21.1633 7.05146 21.3641 6.61387 21.5955 6.09701C21.8796 5.46457 22.0106 5.15247 21.9987 5.14422C21.9613 5.1244 21.7231 5.08312 21.5359 5.06496C21.2637 5.03688 20.4691 5.04184 20.1186 5.07156C18.1144 5.24495 16.3074 6.02931 14.9531 7.31071C14.1262 8.09343 13.546 8.97192 13.1887 9.98581C13.0968 10.2418 12.9862 10.6447 12.9522 10.8395L12.9318 10.9601H11.0301L11.0233 10.9221C11.0182 10.9023 10.9995 10.8082 10.9791 10.7124C10.6983 9.35832 9.90546 8.04224 8.78592 7.07293C7.51155 5.96821 5.92241 5.27632 4.17334 5.06611C3.6476 5.00386 2.96992 4.98239 2.52295 5.01542Z"
            fill="#007F88"
        />
    </g>
    <defs>
        <clipPath id="Holo_a">
            <rect
                width="20"
                height="14"
                fill="white"
                transform="translate(2 5)"
            />
        </clipPath>
    </defs>
</svg>
