<svg viewBox="0 0 24 24" fill="none" xmlns="http://www.w3.org/2000/svg">
    <g clip-path="url(#HuobiGlobal_a)">
        <path
            d="M14.0063 8.15157C14.0063 5.28182 12.6229 2.80941 11.5633 1.99999C11.5633 1.99999 11.4897 1.95584 11.4897 2.07358C11.4014 7.62177 8.59052 9.13759 7.03055 11.1538C3.45439 15.8337 6.78037 20.9551 10.1652 21.897C12.0637 22.4268 9.72371 20.9551 9.42938 17.8646C9.07617 14.1118 14.0063 11.2568 14.0063 8.15157Z"
            fill="#282E5B"
        />
        <path
            d="M15.8606 10.05C15.8458 10.0353 15.8164 10.0353 15.787 10.05C15.787 10.05 15.787 10.05 15.7723 10.0648C15.7134 10.7564 14.9481 12.2575 13.9915 13.6262C10.7391 18.2767 12.5934 20.5136 13.6383 21.7204C14.2417 22.4268 13.6383 21.7204 15.1541 20.9993C15.2719 20.9404 18.0975 19.4393 18.4065 16.0397C18.7156 12.7285 16.6111 10.6534 15.8606 10.05Z"
            fill="#059BDC"
        />
    </g>
    <defs>
        <clipPath id="HuobiGlobal_a">
            <rect
                width="12.9507"
                height="20"
                fill="white"
                transform="translate(5.5 2)"
            />
        </clipPath>
    </defs>
</svg>
