<svg viewBox="0 0 24 24" fill="none" xmlns="http://www.w3.org/2000/svg">
    <g clip-path="url(#HuobiGlobal_a)">
        <path
            d="M14.0063 8.15158C14.0063 5.28182 12.6229 2.80942 11.5633 2C11.5633 2 11.4897 1.95585 11.4897 2.07358C11.4014 7.62178 8.59051 9.1376 7.03054 11.1538C3.45438 15.8337 6.78035 20.9551 10.1652 21.897C12.0636 22.4268 9.72369 20.9551 9.42936 17.8646C9.07616 14.1118 14.0063 11.2568 14.0063 8.15158"
            fill="#282E5B"
        />
        <path
            d="M15.8606 10.05C15.8458 10.0353 15.8164 10.0353 15.787 10.05C15.787 10.05 15.787 10.05 15.7723 10.0648C15.7134 10.7564 14.9481 12.2575 13.9915 13.6262C10.7391 18.2767 12.5934 20.5136 13.6383 21.7204C14.2417 22.4268 13.6383 21.7204 15.1542 20.9993C15.2719 20.9404 18.0975 19.4393 18.4065 16.0397C18.7156 12.7285 16.6111 10.6534 15.8606 10.05"
            fill="#059BDC"
        />
    </g>
    <defs>
        <clipPath id="HuobiGlobal_a">
            <rect
                width="12.9507"
                height="20"
                fill="white"
                transform="translate(5.5 2)"
            />
        </clipPath>
    </defs>
</svg>
