<svg viewBox="0 0 24 24" fill="none" xmlns="http://www.w3.org/2000/svg">
    <path
        d="M12 22C17.5228 22 22 17.5228 22 12C22 6.47715 17.5228 2 12 2C6.47715 2 2 6.47715 2 12C2 17.5228 6.47715 22 12 22Z"
        fill="#292929"
    />
    <path
        fill-rule="evenodd"
        clip-rule="evenodd"
        d="M11.3794 13.6607C11.3794 13.3732 11.3806 13.0863 11.3787 12.7994C11.3781 12.7194 11.4013 12.6582 11.4756 12.6257C11.5444 12.5957 11.6163 12.6169 11.6763 12.6869C11.855 12.8957 12.0325 13.1057 12.2106 13.3157C12.2731 13.3888 12.3363 13.4613 12.3969 13.5369C12.4111 13.5547 12.4194 13.5766 12.4206 13.5994C12.4219 13.9025 12.4225 14.2057 12.4212 14.5082C12.4229 14.6415 12.3742 14.7706 12.2849 14.8696C12.1956 14.9687 12.0722 15.0304 11.9394 15.0425C11.8066 15.051 11.6756 15.009 11.5727 14.9248C11.4697 14.8406 11.4024 14.7205 11.3844 14.5888C11.3788 14.5544 11.3794 14.5188 11.3794 14.4838V13.6607ZM11.3813 8.0294C11.3806 8.0169 11.3794 8.00503 11.3794 7.99253V6.28503C11.38 6.02253 11.56 5.80128 11.8038 5.75815C11.8789 5.74417 11.9563 5.74695 12.0302 5.76631C12.1042 5.78567 12.173 5.82112 12.2317 5.87014C12.2904 5.91915 12.3375 5.98052 12.3697 6.04987C12.402 6.11921 12.4185 6.19481 12.4181 6.27128C12.4244 6.85315 12.4206 7.43565 12.4219 8.01753L12.4187 8.04753C12.2975 7.84003 12.13 7.73628 11.9012 7.7369C11.675 7.7369 11.5063 7.8369 11.3813 8.0294ZM11.3794 15.9125C11.5069 16.1063 11.6769 16.205 11.905 16.2044C12.1325 16.2038 12.2981 16.1 12.4219 15.9075V17.3538C12.4212 17.4957 12.4256 17.6388 12.4131 17.7788C12.401 17.9123 12.3376 18.036 12.2362 18.1238C12.1348 18.2116 12.0033 18.2566 11.8694 18.2494C11.7373 18.2406 11.6134 18.182 11.5227 18.0855C11.4321 17.989 11.3813 17.8618 11.3806 17.7294C11.3775 17.1713 11.3794 16.6132 11.3794 16.0544V15.9125ZM12.4219 10.3963V11.4344C12.4219 11.5332 12.3906 11.5869 12.3156 11.6169C12.2768 11.6329 12.2339 11.6358 12.1933 11.6252C12.1527 11.6146 12.1167 11.5911 12.0906 11.5582L11.6381 11.0282C11.56 10.9369 11.4819 10.8463 11.405 10.7532C11.3903 10.7355 11.3815 10.7136 11.38 10.6907C11.3788 10.2444 11.3781 9.79753 11.38 9.35128C11.3792 9.21948 11.428 9.09219 11.5166 8.9947C11.6053 8.8972 11.7275 8.83664 11.8588 8.82503C12.1056 8.79753 12.3506 8.98128 12.4081 9.24003C12.4175 9.28315 12.4206 9.32815 12.4206 9.37253C12.4219 9.71378 12.4219 10.055 12.4219 10.3963ZM13.5037 8.28565V6.89815C13.505 6.6469 13.6481 6.4419 13.8706 6.3719C14.2081 6.26503 14.5456 6.52003 14.5475 6.88753C14.5494 7.23378 14.5475 7.58003 14.5475 7.92565V9.67253C14.5475 9.93065 14.3925 10.1394 14.1556 10.2038C13.8475 10.2869 13.5331 10.06 13.5075 9.73565C13.5052 9.70383 13.5042 9.67193 13.5044 9.64003V8.28565H13.5037ZM10.3513 14.975V16.5782C10.3536 16.7034 10.3113 16.8255 10.232 16.9224C10.1526 17.0194 10.0414 17.085 9.91812 17.1075C9.61812 17.165 9.31875 16.9213 9.31 16.6094C9.3075 16.52 9.30937 16.4307 9.30937 16.3413V13.3707C9.30937 13.1213 9.46937 12.9107 9.70187 12.8507C9.77894 12.8312 9.85944 12.8296 9.9372 12.8461C10.015 12.8625 10.0879 12.8965 10.1505 12.9455C10.2131 12.9945 10.2637 13.0571 10.2984 13.1286C10.3331 13.2002 10.3509 13.2787 10.3506 13.3582C10.3525 13.8969 10.3506 14.4363 10.3506 14.975H10.3513ZM10.3513 9.07128V11.2582C10.3536 11.3794 10.3141 11.4978 10.2395 11.5934C10.1648 11.6891 10.0595 11.756 9.94125 11.7832C9.8655 11.7993 9.78712 11.7984 9.71177 11.7805C9.63643 11.7626 9.566 11.7282 9.50558 11.6797C9.44517 11.6313 9.39628 11.57 9.36245 11.5003C9.32863 11.4307 9.31071 11.3543 9.31 11.2769C9.30688 10.9607 9.30938 10.645 9.30875 10.3288V6.88753C9.30875 6.63003 9.47625 6.41503 9.71688 6.36065C9.79337 6.34386 9.87267 6.3445 9.94889 6.36253C10.0251 6.38056 10.0963 6.41551 10.1572 6.4648C10.218 6.51408 10.267 6.57643 10.3005 6.64723C10.334 6.71803 10.3511 6.79546 10.3506 6.87378C10.3525 7.43565 10.3506 7.9969 10.3506 8.55878L10.3513 9.07128ZM13.5037 14.1875V11.8125C13.5037 11.5757 13.605 11.4 13.8162 11.3013C14.155 11.1444 14.535 11.395 14.5475 11.7782V16.5582C14.5475 16.8194 14.3981 17.0269 14.1625 17.0944C13.8537 17.1832 13.5338 16.9569 13.5075 16.6313C13.5051 16.598 13.5041 16.5646 13.5044 16.5313V14.1863L13.5037 14.1875ZM16.6875 11.7713V15.4838C16.6906 15.6075 16.6503 15.7284 16.5738 15.8256C16.4972 15.9228 16.3891 15.9903 16.2681 16.0163C15.9606 16.0832 15.6544 15.8375 15.6456 15.5169V8.0669C15.6456 7.82628 15.7662 7.6344 15.97 7.5494C16.3137 7.40565 16.6869 7.6644 16.6869 8.04815V11.7707L16.6875 11.7713ZM8.35437 11.7657V15.4838C8.35437 15.7463 8.19188 15.9569 7.94688 16.015C7.63438 16.09 7.32125 15.8438 7.3125 15.5157V8.05503C7.3125 7.7994 7.46562 7.5919 7.7 7.5269C7.77689 7.50669 7.85738 7.50434 7.93532 7.52002C8.01326 7.5357 8.08658 7.569 8.14967 7.61737C8.21276 7.66575 8.26395 7.72791 8.29932 7.79911C8.33469 7.87031 8.35331 7.94865 8.35375 8.02815C8.35688 8.43753 8.35437 8.84753 8.35437 9.25753V11.765V11.7657Z"
        fill="white"
    />
</svg>
