<svg viewBox="0 0 24 24" fill="none" xmlns="http://www.w3.org/2000/svg">
    <path
        d="M4.37158 5.45679C4.49304 5.30043 4.62176 5.15061 4.75049 5.00007C4.75631 4.99279 4.7694 4.99134 4.77522 4.98407C4.78685 4.96952 4.80576 4.96007 4.8174 4.94552L4.82903 4.93098C4.91849 4.84589 5.01376 4.75352 5.1243 4.6728C5.49156 4.38099 5.90336 4.15017 6.34393 3.98917C7.71119 3.49899 9.23263 3.80153 10.4261 4.95352C12.0915 6.54987 11.9424 9.12294 10.613 10.8327C8.93155 13.3811 6.04357 16.9374 10.0428 20.1229C10.7621 20.6959 11.2952 21.1679 13.5599 21.837C12.0792 22.1163 10.7054 22.0298 9.17664 21.6305C8.09519 21.0058 6.39484 19.6698 5.81666 17.8647C4.94176 15.128 7.35556 11.0364 8.52209 9.46112C10.1235 7.27932 7.53228 4.91934 5.62466 7.55496C4.62685 8.92804 2.88287 12.8153 3.48868 15.6982C3.84286 17.3331 4.31558 18.5251 6.18902 20.1621C5.83559 19.9482 5.49756 19.7098 5.17739 19.4487C0.823974 15.3033 1.32942 8.89313 4.37158 5.45679V5.45679Z"
        fill="url(#Injective_a)"
    />
    <path
        d="M19.1897 18.5432C19.0682 18.6996 18.9395 18.8494 18.8108 18.9999C18.8049 19.0072 18.7918 19.0087 18.786 19.0159C18.7744 19.0305 18.7555 19.0399 18.7438 19.0545L18.7322 19.069C18.6428 19.1541 18.5475 19.2465 18.4369 19.3272C18.0697 19.619 17.6579 19.8499 17.2173 20.0108C15.85 20.501 14.3286 20.1985 13.1352 19.0465C11.4697 17.4501 11.6188 14.8771 12.9483 13.1673C14.629 10.6189 17.5177 7.06258 13.5184 3.87715C12.7992 3.30407 12.2661 2.83207 10.0006 2.16298C11.4821 1.88371 12.8559 1.97026 14.3846 2.36953C15.4661 2.99425 17.1664 4.33024 17.7446 6.13532C18.6195 8.87202 16.2057 12.9636 15.0391 14.5389C13.4377 16.7207 16.029 19.0807 17.9366 16.4451C18.9344 15.072 20.6784 11.1847 20.0726 8.30184C19.7177 6.66695 19.2457 5.47496 17.3722 3.83788C17.7191 4.04733 18.0566 4.28515 18.3838 4.55133C22.7365 8.69675 22.2318 15.1069 19.1897 18.5432V18.5432Z"
        fill="url(#Injective_b)"
    />
    <defs>
        <linearGradient
            id="Injective_a"
            x1="1.99996"
            y1="12"
            x2="21.5613"
            y2="12"
            gradientUnits="userSpaceOnUse"
        >
            <stop stop-color="#0082FA" />
            <stop offset="1" stop-color="#00F2FE" />
        </linearGradient>
        <linearGradient
            id="Injective_b"
            x1="1.99998"
            y1="12"
            x2="21.5613"
            y2="12"
            gradientUnits="userSpaceOnUse"
        >
            <stop stop-color="#0082FA" />
            <stop offset="1" stop-color="#00F2FE" />
        </linearGradient>
    </defs>
</svg>
