<svg viewBox="0 0 24 24" fill="none" xmlns="http://www.w3.org/2000/svg">
    <path
        d="M16.2269 4.85798C16.7946 4.85798 17.256 4.37378 17.256 3.7789C17.256 3.18403 16.7946 2.70059 16.2269 2.70059C15.6591 2.70367 15.1978 3.1871 15.1978 3.78198C15.1978 4.37686 15.6591 4.85798 16.2269 4.85798ZM16.5305 7.66175C16.7633 7.65992 16.9859 7.56262 17.1493 7.39126C17.3128 7.2199 17.4036 6.98851 17.4018 6.74799C17.4018 6.24534 17.0119 5.83415 16.5305 5.83415C16.049 5.83415 15.6591 6.24226 15.6591 6.74799C15.6591 7.25371 16.0483 7.66175 16.5305 7.66175ZM18.9227 8.01913C19.4019 8.01913 19.7918 7.61102 19.7918 7.1076C19.7918 6.60419 19.4019 6.19607 18.9227 6.19607C18.4435 6.19607 18.0536 6.60419 18.0536 7.1076C18.0536 7.61102 18.4443 8.01913 18.9227 8.01913ZM18.6355 10.4179C19.0463 10.4179 19.3789 10.0689 19.3789 9.63929C19.3789 9.20966 19.0463 8.86072 18.6355 8.86072C18.2248 8.86072 17.8922 9.20966 17.8922 9.63929C17.8922 10.0689 18.2248 10.4179 18.6355 10.4179ZM20.5508 11.1957C20.9645 11.1957 21.2994 10.8444 21.2994 10.4117C21.2994 9.979 20.9645 9.62776 20.5508 9.62776C20.4518 9.62847 20.354 9.6493 20.2628 9.68908C20.1716 9.72886 20.0889 9.7868 20.0194 9.8596C19.9498 9.93239 19.8949 10.0186 19.8576 10.1134C19.8204 10.2081 19.8016 10.3095 19.8023 10.4117C19.8023 10.8444 20.1379 11.1957 20.5508 11.1957ZM16.2284 10.0935C16.329 10.0929 16.4286 10.0718 16.5213 10.0315C16.6141 9.99116 16.6982 9.93234 16.769 9.8584C16.8398 9.78446 16.8957 9.69685 16.9337 9.60057C16.9717 9.50429 16.9909 9.40123 16.9903 9.29727V9.29574C16.9903 8.85534 16.6503 8.49796 16.2284 8.49796C15.8065 8.49796 15.4664 8.85458 15.4664 9.29574C15.4664 9.73383 15.8072 10.0935 16.2284 10.0935ZM15.5378 12.0019C15.8913 12.0019 16.1763 11.7021 16.1763 11.334C16.1777 11.1583 16.1114 10.9892 15.9921 10.864C15.8728 10.7387 15.7102 10.6675 15.5401 10.6661H15.5378C15.1844 10.6661 14.8994 10.9659 14.8994 11.334C14.8994 11.7021 15.1844 12.0019 15.5378 12.0019ZM17.9338 12.3393C18.0176 12.3387 18.1004 12.3211 18.1775 12.2874C18.2546 12.2538 18.3246 12.2048 18.3834 12.1432C18.4422 12.0816 18.4887 12.0087 18.5202 11.9285C18.5517 11.8484 18.5676 11.7627 18.5671 11.6762V11.6746C18.5671 11.3072 18.2843 11.0097 17.9338 11.0097C17.5834 11.0097 17.3006 11.3072 17.3006 11.6746C17.2995 11.7607 17.3149 11.8463 17.3458 11.9263C17.3767 12.0064 17.4226 12.0794 17.4809 12.1411C17.5391 12.2028 17.6085 12.2521 17.6852 12.2861C17.7619 12.3201 17.8443 12.3382 17.9277 12.3393H17.9338ZM19.8439 13.114C20.1974 13.114 20.4824 12.8143 20.4824 12.4438C20.4824 12.0734 20.1974 11.7736 19.8439 11.7736C19.4905 11.7736 19.2055 12.0734 19.2055 12.4438C19.2037 12.6197 19.2697 12.7892 19.3888 12.9148C19.508 13.0405 19.6706 13.1122 19.8409 13.114H19.8439ZM18.9004 14.562C19.1988 14.562 19.4399 14.3076 19.4399 13.9971C19.4399 13.6866 19.1988 13.4322 18.9004 13.4322C18.602 13.4322 18.3609 13.6866 18.3609 13.9971C18.3609 14.3076 18.602 14.562 18.9004 14.562ZM16.9814 13.7996C17.285 13.7996 17.5335 13.5398 17.5335 13.2209C17.5335 12.9019 17.2872 12.6421 16.9814 12.6421C16.6756 12.6421 16.4293 12.9019 16.4293 13.2209C16.4293 13.5398 16.6778 13.7996 16.9814 13.7996ZM14.5884 13.446C14.734 13.4437 14.8729 13.3823 14.9752 13.2751C15.0774 13.1679 15.1347 13.0235 15.1348 12.8731C15.1349 12.7226 15.0778 12.5781 14.9757 12.4708C14.8736 12.3635 14.7348 12.3019 14.5891 12.2993H14.5884C14.4427 12.3017 14.3038 12.3631 14.2016 12.4703C14.0993 12.5775 14.042 12.7218 14.0419 12.8723C14.0418 13.0228 14.099 13.1672 14.201 13.2746C14.3031 13.3819 14.442 13.4435 14.5876 13.446H14.5884ZM15.9188 14.8064C16.183 14.8064 16.395 14.582 16.395 14.3092C16.3962 14.1785 16.3471 14.0527 16.2585 13.9595C16.1699 13.8662 16.0491 13.8131 15.9226 13.8119H15.9188C15.6547 13.8119 15.4426 14.0363 15.4426 14.3092C15.4412 14.4396 15.49 14.5653 15.5784 14.6585C15.6667 14.7518 15.7872 14.805 15.9135 14.8064H15.9188ZM17.8371 15.5819C18.1013 15.5819 18.3185 15.3575 18.3185 15.0793C18.3185 14.801 18.1042 14.5766 17.8371 14.5766C17.708 14.5766 17.5843 14.6296 17.493 14.7238C17.4017 14.8181 17.3505 14.946 17.3505 15.0793C17.3505 15.2126 17.4017 15.3404 17.493 15.4347C17.5843 15.529 17.708 15.5819 17.8371 15.5819ZM16.7567 16.1637C16.9658 16.1637 17.1362 15.9854 17.1362 15.7664C17.1368 15.6617 17.0971 15.5611 17.026 15.4866C16.9548 15.4121 16.858 15.3698 16.7567 15.369C16.5476 15.369 16.3772 15.5473 16.3772 15.7664C16.377 15.8709 16.4167 15.9713 16.4878 16.0457C16.5589 16.1201 16.6555 16.1625 16.7567 16.1637ZM15.7328 16.4758C15.7781 16.4755 15.823 16.466 15.8647 16.4478C15.9065 16.4296 15.9444 16.4031 15.9762 16.3698C16.0081 16.3365 16.0333 16.297 16.0504 16.2536C16.0675 16.2102 16.0761 16.1638 16.0758 16.117V16.1161C16.0758 15.9162 15.921 15.7564 15.7328 15.7564C15.6875 15.7567 15.6426 15.7662 15.6009 15.7844C15.5591 15.8026 15.5212 15.8291 15.4893 15.8624C15.4575 15.8957 15.4323 15.9352 15.4152 15.9785C15.3981 16.0219 15.3895 16.0683 15.3898 16.1152V16.1161C15.3882 16.2098 15.4227 16.3004 15.4858 16.3678C15.5488 16.4352 15.6353 16.4741 15.726 16.4757L15.7328 16.4758ZM14.8362 15.4413C15.0616 15.4413 15.2447 15.2491 15.2447 15.0139C15.2447 14.7788 15.0616 14.5866 14.8362 14.5866C14.6107 14.5866 14.4276 14.7788 14.4276 15.0139C14.4274 15.1264 14.4702 15.2344 14.5467 15.3145C14.6232 15.3945 14.7273 15.4401 14.8362 15.4413ZM13.5206 14.4613C13.7825 14.4613 13.9968 14.24 13.9968 13.9641C13.9968 13.6881 13.7847 13.4668 13.5206 13.4668C13.2587 13.4668 13.0444 13.6881 13.0444 13.9641C13.0442 14.0951 13.0941 14.2209 13.1833 14.314C13.2725 14.4072 13.3937 14.4601 13.5206 14.4613ZM17.4219 20.6914C17.9874 20.6914 18.4458 20.2103 18.4458 19.6177C18.4458 19.0251 17.9874 18.544 17.4219 18.544C16.8564 18.544 16.398 19.0251 16.398 19.6177C16.398 20.2103 16.8564 20.6914 17.4219 20.6914ZM14.8213 19.3326C15.2923 19.3326 15.6747 18.9321 15.6747 18.4379C15.6747 17.9437 15.2923 17.5433 14.8213 17.5433C14.3503 17.5433 13.9678 17.9437 13.9678 18.4379C13.9678 18.9321 14.3495 19.3326 14.8213 19.3326ZM13.3353 21.2993C13.8115 21.2993 14.1962 20.8966 14.1962 20.3963C14.1962 19.899 13.8115 19.4932 13.3353 19.4932C12.8591 19.4932 12.4744 19.8959 12.4744 20.3963C12.4726 20.6339 12.5623 20.8626 12.7237 21.032C12.8852 21.2013 13.1051 21.2975 13.3352 21.2993H13.3353ZM12.8881 17.6755C12.9868 17.6748 13.0844 17.654 13.1753 17.6144C13.2662 17.5747 13.3487 17.5169 13.418 17.4444C13.4873 17.3718 13.5421 17.2858 13.5792 17.1913C13.6164 17.0969 13.6351 16.9958 13.6344 16.8939C13.6351 16.7919 13.6164 16.6909 13.5792 16.5964C13.5421 16.5019 13.4873 16.416 13.418 16.3434C13.3487 16.2708 13.2662 16.213 13.1753 16.1734C13.0844 16.1337 12.9868 16.1129 12.8881 16.1122C12.7894 16.1129 12.6918 16.1337 12.6009 16.1734C12.51 16.213 12.4275 16.2708 12.3582 16.3434C12.2889 16.416 12.2341 16.5019 12.197 16.5964C12.1598 16.6909 12.1411 16.7919 12.1418 16.8939C12.1425 17.3243 12.4774 17.6755 12.8881 17.6755ZM11.4059 19.6692C11.8166 19.6692 12.1492 19.3203 12.1492 18.8906C12.1492 18.461 11.8166 18.1121 11.4059 18.1121C10.9951 18.1121 10.6625 18.461 10.6625 18.8906C10.6605 19.0951 10.7373 19.2919 10.8758 19.4379C11.0144 19.5839 11.2034 19.6671 11.4013 19.6692H11.4059ZM9.80827 21.0219C10.219 21.0219 10.5494 20.673 10.5494 20.2456C10.5494 19.816 10.2168 19.4694 9.80827 19.4694C9.39753 19.4694 9.06715 19.8183 9.06715 20.2456C9.06715 20.673 9.39976 21.0219 9.80827 21.0219ZM8.47857 19.2611C8.64745 19.2595 8.80885 19.1889 8.9275 19.0648C9.04615 18.9406 9.11241 18.773 9.1118 18.5986C9.1118 18.2335 8.82904 17.9361 8.47857 17.9361C8.31015 17.9387 8.14949 18.0097 8.0313 18.1336C7.9131 18.2576 7.84685 18.4246 7.84685 18.5986C7.84685 18.7726 7.9131 18.9396 8.0313 19.0635C8.14949 19.1875 8.31015 19.2584 8.47857 19.2611ZM10.0791 17.9022C10.2481 17.901 10.4097 17.8306 10.5285 17.7063C10.6472 17.5821 10.7133 17.4143 10.7124 17.2397C10.7124 16.8724 10.4296 16.5772 10.0791 16.5772C9.91069 16.5796 9.7499 16.6502 9.63148 16.774C9.51306 16.8977 9.44652 17.0646 9.44623 17.2386C9.44593 17.4126 9.51191 17.5797 9.62991 17.7039C9.74791 17.8281 9.90846 17.8993 10.0769 17.9022H10.0791ZM11.5725 15.9093C11.6563 15.9087 11.7391 15.8911 11.8162 15.8575C11.8933 15.8238 11.9633 15.7748 12.0221 15.7132C12.0809 15.6517 12.1274 15.5787 12.1589 15.4986C12.1904 15.4184 12.2063 15.3327 12.2058 15.2462V15.2446C12.2058 14.8772 11.923 14.5798 11.5725 14.5798C11.4888 14.5804 11.406 14.598 11.3289 14.6316C11.2517 14.6653 11.1817 14.7143 11.1229 14.7759C11.0641 14.8374 11.0177 14.9104 10.9862 14.9905C10.9546 15.0707 10.9387 15.1564 10.9393 15.2429V15.2445C10.9393 15.6119 11.2221 15.9093 11.5725 15.9093ZM9.28815 16.1837C9.59174 16.1837 9.83804 15.927 9.83804 15.608C9.83804 15.2891 9.59174 15.0324 9.28815 15.0324C8.98455 15.0324 8.73826 15.2891 8.73826 15.608C8.73826 15.927 8.98455 16.1837 9.28815 16.1837ZM7.69578 17.5372C7.76769 17.5368 7.83883 17.5217 7.90513 17.4929C7.97142 17.4641 8.03158 17.4221 8.08216 17.3693C8.13274 17.3165 8.17275 17.2539 8.19991 17.1851C8.22707 17.1163 8.24085 17.0427 8.24046 16.9684V16.9669C8.24184 16.8171 8.18556 16.6728 8.08399 16.5659C7.98241 16.4589 7.84387 16.398 7.69883 16.3966H7.69578C7.62386 16.397 7.55272 16.412 7.48642 16.4408C7.42013 16.4696 7.35997 16.5116 7.30939 16.5645C7.25881 16.6173 7.2188 16.6799 7.19164 16.7486C7.16448 16.8174 7.1507 16.8911 7.15109 16.9654V16.9669C7.1506 17.0413 7.1643 17.115 7.19141 17.184C7.21852 17.2529 7.2585 17.3156 7.30908 17.3686C7.35966 17.4215 7.41984 17.4637 7.48619 17.4926C7.55254 17.5215 7.62376 17.5367 7.69578 17.5372ZM7.32968 15.9508C7.4552 15.9498 7.57522 15.8975 7.66349 15.8053C7.75176 15.7131 7.80109 15.5886 7.80069 15.4589C7.80069 15.1861 7.58862 14.9671 7.32968 14.9671C7.07073 14.9671 6.85866 15.1884 6.85866 15.4589C6.85866 15.7318 7.07073 15.9508 7.32968 15.9508ZM7.31628 14.5589C7.36974 14.5584 7.42257 14.5471 7.47176 14.5255C7.52096 14.5039 7.56556 14.4725 7.60301 14.4331C7.64046 14.3937 7.67003 14.3471 7.69003 14.2959C7.71003 14.2447 7.72008 14.1899 7.71959 14.1347C7.71959 13.9018 7.53877 13.7104 7.31628 13.7104C7.0938 13.7104 6.91298 13.8995 6.91298 14.1347C6.91298 14.3699 7.0938 14.5589 7.31628 14.5589ZM7.53803 13.4015C7.72926 13.4015 7.88106 13.2393 7.88106 13.0418C7.88106 12.8442 7.72628 12.6821 7.53803 12.6821C7.34679 12.6821 7.195 12.8442 7.195 13.0418C7.195 13.2393 7.34679 13.4015 7.53803 13.4015ZM8.91089 13.2078C9.13635 13.2078 9.3194 13.0156 9.3194 12.7805C9.3194 12.5453 9.13635 12.3531 8.91089 12.3531C8.68543 12.3531 8.50238 12.5453 8.50238 12.7805C8.50198 12.893 8.54473 13.0011 8.62127 13.0812C8.69782 13.1613 8.80195 13.2068 8.91089 13.2078ZM10.4177 12.6014C10.6796 12.6014 10.8939 12.377 10.8939 12.1041C10.8951 11.9735 10.846 11.8477 10.7574 11.7544C10.6688 11.6612 10.548 11.6081 10.4215 11.6068H10.4177C10.1558 11.6068 9.94147 11.8313 9.94147 12.1041C9.94098 12.1689 9.95285 12.2332 9.9764 12.2932C9.99996 12.3533 10.0347 12.408 10.0787 12.4541C10.1228 12.5003 10.1752 12.5371 10.2329 12.5624C10.2907 12.5876 10.3527 12.6009 10.4155 12.6014H10.4177ZM10.7763 14.18C10.9196 14.1797 11.057 14.1207 11.1581 14.0159C11.2593 13.911 11.316 13.769 11.3159 13.621C11.3157 13.473 11.2587 13.3311 11.1573 13.2265C11.056 13.1219 10.9185 13.0631 10.7752 13.0631C10.6319 13.0631 10.4945 13.1219 10.3931 13.2265C10.2917 13.3311 10.2347 13.473 10.2346 13.621C10.2344 13.769 10.2912 13.911 10.3923 14.0159C10.4935 14.1207 10.6308 14.1797 10.7741 14.18H10.7763ZM8.93024 14.6004C9.19216 14.6004 9.40125 14.3791 9.40125 14.1055C9.40125 13.8319 9.18918 13.6105 8.93024 13.6105C8.86799 13.6109 8.80644 13.624 8.74908 13.6489C8.69172 13.6739 8.63969 13.7103 8.59595 13.756C8.55221 13.8018 8.51762 13.856 8.49416 13.9155C8.4707 13.9751 8.45883 14.0388 8.45922 14.1031V14.1055C8.45833 14.1696 8.46968 14.2332 8.4926 14.2927C8.51552 14.3523 8.54958 14.4066 8.59282 14.4525C8.63606 14.4985 8.68764 14.5352 8.74461 14.5606C8.80159 14.5859 8.86284 14.5995 8.92488 14.6004H8.93024V14.6004ZM3.72154 13.8665C4.28408 13.8665 4.74245 13.3876 4.74245 12.7981C4.74245 12.2086 4.28408 11.7298 3.72154 11.7298C3.159 11.7298 2.70064 12.2094 2.70064 12.7989C2.70064 13.3884 3.159 13.8665 3.72154 13.8665ZM6.03867 11.9589C6.52307 11.9589 6.91298 11.5477 6.91298 11.0419C6.91298 10.5362 6.5201 10.125 6.03867 10.125C5.80522 10.1267 5.58195 10.224 5.41799 10.3957C5.25402 10.5673 5.16279 10.7992 5.16435 11.0403V11.0419C5.16435 11.5507 5.55723 11.9589 6.03867 11.9589ZM5.13459 9.60701C5.61602 9.60701 6.00369 9.1989 6.00369 8.69548C6.00369 8.19206 5.61379 7.78395 5.13459 7.78395C5.01967 7.78474 4.90604 7.80891 4.80017 7.85507C4.6943 7.90123 4.59827 7.96848 4.51757 8.05297C4.43686 8.13747 4.37306 8.23755 4.32981 8.34752C4.28655 8.45749 4.26469 8.57517 4.26548 8.69387V8.69548C4.26312 8.93477 4.35288 9.16523 4.51501 9.33617C4.67714 9.50711 4.89838 9.60454 5.13005 9.60701H5.13459ZM7.36837 8.49258C7.77911 8.49258 8.1147 8.14364 8.1147 7.71094C8.1147 7.27823 7.77986 6.92929 7.36837 6.92929C6.95688 6.92929 6.62204 7.27823 6.62204 7.71094C6.62204 8.14364 6.95763 8.49258 7.36837 8.49258ZM8.28138 10.839C8.6951 10.839 9.02994 10.4878 9.02994 10.0551C9.02994 9.62238 8.6951 9.27114 8.28138 9.27114C7.86766 9.27114 7.53282 9.62238 7.53282 10.0551C7.53282 10.4878 7.86766 10.839 8.28138 10.839ZM10.3143 10.3518C10.4844 10.3503 10.6469 10.2792 10.7662 10.1539C10.8855 10.0287 10.9518 9.85964 10.9505 9.68394C10.9517 9.59765 10.9366 9.51194 10.9058 9.4317C10.875 9.35147 10.8292 9.27829 10.771 9.21633C10.7128 9.15438 10.6434 9.10486 10.5667 9.07062C10.49 9.03637 10.4076 9.01807 10.324 9.01674C10.2405 9.01542 10.1575 9.03111 10.0798 9.06291C10.0021 9.09472 9.93127 9.14201 9.87129 9.2021C9.81131 9.26218 9.76337 9.33388 9.73021 9.4131C9.69706 9.49232 9.67934 9.57751 9.67805 9.66381C9.67805 9.67057 9.67805 9.67726 9.67805 9.68394C9.67609 9.85903 9.74153 10.0277 9.85999 10.153C9.97844 10.2782 10.1402 10.3498 10.3097 10.3518L10.3143 10.3518ZM12.0703 10.3579C12.3739 10.3579 12.6202 10.1012 12.6202 9.78455C12.6202 9.4679 12.3739 9.21119 12.0703 9.21119C11.9231 9.21119 11.7819 9.2716 11.6778 9.37913C11.5737 9.48665 11.5152 9.63249 11.5152 9.78455C11.5152 9.93662 11.5737 10.0825 11.6778 10.19C11.7819 10.2975 11.9231 10.3579 12.0703 10.3579ZM13.5213 10.703C13.7751 10.703 13.9849 10.487 13.9849 10.2188C13.9849 9.95056 13.778 9.73459 13.5213 9.73459C13.3978 9.73559 13.2796 9.78709 13.1928 9.87784C13.1059 9.96858 13.0573 10.0912 13.0578 10.2188C13.0607 10.484 13.2668 10.703 13.5213 10.703ZM13.7103 8.93681C13.818 8.93602 13.9209 8.89114 13.9965 8.81203C14.0721 8.73291 14.1142 8.62604 14.1136 8.51486C14.1136 8.28199 13.9328 8.09292 13.7103 8.09292C13.4878 8.09292 13.307 8.28199 13.307 8.51486C13.3064 8.62604 13.3485 8.73291 13.4242 8.81203C13.4998 8.89114 13.6027 8.93602 13.7103 8.93681ZM12.5942 8.35884C12.7173 8.35853 12.8353 8.30773 12.9223 8.21761C13.0092 8.12749 13.0579 8.00541 13.0578 7.8782C13.0576 7.75098 13.0086 7.62903 12.9215 7.53913C12.8343 7.44924 12.7162 7.39874 12.593 7.39874C12.4699 7.39874 12.3517 7.44924 12.2646 7.53913C12.1774 7.62903 12.1284 7.75098 12.1283 7.8782C12.1281 8.00541 12.1768 8.12749 12.2638 8.21761C12.3507 8.30773 12.4687 8.35853 12.5919 8.35884H12.5942ZM11.1603 8.00837C11.3057 8.00715 11.4447 7.94644 11.5468 7.83953C11.6489 7.73263 11.7058 7.58826 11.705 7.43809C11.705 7.12144 11.4617 6.86781 11.1603 6.86781C10.8589 6.86781 10.6156 7.12451 10.6156 7.43809C10.615 7.51238 10.6286 7.58605 10.6556 7.65492C10.6826 7.72378 10.7224 7.78648 10.7729 7.83944C10.8233 7.89239 10.8833 7.93457 10.9496 7.96355C11.0158 7.99254 11.0869 8.00777 11.1588 8.00837H11.1603ZM9.4072 8.01068C9.76065 8.01068 10.0456 7.71094 10.0456 7.34279C10.0456 6.97464 9.76065 6.6749 9.4072 6.6749C9.05376 6.6749 8.76877 6.97464 8.76877 7.34279C8.76817 7.51865 8.83498 7.68761 8.95461 7.81276C9.07423 7.9379 9.23695 8.00906 9.4072 8.01068ZM7.04618 6.34057C7.4465 6.34057 7.7687 6.00239 7.7687 5.58352C7.7687 5.16464 7.44427 4.82647 7.04618 4.82647C6.64585 4.82647 6.32366 5.16464 6.32366 5.58352C6.32366 6.00239 6.64808 6.34057 7.04618 6.34057ZM9.07831 5.88173C9.43176 5.88173 9.71675 5.58198 9.71675 5.21383C9.71675 4.84569 9.43176 4.54594 9.07831 4.54594C8.72486 4.54594 8.43987 4.84569 8.43987 5.21383C8.43987 5.58198 8.72486 5.88173 9.07831 5.88173ZM10.8336 5.89018C11.1372 5.89018 11.3835 5.63348 11.3835 5.31452C11.3835 4.99556 11.1372 4.73885 10.8336 4.73885C10.761 4.73926 10.6892 4.75443 10.6223 4.7835C10.5554 4.81257 10.4946 4.85497 10.4436 4.90828C10.3925 4.9616 10.3521 5.02477 10.3247 5.09421C10.2973 5.16365 10.2834 5.23799 10.2838 5.31298V5.31452C10.2831 5.46606 10.3406 5.61169 10.4437 5.71956C10.5467 5.82744 10.6869 5.88878 10.8336 5.89018ZM12.2742 6.23296C12.5309 6.23296 12.7378 6.01699 12.7378 5.74876C12.7378 5.48053 12.5309 5.26456 12.2742 5.26456C12.1499 5.26456 12.0307 5.31557 11.9427 5.40638C11.8548 5.49718 11.8054 5.62034 11.8054 5.74876C11.8054 5.87718 11.8548 6.00034 11.9427 6.09115C12.0307 6.18195 12.1499 6.23296 12.2742 6.23296ZM13.3807 6.8263C13.4911 6.82549 13.5966 6.77947 13.6742 6.69834C13.7518 6.61722 13.795 6.50761 13.7944 6.3936C13.7944 6.15303 13.6084 5.96089 13.3807 5.96089C13.153 5.96089 12.967 6.15534 12.967 6.3936C12.967 6.63186 13.153 6.8263 13.3807 6.8263ZM14.1925 7.50726C14.2375 7.50696 14.2819 7.49752 14.3233 7.47947C14.3647 7.46142 14.4023 7.43513 14.4339 7.40208C14.4655 7.36904 14.4904 7.3299 14.5074 7.28688C14.5243 7.24387 14.5329 7.19784 14.5326 7.15141V7.15064C14.5329 7.10422 14.5245 7.05816 14.5076 7.01511C14.4908 6.97206 14.4659 6.93286 14.4344 6.89975C14.4029 6.86663 14.3654 6.84025 14.324 6.82211C14.2826 6.80397 14.2382 6.79443 14.1932 6.79402H14.1925C14.1476 6.79433 14.1031 6.80377 14.0617 6.82182C14.0203 6.83986 13.9827 6.86616 13.9511 6.8992C13.9195 6.93225 13.8946 6.97139 13.8776 7.0144C13.8607 7.05741 13.8522 7.10345 13.8525 7.14988V7.15064C13.8518 7.19677 13.8599 7.24258 13.8763 7.28546C13.8928 7.32834 13.9173 7.36746 13.9484 7.40057C13.9795 7.43368 14.0166 7.46013 14.0576 7.47843C14.0986 7.49672 14.1426 7.50649 14.1873 7.50719H14.1927L14.1925 7.50726Z"
        fill="black"
    />
</svg>
