<svg viewBox="0 0 24 24" fill="none" xmlns="http://www.w3.org/2000/svg">
    <circle cx="12" cy="12" r="10" fill="black" />
    <path
        d="M19.0667 11.8L17.1 11.85H17.0834H17.0667H17.0334H17.0167L16.9834 11.8667H16.9667C16.95 11.8667 16.95 11.8834 16.9334 11.8834L15.0834 13.4167L12.3167 11.8334V10.3334L15.0667 10.5834H15.1C15.1167 10.5834 15.1167 10.5834 15.1334 10.5834H15.15C15.1667 10.5834 15.1834 10.5834 15.2 10.5667H15.2167L15.2334 10.55L16.55 9.78337L18.7167 10.7334C18.85 10.7834 19 10.7334 19.0667 10.6C19.1334 10.4667 19.0667 10.3167 18.9334 10.25L17.1167 9.46671L18.2334 8.83337C18.3667 8.76671 18.4 8.60004 18.3334 8.46671C18.2667 8.33337 18.1 8.30004 17.9667 8.36671L15.2834 9.90004L14.9334 7.96671L17.1 7.53337C17.2 7.51671 17.2834 7.45004 17.3 7.36671C17.3334 7.26671 17.3167 7.16671 17.25 7.10004C17.1834 7.03337 17.0834 7.00004 17 7.01671L15.15 7.40004L15.8667 6.16671C15.9167 6.08337 15.9167 5.98337 15.8667 5.90004C15.8167 5.81671 15.7334 5.76671 15.6334 5.76671C15.5334 5.76671 15.45 5.81671 15.4 5.90004L14.4334 7.53337C14.4167 7.55004 14.4167 7.56671 14.4167 7.58337C14.3667 7.65004 14.3334 7.71671 14.35 7.80004L14.75 10.0167L12.3 9.80004V6.96671L14.05 5.53337C14.1667 5.43337 14.1834 5.26671 14.1 5.16671C14.0167 5.06671 13.85 5.03337 13.75 5.11671L12.3334 6.28337V5.08337C12.3334 4.95004 12.2167 4.83337 12.0667 4.83337C11.9167 4.83337 11.8167 4.95004 11.8 5.08337V8.06671L10 7.48337L10.5834 5.38337C10.6167 5.25004 10.55 5.10004 10.4 5.05004C10.25 5.00004 10.1167 5.08337 10.0667 5.23337L9.56671 7.03337L8.78337 5.86671C8.70004 5.75004 8.53337 5.71671 8.41671 5.80004C8.30004 5.88337 8.26671 6.05004 8.35004 6.16671L9.45004 7.80004L9.46671 7.81671L9.48337 7.83337L9.50004 7.85004L9.51671 7.86671C9.53337 7.86671 9.53337 7.88337 9.55004 7.88337H9.56671C9.58337 7.88337 9.58337 7.90004 9.60004 7.90004L11.8167 8.61671V11.8334L10.4667 12.6167L9.28337 10.1667C9.26671 10.15 9.26671 10.1334 9.25004 10.1167C9.25004 10.1167 9.25004 10.1167 9.23337 10.1C9.21671 10.0834 9.20004 10.0667 9.18337 10.0667L7.86671 9.30004L7.56671 6.93337C7.55004 6.83337 7.50004 6.76671 7.40004 6.71671C7.31671 6.68337 7.21671 6.70004 7.13337 6.75004C7.05004 6.80004 7.01671 6.90004 7.03337 7.00004L7.28337 8.96671L6.16671 8.31671C6.03337 8.25004 5.88337 8.30004 5.81671 8.41671C5.75004 8.53337 5.78337 8.70004 5.90004 8.76671L8.60004 10.3334L7.11671 11.6167L5.63337 9.95004C5.53337 9.83337 5.36671 9.83337 5.26671 9.93337C5.16671 10.0334 5.15004 10.2 5.25004 10.3L6.51671 11.7H5.10004C4.95004 11.7167 4.83337 11.8334 4.83337 11.9834C4.83337 12.1334 4.95004 12.25 5.10004 12.25H7.00004C7.01671 12.25 7.03337 12.25 7.05004 12.25C7.13337 12.2667 7.21671 12.25 7.26671 12.1834L8.96671 10.7L9.98337 12.8834L7.45004 14.35L5.55004 13.45C5.41671 13.4 5.26671 13.45 5.21671 13.5834C5.16671 13.7167 5.20004 13.8667 5.33337 13.9334L6.90004 14.6834L5.91671 15.25C5.78337 15.3167 5.75004 15.4834 5.81671 15.6167C5.88337 15.75 6.05004 15.7834 6.18337 15.7167L7.60004 14.9L8.83337 14.1834L9.10004 16.1167L6.96671 16.4834C6.83337 16.5167 6.73337 16.65 6.76671 16.7834C6.78337 16.9167 6.91671 17.0167 7.05004 17L8.86671 16.6667L8.15004 17.8834C8.08337 18.0167 8.11671 18.1667 8.25004 18.25C8.38337 18.3167 8.53337 18.2834 8.61671 18.15L9.61671 16.45V16.4334L9.63337 16.4167C9.63337 16.4 9.63337 16.4 9.65004 16.3834V16.3667C9.65004 16.35 9.65004 16.35 9.65004 16.3334V16.3167C9.65004 16.3 9.65004 16.2834 9.65004 16.2667L9.33337 13.8667L12.0834 12.2834L13.2167 12.95L11.7167 15.2834C11.7167 15.2834 11.7167 15.2834 11.7167 15.3V15.3167C11.7167 15.3334 11.7 15.3334 11.7 15.35C11.7 15.3667 11.7 15.3834 11.6834 15.4C11.6834 15.4 11.6834 15.4 11.6834 15.4167C11.6834 15.4334 11.6834 15.4334 11.6834 15.45L11.7167 16.9834L9.86671 18.4667C9.75004 18.55 9.73337 18.7167 9.83337 18.8334C9.91671 18.95 10.0834 18.9667 10.2 18.8667L11.7334 17.6334L11.7667 18.9334C11.7834 19.0667 11.9 19.1834 12.0334 19.1834C12.1667 19.1834 12.2834 19.0667 12.2834 18.9167L12.1834 15.8L14.05 16.4L13.4167 18.5334C13.3834 18.6334 13.4 18.7334 13.4667 18.8C13.5334 18.8667 13.6334 18.9 13.7167 18.8834C13.8 18.8667 13.8834 18.7834 13.9 18.6834L14.4334 16.8667L15.1667 18.0667C15.2167 18.15 15.3 18.2 15.4 18.2C15.5 18.2 15.5834 18.15 15.6167 18.0667C15.6667 17.9834 15.65 17.8834 15.6167 17.8L14.6667 16.1667C14.65 16.15 14.65 16.1334 14.6334 16.1167C14.6 16.0334 14.55 15.9834 14.4667 15.95L12.3334 15.2667L13.6667 13.2L16.4 14.8L16.5667 17.0167C16.5834 17.15 16.7 17.25 16.85 17.25C17 17.25 17.1 17.1167 17.1 16.9834L16.9667 15.1334L17.95 15.7C18.0334 15.75 18.1334 15.75 18.2167 15.7C18.3 15.65 18.35 15.5667 18.35 15.4667C18.35 15.3667 18.3 15.2834 18.2167 15.2334L16.8 14.4167L15.6 13.7167L17.1 12.4667L18.5334 14.1C18.6334 14.2167 18.8 14.2167 18.9 14.1167C19.0167 14.0167 19.0167 13.85 18.9167 13.75L17.6667 12.3667L19.0667 12.3334C19.2167 12.3334 19.3334 12.2 19.3334 12.0667C19.3334 11.9 19.2 11.7834 19.0667 11.8Z"
        fill="#1AEEC2"
    />
</svg>
