<svg viewBox="0 0 25 24" fill="none" xmlns="http://www.w3.org/2000/svg">
    <path
        d="M12.3692 22C17.8922 22 22.3692 17.523 22.3692 12C22.3692 6.477 17.8922 2 12.3692 2C6.8462 2 2.3692 6.477 2.3692 12C2.3692 17.523 6.8462 22 12.3692 22Z"
        fill="white"
    />
    <path
        fill-rule="evenodd"
        clip-rule="evenodd"
        d="M2.3692 12C2.3692 6.49231 6.86151 2 12.3692 2C17.8769 2 22.3692 6.49231 22.3692 12C22.3692 17.5077 17.8769 22 12.3692 22C6.86151 22 2.3692 17.5077 2.3692 12ZM15.9384 9.75387H16.5538L16.6153 8.00003H12.5538V9.75387H13.1692L11.9076 11.2308H11.3845V9.75387H12.0922V8.00003H11.1384V8.67695H10.6153V8.00003H9.66147V8.67695H9.13839V8.00003H8.15377V9.78464H9.01531V12.0308V14.2462H8.15377V16.0308H12.0615V14.2462H11.3538V12.7693H11.8769L13.1384 14.1846H12.523V15.9693H16.5538V14.1846H15.9384L14.0307 11.9693L15.9384 9.75387Z"
        fill="black"
    />
</svg>
