<svg viewBox="0 0 24 24" fill="none" xmlns="http://www.w3.org/2000/svg">
    <path
        d="M11.3712 3.32059C13.1044 3.20896 14.867 3.5556 16.424 4.33115C18.7213 5.45922 20.5485 7.49797 21.4122 9.90099C21.7941 10.9644 21.9997 12.0866 21.9997 13.2147V17.4038C21.9997 17.5742 22.0056 17.7505 21.9645 17.915C21.8705 18.338 21.5708 18.7081 21.1713 18.8903C20.8951 19.0195 20.5779 19.0372 20.2841 18.9902C19.6437 18.8727 19.1502 18.2734 19.1443 17.6271C19.1384 16.3286 19.1443 15.0302 19.1443 13.7258C19.156 13.3557 19.156 12.962 18.9563 12.6389C18.6331 12.0396 17.8458 11.7517 17.2172 12.0102C16.6825 12.1982 16.2947 12.7388 16.2889 13.3087C16.283 14.6306 16.2889 15.9467 16.2889 17.2628C16.2889 17.5096 16.3006 17.7622 16.2301 17.9972C16.095 18.4614 15.7072 18.8374 15.2431 18.9667C14.632 19.137 13.9328 18.8668 13.6215 18.3027C13.4099 17.962 13.4276 17.5507 13.4334 17.1747C13.4276 15.8645 13.4393 14.5543 13.4276 13.2441C13.4158 12.5801 12.8694 11.9809 12.2055 11.8927C11.7766 11.8281 11.3242 11.9691 11.0128 12.2746C10.7308 12.539 10.5721 12.9209 10.5721 13.3087V17.1277C10.5663 17.4508 10.6074 17.7798 10.484 18.0795C10.296 18.6259 9.74372 19.0254 9.16206 19.0078C8.56865 19.043 7.98699 18.6318 7.79898 18.0736C7.69322 17.7975 7.71672 17.5037 7.71672 17.2099C7.71672 15.8938 7.7226 14.5778 7.71672 13.2558C7.71085 12.6036 7.20556 12.0102 6.56515 11.8927C5.98937 11.7693 5.34895 12.0631 5.05518 12.586C4.9318 12.8034 4.86717 13.0561 4.86717 13.3028V17.5801C4.87305 17.9972 4.67916 18.4085 4.36189 18.6729C3.88011 19.0959 3.09869 19.1194 2.58754 18.7316C2.21739 18.479 2 18.0501 2 17.6036V13.2734C2.00588 11.6342 2.41715 10.0009 3.19857 8.56141C3.83899 7.38633 4.71441 6.33465 5.7661 5.50034C7.35245 4.21364 9.33832 3.44397 11.3712 3.32059Z"
        fill="#5442D1"
    />
</svg>
