<svg viewBox="0 0 24 24" fill="none" xmlns="http://www.w3.org/2000/svg">
  <path
    fill-rule="evenodd"
    clip-rule="evenodd"
    d="M9.05802 12.0016L14.248 17.3337L17.5241 13.9687C18.1101 13.4273 19.0061 13.4508 19.5634 14.0234C20.1207 14.596 20.1447 15.5169 19.6167 16.1186L15.2941 20.5602C15.0133 20.8423 14.638 21 14.2474 21C13.8568 21 13.4814 20.8423 13.2007 20.5602L6.96401 14.1515V17.9603C6.96401 18.8009 6.30001 19.4829 5.48201 19.4829C4.66334 19.4829 4 18.8009 4 17.9603V6.03809C4 5.19753 4.66334 4.51622 5.48201 4.51622C6.30001 4.51622 6.96401 5.19753 6.96401 6.03809V9.84691L13.2 3.44024C13.4805 3.15789 13.8558 3 14.2464 3C14.637 3 15.0123 3.15789 15.2927 3.44024L19.6194 7.88122C20.1467 8.48291 20.1234 9.40309 19.5661 9.9757C19.0087 10.5483 18.1127 10.5725 17.5267 10.0304L14.2507 6.66539L9.05802 12.0016ZM14.2507 10.4777C13.6507 10.4777 13.1094 10.8488 12.8794 11.4179C12.6494 11.9878 12.7767 12.6428 13.2007 13.079C13.6247 13.5152 14.2627 13.6454 14.8174 13.4099C15.0874 13.2961 15.3187 13.1014 15.4819 12.8506C15.645 12.5998 15.7325 12.3043 15.7334 12.0016C15.7334 11.598 15.5774 11.2102 15.2994 10.9243C15.0214 10.6383 14.644 10.4777 14.2507 10.477V10.4777Z"
    fill="#23AF91"
  />
</svg>
