<svg viewBox="0 0 24 24" fill="none" xmlns="http://www.w3.org/2000/svg">
    <path
        d="M8.35525 2C8.26337 1.99974 8.17234 2.01767 8.08737 2.05278C8.00239 2.08789 7.92513 2.13948 7.86 2.20461C7.79487 2.26975 7.74314 2.34714 7.70779 2.43237C7.67243 2.5176 7.65413 2.609 7.65393 2.70135V5.64558C7.65426 5.78764 7.68243 5.92823 7.73684 6.05934C7.79125 6.19045 7.87082 6.3095 7.97102 6.40969C8.07122 6.50988 8.19007 6.58925 8.3208 6.64325C8.45152 6.69726 8.59155 6.72486 8.73288 6.72446H10.8379C10.9793 6.72406 11.1194 6.75166 11.2502 6.80569C11.381 6.85971 11.5 6.93911 11.6003 7.03934C11.7005 7.13957 11.7802 7.25867 11.8347 7.38984C11.8892 7.52102 11.9174 7.66169 11.9178 7.80384V11.0035C11.918 11.1457 11.9461 11.2865 12.0005 11.4178C12.0548 11.5491 12.1344 11.6684 12.2347 11.7688C12.3349 11.8692 12.4539 11.9487 12.5847 12.0029C12.7156 12.057 12.8558 12.0847 12.9973 12.0844H16.1978C16.4832 12.0837 16.7571 12.1969 16.9594 12.3991C17.1617 12.6013 17.2759 12.876 17.2768 13.1627V15.2668C17.277 15.409 17.3051 15.5497 17.3595 15.681C17.4138 15.8122 17.4934 15.9314 17.5937 16.0317C17.694 16.132 17.8129 16.2115 17.9438 16.2655C18.0746 16.3196 18.2148 16.3471 18.3563 16.3467H21.2982C21.3901 16.3469 21.4812 16.329 21.5662 16.2939C21.6513 16.2587 21.7286 16.2071 21.7938 16.1419C21.859 16.0767 21.9107 15.9993 21.9461 15.914C21.9815 15.8287 21.9998 15.7372 22 15.6448V2.70287C21.9999 2.61046 21.9818 2.51897 21.9465 2.43362C21.9112 2.34828 21.8596 2.27075 21.7945 2.20548C21.7294 2.1402 21.6522 2.08846 21.5672 2.0532C21.4822 2.01795 21.3911 1.99987 21.2992 2H8.35525ZM7.58133 15.6732V8.95923C7.58126 8.81714 7.55333 8.67644 7.49914 8.5452C7.44494 8.41396 7.36554 8.29474 7.26548 8.19435C7.16542 8.09397 7.04665 8.01439 6.91597 7.96016C6.78529 7.90594 6.64526 7.87813 6.50388 7.87833H2.70183C2.6098 7.87806 2.51862 7.89604 2.43352 7.93124C2.34841 7.96644 2.27105 8.01816 2.20586 8.08345C2.14067 8.14873 2.08893 8.2263 2.05361 8.31171C2.01828 8.39713 2.00007 8.4887 2 8.5812V21.3007C2.00067 21.4872 2.07494 21.6659 2.20651 21.7975C2.33809 21.9291 2.51622 22.0028 2.70183 22.0025H15.6453C15.7372 22.0028 15.8282 21.9849 15.9133 21.9497C15.9983 21.9146 16.0755 21.8629 16.1407 21.7977C16.2058 21.7326 16.2575 21.6551 16.2929 21.5698C16.3282 21.4845 16.3464 21.3931 16.3466 21.3007V17.8325C16.3462 17.6903 16.3181 17.5497 16.2636 17.4185C16.2092 17.2873 16.1296 17.1682 16.0293 17.068C15.9291 16.9678 15.8102 16.8884 15.6794 16.8343C15.5486 16.7803 15.4085 16.7527 15.2671 16.7531H8.6623C8.37676 16.7538 8.10265 16.6404 7.90023 16.438C7.6978 16.2356 7.58364 15.9607 7.58284 15.6737"
        fill="#0090FF"
    />
</svg>
