<svg viewBox="0 0 24 24" fill="none" xmlns="http://www.w3.org/2000/svg">
    <ellipse
        cx="8.52349"
        cy="8.97314"
        rx="0.973139"
        ry="0.97314"
        fill="black"
    />
    <ellipse
        cx="15.4744"
        cy="8.97314"
        rx="0.973139"
        ry="0.97314"
        fill="black"
    />
    <ellipse
        cx="6.79888"
        cy="10.7281"
        rx="0.973139"
        ry="0.97314"
        fill="black"
    />
    <circle cx="8.52349" cy="12.4494" r="0.973139" fill="black" />
    <ellipse
        cx="15.4744"
        cy="12.4494"
        rx="0.973139"
        ry="0.973139"
        fill="black"
    />
    <ellipse
        cx="5.03418"
        cy="12.4495"
        rx="0.711548"
        ry="0.711548"
        fill="black"
    />
    <ellipse
        cx="6.75671"
        cy="14.2164"
        rx="0.711547"
        ry="0.711549"
        fill="black"
    />
    <ellipse
        cx="10.2503"
        cy="14.2164"
        rx="0.71155"
        ry="0.711549"
        fill="black"
    />
    <ellipse
        cx="13.7475"
        cy="14.2164"
        rx="0.711546"
        ry="0.711549"
        fill="black"
    />
    <ellipse
        cx="17.2011"
        cy="14.2164"
        rx="0.711546"
        ry="0.711549"
        fill="black"
    />
    <ellipse
        cx="3.29278"
        cy="14.2165"
        rx="0.473204"
        ry="0.473202"
        fill="black"
    />
    <ellipse
        cx="5.03418"
        cy="15.9476"
        rx="0.473204"
        ry="0.473201"
        fill="black"
    />
    <ellipse
        cx="11.9706"
        cy="15.9476"
        rx="0.473204"
        ry="0.473201"
        fill="black"
    />
    <ellipse cx="18.9492" cy="15.9476" rx="0.4732" ry="0.473201" fill="black" />
    <ellipse
        cx="20.7072"
        cy="14.2165"
        rx="0.473206"
        ry="0.473202"
        fill="black"
    />
    <ellipse
        cx="11.9706"
        cy="12.4495"
        rx="0.711548"
        ry="0.711548"
        fill="black"
    />
    <ellipse
        cx="18.9636"
        cy="12.4495"
        rx="0.711546"
        ry="0.711548"
        fill="black"
    />
    <circle cx="10.2481" cy="10.7281" r="0.97314" fill="black" />
    <ellipse
        cx="13.7395"
        cy="10.7281"
        rx="0.973139"
        ry="0.97314"
        fill="black"
    />
    <ellipse cx="17.2309" cy="10.7281" rx="0.97314" ry="0.97314" fill="black" />
</svg>
