<svg viewBox="0 0 24 24" fill="none" xmlns="http://www.w3.org/2000/svg">
    <path
        d="M12 22C17.5228 22 22 17.5228 22 12C22 6.47715 17.5228 2 12 2C6.47715 2 2 6.47715 2 12C2 17.5228 6.47715 22 12 22Z"
        fill="#00B0FF"
    />
    <path
        d="M17 9.53813V15.11L15.415 16.035V12.3163L12 14.36L8.585 12.3144V16.035L7 15.11V9.5375L12 12.5406L17 9.5375V9.53813ZM12.0188 16.4862L13.4813 15.6119L14.925 16.4862L12.0188 18.25L9.11375 16.4862L10.5575 15.6119L12.0194 16.4862H12.0188ZM14.9062 7.51375L13.4619 8.38812L12 7.51375L10.5381 8.38812L9.09437 7.51375L12 5.75L14.9062 7.51375Z"
        fill="white"
    />
</svg>
