<svg viewBox="0 0 24 24" fill="none" xmlns="http://www.w3.org/2000/svg">
    <path
        d="M12 22C17.5228 22 22 17.5228 22 12C22 6.47715 17.5228 2 12 2C6.47715 2 2 6.47715 2 12C2 17.5228 6.47715 22 12 22Z"
        fill="black"
    />
    <path
        d="M7.42062 15.7544L11.7681 18.4894H12.2944L16.5719 15.7544L15.9056 15.2288L12.0137 17.7182L7.98187 15.2288L7.42062 15.7544ZM9.52437 9.40881L11.9787 5.69193L14.5031 9.44381L15.0994 8.91756L12.2944 4.71068C12.2944 4.71068 12.0487 4.39506 11.6631 4.71068L8.78812 9.02318L9.52437 9.40881V9.40881Z"
        fill="white"
        fill-opacity="0.703"
    />
    <path
        d="M12.0488 16.912C12.1888 16.4207 12.3644 15.9651 12.505 15.4745C13.1363 13.5107 13.7669 11.512 14.3981 9.54886C14.4331 9.44386 14.4681 9.30323 14.5031 9.19886C14.5731 8.98761 14.6781 8.88261 14.8888 8.88261C14.9802 8.8802 15.0695 8.91075 15.1403 8.9687C15.2111 9.02664 15.2587 9.10811 15.2744 9.19823C15.4494 9.89948 15.59 10.6357 15.765 11.337C16.0806 12.6695 16.3613 14.037 16.6769 15.3689C16.7469 15.6845 16.6419 15.8951 16.3963 15.9651C16.1506 16.0351 15.9756 15.8601 15.9056 15.5445C15.555 14.037 15.2044 12.5289 14.8888 10.9864C14.8888 10.9164 14.8538 10.8814 14.8188 10.7757C14.7897 10.8717 14.7544 10.9656 14.7131 11.057C14.0475 13.0901 13.4163 15.1239 12.75 17.157C12.645 17.5426 12.5044 17.8932 12.3994 18.2789C12.3294 18.5245 12.1888 18.6295 11.9788 18.6295C11.7681 18.6295 11.6281 18.5245 11.5581 18.2795C10.7869 15.8601 10.015 13.4407 9.27876 11.0214C9.24376 10.9514 9.24376 10.9164 9.20876 10.7757C9.14622 11.093 9.0762 11.4087 8.99876 11.7226C8.71751 12.9851 8.43751 14.282 8.15689 15.5445C8.08689 15.8945 7.80689 16.0701 7.52564 15.8945C7.35064 15.7895 7.31564 15.6145 7.35064 15.4039C7.73626 13.6507 8.15689 11.8976 8.54251 10.1451C8.61251 9.86386 8.68314 9.58386 8.71751 9.30323C8.78814 9.02323 8.92814 8.88261 9.13876 8.88261C9.34939 8.88261 9.48876 9.02323 9.55939 9.30323C10.3656 11.8282 11.1719 14.3876 11.9438 16.912H12.0488V16.912Z"
        fill="white"
    />
</svg>
