<svg viewBox="0 0 24 24" fill="none" xmlns="http://www.w3.org/2000/svg">
    <path
        fill-rule="evenodd"
        clip-rule="evenodd"
        d="M12 2C17.5217 2 22 6.4633 22 11.975H12V2Z"
        fill="#FF00FF"
    />
    <path
        fill-rule="evenodd"
        clip-rule="evenodd"
        d="M12 21.9501C17.5217 21.9501 22 17.4868 22 11.975H12V21.9501Z"
        fill="#FFFF66"
    />
    <path
        fill-rule="evenodd"
        clip-rule="evenodd"
        d="M12 17.4818C15.0404 17.4818 17.5217 15.0055 17.5217 11.9751C17.5217 8.93962 15.0404 6.46832 12 6.46832C8.95955 6.46832 6.47827 8.93962 6.47827 11.9751C6.48326 15.0055 8.95955 17.4818 12 17.4818Z"
        fill="#AD8A60"
    />
    <path
        fill-rule="evenodd"
        clip-rule="evenodd"
        d="M16.4334 15.2551C16.3185 15.4049 16.1987 15.5447 16.0789 15.6845C15.2252 16.6181 14.1568 17.1822 12.9136 17.4019V18.6201C13.3779 18.66 13.8323 18.7349 14.2766 18.8398C15.4698 19.1143 16.5781 19.6036 17.5667 20.2626L17.6016 20.2377H17.6066C17.8512 20.0679 18.0909 19.8632 18.3405 19.6885L18.3704 19.6685C18.6151 19.4588 18.8447 19.2392 19.0844 19.0245C19.4788 18.6301 19.8382 18.2007 20.1628 17.7464C19.4888 17.5467 18.665 17.1822 18.9995 16.3435C19.344 15.4798 19.993 14.8358 19.1693 14.012C19.1043 13.9571 19.0444 13.9072 18.9795 13.8572C18.3105 13.358 18.1857 13.2881 18.4503 12.4344C18.4703 12.3794 18.4853 12.3295 18.5052 12.2746C18.5502 12.1448 18.5951 12.03 18.6151 11.98H17.4768C17.4818 13.0834 17.1822 14.2167 16.5382 15.1153L16.4334 15.2551Z"
        fill="#660066"
    />
    <path
        fill-rule="evenodd"
        clip-rule="evenodd"
        d="M12 21.9501C6.47828 21.9501 2 17.4818 2 11.975H12V21.9501Z"
        fill="#99FFFF"
    />
    <path
        fill-rule="evenodd"
        clip-rule="evenodd"
        d="M12 17.4818C8.94956 17.4818 6.47827 15.0155 6.47827 11.975H12V17.4818Z"
        fill="#CF934F"
    />
    <path
        fill-rule="evenodd"
        clip-rule="evenodd"
        d="M12 21.9501C9.9431 21.9501 8.03097 21.331 6.43835 20.2676C7.42188 19.6086 8.53521 19.1193 9.72842 18.8448C10.1728 18.7399 10.6271 18.67 11.0914 18.6251V16.5432C11.3859 16.5931 11.6905 16.6181 12 16.6181V21.9501Z"
        fill="#CF934F"
    />
    <path
        fill-rule="evenodd"
        clip-rule="evenodd"
        d="M12 17.4818C15.0504 17.4818 17.5217 15.0155 17.5217 11.975H12V17.4818Z"
        fill="#FFEEDB"
    />
    <path
        fill-rule="evenodd"
        clip-rule="evenodd"
        d="M12 14.5462C12.1398 14.4513 12.2346 14.3964 12.3944 14.3165C12.4793 14.2766 12.5741 14.2566 12.674 14.2566C12.7838 14.2566 12.8887 14.2816 12.9785 14.3315C13.353 14.5162 13.6925 14.6959 14.0519 14.8956C13.5477 15.4897 12.8837 15.7843 12.005 15.7843L12 14.5462Z"
        fill="#FF1414"
    />
    <path
        d="M12 8.38043C12.4743 8.4054 12.9036 8.11084 12.9985 7.57664C13.0434 8.46031 14.1268 8.84474 14.5012 7.68647C14.4214 8.39042 15.1802 8.67499 15.8692 8.21069C17.0125 9.09436 17.4169 10.4473 17.5217 11.98H18.6101C18.9396 11.0864 19.7134 10.672 18.3555 10.0479C18.1807 9.96805 18.3055 10.013 18.5602 9.69346C19.344 8.66501 18.8947 8.21069 17.7064 8.27559C17.5866 8.28058 17.7614 8.14579 17.8462 8.01598C18.7549 6.668 18.5552 5.76935 16.7579 6.21868C16.9725 5.49975 17.357 4.28657 16.1288 4.37145C15.7244 4.39641 15.4099 4.6011 15.0854 4.82077C15.1103 4.01698 15.0654 2.99851 13.9521 3.34299C13.5826 3.4678 13.313 3.73241 13.0534 4.01698C12.9436 3.38792 12.674 2.9386 12 2.86371V8.38043Z"
        fill="white"
    />
    <path
        d="M11.7804 14.2366C11.9102 14.2866 12.005 14.4114 12.005 14.5811C12.01 14.7009 11.9601 14.8857 11.6855 15.0804C11.2412 15.355 10.6021 15.4099 10.2077 15.1653C9.84326 14.9955 9.6186 14.666 9.75839 14.2017C9.85325 14.002 10.1178 13.9071 10.2976 13.972C10.4973 14.0469 10.5871 14.2566 10.3425 14.3814C10.4623 14.1418 10.008 13.992 9.96807 14.4064C9.95809 14.5512 10.1728 14.7559 10.4374 14.7958C10.672 14.8308 10.9067 14.7459 11.1313 14.5162C11.2362 14.4164 11.336 14.3115 11.4708 14.2466C11.5607 14.2117 11.6605 14.2017 11.7804 14.2366Z"
        fill="black"
    />
    <path
        fill-rule="evenodd"
        clip-rule="evenodd"
        d="M2 11.975C2 6.4683 6.48327 2 12.005 2V11.975H2Z"
        fill="#FFFF00"
    />
    <path
        fill-rule="evenodd"
        clip-rule="evenodd"
        d="M6.48328 11.9751C6.48328 8.93462 8.95457 6.46832 12.005 6.46832V11.9751H6.48328Z"
        fill="#EDD491"
    />
    <path
        fill-rule="evenodd"
        clip-rule="evenodd"
        d="M12 21.9501C14.0569 21.9501 15.969 21.331 17.5617 20.2676C16.5731 19.6086 15.4648 19.1193 14.2716 18.8448C13.8273 18.7399 13.3729 18.67 12.9086 18.6251V16.5432C12.6141 16.5931 12.3095 16.6181 12 16.6181V21.9501Z"
        fill="#FFEEDB"
    />
    <path
        fill-rule="evenodd"
        clip-rule="evenodd"
        d="M14.2067 11.0214C14.4513 11.0214 14.646 10.8217 14.646 10.5821C14.646 10.3375 14.4463 10.1428 14.2067 10.1428C13.9621 10.1428 13.7674 10.3425 13.7674 10.5821C13.7624 10.8267 13.9621 11.0214 14.2067 11.0214Z"
        fill="black"
    />
    <path
        fill-rule="evenodd"
        clip-rule="evenodd"
        d="M14.5562 18.9047C15.6246 19.1842 16.648 19.6485 17.5667 20.2626C15.9241 21.356 13.987 21.9451 12.005 21.9451V20.7918C12.694 20.7918 13.318 20.5821 13.7773 20.2476C14.2367 19.9082 14.5312 19.4339 14.5562 18.9047Z"
        fill="#4B9100"
    />
    <path
        fill-rule="evenodd"
        clip-rule="evenodd"
        d="M9.73337 11.4458C9.52369 11.4458 9.35394 11.2761 9.35394 11.0664V10.1028C9.35394 9.89313 9.52369 9.72339 9.73337 9.72339C9.94306 9.72339 10.1178 9.89313 10.1178 10.1028V11.0664C10.1178 11.2761 9.94306 11.4458 9.73337 11.4458Z"
        fill="#1A1A1A"
    />
    <path
        fill-rule="evenodd"
        clip-rule="evenodd"
        d="M7.91112 8.2706C7.26209 8.95458 6.83773 9.83825 6.5931 10.8717C6.19869 10.1977 6.34846 8.36546 6.84771 7.47679C6.47827 7.25213 5.63453 7.14229 4.18671 7.79132C5.43983 6.05892 7.1922 5.96406 8.27058 6.1388C7.89115 5.48977 7.38691 5.17525 6.01397 4.73091C8.23064 3.98703 9.05441 4.48129 10.2177 5.36995C10.1677 4.48129 10.0529 4.10186 9.37892 3.03346C10.4673 2.95358 11.3609 3.66751 12 4.52622V7.84125C11.4059 7.87619 10.9466 7.46681 10.7419 7.0075C10.5921 7.4069 10.6171 8.12083 10.8068 8.54519C9.89315 8.43036 9.62355 7.75637 9.43384 7.19222C9.00448 7.37694 8.22066 7.94609 7.91112 8.2706Z"
        fill="#FF0000"
    />
    <path
        fill-rule="evenodd"
        clip-rule="evenodd"
        d="M9.44884 18.9047C8.37545 19.1842 7.35698 19.6485 6.43835 20.2626C8.08089 21.356 10.018 21.9451 12 21.9451H12.005V20.7918H12C11.311 20.7918 10.687 20.5821 10.2277 20.2476C9.76337 19.9082 9.4738 19.4339 9.44884 18.9047Z"
        fill="#FFFFCC"
    />
</svg>
