<svg viewBox="0 0 24 24" fill="none" xmlns="http://www.w3.org/2000/svg">
    <path
        d="M12.36 22.18C17.8828 22.18 22.36 17.7028 22.36 12.18C22.36 6.65715 17.8828 2.17999 12.36 2.17999C6.83714 2.17999 2.35999 6.65715 2.35999 12.18C2.35999 17.7028 6.83714 22.18 12.36 22.18Z"
        fill="#007896"
    />
    <path
        d="M13.4018 14.6979C13.1322 14.972 12.7639 15.1263 12.3795 15.1263C11.9951 15.1263 11.6268 14.972 11.3573 14.6979L10.0543 13.3807C9.88658 13.2101 9.65738 13.114 9.41815 13.114C9.17892 13.114 8.94972 13.2101 8.78202 13.3807C8.21756 13.955 8.21756 14.8758 8.78202 15.4501L11.3615 18.0537C11.631 18.3278 11.9993 18.4821 12.3837 18.4821C12.7681 18.4821 13.1364 18.3278 13.4059 18.0537L15.9787 15.4468C16.5432 14.8724 16.5432 13.9517 15.9787 13.3774C15.811 13.2068 15.5818 13.1107 15.3426 13.1107C15.1034 13.1107 14.8742 13.2068 14.7065 13.3774L13.4018 14.6979Z"
        fill="white"
    />
    <path
        d="M8.51242 10.1131C8.76946 9.846 9.12301 9.69337 9.49366 9.68946C9.86432 9.68555 10.221 9.83069 10.4836 10.0923L11.7268 11.3479C11.89 11.5106 12.1118 11.6009 12.3422 11.5985C12.5727 11.5962 12.7925 11.5014 12.9524 11.3354C13.5031 10.7866 13.5113 9.89728 12.9707 9.33841L10.5144 6.85464C10.2518 6.59304 9.8951 6.4479 9.52445 6.45181C9.15379 6.45573 8.80024 6.60836 8.5432 6.87544L6.03946 9.41247C5.48876 9.96133 5.48061 10.8506 6.02115 11.4095C6.18441 11.5721 6.40615 11.6624 6.6366 11.6601C6.86705 11.6577 7.08691 11.563 7.24681 11.397L8.51242 10.1131Z"
        fill="white"
    />
    <path
        d="M14.2422 10.0565C14.4992 9.78943 14.8528 9.63679 15.2234 9.63288C15.5941 9.62897 15.9508 9.77411 16.2134 10.0357L17.4565 11.293C17.6198 11.4557 17.8415 11.5459 18.072 11.5436C18.3024 11.5413 18.5223 11.4465 18.6822 11.2805C19.2329 10.7316 19.241 9.84236 18.7005 9.2835L16.2425 6.79806C15.9799 6.53646 15.6232 6.39132 15.2525 6.39523C14.8819 6.39915 14.5283 6.55178 14.2713 6.81886L11.7675 9.35589C11.2169 9.90475 11.2087 10.794 11.7492 11.3529C11.9125 11.5156 12.1342 11.6059 12.3647 11.6035C12.5951 11.6012 12.815 11.5064 12.9749 11.3404L14.2422 10.0565Z"
        fill="white"
    />
</svg>
