<svg viewBox="0 0 24 24" fill="none" xmlns="http://www.w3.org/2000/svg">
    <path
        d="M12.0047 21.9176L11.8901 21.8603C7.42226 19.2445 4.04275 14.9294 2.66803 9.77422C2.44846 8.96275 2.28617 8.13219 2.17161 7.29209C2.06659 6.45199 2.00932 5.60233 1.99977 4.75268C1.99977 4.60947 1.98067 4.62857 2.11433 4.56175C3.79454 3.60708 5.57022 2.91017 7.4509 2.47103C8.14781 2.30874 8.84471 2.18463 9.55116 2.09871C10.5249 1.98415 11.4987 1.93642 12.482 1.95551C13.0357 1.96505 13.5799 2.00324 14.124 2.06052C16.8639 2.35647 19.4319 3.17748 21.8377 4.52355C21.8759 4.54265 21.9045 4.56174 21.9427 4.58083C21.9809 4.59993 22 4.62857 22 4.6763V4.8195C21.9905 5.31593 21.9714 5.80281 21.9332 6.29923C21.8759 7.00568 21.7804 7.70259 21.6468 8.3995C21.3604 9.89833 20.9117 11.3399 20.2912 12.7241C19.3079 14.9294 17.9618 16.896 16.2625 18.6144C15.0405 19.8555 13.6753 20.9247 12.167 21.8126C12.1097 21.8508 12.0619 21.8794 12.0047 21.9176ZM2.91625 5.23956V5.35412C2.91625 6.05103 2.96398 6.75748 3.0499 7.44484C3.12627 8.07492 3.23128 8.69545 3.37448 9.31598C3.40313 9.42099 3.43177 9.52601 3.47949 9.63102C4.33869 11.4544 6.3244 12.4282 8.291 11.9795C9.78982 11.6358 11.0118 10.4807 11.4223 9.00094C11.5369 8.59044 11.575 8.17039 11.5941 7.75033C11.6037 7.47348 11.6323 7.19662 11.6801 6.91977C12.0047 5.23956 13.1216 3.85529 14.6968 3.19657C14.7827 3.15838 14.8782 3.12974 14.9641 3.09156C14.9736 3.08201 14.9927 3.08201 14.9927 3.06292C14.7445 2.977 13.2648 2.82425 12.377 2.80516C10.4676 2.76698 8.59649 3.01519 6.77309 3.56889C5.41747 3.9794 4.13822 4.5331 2.91625 5.23956ZM16.9975 16.6765C17.0453 16.6478 17.0739 16.6096 17.093 16.581C17.4749 16.1037 17.8376 15.6072 18.1718 15.0917C19.3651 13.2397 20.2052 11.2444 20.673 9.08687C20.8353 8.35177 20.9403 7.61668 21.0071 6.87204C21.0549 6.36607 21.074 5.8601 21.074 5.34457C21.074 5.30639 21.074 5.27775 21.0644 5.23957L20.9212 5.15364C20.5298 4.93407 20.1288 4.72404 19.7279 4.53311C19.136 4.25626 18.5441 4.00805 17.9236 3.80756C17.1694 3.56889 16.4057 3.54025 15.6419 3.73119C13.4557 4.25626 12.0524 6.40426 12.4724 8.60954C12.7016 9.83151 13.3603 10.7862 14.4104 11.4544C14.4772 11.5022 14.5536 11.5404 14.6204 11.5881C15.3937 12.0559 15.9952 12.6955 16.4248 13.4879C16.883 14.3184 17.0835 15.2158 17.0262 16.1609C17.0357 16.3232 17.0166 16.4951 16.9975 16.6765ZM12.0047 20.9438C12.0428 20.9247 12.0906 20.8961 12.1288 20.8674C13.3316 20.161 14.439 19.3209 15.451 18.3662C15.5178 18.3089 15.5656 18.2326 15.6037 18.1562C15.6706 18.0321 15.7374 17.8984 15.7947 17.7743C16.272 16.7815 16.377 15.7504 16.062 14.6812C15.4414 12.6191 13.4557 11.4353 11.4605 11.6836C10.8877 11.7504 10.3626 11.9318 9.86621 12.2182C8.92109 12.7528 7.90915 12.9724 6.82083 12.8673C6.28623 12.8196 5.78025 12.6764 5.29337 12.4664C4.91151 12.2945 4.54874 12.0845 4.22415 11.8267C4.20505 11.8077 4.17641 11.7981 4.12868 11.7695C4.13823 11.8172 4.14778 11.8458 4.15732 11.8649C4.58692 12.9533 5.11198 13.9843 5.73251 14.9676C6.41032 16.0273 7.1836 17.0106 8.06189 17.908C8.94019 18.8054 9.90439 19.6073 10.945 20.3042C11.4223 20.6097 11.871 20.8866 12.0047 20.9438Z"
        fill="black"
    />
    <path
        d="M2.91633 5.23965C4.1383 4.5332 5.41756 3.9795 6.76364 3.57854C8.5966 3.03438 10.4582 2.77662 12.3675 2.81481C13.2554 2.83391 14.7351 2.9771 14.9833 3.07256C14.9929 3.09166 14.9738 3.1012 14.9547 3.1012C14.8688 3.13939 14.7733 3.16803 14.6874 3.20621C13.1122 3.86493 11.9952 5.24919 11.6706 6.9294C11.6229 7.20625 11.5942 7.4831 11.5847 7.75995C11.5751 8.18 11.537 8.60005 11.4129 9.01056C10.9928 10.4903 9.78038 11.6454 8.28155 11.9891C6.31494 12.4378 4.32923 11.464 3.47003 9.64063C3.4223 9.53562 3.38411 9.4306 3.36502 9.32559C3.22182 8.70507 3.11681 8.08453 3.04043 7.45446C2.95451 6.75755 2.90678 6.06065 2.90678 5.36375C2.91633 5.31602 2.91633 5.28738 2.91633 5.23965Z"
        fill="#F7A800"
    />
    <path
        d="M16.9976 16.6764C17.0167 16.495 17.0358 16.3327 17.0453 16.1609C17.0931 15.2158 16.8926 14.3184 16.4439 13.4878C16.0143 12.6954 15.4128 12.0654 14.6396 11.588C14.5727 11.5403 14.4964 11.5021 14.4295 11.4544C13.3699 10.7861 12.7207 9.84101 12.4916 8.6095C12.0811 6.39468 13.4749 4.25624 15.6611 3.73117C16.4343 3.54979 17.1885 3.56888 17.9427 3.80754C18.5632 3.99847 19.1551 4.25624 19.747 4.53309C20.1575 4.72402 20.549 4.93405 20.9404 5.15362C20.9881 5.18226 21.0263 5.20135 21.0836 5.23954C21.0836 5.27772 21.0931 5.30636 21.0931 5.34455C21.0931 5.85052 21.0645 6.36603 21.0263 6.87201C20.9595 7.61664 20.8449 8.36129 20.6922 9.08682C20.2244 11.2444 19.3938 13.2396 18.1909 15.0917C17.8568 15.6072 17.494 16.1036 17.1122 16.5809C17.074 16.6096 17.0549 16.6478 16.9976 16.6764Z"
        fill="#67B2E8"
    />
    <path
        d="M12.0047 20.9438C11.8615 20.8865 11.4224 20.6192 10.9546 20.3041C9.91401 19.6072 8.94979 18.8053 8.07149 17.908C7.19318 17.0106 6.41035 16.0273 5.74208 14.9676C5.11199 13.9843 4.58692 12.9533 4.16687 11.865C4.15733 11.8363 4.14777 11.8172 4.13823 11.7695C4.18597 11.7982 4.20506 11.8077 4.2337 11.8268C4.56783 12.0846 4.92106 12.3041 5.30293 12.4664C5.78982 12.6764 6.29579 12.8196 6.83041 12.8674C7.90919 12.9724 8.92115 12.7528 9.87582 12.2182C10.3723 11.9414 10.9069 11.76 11.4701 11.6836C13.4654 11.4354 15.4511 12.6192 16.0717 14.6812C16.3867 15.7409 16.2912 16.7719 15.8043 17.7743C15.7375 17.908 15.6802 18.0321 15.6134 18.1562C15.5752 18.2325 15.5275 18.3089 15.4607 18.3662C14.4487 19.3209 13.3413 20.161 12.1384 20.8674C12.0907 20.896 12.0429 20.9247 12.0047 20.9438Z"
        fill="#00C4B3"
    />
</svg>
