<svg viewBox="0 0 25 24" fill="none" xmlns="http://www.w3.org/2000/svg">
    <path
        d="M3.3692 4V7.01991V10.0398V13.0664H6.38912V10.0398V7.01991V4H3.3692Z"
        fill="#424242"
    />
    <path
        d="M18.3493 10.0399V13.0664V16.0863V19.1062H21.3692V16.0863V13.0664V10.0399H18.3493Z"
        fill="#424242"
    />
    <path
        d="M12.3029 4V7.01991V9.91372L15.3228 12.9336V10.0398V7.01991L12.3029 4Z"
        fill="#424242"
    />
    <path
        d="M9.41565 10.1726V13.0664V16.0863L12.4356 19.1062V16.0863V13.1925L9.41565 10.1726Z"
        fill="#424242"
    />
    <path
        d="M12.3029 4H15.3228L21.3692 10.0398H18.3493L12.3029 4Z"
        fill="black"
    />
    <path
        d="M3.3692 13.0664H6.38912L12.4356 19.1062H9.41567L3.3692 13.0664Z"
        fill="black"
    />
    <path
        d="M15.3227 7.01991V10.0398V12.8938L6.3891 4V7.01991V7.20575V10.0398V13.0664L9.41565 16.0863V13.0664V10.2124L18.3493 19.1062V16.0863V15.9005V13.0664V10.0398L15.3227 7.01991Z"
        fill="#3CC68A"
    />
</svg>
