<svg viewBox="0 0 24 24" fill="none" xmlns="http://www.w3.org/2000/svg">
    <path
        d="M7.67297 4.30645L16.4973 9.40522V14.5997L3 6.80792L7.33234 4.30645C7.43879 4.24258 7.56652 4.24258 7.67297 4.30645Z"
        fill="#3CA9E5"
    />
    <path
        d="M16.4974 4.19998L12.0053 6.79726L16.4974 9.39451V4.19998Z"
        fill="#2853C3"
    />
    <path
        d="M16.4973 4.19998L20.8296 6.70145C20.9361 6.76532 21 6.88241 21 6.99951V17.1863L16.4973 14.5891V4.19998Z"
        fill="#1A4199"
    />
    <path
        d="M21 17.197L16.6677 19.6984C16.5612 19.7623 16.4335 19.7623 16.3164 19.6984L7.49203 14.5997V9.39453L21 17.197Z"
        fill="#2853C3"
    />
    <path
        d="M3 6.80792V16.9948C3 17.1225 3.06387 17.2396 3.17031 17.2928L7.50265 19.7943V9.39457L3 6.80792Z"
        fill="#60BEFF"
    />
    <path
        d="M7.50264 19.7943L11.9946 17.1971L7.50264 14.5998V19.7943Z"
        fill="#3CA9E5"
    />
</svg>
