<svg viewBox="0 0 24 24" fill="none" xmlns="http://www.w3.org/2000/svg">
    <circle cx="12" cy="12" r="10" fill="#EDF0F4" />
    <path d="M12 5.5L7 10.5L12 15.2906L17 10.5L12 5.5Z" fill="url(#Nftx_a)" />
    <path
        d="M9.48375 14.7548C9.59387 14.6074 9.6982 14.4674 9.82314 14.3314C8.32039 14.6935 7.28552 15.4519 7.28552 16.3297C7.28552 16.3624 7.28729 16.3949 7.29009 16.4272C7.4375 16.3713 7.59303 16.3043 7.75825 16.2231C8.75088 15.7355 9.14025 15.2144 9.48375 14.7548Z"
        fill="black"
    />
    <path
        d="M11.0489 16.368C11.3494 15.9659 11.6089 15.6187 12.3425 15.2585C13.076 14.8983 13.5095 14.905 14.0115 14.9128C14.3477 14.9181 14.7103 14.9236 15.1526 14.8288C14.6132 14.5391 13.9197 14.3198 13.1358 14.2023L12 15.2902L11.206 14.5295C10.6403 14.9105 10.3504 15.2979 10.0872 15.6495C9.78665 16.0517 9.52716 16.399 8.79364 16.7591C8.27914 17.0118 7.91234 17.0839 7.56586 17.1017C7.83914 17.4641 8.29928 17.7823 8.88856 18.027C9.02581 17.9737 9.17015 17.9107 9.32259 17.8358C10.3158 17.3487 10.7052 16.8277 11.0489 16.368Z"
        fill="black"
    />
    <path
        d="M13.6263 18.3671C14.8121 18.1118 15.7323 17.614 16.1272 17.0014C15.7881 17.0633 15.4023 17.1822 14.9431 17.4079C14.303 17.7226 13.9142 18.0507 13.6263 18.3671Z"
        fill="black"
    />
    <path opacity="0.5" d="M12 10.5H7L12 5.5V10.5Z" fill="url(#Nftx_b)" />
    <path
        fill-rule="evenodd"
        clip-rule="evenodd"
        d="M10.1331 18.2703C10.1331 18.2703 10.6193 18.3727 11.1675 18.4348C11.7158 18.4969 12.0411 18.4165 12.0411 18.4165C12.0411 18.4165 12.8562 17.1262 13.6787 16.7826C13.6787 16.7826 14.4792 16.3623 15.2065 16.4171L16.0692 16.4537C16.0692 16.4537 16.1006 16.1357 15.9561 15.7348C15.8116 15.3339 15.583 15.2621 15.583 15.2621C15.583 15.2621 13.9711 15.1963 13.0098 15.7702C13.0098 15.7702 11.862 16.5377 11.3686 17.3455C11.3686 17.3455 11.0323 17.7659 10.7764 17.9158"
        fill="black"
    />
    <defs>
        <linearGradient
            id="Nftx_a"
            x1="12.0398"
            y1="5.81829"
            x2="7.49923"
            y2="10.5552"
            gradientUnits="userSpaceOnUse"
        >
            <stop offset="0.09" stop-color="#FF6D41" />
            <stop offset="0.5" stop-color="#FA297F" />
            <stop offset="1" stop-color="#FA297F" />
        </linearGradient>
        <linearGradient
            id="Nftx_b"
            x1="10.7945"
            y1="4.54569"
            x2="6.1345"
            y2="9.20555"
            gradientUnits="userSpaceOnUse"
        >
            <stop stop-color="#652CB4" />
            <stop offset="0.07" stop-color="#652CB4" stop-opacity="0.82" />
            <stop offset="0.19" stop-color="#652CB4" stop-opacity="0.53" />
            <stop offset="0.3" stop-color="#652CB4" stop-opacity="0.3" />
            <stop offset="0.4" stop-color="#652CB4" stop-opacity="0.14" />
            <stop offset="0.49" stop-color="#652CB4" stop-opacity="0.04" />
            <stop offset="0.55" stop-color="#652CB4" stop-opacity="0.01" />
        </linearGradient>
    </defs>
</svg>
