<svg viewBox="0 0 24 24" fill="none" xmlns="http://www.w3.org/2000/svg">
    <circle cx="12" cy="12" r="10" fill="black" />
    <path
        fill-rule="evenodd"
        clip-rule="evenodd"
        d="M12.5479 10.1871C12.5636 10.5018 12.4433 10.8008 12.32 11.0823C12.182 11.4127 12.0434 11.7429 11.9048 12.073L11.9047 12.0733C11.7088 12.5399 11.5129 13.0065 11.3189 13.4737C11.298 13.5226 11.2776 13.5719 11.2571 13.6213L11.2571 13.6213C11.1599 13.856 11.062 14.0924 10.9094 14.2977C10.7779 14.4825 10.5951 14.6248 10.3835 14.7059C10.1168 14.7891 9.83428 14.8094 9.55832 14.7652C9.17298 14.7172 8.79584 14.6242 8.41894 14.5312L8.41893 14.5312C8.33044 14.5093 8.24195 14.4875 8.15338 14.4662C7.85268 14.3911 7.55099 14.3172 7.24925 14.2432L7.24922 14.2432L7.24911 14.2431C6.91636 14.1616 6.58355 14.08 6.25194 13.9968C5.83184 13.8963 5.40797 13.7883 5.01729 13.5973C4.84872 13.5158 4.70548 13.3903 4.60282 13.234C4.52354 13.105 4.48859 12.9538 4.50328 12.8033C4.53646 12.5268 4.63914 12.264 4.75058 12.0105L5.77111 9.56666C5.79055 9.52192 5.80942 9.47682 5.82831 9.43169L5.82832 9.43168C5.8885 9.28789 5.94885 9.14367 6.02843 9.00922C6.11788 8.84583 6.23673 8.70024 6.37904 8.57975C6.54683 8.45241 6.74405 8.37063 6.95254 8.34129C7.07974 8.32991 7.20694 8.33311 7.33415 8.33632L7.41271 8.33817C7.88707 8.40808 8.35684 8.50605 8.81954 8.63156C9.14679 8.7103 9.47356 8.7911 9.80026 8.87188L9.8003 8.87189C10.1211 8.95122 10.4419 9.03053 10.7629 9.10785C11.0609 9.18088 11.3577 9.25579 11.6488 9.35504L11.6522 9.35626C11.8458 9.42703 12.0436 9.49932 12.2136 9.62221C12.4077 9.74768 12.5316 9.9568 12.5479 10.1871ZM19.4999 11.2477V11.2877C18.9728 11.6166 18.4434 11.9432 17.9136 12.27L17.9133 12.2701C17.5704 12.4817 17.2274 12.6933 16.8847 12.9057C16.8682 12.9176 16.8552 12.9338 16.8472 12.9525C16.9006 12.9668 16.9544 12.9803 17.0083 12.9938C17.1895 13.0392 17.3718 13.0849 17.5421 13.1628C17.7462 13.2534 17.9554 13.3713 18.0706 13.5692C18.1808 13.7702 18.2083 14.0062 18.1469 14.2265C18.119 14.3651 18.0655 14.4966 18.0119 14.628L18.0119 14.6281C18.0018 14.653 17.9916 14.6779 17.9817 14.7028C17.9055 14.8848 17.8292 15.0667 17.753 15.2486C17.5672 15.6916 17.3814 16.1347 17.1972 16.5799C17.1845 16.611 17.1677 16.6402 17.1471 16.6666C17.0861 16.6653 17.0271 16.6492 16.9679 16.633L16.9679 16.633C16.9438 16.6264 16.9197 16.6198 16.8954 16.6142C16.7265 16.5726 16.5572 16.5313 16.3878 16.49L16.3872 16.4898L16.387 16.4898C16.1322 16.4276 15.8772 16.3654 15.6232 16.3021C15.5656 16.2859 15.5073 16.2726 15.449 16.2592C15.368 16.2407 15.2871 16.2221 15.2081 16.196C15.2107 16.1361 15.2354 16.0823 15.2599 16.0291C15.2704 16.0063 15.2808 15.9837 15.2895 15.9606L15.8705 14.5742C15.9143 14.4781 15.94 14.3582 15.8774 14.2646C15.7991 14.131 15.642 14.0805 15.503 14.0424C15.1778 13.959 14.8512 13.8796 14.5246 13.8002C14.338 13.7549 14.1515 13.7095 13.9653 13.6635C13.9442 13.659 13.9234 13.6531 13.9024 13.6471L13.9024 13.6471C13.8506 13.6324 13.7985 13.6177 13.7437 13.6248C13.7137 13.677 13.6921 13.7336 13.6703 13.7906C13.6593 13.8194 13.6482 13.8484 13.636 13.877C13.5198 14.1485 13.4061 14.421 13.2925 14.6934C13.193 14.9319 13.0935 15.1704 12.9923 15.4082C12.9828 15.4299 12.9744 15.4523 12.966 15.4747L12.966 15.4748C12.9469 15.5259 12.9277 15.5771 12.8947 15.6204C12.8344 15.6204 12.7767 15.6039 12.719 15.5873C12.6952 15.5805 12.6714 15.5737 12.6474 15.568C12.4845 15.528 12.3216 15.4877 12.1586 15.4474L12.1585 15.4474L12.1584 15.4473C11.8836 15.3793 11.6084 15.3113 11.3326 15.2447C11.2861 15.2322 11.2389 15.2215 11.1915 15.2108L11.1915 15.2108C11.1131 15.193 11.0343 15.1752 10.9582 15.1491C10.9597 15.1146 10.9673 15.0806 10.9807 15.0486L13.1927 9.76142C13.2003 9.7437 13.2124 9.72822 13.2278 9.71647C13.2783 9.71975 13.3273 9.73434 13.3762 9.74891C13.4018 9.75653 13.4274 9.76415 13.4531 9.77015C13.6667 9.82098 13.8805 9.87405 14.0944 9.92715L14.0944 9.92716C14.2536 9.96667 14.4128 10.0062 14.572 10.0448C14.6456 10.0638 14.72 10.0812 14.7944 10.0986C14.9156 10.1269 15.0371 10.1553 15.1561 10.1909C15.1652 10.2238 15.1516 10.2572 15.1387 10.2888L15.1348 10.2983C15.0464 10.4988 14.9624 10.701 14.8784 10.9029L14.8784 10.9029C14.8197 11.0443 14.761 11.1854 14.7009 11.3257L14.2495 12.4069C14.2329 12.4485 14.2146 12.4895 14.1962 12.5307C14.1586 12.6148 14.1209 12.6992 14.0974 12.7889C14.1618 12.7667 14.2171 12.7292 14.2735 12.6909L14.2752 12.6897L17.2216 10.8482C17.2366 10.8388 17.2512 10.8285 17.2658 10.8183L17.2659 10.8182C17.3036 10.7917 17.3414 10.7652 17.3856 10.7539C17.4521 10.7489 17.5159 10.7662 17.5792 10.7834C17.6017 10.7896 17.6242 10.7957 17.6467 10.8008C17.8158 10.8369 17.9833 10.8798 18.1505 10.9226L18.1505 10.9227C18.2805 10.956 18.4104 10.9892 18.5408 11.0192C18.6908 11.0526 18.8395 11.0896 18.9878 11.1264L18.9878 11.1264L18.9878 11.1264C19.1587 11.1689 19.3289 11.2113 19.4999 11.2477ZM10.1512 10.533C10.2282 10.5729 10.2939 10.6516 10.2814 10.7433L10.282 10.744C10.2682 10.8535 10.2219 10.9537 10.1761 11.0525C10.164 11.0787 10.152 11.1048 10.1405 11.131L9.44872 12.7858C9.39675 12.9125 9.32475 13.0567 9.18388 13.1023C9.02004 13.1376 8.85201 13.0986 8.69146 13.0613C8.6876 13.0604 8.68374 13.0595 8.67988 13.0586L7.26805 12.7128L7.2635 12.7116C7.14659 12.6807 7.0262 12.649 6.91556 12.5923C6.84105 12.5561 6.78032 12.4799 6.78032 12.3925C6.78659 12.3164 6.81476 12.2452 6.84293 12.1741L6.84293 12.1741C6.98872 11.8311 7.1321 11.4872 7.27557 11.1431C7.38596 10.8784 7.4964 10.6135 7.60801 10.3488C7.65998 10.2134 7.73699 10.0586 7.89038 10.0149C8.02291 9.99366 8.15852 10.0022 8.28732 10.0398C8.74186 10.1497 9.1939 10.2608 9.64594 10.3732C9.67944 10.3818 9.71326 10.3899 9.74717 10.398C9.8856 10.4312 10.0255 10.4648 10.1512 10.533Z"
        fill="white"
    />
</svg>
