<svg viewBox="0 0 24 24" fill="none" xmlns="http://www.w3.org/2000/svg">
    <path
        d="M10.9238 10.9237C11.6311 11.0969 12.3699 11.0969 13.0772 10.9237C13.2749 10.1199 13.6888 9.38549 14.2742 8.80015C14.8595 8.21482 15.5939 7.80087 16.3977 7.6032C16.5607 6.93685 16.57 6.24219 16.4251 5.57168C16.2802 4.90118 15.9848 4.27238 15.5613 3.73278C15.1377 3.19318 14.597 2.7569 13.9801 2.45689C13.3632 2.15687 12.6862 2.00098 12.0003 2.00098C11.3143 2.00098 10.6373 2.15687 10.0204 2.45689C9.40346 2.7569 8.86281 3.19318 8.43925 3.73278C8.01569 4.27238 7.7203 4.90118 7.57539 5.57168C7.43048 6.24219 7.43984 6.93685 7.60276 7.6032C8.40677 7.80064 9.14135 8.2145 9.7268 8.79986C10.3123 9.38523 10.7262 10.1197 10.9238 10.9237V10.9237Z"
        fill="#7ABDF7"
    />
    <path
        d="M13.0772 13.0763C12.3699 12.9031 11.6311 12.9031 10.9238 13.0763C10.7261 13.8802 10.3122 14.6146 9.72683 15.1999C9.1415 15.7852 8.4071 16.1992 7.60326 16.3968C7.44034 17.0632 7.43098 17.7579 7.57589 18.4284C7.7208 19.0989 8.01619 19.7277 8.43975 20.2673C8.86331 20.8069 9.40396 21.2431 10.0209 21.5431C10.6378 21.8432 11.3148 21.9991 12.0008 21.9991C12.6867 21.9991 13.3637 21.8432 13.9806 21.5431C14.5975 21.2431 15.1382 20.8069 15.5618 20.2673C15.9853 19.7277 16.2807 19.0989 16.4256 18.4284C16.5705 17.7579 16.5612 17.0632 16.3982 16.3968C15.5942 16.1994 14.8597 15.7855 14.2742 15.2002C13.6887 14.6148 13.2748 13.8803 13.0772 13.0763Z"
        fill="#0D74F5"
    />
    <path
        d="M17.4745 7.47292C17.1118 7.47287 16.7505 7.51645 16.3982 7.60271C16.2008 8.40652 15.787 9.1409 15.2017 9.72618C14.6164 10.3115 13.882 10.7253 13.0782 10.9227C12.905 11.6301 12.905 12.3688 13.0782 13.0762C13.882 13.2738 14.6164 13.6877 15.2017 14.2731C15.7869 14.8584 16.2008 15.5928 16.3982 16.3967C17.02 16.5486 17.667 16.5669 18.2963 16.4504C18.9257 16.3339 19.5232 16.0852 20.0495 15.7209C20.5757 15.3565 21.0187 14.8847 21.3492 14.3365C21.6797 13.7884 21.8902 13.1764 21.9669 12.5409C22.0435 11.9055 21.9845 11.261 21.7938 10.65C21.603 10.039 21.2849 9.47537 20.8604 8.99635C20.4358 8.51733 19.9146 8.13378 19.3309 7.871C18.7473 7.60823 18.1145 7.47221 17.4745 7.47192V7.47292Z"
        fill="#4494F7"
    />
    <path
        d="M10.9238 13.0761C11.097 12.3688 11.097 11.6301 10.9238 10.9227C10.1199 10.7252 9.38549 10.3114 8.80013 9.72614C8.21478 9.14087 7.80085 8.4065 7.60325 7.60268C6.9369 7.43976 6.24224 7.4304 5.57173 7.57531C4.90123 7.72022 4.27243 8.01561 3.73283 8.43917C3.19323 8.86273 2.75695 9.40338 2.45694 10.0203C2.15692 10.6372 2.00103 11.3142 2.00103 12.0002C2.00103 12.6862 2.15692 13.3632 2.45694 13.9801C2.75695 14.597 3.19323 15.1376 3.73283 15.5612C4.27243 15.9847 4.90123 16.2801 5.57173 16.425C6.24224 16.5699 6.9369 16.5606 7.60325 16.3977C7.80066 15.5936 8.2145 14.8589 8.79986 14.2734C9.38523 13.6878 10.1198 13.2738 10.9238 13.0761V13.0761Z"
        fill="#005CF4"
    />
    <path
        d="M13.0772 10.9238C13.8811 10.7261 14.6155 10.3122 15.2008 9.72684C15.7861 9.14151 16.2001 8.40711 16.3977 7.60327C15.5939 7.80094 14.8595 8.21488 14.2742 8.80022C13.6888 9.38555 13.2749 10.1199 13.0772 10.9238V10.9238Z"
        fill="#186EF9"
    />
    <path
        d="M13.0772 13.0762C13.2747 13.8801 13.6886 14.6146 14.274 15.1999C14.8594 15.7853 15.5938 16.1992 16.3977 16.3967C16.2001 15.5929 15.7861 14.8585 15.2008 14.2731C14.6155 13.6878 13.8811 13.2738 13.0772 13.0762V13.0762Z"
        fill="#0246F2"
    />
    <path
        d="M10.9238 10.9238C10.7261 10.1199 10.3122 9.38555 9.72683 8.80022C9.14149 8.21488 8.4071 7.80094 7.60325 7.60327C7.80093 8.40711 8.21487 9.14151 8.8002 9.72684C9.38554 10.3122 10.1199 10.7261 10.9238 10.9238V10.9238Z"
        fill="#0046F8"
    />
    <path
        d="M10.9238 13.0762C10.1199 13.2738 9.38554 13.6878 8.8002 14.2731C8.21487 14.8585 7.80093 15.5929 7.60325 16.3967C8.4071 16.199 9.14149 15.7851 9.72683 15.1998C10.3122 14.6144 10.7261 13.88 10.9238 13.0762V13.0762Z"
        fill="#0729F1"
    />
    <path
        d="M10.9238 10.9237C11.6311 11.0969 12.3699 11.0969 13.0772 10.9237C13.2749 10.1199 13.6888 9.38549 14.2742 8.80015C14.8595 8.21482 15.5939 7.80087 16.3977 7.6032C16.5607 6.93685 16.57 6.24219 16.4251 5.57168C16.2802 4.90118 15.9848 4.27238 15.5613 3.73278C15.1377 3.19318 14.597 2.7569 13.9801 2.45689C13.3632 2.15687 12.6862 2.00098 12.0003 2.00098C11.3143 2.00098 10.6373 2.15687 10.0204 2.45689C9.40346 2.7569 8.86281 3.19318 8.43925 3.73278C8.01569 4.27238 7.7203 4.90118 7.57539 5.57168C7.43048 6.24219 7.43984 6.93685 7.60276 7.6032C8.40677 7.80064 9.14135 8.2145 9.7268 8.79986C10.3123 9.38523 10.7262 10.1197 10.9238 10.9237V10.9237Z"
        fill="#7ABDF7"
    />
    <path
        d="M13.0772 13.0763C12.3699 12.9031 11.6311 12.9031 10.9238 13.0763C10.7261 13.8802 10.3122 14.6146 9.72683 15.1999C9.1415 15.7852 8.4071 16.1992 7.60326 16.3968C7.44034 17.0632 7.43098 17.7579 7.57589 18.4284C7.7208 19.0989 8.01619 19.7277 8.43975 20.2673C8.86331 20.8069 9.40396 21.2431 10.0209 21.5431C10.6378 21.8432 11.3148 21.9991 12.0008 21.9991C12.6867 21.9991 13.3637 21.8432 13.9806 21.5431C14.5975 21.2431 15.1382 20.8069 15.5618 20.2673C15.9853 19.7277 16.2807 19.0989 16.4256 18.4284C16.5705 17.7579 16.5612 17.0632 16.3982 16.3968C15.5942 16.1994 14.8597 15.7855 14.2742 15.2002C13.6887 14.6148 13.2748 13.8803 13.0772 13.0763Z"
        fill="#0D74F5"
    />
    <path
        d="M17.4745 7.47292C17.1118 7.47287 16.7505 7.51645 16.3982 7.60271C16.2008 8.40652 15.787 9.1409 15.2017 9.72618C14.6164 10.3115 13.882 10.7253 13.0782 10.9227C12.905 11.6301 12.905 12.3688 13.0782 13.0762C13.882 13.2738 14.6164 13.6877 15.2017 14.2731C15.7869 14.8584 16.2008 15.5928 16.3982 16.3967C17.02 16.5486 17.667 16.5669 18.2963 16.4504C18.9257 16.3339 19.5232 16.0852 20.0495 15.7209C20.5757 15.3565 21.0187 14.8847 21.3492 14.3365C21.6797 13.7884 21.8902 13.1764 21.9669 12.5409C22.0435 11.9055 21.9845 11.261 21.7938 10.65C21.603 10.039 21.2849 9.47537 20.8604 8.99635C20.4358 8.51733 19.9146 8.13378 19.3309 7.871C18.7473 7.60823 18.1145 7.47221 17.4745 7.47192V7.47292Z"
        fill="#4494F7"
    />
    <path
        d="M10.9238 13.0761C11.097 12.3688 11.097 11.6301 10.9238 10.9227C10.1199 10.7252 9.38549 10.3114 8.80013 9.72614C8.21478 9.14087 7.80085 8.4065 7.60325 7.60268C6.9369 7.43976 6.24224 7.4304 5.57173 7.57531C4.90123 7.72022 4.27243 8.01561 3.73283 8.43917C3.19323 8.86273 2.75695 9.40338 2.45694 10.0203C2.15692 10.6372 2.00103 11.3142 2.00103 12.0002C2.00103 12.6862 2.15692 13.3632 2.45694 13.9801C2.75695 14.597 3.19323 15.1376 3.73283 15.5612C4.27243 15.9847 4.90123 16.2801 5.57173 16.425C6.24224 16.5699 6.9369 16.5606 7.60325 16.3977C7.80066 15.5936 8.2145 14.8589 8.79986 14.2734C9.38523 13.6878 10.1198 13.2738 10.9238 13.0761V13.0761Z"
        fill="#005CF4"
    />
    <path
        d="M13.0772 10.9238C13.8811 10.7261 14.6155 10.3122 15.2008 9.72684C15.7861 9.14151 16.2001 8.40711 16.3977 7.60327C15.5939 7.80094 14.8595 8.21488 14.2742 8.80022C13.6888 9.38555 13.2749 10.1199 13.0772 10.9238V10.9238Z"
        fill="#186EF9"
    />
    <path
        d="M13.0772 13.0762C13.2747 13.8801 13.6886 14.6146 14.274 15.1999C14.8594 15.7853 15.5938 16.1992 16.3977 16.3967C16.2001 15.5929 15.7861 14.8585 15.2008 14.2731C14.6155 13.6878 13.8811 13.2738 13.0772 13.0762V13.0762Z"
        fill="#0246F2"
    />
    <path
        d="M10.9238 10.9238C10.7261 10.1199 10.3122 9.38555 9.72683 8.80022C9.14149 8.21488 8.4071 7.80094 7.60325 7.60327C7.80093 8.40711 8.21487 9.14151 8.8002 9.72684C9.38554 10.3122 10.1199 10.7261 10.9238 10.9238V10.9238Z"
        fill="#0046F8"
    />
    <path
        d="M10.9238 13.0762C10.1199 13.2738 9.38554 13.6878 8.8002 14.2731C8.21487 14.8585 7.80093 15.5929 7.60325 16.3967C8.4071 16.199 9.14149 15.7851 9.72683 15.1998C10.3122 14.6144 10.7261 13.88 10.9238 13.0762V13.0762Z"
        fill="#0729F1"
    />
</svg>
