<svg viewBox="0 0 24 24" fill="none" xmlns="http://www.w3.org/2000/svg">
    <path
        d="M14.8916 8.66686H9.11385C8.8684 8.66686 8.66938 8.8658 8.66938 9.11125V14.8891C8.66938 15.1345 8.8684 15.3336 9.11385 15.3336H14.8916C15.137 15.3336 15.3361 15.1345 15.3361 14.8891V9.11125C15.3361 8.8658 15.137 8.66686 14.8916 8.66686Z"
        fill="black"
    />
    <path
        d="M8.22222 2H2.44448C2.19903 2 2 2.19893 2 2.44448V8.22221C2 8.46767 2.19903 8.66669 2.44448 8.66669H8.22222C8.46776 8.66669 8.66669 8.46767 8.66669 8.22221V2.44448C8.66669 2.19893 8.46776 2 8.22222 2Z"
        fill="black"
    />
    <path
        d="M21.5556 2H15.7778C15.5323 2 15.3333 2.19893 15.3333 2.44448V8.22221C15.3333 8.46767 15.5323 8.66669 15.7778 8.66669H21.5556C21.8011 8.66669 22 8.46767 22 8.22221V2.44448C22 2.19893 21.8011 2 21.5556 2Z"
        fill="black"
    />
    <path
        d="M8.22222 15.3332H2.44448C2.19903 15.3332 2 15.5321 2 15.7776V21.5554C2 21.8009 2.19903 21.9999 2.44448 21.9999H8.22222C8.46776 21.9999 8.66669 21.8009 8.66669 21.5554V15.7776C8.66669 15.5321 8.46776 15.3332 8.22222 15.3332Z"
        fill="black"
    />
    <path
        d="M21.5556 15.3332H15.7778C15.5323 15.3332 15.3333 15.5321 15.3333 15.7776V21.5554C15.3333 21.8009 15.5323 21.9999 15.7778 21.9999H21.5556C21.8011 21.9999 22 21.8009 22 21.5554V15.7776C22 15.5321 21.8011 15.3332 21.5556 15.3332Z"
        fill="black"
    />
</svg>
