<svg viewBox="0 0 24 24" fill="none" xmlns="http://www.w3.org/2000/svg">
    <circle cx="12" cy="12" r="10" fill="#E7EFF3" />
    <path
        fill-rule="evenodd"
        clip-rule="evenodd"
        d="M5.45252 10.7193C5.9817 7.92367 8.29623 5.75882 11.172 5.36861C11.6691 5.29912 12.7221 5.33654 13.2727 5.44344C14.5877 5.69467 15.9133 6.42698 16.8274 7.38914C18.3828 9.04084 18.9976 11.2912 18.4951 13.5042C18.2064 14.7817 17.5543 15.9149 16.5708 16.8504C15.6407 17.727 14.5877 18.2722 13.2834 18.5502C12.6527 18.6838 11.3484 18.6838 10.7177 18.5502C9.80361 18.3524 9.0125 18.021 8.23743 17.5132C7.72962 17.1764 6.84764 16.2891 6.49485 15.7653C5.48459 14.2525 5.12111 12.4832 5.45252 10.7193ZM16.7365 8.10009C15.7583 6.89204 14.2563 6.07955 12.6687 5.89781C11.3538 5.75349 10.1029 6.02076 8.90025 6.7103C7.79912 7.3357 6.80489 8.48495 6.32915 9.67695C5.39372 11.9915 5.91222 14.5572 7.67083 16.3212C10.7871 19.4589 16.1057 18.3417 17.7147 14.2098C18.0194 13.4401 18.1156 12.8681 18.1156 11.938C18.1102 11.2859 18.0889 11.0721 17.9713 10.6017C17.7307 9.61281 17.3672 8.88585 16.7365 8.10009Z"
        fill="black"
    />
    <path
        fill-rule="evenodd"
        clip-rule="evenodd"
        d="M6.70871 12.3335C6.54835 11.5317 6.99201 10.6712 7.6869 10.4199C7.94883 10.3291 8.47267 10.313 8.74528 10.3878C9.44551 10.5856 9.92125 11.3554 9.84641 12.1785C9.78762 12.7772 9.52569 13.1995 9.04996 13.4668C8.79339 13.6057 8.7239 13.6218 8.25885 13.6218C7.67621 13.6218 7.4624 13.5416 7.13099 13.1834C6.87976 12.9215 6.78889 12.7344 6.70871 12.3335ZM9.22097 12.3122C9.33322 11.8471 9.17286 11.3179 8.85749 11.0881C8.53677 10.8636 7.9862 10.8582 7.67617 11.0827C7.302 11.3447 7.17371 12.0984 7.4196 12.5794C7.82584 13.3866 9.00716 13.2102 9.22097 12.3122Z"
        fill="black"
    />
    <path
        d="M14.9191 10.4413C13.9142 10.8422 13.6309 12.3229 14.3899 13.2209C14.8015 13.7126 15.7744 13.8035 16.2073 13.3866L16.3249 13.2743L16.341 13.424C16.357 13.5576 16.373 13.5683 16.6243 13.5683H16.8915L16.9076 12.7238L16.9236 11.8845H16.1699H15.4216V12.1518V12.4191H15.8759C16.3677 12.4191 16.3837 12.4298 16.2448 12.7184C16.1485 12.9162 15.8064 13.114 15.5499 13.114C14.9352 13.114 14.5663 12.681 14.5663 11.9808C14.5717 11.2057 15.0688 10.762 15.7476 10.9224C16.0096 10.9865 16.2768 11.2164 16.2768 11.3821C16.2768 11.4355 16.357 11.4569 16.5976 11.4569H16.9129L16.8381 11.2164C16.6724 10.6551 16.2608 10.3718 15.5819 10.3504C15.2826 10.3397 15.1169 10.3611 14.9191 10.4413Z"
        fill="black"
    />
    <path
        d="M10.29 11.9915V13.5951H10.5573H10.8246L10.8353 12.5153L10.8513 11.4302L11.2469 12.5153L11.6424 13.6004L11.9097 13.5844L12.1769 13.5683L12.5671 12.4993L12.9574 11.4302L12.9734 12.4993L12.9894 13.5683L13.2727 13.5844L13.5507 13.6004L13.54 12.0075L13.524 10.4146H13.1551H12.781L12.3533 11.6013C12.1181 12.2587 11.9097 12.7772 11.8936 12.7505C11.8723 12.7291 11.6798 12.2213 11.466 11.6173C11.2522 11.0133 11.0491 10.4894 11.0223 10.452C10.9903 10.4146 10.8406 10.3879 10.6321 10.3879H10.29V11.9915Z"
        fill="black"
    />
</svg>
