<svg viewBox="0 0 24 24" fill="none" xmlns="http://www.w3.org/2000/svg">
    <path
        d="M12 22C17.5228 22 22 17.5228 22 12C22 6.47715 17.5228 2 12 2C6.47715 2 2 6.47715 2 12C2 17.5228 6.47715 22 12 22Z"
        fill="#1A53F0"
    />
    <path
        d="M9.40997 12.8063C8.68853 12.8067 7.99682 13.0938 7.48697 13.6042C6.97712 14.1146 6.69089 14.8067 6.69122 15.5281C6.69089 16.2495 6.97704 16.9414 7.48675 17.4518C7.99646 17.9622 8.68801 18.2493 9.40935 18.25C9.76668 18.2499 10.1205 18.1794 10.4506 18.0426C10.7807 17.9058 11.0806 17.7052 11.3332 17.4525C11.5857 17.1997 11.7861 16.8997 11.9227 16.5695C12.0593 16.2393 12.1295 15.8855 12.1293 15.5281C12.1295 15.1708 12.0593 14.817 11.9227 14.4869C11.7862 14.1567 11.5859 13.8567 11.3334 13.604C11.0809 13.3512 10.781 13.1507 10.451 13.0138C10.121 12.8769 9.76725 12.8064 9.40997 12.8063ZM9.40997 17.4269C8.907 17.4265 8.42475 17.2265 8.06927 16.8706C7.71379 16.5148 7.51418 16.0323 7.51435 15.5294C7.51418 15.2803 7.56309 15.0336 7.65826 14.8034C7.75344 14.5732 7.89302 14.364 8.06905 14.1877C8.24507 14.0115 8.45409 13.8716 8.68417 13.7761C8.91424 13.6806 9.16087 13.6314 9.40997 13.6313C9.65913 13.6313 9.90582 13.6805 10.136 13.7759C10.3661 13.8714 10.5752 14.0112 10.7513 14.1875C10.9274 14.3638 11.067 14.573 11.1623 14.8032C11.2575 15.0335 11.3064 15.2802 11.3062 15.5294C11.3056 16.0322 11.1056 16.5143 10.7502 16.8699C10.3947 17.2256 9.9128 17.4259 9.40997 17.4269ZM15.2187 7C14.8614 7.00016 14.5077 7.0707 14.1777 7.20757C13.8477 7.34445 13.5478 7.54499 13.2953 7.79774C13.0428 8.05049 12.8425 8.3505 12.706 8.68064C12.5694 9.01079 12.4992 9.3646 12.4993 9.72187C12.499 10.4433 12.7852 11.1354 13.2951 11.6458C13.8049 12.1562 14.4967 12.4433 15.2181 12.4437C15.5754 12.4437 15.9292 12.3732 16.2593 12.2364C16.5894 12.0995 16.8893 11.899 17.1419 11.6462C17.3945 11.3935 17.5948 11.0934 17.7314 10.7633C17.868 10.4331 17.9383 10.0792 17.9381 9.72187C17.9383 9.36454 17.868 9.01068 17.7314 8.6805C17.5948 8.35031 17.3945 8.05027 17.1419 7.79752C16.8893 7.54476 16.5894 7.34423 16.2593 7.20739C15.9292 7.07056 15.5754 7.00008 15.2181 7H15.2187ZM15.2187 11.6206C14.9696 11.6205 14.723 11.5714 14.4929 11.476C14.2628 11.3806 14.0537 11.2408 13.8776 11.0646C13.7015 10.8884 13.5619 10.6792 13.4666 10.4491C13.3714 10.2189 13.3224 9.97223 13.3225 9.72313C13.3223 9.47397 13.3712 9.22723 13.4664 8.99698C13.5617 8.76674 13.7013 8.55751 13.8774 8.38124C14.0535 8.20498 14.2626 8.06513 14.4927 7.96969C14.7229 7.87425 14.9696 7.82508 15.2187 7.825C15.4678 7.82516 15.7145 7.87439 15.9445 7.96987C16.1746 8.06535 16.3836 8.20521 16.5596 8.38147C16.7357 8.55772 16.8753 8.76692 16.9704 8.99713C17.0656 9.22733 17.1145 9.47402 17.1143 9.72313C17.1137 10.2258 16.9138 10.7078 16.5585 11.0635C16.2032 11.4191 15.7214 11.6195 15.2187 11.6206ZM9.40997 7C8.78211 7.00083 8.17381 7.21855 7.68801 7.61632C7.20222 8.01408 6.86876 8.56747 6.74407 9.18283C6.61939 9.79819 6.71112 10.4377 7.00376 10.9932C7.29639 11.5487 7.77196 11.9861 8.34997 12.2313C8.92843 12.4757 9.57367 12.5124 10.1761 12.3351C10.7786 12.1579 11.3011 11.7775 11.655 11.2587C12.0092 10.7397 12.1732 10.1141 12.1191 9.488C12.065 8.8619 11.7962 8.27373 11.3581 7.82313H12.1287V7H9.40997ZM11.3062 9.72187C11.3063 9.97098 11.2573 10.2177 11.1621 10.4478C11.0668 10.678 10.9272 10.8872 10.7511 11.0634C10.575 11.2396 10.3659 11.3793 10.1358 11.4747C9.90572 11.5701 9.65907 11.6193 9.40997 11.6194C8.907 11.619 8.42475 11.419 8.06927 11.0631C7.71379 10.7073 7.51418 10.2248 7.51435 9.72187C7.51418 9.2189 7.71379 8.73645 8.06927 8.38062C8.42475 8.02479 8.907 7.82471 9.40997 7.82438C9.91291 7.8252 10.395 8.0254 10.7506 8.38109C11.1061 8.73678 11.3062 9.21894 11.3068 9.72187H11.3062Z"
        fill="white"
    />
</svg>
