<svg viewBox="0 0 24 24" fill="none" xmlns="http://www.w3.org/2000/svg">
    <path
        d="M12 2C17.5228 2 22 6.47715 22 12C22 17.5229 17.5228 22 12 22C6.47714 22 2 17.5229 2 12C2 6.47715 6.47714 2 12 2Z"
        fill="#1A82FF"
    />
    <path
        d="M15.8506 16.3323C14.9399 17.4481 13.6589 18.006 12.0077 18.006C10.3567 18.006 9.07549 17.4481 8.16426 16.3323C7.25284 15.2158 6.79733 13.7728 6.79773 12.0031C6.79813 10.2333 7.25344 8.79039 8.16366 7.67435C9.07449 6.55791 10.3556 5.9998 12.0072 6C13.6587 6.0002 14.9397 6.55831 15.85 7.67435C16.7609 8.79019 17.2164 10.2331 17.2166 12.0031C17.2168 13.773 16.7614 15.2161 15.8506 16.3323Z"
        fill="white"
    />
    <path
        d="M11.9884 15.6727C12.4231 15.6727 12.7925 15.5543 13.097 15.3175C13.4014 15.0806 13.6219 14.7593 13.7583 14.3538C13.8946 13.948 13.9908 13.559 14.0469 13.1868C14.103 12.8147 14.1308 12.4201 14.1304 12.003C14.1304 11.4896 14.0994 11.0301 14.0373 10.6245L10.2924 14.5269C10.6387 15.2904 11.204 15.6724 11.9884 15.6727Z"
        fill="#1A82FF"
    />
    <path
        d="M12.0256 8.33327C11.591 8.33327 11.2214 8.45171 10.9171 8.68858C10.6126 8.92546 10.3922 9.2467 10.2557 9.65231C10.1186 10.0581 10.0224 10.4471 9.96712 10.8193C9.911 11.1914 9.88315 11.586 9.88355 12.003C9.88355 12.2778 9.89237 12.5371 9.91 12.781L13.4817 9.05953C13.1349 8.57556 12.6495 8.33347 12.0256 8.33327Z"
        fill="#1A82FF"
    />
    <path
        d="M7.08859 15.723L6.62866 15.2817L10.1162 11.6463L10.5762 12.0875L7.08859 15.723ZM13.6597 11.9294L13.1998 11.4882L16.6874 7.85268L17.1473 8.29396L13.6597 11.9294Z"
        fill="#1A82FF"
    />
</svg>
