<svg viewBox="0 0 24 24" fill="none" xmlns="http://www.w3.org/2000/svg">
    <path
        d="M12 22C17.523 22 22 17.523 22 12C22 6.477 17.523 2 12 2C6.477 2 2 6.477 2 12C2 17.523 6.477 22 12 22Z"
        fill="#EDF0F4"
    />
    <path
        d="M8.37438 14.3641V15.759H9.76925V15.4034H11.7111V18.494C8.48378 18.3026 5.83079 15.6496 5.66669 12.4222H8.75728V14.3368L8.37438 14.3641Z"
        fill="#005CC7"
    />
    <path
        d="M14.3368 15.4035V15.759H15.7316V14.3642H15.3761V12.4496H18.4667C18.3026 15.677 15.6222 18.3026 12.3949 18.4941V15.4035H14.3368Z"
        fill="#005CC7"
    />
    <path
        d="M11.7111 8.81199H14.3641V8.40173H15.7863V9.9607H14.3915V9.5231H11.7385V12.4222L14.747 12.4496V14.3641H14.3915V14.6923H9.76925V14.3368H9.44105V9.7966H9.7966V8.40173H8.40173V9.7966H8.75729V11.7111H5.66669C5.83079 8.45643 8.51113 5.83079 11.7111 5.66669V8.81199Z"
        fill="#005CC7"
    />
</svg>
