<?xml version="1.0" encoding="UTF-8" standalone="no"?><!DOCTYPE svg PUBLIC "-//W3C//DTD SVG 1.1//EN" "http://www.w3.org/Graphics/SVG/1.1/DTD/svg11.dtd"><svg viewBox="0 0 24 24" version="1.1" xmlns="http://www.w3.org/2000/svg" xmlns:xlink="http://www.w3.org/1999/xlink" xml:space="preserve" xmlns:serif="http://www.serif.com/" fill-rule="evenodd" clip-rule="evenodd" stroke-linejoin="round" stroke-miterlimit="2"><g transform="matrix(0.0868464,0,0,0.0868464,28.1868,12)"><g transform="matrix(1,0,0,1,-306.5,-126.65)"><g transform="matrix(1.02876,0,0,1,-386.341,0)"><rect x="375.54" y="0" width="237.46" height="253.3" fill="none"/><clipPath id="Ping_a"><rect x="375.54" y="0" width="237.46" height="253.3"/></clipPath><g clip-path="url(#Ping_a)"><g transform="matrix(1.63818,0,0,1.6853,281.345,-89.1522)"><path d="M201.5,97.4C201.3,95.5 201,93.7 200.6,91.8C200.2,89.9 199.6,88.1 199,86.2C198.3,84.3 197.5,82.4 196.6,80.6C196.5,80.4 196.4,80.1 196.2,79.9C195.3,78.2 194.4,76.6 193.3,75.1C192.5,73.8 191.6,72.6 190.6,71.4C190.1,70.7 189.5,70.1 189,69.5C187.8,68.1 186.5,66.8 185.1,65.6C184.5,65 183.8,64.5 183.2,64C182,63 180.8,62.1 179.6,61.3C178,60.2 176.4,59.3 174.7,58.4C174.5,58.3 174.2,58.2 174,58.1C172.2,57.2 170.3,56.4 168.5,55.7C166.7,55.1 164.8,54.5 163,54.1C159.4,53.3 155.6,52.9 151.9,52.9L71.4,52.9C68.4,52.9 65.5,53.9 63.1,55.7C62,56.5 61.1,57.4 60.3,58.5C58.5,60.9 57.5,63.8 57.5,66.8L57.5,166.9C57.5,167.8 57.5,168.8 57.6,169.7C57.7,171.6 58,173.4 58.4,175.3C58.8,177.2 59.4,179.1 60.2,180.9C61,182.8 61.9,184.6 63,186.3C63,186.4 63.1,186.4 63.1,186.5C64.4,188.5 65.8,190.4 67.5,192.1C67.8,192.5 68.2,192.8 68.5,193.1C70.2,194.7 72,196.2 74,197.5C74.1,197.5 74.1,197.6 74.2,197.6C75.9,198.7 77.7,199.6 79.5,200.4C81.3,201.2 83.2,201.8 85,202.2C86.8,202.6 88.7,202.9 90.5,203.1L90.5,203.2L138,203.2L138,203.1C138.8,203 139.5,202.5 140,201.9C140.5,201.3 140.8,200.5 140.8,199.7C140.8,198.9 140.5,198.2 140,197.6C139.7,197.2 139.2,196.8 138.7,196.6C138.5,196.5 138.2,196.3 138,196.2C137.1,195.7 136.1,195.1 135.2,194.5C134.2,193.9 133.3,193.2 132.4,192.6C132.1,192.4 131.9,192.2 131.7,192C131,191.5 130.3,190.9 129.7,190.4C129.1,189.9 128.5,189.4 127.9,188.8L124.1,185C122.9,183.7 121.8,182.3 120.8,180.9C120,179.8 119.3,178.8 118.6,177.7C118.1,176.9 117.7,176.2 117.2,175.4C116.2,173.6 115.3,171.8 114.5,169.8C114,168.5 113.5,167.2 113.1,165.9C112.9,165.3 112.7,164.8 112.6,164.2C112.3,163.3 112.1,162.3 111.9,161.4C111.7,160.5 111.5,159.5 111.3,158.6C111,156.8 110.7,154.9 110.6,153C110.5,152.3 110.5,151.6 110.5,151C110.5,150.2 110.4,149.5 110.4,148.7L110.4,130.8L91.9,130.8C91.1,130.8 90.3,130.5 89.7,130C89.1,129.5 88.7,128.8 88.5,128C88.4,127.6 88.4,127.1 88.5,126.6C88.6,126.2 88.8,125.7 89,125.4L89.1,125.2L90.8,122.8L91.8,121.4L93,119.7L96.3,114.9L97,114L100.9,108.4L102,106.8L107.6,98.8L108.7,97.2L110.4,94.8L112.6,91.6L113.2,90.8L118.7,82.8L120.4,80.4L121.5,78.8C121.8,78.3 122.2,78 122.7,77.7C123.2,77.4 123.7,77.3 124.3,77.3C124.8,77.3 125.4,77.4 125.9,77.7C126.4,78 126.8,78.3 127.1,78.8L128.2,80.4L129.9,82.8L132.1,86L132.7,86.8L135.5,90.8L136.1,91.6L138,95L139.7,97.4L140.8,99L146.4,107L147.5,108.6L151.4,114.2L151.9,115L157.4,123L159.1,125.4L159.2,125.6C159.5,126 159.7,126.4 159.7,126.8C159.8,127.2 159.8,127.7 159.7,128.2C159.6,128.8 159.3,129.4 158.9,129.8C158.5,130.3 158,130.6 157.4,130.8C157.1,130.9 156.7,130.9 156.4,130.9L138,130.9L138,147.6C138,149.5 138.4,151.4 139.2,153.2C139.6,154.2 140.2,155.1 140.8,156C142.2,157.9 144.2,159.5 146.3,160.4C148,161.2 149.9,161.6 151.8,161.6L152.5,161.6C154.1,161.6 155.7,161.5 157.3,161.3C159.2,161.1 161,160.8 162.8,160.4C164.6,160 166.4,159.5 168.1,158.9L168.3,158.9L168.3,158.8C170.2,158.1 172.1,157.3 173.8,156.4C175.7,155.5 177.5,154.4 179.2,153.3L179.3,153.3L179.3,153.2C181.3,151.9 183.1,150.4 184.8,148.9C185.2,148.5 185.6,148.2 186,147.8C187.5,146.3 189,144.8 190.3,143.1C190.5,142.8 190.8,142.5 191,142.2C192.4,140.4 193.6,138.6 194.7,136.6C195.1,135.9 195.5,135.2 195.8,134.5C196.4,133.4 196.9,132.2 197.4,131C197.8,130.1 198.1,129.2 198.5,128.2C198.8,127.3 199.1,126.4 199.4,125.4C199.9,123.6 200.3,121.7 200.7,119.8C201,118 201.2,116.1 201.3,114.2L201.4,114.2L201.4,103.1C201.8,101.1 201.7,99.2 201.5,97.4Z" fill="rgb(55,73,231)" fill-rule="nonzero"/></g></g></g></g></g></svg>