<svg viewBox="0 0 24 24" fill="none" xmlns="http://www.w3.org/2000/svg">
    <path
        d="M12.1195 3C10.313 3.0071 8.58259 3.72786 7.30522 5.00523C6.02785 6.2826 5.30709 8.01305 5.29999 9.81952C5.30014 10.5723 5.42149 11.3201 5.65938 12.0343C5.74505 12.2683 5.9171 12.4607 6.14018 12.5718C6.36327 12.6829 6.62044 12.7044 6.85886 12.6318C7.08927 12.5436 7.27743 12.3709 7.38509 12.149C7.49274 11.927 7.5118 11.6723 7.43839 11.4368C7.23636 10.8804 7.14628 10.2895 7.17333 9.69822C7.2021 8.74477 7.50745 7.82024 8.05222 7.03721C8.59698 6.25418 9.35766 5.64642 10.2416 5.28794C11.1256 4.92946 12.0947 4.83572 13.031 5.01813C13.9673 5.20054 14.8303 5.65123 15.5151 6.31534C16.1998 6.97944 16.6767 7.8283 16.8877 8.75856C17.0987 9.68883 17.0346 10.6604 16.7034 11.5549C16.3721 12.4494 15.7879 13.2283 15.0219 13.7968C14.2559 14.3653 13.3412 14.6988 12.3891 14.7567C12.3891 14.7567 11.4322 14.8151 10.956 14.8735C10.7806 14.8989 10.6066 14.9333 10.4348 14.9768C10.429 14.9828 10.422 14.9876 10.4143 14.9908C10.4066 14.994 10.3983 14.9957 10.3899 14.9957C10.3816 14.9957 10.3733 14.994 10.3656 14.9908C10.3578 14.9876 10.3508 14.9828 10.345 14.9768C10.3366 14.9659 10.3321 14.9525 10.3321 14.9386C10.3321 14.9248 10.3366 14.9114 10.345 14.9005L10.4932 14.0918L11.3917 10.0486C11.4436 9.80617 11.3969 9.55305 11.2621 9.34495C11.1273 9.13685 10.9154 8.99083 10.6729 8.939C10.4305 8.88717 10.1774 8.93378 9.96926 9.06858C9.76116 9.20338 9.61514 9.41533 9.56331 9.65779C9.56331 9.65779 7.42491 19.5546 7.42491 19.6445C7.39548 19.7601 7.38939 19.8805 7.40699 19.9986C7.42459 20.1166 7.46554 20.23 7.52743 20.332C7.58933 20.4341 7.67094 20.5227 7.76749 20.5929C7.86405 20.6631 7.97361 20.7133 8.08979 20.7406H8.13921C8.25548 20.7707 8.3766 20.7771 8.49541 20.7596C8.61421 20.742 8.72829 20.7008 8.8309 20.6384C8.93351 20.576 9.02257 20.4936 9.09281 20.3962C9.16305 20.2988 9.21305 20.1883 9.23985 20.0713C9.23815 20.0563 9.23815 20.0413 9.23985 20.0263C9.26681 19.9095 9.53636 18.5932 9.53636 18.5932C9.63611 18.108 9.88201 17.665 10.241 17.3237C10.6 16.9824 11.0549 16.7591 11.5445 16.684C11.7511 16.6525 12.6182 16.5941 12.6182 16.5941C14.3431 16.4221 15.9377 15.5992 17.0773 14.293C18.217 12.9867 18.816 11.2952 18.7524 9.56289C18.6889 7.83054 17.9676 6.18751 16.7353 4.96825C15.503 3.74899 13.8524 3.04515 12.1195 3V3Z"
        fill="#1E1E1E"
    />
    <path
        d="M12.5328 18.7226C12.3852 18.6919 12.233 18.6909 12.085 18.7196C11.937 18.7483 11.7962 18.8061 11.6708 18.8897C11.5454 18.9733 11.4379 19.081 11.3545 19.2066C11.2711 19.3322 11.2135 19.4731 11.1851 19.6211C11.1534 19.7666 11.1506 19.9168 11.1771 20.0633C11.2035 20.2098 11.2586 20.3496 11.3391 20.4748C11.4196 20.6 11.5241 20.7081 11.6464 20.7929C11.7688 20.8776 11.9066 20.9374 12.0521 20.9689H12.0836C12.227 21.0035 12.3758 21.0093 12.5215 20.9859C12.6671 20.9626 12.8067 20.9105 12.9321 20.8328C13.0575 20.755 13.1662 20.6532 13.2519 20.5331C13.3376 20.413 13.3986 20.2771 13.4313 20.1333V20.0704C13.4825 19.7734 13.4179 19.4681 13.2508 19.2174C13.0836 18.9666 12.8266 18.7896 12.5328 18.7226Z"
        fill="#E6007A"
    />
</svg>
