<svg viewBox="0 0 24 24" fill="none" xmlns="http://www.w3.org/2000/svg">
    <g clip-path="url(#Poloniex_a)">
        <path
            d="M2 3.37556V20.6243C2 21.3841 2.61588 21.9999 3.37561 21.9999H20.6244C21.3841 21.9999 22 21.3841 22 20.6243V3.37556C22 2.61582 21.3841 1.99994 20.6244 1.99994H3.37561C2.61588 1.99994 2 2.61582 2 3.37556Z"
            fill="url(#Poloniex_b)"
        />
        <path
            d="M4.49968 6.98105H7.64219L11.2939 12.3341L9.53411 12.7254L8.07058 12.3341L4.49968 6.98105Z"
            fill="url(#Poloniex_c)"
        />
        <path
            d="M4.33502 17.6867H7.47754L11.2939 12.3341H8.07057L4.33502 17.6867Z"
            fill="url(#Poloniex_d)"
        />
        <path
            d="M9.11336 6.98105H12.2564L15.9076 12.3341L14.1808 12.7472L12.6807 12.3341L9.11336 6.98105Z"
            fill="url(#Poloniex_e)"
        />
        <path
            d="M16.3395 6.98105H19.4826L16.6211 11.2985L15.0076 8.93496L16.3395 6.98105Z"
            fill="url(#Poloniex_f)"
        />
        <path
            d="M13.6757 6.98105H14.8866L14.2906 7.88102L13.6757 6.98105Z"
            fill="url(#Poloniex_g)"
        />
        <path
            d="M16.5225 17.6867H19.6655L16.6322 13.3185L15.0076 15.5757L16.5225 17.6867Z"
            fill="url(#Poloniex_h)"
        />
        <path
            d="M13.4892 17.6867H15.0661L14.287 16.5784L13.4892 17.6867Z"
            fill="url(#Poloniex_i)"
        />
        <path
            d="M8.94872 17.6867H12.0587L15.9076 12.3341H12.6807L8.94872 17.6867Z"
            fill="url(#Poloniex_j)"
        />
    </g>
    <defs>
        <linearGradient
            id="Poloniex_b"
            x1="11.9997"
            y1="21.9999"
            x2="11.9997"
            y2="1.99994"
            gradientUnits="userSpaceOnUse"
        >
            <stop stop-color="#D1D5D8" />
            <stop offset="1" stop-color="#FDFCFD" />
        </linearGradient>
        <linearGradient
            id="Poloniex_c"
            x1="5.47795"
            y1="6.2527"
            x2="8.56811"
            y2="12.0688"
            gradientUnits="userSpaceOnUse"
        >
            <stop stop-color="#73A2A8" />
            <stop offset="1" stop-color="#71B5BF" />
        </linearGradient>
        <linearGradient
            id="Poloniex_d"
            x1="5.33918"
            y1="17.0282"
            x2="8.38913"
            y2="11.4052"
            gradientUnits="userSpaceOnUse"
        >
            <stop stop-color="#699699" />
            <stop offset="1" stop-color="#73A4A6" />
        </linearGradient>
        <linearGradient
            id="Poloniex_e"
            x1="10.0723"
            y1="6.46705"
            x2="12.953"
            y2="11.8682"
            gradientUnits="userSpaceOnUse"
        >
            <stop stop-color="#005661" />
            <stop offset="1" stop-color="#048293" />
        </linearGradient>
        <linearGradient
            id="Poloniex_f"
            x1="16.0329"
            y1="10.6079"
            x2="16.0329"
            y2="6.41038"
            gradientUnits="userSpaceOnUse"
        >
            <stop stop-color="#676F74" />
            <stop offset="1" stop-color="#3B444A" />
        </linearGradient>
        <linearGradient
            id="Poloniex_g"
            x1="13.1515"
            y1="6.41039"
            x2="13.1515"
            y2="7.28545"
            gradientUnits="userSpaceOnUse"
        >
            <stop stop-color="#93989C" />
            <stop offset="1" stop-color="#AAAFB2" />
        </linearGradient>
        <linearGradient
            id="Poloniex_h"
            x1="16.4813"
            y1="16.3386"
            x2="14.7556"
            y2="13.717"
            gradientUnits="userSpaceOnUse"
        >
            <stop stop-color="#3B444A" />
            <stop offset="1" stop-color="#3B444A" />
        </linearGradient>
        <linearGradient
            id="Poloniex_i"
            x1="13.148"
            y1="16.8187"
            x2="13.148"
            y2="15.7409"
            gradientUnits="userSpaceOnUse"
        >
            <stop stop-color="#858B8F" />
            <stop offset="1" stop-color="#868D90" />
        </linearGradient>
        <linearGradient
            id="Poloniex_j"
            x1="9.90393"
            y1="16.8921"
            x2="12.795"
            y2="11.5426"
            gradientUnits="userSpaceOnUse"
        >
            <stop stop-color="#08575C" />
            <stop offset="1" stop-color="#096166" />
        </linearGradient>
        <clipPath id="Poloniex_a">
            <rect
                width="20"
                height="20"
                fill="white"
                transform="translate(2 2)"
            />
        </clipPath>
    </defs>
</svg>
