<svg viewBox="0 0 25 24" fill="none" xmlns="http://www.w3.org/2000/svg">
    <path
        d="M19.6481 8.07046L18.7881 7.44171L20.7996 6.42059L19.6481 8.07046Z"
        fill="#3F4B80"
    />
    <path
        d="M14.5349 6L17.0398 7.29531L17.3406 9.38482L14.5349 6Z"
        fill="#313A62"
    />
    <path
        d="M17.3406 9.38482L16.9412 11.1623L14.5349 6L17.3406 9.38482Z"
        fill="#3F4B80"
    />
    <path
        d="M16.9411 11.1623L13.1061 6.2931L14.5395 6.00946L16.9411 11.1623Z"
        fill="#4B5897"
    />
    <path
        d="M16.9411 11.1627L12.7819 9.527L13.1062 6.29346L16.9411 11.1627Z"
        fill="#5161A4"
    />
    <path
        d="M13.1061 6.29346L12.7818 9.527L8.49573 10.1321L13.1061 6.29346Z"
        fill="#4B5897"
    />
    <path
        d="M16.9411 11.162L12.3542 12.4147L12.7819 9.52631L16.9411 11.162Z"
        fill="#4B5897"
    />
    <path
        d="M12.3542 12.4151L16.9411 11.1624L14.8733 12.1315L12.3542 12.4151Z"
        fill="#3F4B80"
    />
    <path
        d="M9.82111 12.8495L12.3542 12.4146L12.3965 13.2844L9.82111 12.8495Z"
        fill="#3F4B80"
    />
    <path
        d="M12.3965 13.2854L12.3542 12.4155L14.8733 12.1319L12.3965 13.2854Z"
        fill="#313A62"
    />
    <path
        d="M8.49573 10.1314L12.7819 9.52631L12.3542 12.4147L8.49573 10.1314Z"
        fill="#3F4B80"
    />
    <path
        d="M8.49573 10.1323L12.3542 12.4157L9.82104 12.8506L8.49573 10.1323Z"
        fill="#4B5897"
    />
    <path
        d="M8.49573 10.1323L9.82104 12.8506L8.54272 13.7913L8.49573 10.1323Z"
        fill="#313A62"
    />
    <path
        d="M6.31982 10.8641L6.83209 13.9606L5.42218 11.8285L6.31982 10.8641Z"
        fill="#5161A4"
    />
    <path
        d="M3.79608 11.8478L5.42217 11.8289L5.43157 12.8264L3.79608 11.8478Z"
        fill="#313A62"
    />
    <path
        d="M3.92767 12.5239L3.79608 11.8479L5.43157 12.8265L3.92767 12.5239Z"
        fill="#3F4B80"
    />
    <path
        d="M3.92761 12.5239L2.99707 13.3512L3.79602 11.8479L3.92761 12.5239Z"
        fill="#4B5897"
    />
    <path
        d="M2.99713 13.3508L2.93133 13.8519L1.8692 13.677L2.99713 13.3508Z"
        fill="#313A62"
    />
    <path
        d="M2.99719 13.3513L3.92773 12.524L2.9314 13.8524L2.99719 13.3513Z"
        fill="#5161A4"
    />
    <path
        d="M5.42218 11.8289L6.83209 13.961L5.43158 14.2399L5.42218 11.8289Z"
        fill="#3F4B80"
    />
    <path
        d="M5.83569 15.8281L4.81586 17.9507L4.66547 16.315L5.83569 15.8281Z"
        fill="#3F4B80"
    />
    <path
        d="M4.66553 16.3152L4.81592 17.9509L4.22845 18.2346L4.66553 16.3152Z"
        fill="#1F243E"
    />
    <path
        d="M4.81585 17.9513L4.97094 18.7502L3.75842 19.0008L4.81585 17.9513Z"
        fill="#3F4B80"
    />
    <path
        d="M4.22839 18.2349L4.81586 17.9513L3.75842 19.0008L4.22839 18.2349Z"
        fill="#313A62"
    />
    <path
        d="M5.43152 14.2405L6.83202 13.9615L4.66547 16.3158L5.43152 14.2405Z"
        fill="#313A62"
    />
    <path
        d="M6.83202 13.9615L7.78606 15.0536L4.66547 16.3158L6.83202 13.9615Z"
        fill="#4B5897"
    />
    <path
        d="M6.31976 10.8651L8.49572 10.1323L6.83203 13.9615L6.31976 10.8651Z"
        fill="#4B5897"
    />
    <path
        d="M6.83209 13.9615L8.49579 10.1323L8.54278 13.7913L6.83209 13.9615Z"
        fill="#3F4B80"
    />
    <path
        d="M7.78613 15.0527L6.83209 13.9607L8.54278 13.7905L7.78613 15.0527Z"
        fill="#313A62"
    />
    <path
        d="M14.8733 12.1319L16.8895 12.1177L15.6017 14.0937L14.8733 12.1319Z"
        fill="#4B5897"
    />
    <path
        d="M14.8733 12.1315L16.9412 11.1624L16.8895 12.1173L14.8733 12.1315Z"
        fill="#5161A4"
    />
    <path
        d="M14.4785 13.881L14.8732 12.1319L15.6017 14.0938L14.4785 13.881Z"
        fill="#3F4B80"
    />
    <path
        d="M13.9944 14.7979L14.4785 13.8807L15.6017 14.0935L13.9944 14.7979Z"
        fill="#4B5897"
    />
    <path
        d="M13.017 15.455L13.3224 13.9516L14.4786 13.8807L13.017 15.455Z"
        fill="#3F4B80"
    />
    <path
        d="M13.017 15.455L14.4786 13.8807L13.9945 14.7979L13.017 15.455Z"
        fill="#313A62"
    />
    <path
        d="M18.7881 7.44237L20.7056 6.09033L20.7996 6.42125L18.7881 7.44237Z"
        fill="#495692"
    />
    <path
        d="M20.7055 6.08983L22.2752 6.00946L20.7995 6.42074L20.7055 6.08983Z"
        fill="#5D6CAC"
    />
    <path
        d="M19.6998 9.17733L18.8256 8.55804L21.7817 8.56277L19.6998 9.17733Z"
        fill="#4F60A3"
    />
    <path
        d="M18.8256 8.55742L21.3682 8.2265L21.7817 8.56215L18.8256 8.55742Z"
        fill="#495692"
    />
    <path
        d="M21.3682 8.22708L22.5337 7.20123L21.7817 8.56273L21.3682 8.22708Z"
        fill="#3F4B80"
    />
    <path
        d="M21.7819 8.56273L22.5338 7.20123L22.7829 7.31942L21.7819 8.56273Z"
        fill="#4F60A3"
    />
    <path
        d="M22.5338 7.20048L22.7406 6.60956L22.7829 7.31867L22.5338 7.20048Z"
        fill="#313A62"
    />
    <path
        d="M17.3406 9.38489L17.6226 11.8715L16.9411 11.1624L17.3406 9.38489Z"
        fill="#313A62"
    />
    <path
        d="M17.6227 11.8716L17.3407 9.38501L19.6999 9.177L17.6227 11.8716Z"
        fill="#3F4B80"
    />
    <path
        d="M19.6997 9.17655L17.3405 9.38455L17.0397 7.29504L19.6997 9.17655Z"
        fill="#4B5897"
    />
    <path
        d="M19.6481 8.07092L20.0287 8.41602L18.8256 8.55785L19.6481 8.07092Z"
        fill="#313A62"
    />
    <path
        d="M17.0397 7.29504L19.648 8.07034L18.8256 8.55726L17.0397 7.29504Z"
        fill="#3F4B80"
    />
    <path
        d="M17.0397 7.29504L18.788 7.44159L19.648 8.07034L17.0397 7.29504Z"
        fill="#313A62"
    />
    <path
        d="M19.5918 13.1102L19.6999 9.177L20.6398 9.94757L19.5918 13.1102Z"
        fill="#3F4B80"
    />
    <path
        d="M19.5917 13.1102L19.6998 9.177L17.6226 11.8716L19.5917 13.1102Z"
        fill="#495692"
    />
    <path
        d="M20.6397 9.94766L20.3389 8.96436L19.6998 9.17709L20.6397 9.94766Z"
        fill="#313A62"
    />
    <path
        d="M20.7667 12.5659L19.5918 13.1095L20.6398 9.9469L20.7667 12.5659Z"
        fill="#313A62"
    />
</svg>
