<svg viewBox="0 0 24 24" fill="none" xmlns="http://www.w3.org/2000/svg">
    <path
        d="M12 22C17.5228 22 22 17.5228 22 12C22 6.47715 17.5228 2 12 2C6.47715 2 2 6.47715 2 12C2 17.5228 6.47715 22 12 22Z"
        fill="#96B73D"
    />
    <path
        d="M9.24611 12.0657C9.29986 12.2269 9.37923 12.3782 9.48173 12.5144L7.92361 10.9407C7.76125 10.7769 7.67015 10.5556 7.67015 10.325C7.67015 10.0944 7.76125 9.87317 7.92361 9.70941L9.88923 7.74254C9.92986 7.71254 9.96861 7.68004 10.0061 7.64629L10.063 7.59629L11.6549 6.00316C11.7349 5.92276 11.8301 5.859 11.9349 5.81556C12.0397 5.77211 12.1521 5.74983 12.2656 5.75C12.379 5.75018 12.4913 5.7728 12.596 5.81657C12.7007 5.86034 12.7957 5.92439 12.8755 6.00504L18.0899 11.2569C18.2087 11.4258 18.2644 11.6311 18.2471 11.8369C18.2299 12.0426 18.1408 12.2358 17.9955 12.3825C17.852 12.5272 17.6633 12.6182 17.4608 12.6404C17.2583 12.6626 17.0543 12.6146 16.883 12.5044L12.2767 7.85441L12.2717 7.84816L12.2567 7.83191L9.79236 10.2969L9.75486 10.3282C9.75343 10.3299 9.75197 10.3315 9.75048 10.3332L12.1855 12.7875C12.2927 12.8959 12.3697 13.0304 12.4089 13.1776C12.4481 13.3249 12.4482 13.4799 12.409 13.6272C12.3698 13.7745 12.2928 13.909 12.1857 14.0174C12.0785 14.1258 11.9448 14.2042 11.798 14.245C11.6512 14.2846 11.4965 14.2845 11.3497 14.2449C11.203 14.2053 11.0693 14.1275 10.9624 14.0194L9.71486 12.7632C9.69673 12.7469 9.67861 12.7257 9.65611 12.7032L9.59861 12.6457C9.5568 12.5986 9.51777 12.5491 9.48173 12.4975L9.50986 12.5307L9.49111 12.5063C9.38641 12.3735 9.30369 12.2247 9.24611 12.0657ZM14.3374 13.6738L11.8992 11.2182C11.7369 11.0544 11.6458 10.8331 11.6458 10.6025C11.6458 10.3719 11.7369 10.1507 11.8992 9.98691C11.9795 9.90642 12.0748 9.84261 12.1798 9.79914C12.2848 9.75567 12.3974 9.73341 12.511 9.73364C12.6246 9.73388 12.7371 9.75659 12.8419 9.80049C12.9467 9.84439 13.0418 9.90859 13.1217 9.98941L14.3699 11.2457C14.3874 11.2613 14.4055 11.2832 14.4286 11.305L14.4855 11.3625C14.518 11.3988 14.548 11.4375 14.5755 11.4769L14.5892 11.4938C14.5717 11.4687 14.5538 11.4439 14.5355 11.4194L16.1667 13.0613C16.3293 13.2252 16.4206 13.4467 16.4206 13.6775C16.4206 13.9084 16.3293 14.1299 16.1667 14.2938L14.1999 16.2613C14.1587 16.2907 14.119 16.3222 14.0811 16.3557L12.4411 17.9957C12.3612 18.0763 12.266 18.1403 12.1612 18.1839C12.0564 18.2276 11.944 18.2501 11.8305 18.2501C11.7169 18.2501 11.6045 18.2276 11.4997 18.1839C11.3949 18.1403 11.2998 18.0763 11.2199 17.9957L5.92173 12.6538C5.79264 12.4786 5.73302 12.2619 5.75437 12.0453C5.77573 11.8288 5.87654 11.6279 6.03736 11.4813C6.19766 11.3355 6.40688 11.2552 6.62358 11.2564C6.84027 11.2575 7.04862 11.34 7.20736 11.4875L11.8224 16.1469L11.838 16.1657L14.2974 13.7069L14.3336 13.6775C14.3348 13.6763 14.3361 13.675 14.3374 13.6738Z"
        fill="white"
    />
</svg>
