<svg viewBox="0 0 24 24" fill="none" xmlns="http://www.w3.org/2000/svg">
    <path
        d="M22.3067 11.4525C22.2703 10.775 22.1664 10.1153 22.0014 9.48028C21.9031 9.10056 21.7828 8.72972 21.642 8.36917C20.9348 6.55444 19.7125 4.99694 18.155 3.87694C17.1342 3.14222 15.9692 2.59556 14.7106 2.28722C13.945 2.09944 13.145 2 12.3217 2C11.4984 2 10.6984 2.09944 9.93283 2.28722C8.67422 2.59556 7.50922 3.1425 6.48838 3.87694C4.93088 4.99722 3.70866 6.55444 3.00144 8.36917C2.86088 8.72972 2.74033 9.10056 2.64199 9.48028C2.47699 10.1153 2.3731 10.775 2.33672 11.4525C2.32672 11.6339 2.32172 11.8164 2.32172 12C2.32172 12.1892 2.32699 12.3769 2.33755 12.5636C2.37394 13.2214 2.47394 13.8625 2.63172 14.4803C2.72866 14.8597 2.84727 15.2306 2.98644 15.5914C3.69116 17.4231 4.91949 18.9947 6.48838 20.1231C7.50922 20.8575 8.67422 21.4044 9.93283 21.7128C10.6984 21.9006 11.4984 22 12.3217 22C13.145 22 13.945 21.9006 14.7106 21.7128C15.9692 21.4044 17.1342 20.8578 18.155 20.1231C19.7239 18.9947 20.9523 17.4231 21.6573 15.5914C21.7964 15.2306 21.9148 14.8597 22.0117 14.4803C22.1695 13.8625 22.2695 13.2214 22.3059 12.5636C22.3164 12.3769 22.3217 12.1892 22.3217 12C22.3217 11.8164 22.3167 11.6339 22.3067 11.4525Z"
        fill="#3671FF"
    />
    <path
        d="M9.23785 11.5089L11.8306 8.9161C12.0476 8.69915 12.0476 8.34749 11.8306 8.13054C11.6137 7.9136 11.262 7.9136 11.0451 8.13054L8.4523 10.7233C8.23535 10.9403 8.23535 11.2919 8.4523 11.5089C8.66924 11.7258 9.02091 11.7258 9.23785 11.5089Z"
        fill="white"
    />
    <path
        d="M15.3662 12.4517L12.7734 15.0445C12.5564 15.2614 12.5564 15.6131 12.7734 15.83C12.9903 16.047 13.342 16.047 13.5589 15.83L16.1517 13.2372C16.3687 13.0203 16.3687 12.6686 16.1517 12.4517C15.935 12.2347 15.5831 12.2347 15.3662 12.4517Z"
        fill="white"
    />
    <path
        d="M15.6609 7.87528L8.19699 15.3392C7.98005 15.5561 7.98005 15.9078 8.19699 16.1247C8.41394 16.3417 8.76561 16.3417 8.98255 16.1247L16.4464 8.66083C16.6634 8.44389 16.6634 8.09222 16.4464 7.87528C16.2295 7.65833 15.8778 7.65833 15.6609 7.87528Z"
        fill="white"
    />
</svg>
