<svg viewBox="0 0 24 24" fill="none" xmlns="http://www.w3.org/2000/svg">
    <path
        d="M8.35508 19.7664H13.3738L17.4299 16.8224L18.9813 12.0561L17.4299 7.28974L13.3738 4.34581H8.35508L4.29901 7.27104L2.74761 12.0374L4.29901 16.8038L8.35508 19.7664ZM13.4579 20.0374H8.26162L8.22424 20.0094L4.05602 16.9813L2.45789 12.0467L4.06536 7.10282L8.26162 4.05609H13.4579L17.6635 7.11217L19.271 12.0561L17.6635 17L13.4579 20.0374Z"
        fill="#2EA6DF"
    />
    <path
        d="M8.84111 4.18688C8.84111 4.52332 8.57009 4.78501 8.24298 4.78501C7.90654 4.78501 7.64485 4.51398 7.64485 4.18688C7.64485 3.85977 7.91588 3.58875 8.24298 3.58875C8.57009 3.58875 8.84111 3.85977 8.84111 4.18688ZM14 4.18688C14 4.52332 13.729 4.78501 13.4019 4.78501C13.0654 4.78501 12.8037 4.51398 12.8037 4.18688C12.8037 3.85977 13.0748 3.58875 13.4019 3.58875C13.729 3.58875 14 3.85977 14 4.18688ZM8.8785 19.813C8.8785 20.1495 8.60747 20.4112 8.28037 20.4112C7.94392 20.4112 7.68224 20.1402 7.68224 19.813C7.68224 19.4859 7.95326 19.2149 8.28037 19.2149C8.60747 19.2056 8.8785 19.4766 8.8785 19.813ZM4.74766 16.9065C4.74766 17.243 4.47663 17.5046 4.14953 17.5046C3.82242 17.5046 3.55139 17.2336 3.55139 16.9065C3.55139 16.5701 3.82242 16.3084 4.14953 16.3084C4.47663 16.3084 4.74766 16.5701 4.74766 16.9065ZM3.2056 12.0467C3.2056 12.3831 2.93457 12.6448 2.60747 12.6448C2.27102 12.6448 2.00934 12.3738 2.00934 12.0467C2.00934 11.7102 2.28037 11.4486 2.60747 11.4486C2.93457 11.4392 3.2056 11.7102 3.2056 12.0467ZM4.74766 7.20557C4.74766 7.54202 4.47663 7.8037 4.14953 7.8037C3.82242 7.8037 3.55139 7.53267 3.55139 7.20557C3.55139 6.86912 3.82242 6.60744 4.14953 6.60744C4.47663 6.60744 4.74766 6.86912 4.74766 7.20557ZM18.514 12.0373C18.514 12.3738 18.785 12.6355 19.1121 12.6355C19.4392 12.6355 19.7103 12.3644 19.7103 12.0373C19.7103 11.7102 19.4392 11.4392 19.1121 11.4392C18.785 11.4392 18.514 11.7009 18.514 12.0373ZM16.972 7.19622C16.972 7.53267 17.243 7.79435 17.5701 7.79435C17.9065 7.79435 18.1682 7.52333 18.1682 7.19622C18.1682 6.85977 17.8972 6.59809 17.5701 6.59809C17.2336 6.59809 16.972 6.85977 16.972 7.19622ZM14.0467 19.813C14.0467 20.1495 13.7757 20.4112 13.4486 20.4112C13.1215 20.4112 12.8505 20.1402 12.8505 19.813C12.8505 19.4859 13.1215 19.2149 13.4486 19.2149C13.7757 19.2149 14.0467 19.4766 14.0467 19.813Z"
        fill="#2EA6DF"
    />
    <path
        d="M7.68228 15.5887L7.72901 15.6074L11.0842 16.7383L14.8785 15.5981L17.4393 16.6915V7.40182L14.8785 8.49528L11.0842 7.35509L7.68228 8.48594L7.63555 8.47659L4.28976 7.39248V16.6822L7.68228 15.5887ZM17.7103 17.0841L14.8599 15.8691L11.0842 17.0093L7.69163 15.8691L4.02808 17.056V7.01865L7.69163 8.20556L11.0842 7.06537L11.1215 7.07472L14.8599 8.19622L17.7103 6.98126V17.0841Z"
        fill="#2EA6DF"
    />
    <path
        d="M2.59814 12.2972V11.9101L19.1215 11.8972V12.2714L2.59814 12.2972Z"
        fill="#2EA6DF"
    />
    <path
        d="M11.2336 7.22427L13.2055 11.6635L14.7102 8.33642L13.355 4.46726L11.2336 7.22427ZM7.82234 8.32708L9.14944 11.6729L10.9158 7.23362L8.33636 4.4953L7.82234 8.32708ZM4.33636 12.0467L7.62608 15.486L8.99056 12.0467L7.62608 8.59811L4.33636 12.0467ZM9.29897 12.0467L11.084 16.514L13.056 12L11.084 7.56072L9.29897 12.0467ZM7.82234 15.7476L8.37374 19.514L10.9158 16.8411L9.14944 12.4205L7.82234 15.7476ZM11.2336 16.8504L13.3924 19.5327L14.7102 15.7383L13.2055 12.3458L11.2336 16.8504ZM8.18682 20.1121L7.55131 15.7944L3.96252 12.0467L7.55131 8.28035L8.14009 3.87848L11.0653 6.99063L13.4485 3.89717L15.0093 8.35511L13.355 12L15.0093 15.7196L13.4952 20.0841L11.0653 17.0747L8.18682 20.1121Z"
        fill="#2EA6DF"
    />
    <path
        d="M14.972 15.813L14.7477 15.6448L17.4019 12.0467L14.7477 8.42985L14.972 8.26163L17.7383 12.0467L14.972 15.813ZM7.03741 8.34574C7.03741 8.68219 7.30844 8.94387 7.63555 8.94387C7.97199 8.94387 8.23368 8.67284 8.23368 8.34574C8.23368 8.01864 7.96265 7.74761 7.63555 7.74761C7.30844 7.74761 7.03741 8.00929 7.03741 8.34574ZM10.4767 7.20555C10.4767 7.542 10.7477 7.80368 11.0748 7.80368C11.4112 7.80368 11.6729 7.53266 11.6729 7.20555C11.6729 6.8691 11.4019 6.60742 11.0748 6.60742C10.7383 6.60742 10.4767 6.8691 10.4767 7.20555Z"
        fill="#2EA6DF"
    />
    <path
        d="M15.2898 7.92523C15.0561 7.69159 14.6729 7.69159 14.4393 7.92523C14.2057 8.15888 14.2057 8.54206 14.4393 8.7757C14.6729 9.00935 15.0561 9.00935 15.2898 8.7757C15.5234 8.53271 15.5234 8.15888 15.2898 7.92523ZM4.74771 12C4.74771 11.6636 4.47669 11.4019 4.14958 11.4019C3.82248 11.4019 3.55145 11.6729 3.55145 12C3.55145 12.3364 3.82248 12.5981 4.14958 12.5981C4.47669 12.5981 4.74771 12.3364 4.74771 12ZM9.63557 12C9.63557 11.6636 9.36454 11.4019 9.03743 11.4019C8.70099 11.4019 8.4393 11.6729 8.4393 12C8.4393 12.3364 8.71033 12.5981 9.03743 12.5981C9.36454 12.5981 9.63557 12.3364 9.63557 12ZM13.7197 12C13.7197 11.6636 13.4486 11.4019 13.1215 11.4019C12.7851 11.4019 12.5234 11.6729 12.5234 12C12.5234 12.3364 12.7944 12.5981 13.1215 12.5981C13.4486 12.5981 13.7197 12.3364 13.7197 12ZM18.1683 12.0467C18.1683 11.7103 17.8972 11.4486 17.5701 11.4486C17.243 11.4486 16.972 11.7196 16.972 12.0467C16.972 12.3832 17.243 12.6449 17.5701 12.6449C17.8972 12.6449 18.1683 12.3738 18.1683 12.0467ZM15.458 15.729C15.458 15.3925 15.187 15.1308 14.8599 15.1308C14.5234 15.1308 14.2617 15.4019 14.2617 15.729C14.2617 16.0561 14.5328 16.3271 14.8599 16.3271C15.1963 16.3271 15.458 16.0654 15.458 15.729ZM21.9907 18.757C21.9907 18.2897 21.6075 17.9065 21.1402 17.9065C20.6729 17.9065 20.2898 18.2897 20.2898 18.757C20.2898 19.2243 20.6729 19.6075 21.1402 19.6075C21.6075 19.6075 21.9907 19.2243 21.9907 18.757ZM10.8412 16.3271C10.5328 16.4579 10.3926 16.8131 10.5234 17.1121C10.6543 17.4206 11.0094 17.5607 11.3085 17.4299C11.6169 17.2991 11.7571 16.9439 11.6262 16.6449C11.4954 16.3458 11.1496 16.2056 10.8412 16.3271ZM7.40192 15.1776C7.09351 15.3084 6.95332 15.6636 7.08416 15.9626C7.215 16.271 7.57014 16.4112 7.86921 16.2804C8.17762 16.1495 8.31781 15.7944 8.18697 15.4953C8.05613 15.1869 7.71033 15.0467 7.40192 15.1776Z"
        fill="#2EA6DF"
    />
    <path
        d="M21.0747 18.8784L17.4766 17.0186L17.6074 16.7756L21.2055 18.6354L21.0747 18.8784Z"
        fill="#2EA6DF"
    />
</svg>
