<svg viewBox="0 0 24 24" fill="none" xmlns="http://www.w3.org/2000/svg">
    <path
        d="M19.3138 11.9997C19.3147 10.5874 18.9042 9.20543 18.1325 8.02257L21.001 5.15442L18.8457 3L15.9804 5.86816C14.7972 5.09663 13.4151 4.68584 12.0025 4.68584C10.5899 4.68584 9.20788 5.09663 8.02467 5.86816L5.15305 3L2.99902 5.15442L5.8675 8.02257C5.09601 9.2056 4.68525 10.5874 4.68525 11.9997C4.68525 13.412 5.09601 14.7938 5.8675 15.9768L2.99902 18.8462L5.15368 21L8.02215 18.1318C9.20529 18.9033 10.5873 19.314 11.9997 19.314C13.4121 19.314 14.7941 18.9033 15.9772 18.1318L18.8463 21L21.001 18.8462L18.1319 15.9799C18.9043 14.7964 19.315 13.4135 19.3138 12.0003V11.9997ZM7.7331 11.9997C7.7322 11.3634 7.87369 10.735 8.14712 10.1604C8.42058 9.5859 8.81912 9.07978 9.31353 8.6792C9.80791 8.27859 10.3857 7.99366 11.0045 7.84525C11.6233 7.6968 12.2675 7.68869 12.8898 7.82143C13.5122 7.9542 14.097 8.22444 14.6013 8.61244C15.1057 9.00043 15.5168 9.49631 15.8047 10.0638C16.0926 10.6312 16.2499 11.2559 16.265 11.892C16.2802 12.5281 16.1529 13.1595 15.8924 13.7401L13.0773 10.9222L10.922 13.0772L13.7371 15.892C13.088 16.1837 12.376 16.3081 11.6664 16.2537C10.9567 16.1994 10.272 15.9681 9.67486 15.5809C9.07768 15.1938 8.58709 14.6632 8.24789 14.0376C7.90865 13.412 7.73169 12.7113 7.7331 11.9997Z"
        fill="#4CBBFD"
    />
</svg>
