<svg viewBox="0 0 24 24" fill="none" xmlns="http://www.w3.org/2000/svg">
    <path
        d="M18.1301 6.9425C17.7552 4.83835 15.9442 3.39208 13.2625 3.05523C12.8277 3.00062 11.9314 2.98271 11.4405 3.01878C9.06855 3.19313 6.79919 4.18655 5.29927 5.70718C4.1952 6.82645 3.71808 8.1627 4.1688 8.87335C4.36736 9.18649 4.65862 9.31816 5.15302 9.31816C5.4772 9.31816 5.71377 9.24111 5.96012 9.05528C6.28933 8.80692 6.48768 8.52967 7.13512 7.41286C7.86513 6.15354 8.62364 5.517 9.88139 5.10816C10.6533 4.85725 11.5434 4.75708 12.441 4.82015C13.2456 4.87668 13.6816 4.98063 14.201 5.23969C14.5377 5.4076 14.7098 5.53035 14.9516 5.77503C15.6317 6.46296 15.8164 7.54984 15.4421 8.66088C15.1874 9.41709 14.7297 10.1198 14.09 10.7369C13.1149 11.6775 11.866 12.2154 10.7423 12.1787L10.3984 12.1674L10.7366 11.4418C11.4688 9.87074 11.8715 8.8163 11.9071 8.37606C11.925 8.15622 11.9163 8.09945 11.8387 7.93005C11.7658 7.77085 11.7216 7.72225 11.5927 7.65985C11.245 7.49151 10.9346 7.60623 10.4646 8.07673C10.092 8.44968 9.86493 8.73553 9.45025 9.35355C8.87993 10.2036 8.43874 10.9647 7.18315 13.2647C6.84308 13.8876 6.17281 15.114 5.69367 15.9901C4.6205 17.9522 4.50264 18.1859 4.4338 18.4885C4.32223 18.9791 4.38095 19.4635 4.58645 19.7472C4.9175 20.2041 5.65031 20.3131 6.19043 19.9856C6.43536 19.8371 6.81603 19.4361 7.06613 19.0632C7.48333 18.4411 8.01322 17.1804 8.79676 14.9459C8.93469 14.5526 9.12058 14.0856 9.15229 14.0528C9.16613 14.0385 9.26952 14.3013 9.38208 14.6368C10.152 16.9314 11.1113 18.5441 12.1835 19.3464C12.7491 19.7695 13.2673 19.9453 13.9424 19.943C15.3862 19.9381 16.9502 19.1839 18.3913 17.7976C18.8998 17.3084 19.1612 16.8101 19.1309 16.3878C19.0896 15.8121 18.4508 15.6723 17.9861 16.1374C17.9094 16.2141 17.7247 16.4126 17.5757 16.5785C17.2308 16.9623 16.7884 17.2954 16.2716 17.5604C15.5348 17.9381 15.0993 18.0389 14.2931 18.0184C13.8473 18.0071 13.7543 17.9945 13.6162 17.9267C12.8771 17.5637 12.0514 16.2415 11.6126 14.718C11.545 14.4832 11.4806 14.225 11.4695 14.1441L11.4493 13.9971L11.6571 13.9566C13.0016 13.695 14.7273 12.8842 15.8646 11.98C16.232 11.6878 16.8152 11.1089 17.0663 10.787C17.6199 10.0773 17.9886 9.30793 18.1285 8.57105C18.1995 8.19643 18.2004 7.33705 18.1301 6.9425Z"
        fill="#681BFF"
    />
</svg>
