<svg viewBox="0 0 24 24" fill="none" xmlns="http://www.w3.org/2000/svg">
    <path
        d="M9.23633 6.09089C9.96435 6.09089 10.5545 5.50072 10.5545 4.77271C10.5545 4.0447 9.96435 3.45453 9.23633 3.45453C8.50832 3.45453 7.91815 4.0447 7.91815 4.77271C7.91815 5.50072 8.50832 6.09089 9.23633 6.09089Z"
        fill="#8352A1"
    />
    <path
        d="M15.1453 20.4545C15.8733 20.4545 16.4635 19.8644 16.4635 19.1364C16.4635 18.4083 15.8733 17.8182 15.1453 17.8182C14.4173 17.8182 13.8271 18.4083 13.8271 19.1364C13.8271 19.8644 14.4173 20.4545 15.1453 20.4545Z"
        fill="#3E99D3"
    />
    <path
        d="M14.5596 3.77233L8.45194 8.49114C7.91717 8.90431 7.81859 9.67278 8.23176 10.2076C8.64493 10.7423 9.4134 10.8409 9.94818 10.4277L16.0558 5.70893C16.5906 5.29576 16.6892 4.52729 16.276 3.99251C15.8628 3.45773 15.0944 3.35915 14.5596 3.77233Z"
        fill="#E53C54"
    />
    <path
        d="M14.5591 8.5905L8.45145 13.3093C7.91668 13.7225 7.8181 14.491 8.23127 15.0257C8.64445 15.5605 9.41291 15.6591 9.94769 15.2459L16.0553 10.5271C16.5901 10.1139 16.6887 9.34546 16.2755 8.81069C15.8623 8.27591 15.0939 8.17733 14.5591 8.5905Z"
        fill="#F49352"
    />
    <path
        d="M8.36106 18.3097L14.4687 13.5909C15.0035 13.1778 15.7719 13.2763 16.1851 13.8111C16.5983 14.3459 16.4997 15.1144 15.9649 15.5275L9.8573 20.2463C9.32252 20.6595 8.55405 20.5609 8.14088 20.0262C7.72771 19.4914 7.82628 18.7229 8.36106 18.3097Z"
        fill="#3EBB90"
    />
</svg>
