<svg viewBox="0 0 24 24" fill="none" xmlns="http://www.w3.org/2000/svg">
    <path
        d="M12 22C17.5228 22 22 17.5228 22 12C22 6.47715 17.5228 2 12 2C6.47715 2 2 6.47715 2 12C2 17.5228 6.47715 22 12 22Z"
        fill="#5546FF"
    />
    <path
        d="M16.0802 17.2692L13.9275 13.89H17.0189V12.6134H6.88118V13.89H9.97254L7.81985 17.2692H9.42186L11.95 13.3017L14.4782 17.2692H16.0802ZM17.0189 11.3743V10.0977H13.9901L16.1177 6.75606H14.5032L11.95 10.7861L9.39682 6.75606H7.78231L9.90997 10.0977H6.88118V11.3868L17.0189 11.3743Z"
        fill="white"
    />
</svg>
