<svg viewBox="0 0 24 24" fill="none" xmlns="http://www.w3.org/2000/svg">
    <path
        d="M12 22C17.5228 22 22 17.5228 22 12C22 6.47715 17.5228 2 12 2C6.47715 2 2 6.47715 2 12C2 17.5228 6.47715 22 12 22Z"
        fill="#01AEF0"
    />
    <path
        fill-rule="evenodd"
        clip-rule="evenodd"
        d="M15.1681 13.8062C15.16 15.1025 14.4112 16.2062 13.2169 16.6593C12.9369 16.7656 12.6456 16.8437 12.3556 16.9162C12.1825 16.96 12.0881 17.0456 12.0744 17.235C12.0569 17.4737 12.0325 17.7118 11.9994 17.9475C11.9594 18.2262 11.8637 18.29 11.6075 18.2287C11.1662 18.1237 11.1187 18.0525 11.1775 17.5893C11.1825 17.55 11.1881 17.5106 11.1925 17.4706C11.2362 17.0912 11.1825 17.0368 10.8194 17.055C10.6562 17.0631 10.5881 17.1437 10.5725 17.3037C10.5512 17.5337 10.5287 17.7643 10.4912 17.9912C10.4537 18.2237 10.3562 18.2812 10.1325 18.2325C9.65499 18.1293 9.61999 18.0762 9.68249 17.5712C9.76124 16.9443 9.75936 16.9512 9.18061 16.7768C8.92436 16.6993 8.67561 16.5918 8.42499 16.4925C8.27249 16.4325 8.22249 16.3187 8.26374 16.1493C8.31624 15.9337 8.35249 15.7131 8.39749 15.495C8.47499 15.1231 8.65499 15.0106 8.99874 15.1456C9.60749 15.385 10.2325 15.5325 10.8831 15.5481C11.47 15.5625 12.0506 15.5237 12.5862 15.2356C12.94 15.045 13.2 14.7656 13.3306 14.365C13.5244 13.77 13.3506 13.2887 12.7931 13.0493C12.3337 12.8525 11.8406 12.7431 11.3775 12.5543C10.9662 12.3868 10.5387 12.2193 10.1837 11.9562C9.38561 11.3662 9.24624 10.4937 9.42124 9.56183C9.61999 8.51121 10.2631 7.82996 11.2175 7.46808C11.4719 7.37246 11.5869 7.23871 11.5912 6.95308C11.595 6.64371 11.6444 6.33433 11.6819 6.02621C11.7106 5.78933 11.8031 5.72308 12.0244 5.75933C12.4944 5.83621 12.5506 5.91058 12.5044 6.39871C12.4862 6.58933 12.4706 6.77996 12.4481 6.96933C12.4294 7.12871 12.48 7.20183 12.6469 7.20683C13.0275 7.21808 13.0437 7.21121 13.0887 6.81746C13.1175 6.56433 13.1387 6.31058 13.1731 6.05808C13.2106 5.77808 13.3012 5.71433 13.5594 5.76683C13.9937 5.85621 14.0419 5.92246 13.9994 6.37496C13.9806 6.57308 13.9712 6.77308 13.9369 6.96871C13.8975 7.19371 13.9662 7.29808 14.19 7.34996C14.6156 7.44871 15.0369 7.57371 15.455 7.70371C15.7694 7.80121 15.7819 7.83683 15.7212 8.16371C15.6856 8.35933 15.65 8.55558 15.6037 8.74871C15.5175 9.11246 15.3362 9.22058 14.99 9.10433C14.3975 8.90433 13.8025 8.72371 13.1744 8.69683C12.6244 8.67371 12.0819 8.68183 11.6044 9.02746C10.9319 9.51371 10.9281 10.5025 11.6431 10.9187C12.0981 11.1837 12.6237 11.3187 13.1169 11.5137C13.4175 11.6325 13.7262 11.735 14.015 11.8787C14.7887 12.265 15.1769 12.9106 15.1681 13.8068"
        fill="white"
    />
</svg>
