<svg viewBox="0 0 24 24" fill="none" xmlns="http://www.w3.org/2000/svg">
    <path
        d="M12 22C17.5228 22 22 17.5228 22 12C22 6.47715 17.5228 2 12 2C6.47715 2 2 6.47715 2 12C2 17.5228 6.47715 22 12 22Z"
        fill="#5B6DEE"
    />
    <path
        d="M10.3125 11.3867C9.96381 11.385 9.61569 11.4151 9.2725 11.4767C9.555 8.86425 11.7325 6.8855 14.325 6.8855C15.9125 6.8855 17 7.663 17 9.27175C17 10.8811 15.6944 11.6586 13.79 11.6586C12.3837 11.6586 11.7188 11.3874 10.3125 11.3874V11.3867ZM10.21 12.3399C8.30562 12.3399 7 13.118 7 14.7267C7 16.3355 8.0875 17.113 9.675 17.113C12.2675 17.113 14.445 15.1349 14.7275 12.5217C14.3843 12.5834 14.0362 12.6135 13.6875 12.6117C12.2813 12.6117 11.6156 12.3399 10.21 12.3399Z"
        fill="white"
    />
</svg>
