<svg viewBox="0 0 24 24" fill="none" xmlns="http://www.w3.org/2000/svg">
    <path
        d="M19.1772 5.81433L16.769 7.04128L5.14013 12.9644C5.1008 12.6645 5.08102 12.3624 5.08089 12.0599C5.08248 10.853 5.39935 9.66745 6.0001 8.6207C6.60086 7.57395 7.46465 6.7023 8.50593 6.0921C9.54721 5.48191 10.7298 5.15433 11.9367 5.14182C13.1435 5.12932 14.3327 5.43231 15.3864 6.0208L16.7648 5.31848L16.9704 5.21356C15.7077 4.29706 14.2162 3.74754 12.6607 3.62572C11.1052 3.5039 9.54629 3.81452 8.1563 4.52327C6.76631 5.23201 5.59934 6.31127 4.78437 7.64176C3.9694 8.97226 3.53817 10.5022 3.53833 12.0624C3.53833 12.2779 3.54651 12.4926 3.56287 12.7064C3.58578 13.0091 3.51863 13.3119 3.36988 13.5766C3.22112 13.8413 2.99739 14.0561 2.72686 14.1939L2 14.5645V16.2933L4.13996 15.2026L4.83297 14.8489L5.51582 14.5011L17.7751 8.25468L19.1526 7.55321L22 6.10203V4.37416L19.1772 5.81433ZM22 7.8316L6.21222 15.8702L4.83466 16.5733L2 18.0178V19.7448L4.8152 18.3105L7.22339 17.0836L18.8641 11.152C18.9035 11.4539 18.9232 11.758 18.9233 12.0624C18.9226 13.2707 18.6058 14.4578 18.0045 15.5058C17.4031 16.5539 16.5381 17.4264 15.4954 18.0368C14.4526 18.6472 13.2683 18.9742 12.06 18.9854C10.8518 18.9966 9.66164 18.6916 8.60772 18.1007L8.5231 18.1455L7.02877 18.9071C8.29119 19.8236 9.7824 20.3733 11.3377 20.4954C12.8929 20.6175 14.4516 20.3073 15.8416 19.599C17.2316 18.8908 18.3988 17.812 19.2141 16.482C20.0294 15.152 20.4612 13.6225 20.4617 12.0624C20.4617 11.845 20.4532 11.6275 20.4371 11.4126C20.4143 11.1099 20.4813 10.8072 20.6299 10.5426C20.7785 10.2779 21.002 10.0631 21.2723 9.92501L22 9.55439V7.8316Z"
        fill="black"
    />
</svg>
