<svg viewBox="0 0 24 24" fill="none" xmlns="http://www.w3.org/2000/svg">
    <path
        d="M6.12681 4.05591L21.6632 14.6641L17.8209 20.3441L2.28447 9.65237L6.12681 4.05591Z"
        fill="url(#SushiSwap_a)"
    />
    <path
        d="M21.6632 14.6641C20.3268 16.5853 15.8162 15.8335 11.5562 12.8265C7.21269 9.90293 4.87387 5.97705 6.12681 4.05588C7.46328 2.13471 11.9739 2.88647 16.2338 5.89352C20.5774 8.73352 22.9162 12.7429 21.6632 14.6641Z"
        fill="url(#SushiSwap_b)"
    />
    <path
        d="M17.8209 20.2606C16.4844 22.1817 11.9739 21.43 7.71387 18.4229C3.45388 15.4159 1.03153 11.5735 2.368 9.56882C3.70446 7.64765 8.21504 8.39941 12.475 11.4065C16.735 14.4135 19.0738 18.3394 17.8209 20.2606Z"
        fill="url(#SushiSwap_c)"
    />
    <path
        d="M21.6632 14.6641L17.8209 20.3441C16.4844 22.2652 11.9739 21.43 7.71386 18.5064C6.87857 17.9217 6.12681 17.337 5.37504 16.6688C5.95975 16.5853 6.71151 16.2511 7.46327 15.4158C8.79974 13.9959 9.46798 13.6617 10.0527 13.7453C10.6374 13.7453 11.3056 14.33 12.3915 15.75C13.4774 17.17 14.9809 17.5876 15.8997 16.8358C15.9833 16.7523 16.0668 16.7523 16.1503 16.6688C16.9021 16.0841 17.1527 15.8335 18.5727 13.1606C18.9068 12.4923 20.0762 11.4064 21.6632 11.9076C22.0809 12.9935 22.0809 13.9123 21.6632 14.6641Z"
        fill="#0E0F23"
    />
    <path
        fill-rule="evenodd"
        clip-rule="evenodd"
        d="M21.0785 14.33C19.9091 16.0006 15.8162 15.1653 11.8903 12.4088C7.88092 9.65237 5.5421 6.14414 6.71151 4.47355C7.88092 2.80297 11.9739 3.63826 15.8997 6.39473C19.8256 9.15119 22.1644 12.6594 21.0785 14.33ZM17.4033 11.8241C16.8185 12.6594 14.8138 12.2418 12.8091 10.9053C10.888 9.56884 9.71857 7.81472 10.3033 6.97943C10.888 6.14414 12.8927 6.56178 14.8974 7.89825C16.8185 9.23472 17.988 10.9888 17.4033 11.8241Z"
        fill="white"
    />
    <path
        d="M5.79269 5.97714C5.79269 5.89361 5.70916 5.81008 5.62563 5.89361C5.5421 5.97714 5.45857 5.97714 5.45857 6.06067C5.5421 6.31125 5.62563 6.47831 5.62563 6.64537C5.62563 6.7289 5.70916 6.81243 5.79269 6.7289C5.87622 6.7289 5.95975 6.64537 5.87622 6.56184C5.87622 6.39478 5.87622 6.22772 5.79269 5.97714Z"
        fill="white"
    />
    <path
        d="M6.21034 7.31356C6.21034 7.23003 6.12681 7.1465 6.04328 7.23003C5.95975 7.31356 5.95975 7.31356 5.95975 7.39709C6.87857 9.48532 8.79974 11.7406 11.3056 13.4112C11.3892 13.4947 11.4727 13.4112 11.5562 13.4112C11.6397 13.3277 11.5562 13.2441 11.5562 13.1606C8.9668 11.49 7.12916 9.31826 6.21034 7.31356Z"
        fill="white"
    />
    <path
        d="M16.3174 15.4994C16.2338 15.4994 16.1503 15.4994 16.1503 15.5829C16.1503 15.6664 16.1503 15.75 16.2338 15.75C16.4844 15.8335 16.8186 15.917 17.0691 16.0006C17.1527 16.0006 17.2362 16.0006 17.2362 15.917C17.2362 15.8335 17.2362 15.75 17.1527 15.75C16.9021 15.6664 16.568 15.5829 16.3174 15.4994Z"
        fill="white"
    />
    <path
        d="M17.8209 15.8335C17.7374 15.8335 17.6538 15.917 17.6538 16.0006C17.6538 16.0841 17.7374 16.1676 17.8209 16.1676C18.4891 16.2511 19.2409 16.3347 19.8256 16.2511C19.9091 16.2511 19.9927 16.1676 19.9927 16.0841C19.9927 16.0006 19.9091 15.917 19.8256 15.917C19.1574 16.0006 18.4891 15.917 17.8209 15.8335Z"
        fill="white"
    />
    <defs>
        <linearGradient
            id="SushiSwap_a"
            x1="9.17078"
            y1="2.54762"
            x2="12.2518"
            y2="13.1276"
            gradientUnits="userSpaceOnUse"
        >
            <stop stop-color="#03B8FF" />
            <stop offset="1" stop-color="#FA52A0" />
        </linearGradient>
        <linearGradient
            id="SushiSwap_b"
            x1="11.7081"
            y1="1.80861"
            x2="14.7892"
            y2="12.3887"
            gradientUnits="userSpaceOnUse"
        >
            <stop stop-color="#03B8FF" />
            <stop offset="1" stop-color="#FA52A0" />
        </linearGradient>
        <linearGradient
            id="SushiSwap_c"
            x1="6.64135"
            y1="3.28417"
            x2="9.72249"
            y2="13.8642"
            gradientUnits="userSpaceOnUse"
        >
            <stop stop-color="#03B8FF" />
            <stop offset="1" stop-color="#FA52A0" />
        </linearGradient>
    </defs>
</svg>
