<svg viewBox="0 0 24 24" fill="none" xmlns="http://www.w3.org/2000/svg">
    <path
        fill-rule="evenodd"
        clip-rule="evenodd"
        d="M7.4472 10.2455C7.28075 10.0802 7.18713 9.85534 7.18713 9.62076C7.18713 9.38617 7.28075 9.16129 7.4472 8.99599L12.4137 4.01897C12.7622 3.67735 13.32 3.67735 13.6685 4.01897C14.0101 4.36748 14.0101 4.92525 13.6685 5.27377L8.69673 10.2455C8.53144 10.412 8.30655 10.5056 8.07197 10.5056C7.83738 10.5056 7.6125 10.412 7.4472 10.2455Z"
        fill="#242328"
    />
    <path
        fill-rule="evenodd"
        clip-rule="evenodd"
        d="M16.4205 13.625C16.5873 13.7912 16.681 14.017 16.681 14.2524C16.681 14.4879 16.5873 14.7136 16.4205 14.8798L11.454 19.8516C11.2329 20.086 10.9021 20.1818 10.5899 20.1019C10.2778 20.022 10.0337 19.7789 9.95252 19.4672C9.87129 19.1554 9.96575 18.8241 10.1992 18.6021L15.1709 13.625C15.5165 13.2812 16.0749 13.2812 16.4205 13.625ZM7.12547 14.6795C6.78386 14.331 6.78386 13.7732 7.12547 13.4247L10.2888 10.2614C10.4541 10.0949 10.679 10.0013 10.9136 10.0013C11.1482 10.0013 11.3731 10.0949 11.5384 10.2614C11.88 10.6099 11.88 11.1676 11.5384 11.5162L8.375 14.6795C8.02946 15.0234 7.47102 15.0234 7.12547 14.6795Z"
        fill="#242328"
    />
    <path
        fill-rule="evenodd"
        clip-rule="evenodd"
        d="M16.7421 9.18594C17.086 9.53148 17.086 10.0899 16.7421 10.4355L13.5788 13.5988C13.3567 13.8323 13.0254 13.9267 12.7137 13.8455C12.4019 13.7643 12.1588 13.5202 12.0789 13.2081C11.999 12.896 12.0949 12.5651 12.3292 12.344L15.4926 9.18066C15.6579 9.01421 15.8828 8.92059 16.1174 8.92059C16.3519 8.92059 16.5768 9.01421 16.7421 9.18066"
        fill="#A573FF"
    />
</svg>
