<svg viewBox="0 0 24 24" fill="none" xmlns="http://www.w3.org/2000/svg">
    <g clip-path="url(#Syscoin_a)">
        <path
            fill-rule="evenodd"
            clip-rule="evenodd"
            d="M19.9829 9.20159C19.0001 8.26835 17.6124 7.49094 15.8117 6.99733H15.8013C11.5166 5.82729 9.99001 8.59481 13.4594 10.3394C17.3981 12.3173 17.9454 15.5567 15.7224 17.5825C15.156 18.0979 13.3155 19.0624 11.6224 19.294C8.93357 19.6683 5.94985 19.0946 3.52472 18.3216C4.84374 19.3499 6.3511 20.1083 7.96126 20.5537C11.7421 21.5984 16.3087 20.8288 19.3349 18.1884C22.3828 15.5253 22.6743 11.7506 19.9829 9.20159ZM15.8135 6.9982L15.8525 7.00951L15.8135 6.9982Z"
            fill="#008DD0"
        />
        <path
            fill-rule="evenodd"
            clip-rule="evenodd"
            d="M7.57507 2.95871C9.66186 2.105 11.9353 1.81563 14.1683 2.11947C16.4014 2.42331 18.5159 3.30973 20.301 4.69026C15.7733 3.24513 12.2605 3.37049 9.95597 4.30112L9.92214 4.31505C7.07634 5.48334 6.09015 7.87477 7.32874 10.0372C7.99574 11.2029 9.17188 12.0744 10.3645 12.6724C13.5182 14.2577 12.5485 16.6857 9.13371 16.2417C8.75472 16.191 8.3797 16.1139 8.01135 16.011C1.3058 14.1733 0.324818 8.45805 4.48987 4.82346C5.40931 4.0361 6.45166 3.40609 7.57507 2.95871Z"
            fill="#008DD0"
        />
    </g>
    <defs>
        <clipPath id="Syscoin_a">
            <rect
                width="19.8261"
                height="19"
                fill="white"
                transform="translate(2 2)"
            />
        </clipPath>
    </defs>
</svg>
