<svg viewBox="0 0 24 24" fill="none" xmlns="http://www.w3.org/2000/svg">
    <circle cx="12" cy="12" r="10" fill="#302C2C" />
    <path
        fill-rule="evenodd"
        clip-rule="evenodd"
        d="M18.7767 11.8915C18.7422 11.8214 18.6966 11.7575 18.6415 11.7022C17.4456 10.3431 15.0117 7.66663 15.0117 7.66663L11.9201 11.0599L8.78885 7.6988C8.78885 7.6988 6.32661 10.3986 5.12002 11.7722C4.96283 11.9274 4.96283 12.2076 5.10367 12.3729C5.73055 13.0897 8.80959 16.4968 8.80959 16.4968L11.9157 13.0808L15.0004 16.5L18.7208 12.3697C18.7208 12.3697 18.7994 12.2877 18.8163 12.2328C18.8528 12.1193 18.8264 11.9956 18.7767 11.8915ZM6.83527 12.2694C6.73467 12.1502 6.76862 11.9628 6.86231 11.8499C7.25591 11.4 8.83096 9.70462 8.83096 9.70462L11.0253 12.0423L8.82719 14.4551C8.82719 14.4551 7.48164 13.014 6.83527 12.2694ZM16.727 12.5729C16.7877 12.5037 16.8416 12.4286 16.8879 12.3489L16.8873 12.3483C16.9558 12.2089 16.9891 12.041 16.937 11.8902C16.9171 11.8278 16.8757 11.7783 16.8349 11.7295C16.8254 11.7181 16.816 11.7067 16.8068 11.6953C16.2353 10.9981 14.9878 9.70147 14.9878 9.70147L12.8223 12.0833L15.023 14.4311L16.727 12.5729Z"
        fill="white"
    />
</svg>
