<svg viewBox="0 0 24 24" fill="none" xmlns="http://www.w3.org/2000/svg">
    <path
        fill-rule="evenodd"
        clip-rule="evenodd"
        d="M10.8364 17.9417C11.3671 19.9661 13.2718 21.5109 14.2333 21.4476C14.2668 21.4453 17.8818 20.7507 19.8604 17.3424C21.4006 14.6905 20.8761 12.1301 18.7815 12.0744C18.0282 12.1308 9.82459 14.0843 10.8364 17.9417ZM12.6557 2.69963C11.2916 2.69963 9.99691 2.99243 8.82573 3.51473C8.62081 3.60062 8.4212 3.69865 8.22794 3.80829C8.09527 3.8792 7.9626 3.94935 7.8345 4.0256L7.865 4.03551C7.4769 4.30467 7.14293 4.61805 6.86919 4.98099C4.16008 8.56772 13.2398 11.1747 18.0937 11.1838C20.3278 12.7904 20.9546 6.65922 18.7724 4.95735C17.0698 3.49628 14.8992 2.6951 12.6557 2.69963Z"
        fill="#0E3CA5"
    />
    <path
        fill-rule="evenodd"
        clip-rule="evenodd"
        d="M9.24352 4.80262C8.01592 6.6059 3.92594 7.87696 3.25343 7.67871L3.25038 7.67109L3.33425 7.50868C4.03693 6.19018 5.03481 5.05191 6.25 4.18272C6.50162 4.00201 6.76239 3.8335 7.03155 3.67643C7.60265 3.35237 8.18976 3.33255 8.38267 3.32492C10.2035 3.35847 9.25267 4.78813 9.24275 4.80262"
        fill="#5493F7"
    />
    <mask
        id="Terra_a"
        style="mask-type:alpha"
        maskUnits="userSpaceOnUse"
        x="2"
        y="8"
        width="7"
        height="14"
    >
        <path d="M2 8.94943H8.25009V21.4489H2V8.94943Z" fill="white" />
    </mask>
    <g mask="url(#Terra_a)">
        <path
            fill-rule="evenodd"
            clip-rule="evenodd"
            d="M8.21349 18.3158C8.30499 18.9083 8.2112 21.2498 8.08768 21.4473C7.98246 21.4534 7.76134 21.4672 7.12314 21.1134C5.8848 20.4157 4.80656 19.466 3.95806 18.3257C3.33734 17.4905 2.8511 16.5633 2.51696 15.5777C2.173 14.5583 1.99837 13.4893 2 12.4134C1.99809 11.2307 2.20937 10.0572 2.62371 8.94943H2.62524C3.35722 9.9094 4.20358 10.7779 4.9226 11.7478C5.60808 12.6704 6.55051 14.1747 6.74189 14.4965C7.9329 16.4919 8.12276 17.7234 8.21349 18.3158Z"
            fill="#5493F7"
        />
    </g>
    <path
        fill-rule="evenodd"
        clip-rule="evenodd"
        d="M22.0001 12.5243C22.0001 13.8045 21.7561 15.0283 21.3146 16.1507C20.1556 17.4011 12.3386 14.3237 12.2616 14.2902C11.1926 13.8205 7.9383 12.3901 7.64474 10.1438C7.22232 6.91238 13.7583 4.66 16.6306 4.5746C16.9745 4.57841 18.0229 4.59061 18.6337 5.08928C19.6927 6.01651 20.5411 7.15967 21.1217 8.44194C21.7024 9.72421 22.0018 11.1159 22.0001 12.5235V12.5243ZM15.1644 20.5174C15.6318 18.8628 19.7187 17.167 20.6207 17.0755C20.732 17.0641 20.7793 17.1426 20.7305 17.2326C19.7896 18.9436 18.3965 20.3527 16.7107 21.2662C15.8582 21.6794 14.9204 21.3783 15.1644 20.5174Z"
        fill="#5493F7"
    />
</svg>
