<svg viewBox="0 0 24 24" fill="none" xmlns="http://www.w3.org/2000/svg">
    <path
        fill-rule="evenodd"
        clip-rule="evenodd"
        d="M5.66461 3.38854L2.01636 11.0501C2.00177 11.0779 1.99675 11.1097 2.00206 11.1406C2.00738 11.1715 2.02275 11.1998 2.04578 11.2211L11.894 20.6627C11.9223 20.6882 11.9591 20.7024 11.9973 20.7024C12.0354 20.7024 12.0722 20.6882 12.1005 20.6627L21.9546 11.2211C21.9774 11.1996 21.9926 11.1714 21.9979 11.1405C22.0032 11.1097 21.9983 11.078 21.984 11.0501L18.3358 3.38854C18.3261 3.36189 18.3082 3.33898 18.2848 3.32307C18.2613 3.30717 18.2334 3.29908 18.205 3.29996H5.79404C5.76608 3.30073 5.73891 3.30947 5.71575 3.32516C5.69258 3.34086 5.67439 3.36285 5.66331 3.38854H5.66461Z"
        fill="#50AF95"
    />
    <path
        fill-rule="evenodd"
        clip-rule="evenodd"
        d="M13.2677 11.834C13.1971 11.8399 12.8317 11.8634 12.0182 11.8634C11.37 11.8634 10.9102 11.8457 10.7451 11.834C8.24048 11.7222 6.37223 11.2858 6.37223 10.7671C6.37223 10.2484 8.24048 9.80654 10.7451 9.69476V11.398C10.9085 11.4097 11.3759 11.4391 12.024 11.4391C12.8019 11.4391 13.1909 11.4038 13.2618 11.398V9.69476C15.7606 9.80654 17.6288 10.2429 17.6288 10.7613C17.6288 11.2796 15.7658 11.7222 13.2677 11.834ZM13.2677 9.52382V7.99712H16.7568V5.66933H7.25634V7.99712H10.7451V9.52382C7.91036 9.65456 5.77704 10.2131 5.77704 10.891C5.77704 11.5689 7.91036 12.1229 10.7451 12.2582V17.1442H13.2677V12.2582C16.0965 12.1275 18.2243 11.5686 18.2243 10.8969C18.2243 10.2252 16.0965 9.65325 13.2677 9.52415V9.52382Z"
        fill="white"
    />
</svg>
