<svg viewBox="0 0 24 24" fill="none" xmlns="http://www.w3.org/2000/svg">
    <path
        d="M13.7322 21.9C12.2962 21.9 11.2522 21.556 10.5922 20.868C9.93619 20.18 9.60819 19.44 9.60819 18.644C9.60819 18.352 9.6642 18.108 9.78019 17.912C9.89219 17.716 10.0562 17.552 10.2482 17.444C10.4482 17.328 10.6922 17.272 10.9802 17.272C11.2722 17.272 11.5162 17.328 11.7122 17.444C11.9122 17.56 12.0682 17.716 12.1802 17.912C12.2962 18.112 12.3522 18.356 12.3522 18.644C12.3522 18.996 12.2682 19.28 12.1002 19.504C11.9322 19.724 11.7322 19.872 11.5042 19.94C11.7042 20.216 12.0162 20.408 12.4442 20.524C12.8722 20.648 13.3002 20.708 13.7282 20.708C14.3242 20.708 14.8602 20.548 15.3442 20.228C15.8242 19.908 16.1802 19.432 16.4082 18.808C16.6362 18.18 16.7522 17.472 16.7522 16.676C16.7522 15.812 16.6242 15.076 16.3722 14.464C16.1282 13.844 15.7642 13.388 15.2842 13.088C14.8162 12.796 14.2762 12.64 13.7282 12.64C13.3602 12.64 12.9042 12.792 12.3522 13.1L11.3442 13.604V13.1L15.8802 7.05199H9.60819V13.328C9.60819 13.848 9.7242 14.276 9.95219 14.612C10.1802 14.948 10.5322 15.116 11.0082 15.116C11.3762 15.116 11.7242 14.992 12.0602 14.748C12.4002 14.5 12.6922 14.2 12.9322 13.856C12.9642 13.788 13.0002 13.736 13.0482 13.708C13.0882 13.672 13.1442 13.652 13.1962 13.652C13.2802 13.652 13.3802 13.692 13.4922 13.78C13.6002 13.9 13.6522 14.044 13.6522 14.204C13.6402 14.312 13.6202 14.42 13.5962 14.524C13.3362 15.104 12.9762 15.548 12.5202 15.852C12.0722 16.152 11.5482 16.312 11.0082 16.312C9.64819 16.312 8.70819 16.044 8.18819 15.512C7.6682 14.976 7.4082 14.252 7.4082 13.336V7.05599H4.2002V5.88799H7.4082V3.22799L6.6762 2.49599V1.89999H8.8082L9.60819 2.31199V5.88399L17.9002 5.86399L18.7242 6.68799L13.6402 11.772C13.9482 11.648 14.2722 11.572 14.6042 11.544C15.1522 11.544 15.7722 11.72 16.4602 12.072C17.1562 12.416 17.6882 12.888 18.0642 13.492C18.4402 14.088 18.6802 14.66 18.7842 15.212C18.9002 15.764 18.9562 16.252 18.9562 16.68C18.9562 17.656 18.7482 18.568 18.3362 19.408C17.9242 20.248 17.2962 20.872 16.4562 21.288C15.6162 21.692 14.7082 21.9 13.7322 21.9Z"
        fill="#2C7DF7"
    />
</svg>
