<svg viewBox="0 0 25 24" fill="none" xmlns="http://www.w3.org/2000/svg">
    <path
        d="M14.9081 14.25H14.1471C14.0062 14.25 13.8864 14.1372 13.8864 13.9893V11.9882L12.5547 12.8196C12.442 12.8901 12.3011 12.8901 12.1883 12.8196L10.8637 11.9882V13.9893C10.8637 14.1302 10.751 14.25 10.603 14.25H9.84908C9.70816 14.25 9.58838 14.1372 9.58838 13.9893V10.1281C9.58838 9.93785 9.74339 9.78284 9.93363 9.78284C10.0041 9.78284 10.0675 9.80397 10.1239 9.84625L12.2236 11.2907C12.3081 11.3541 12.4279 11.3541 12.5124 11.2907L14.6121 9.84625C14.7672 9.74056 14.9856 9.78284 15.0913 9.93785C15.1335 9.99422 15.1476 10.0647 15.1547 10.1281V13.9893C15.1617 14.1302 15.049 14.25 14.9081 14.25Z"
        fill="#FF4A4A"
    />
    <path
        d="M8.45398 14.243H3.73319C3.54295 14.243 3.38794 14.088 3.38794 13.8977V10.0154C3.39499 9.86743 3.50772 9.7547 3.65569 9.7547H4.41665C4.55757 9.7547 4.67735 9.86743 4.67735 10.0154V12.9677H7.538V10.0154C7.538 9.87448 7.65074 9.7547 7.7987 9.7547H8.53853C8.67945 9.7547 8.79923 9.86743 8.79923 10.0154V13.8977C8.79923 14.088 8.64422 14.243 8.45398 14.243Z"
        fill="#FF4A4A"
    />
    <path
        d="M16.3031 9.7547H21.0239C21.2142 9.7547 21.3692 9.90971 21.3692 10.1V13.9823C21.3692 14.1232 21.2564 14.243 21.1155 14.243H20.3546C20.2136 14.243 20.0939 14.1302 20.0939 13.9823V11.1991C20.0939 11.1075 20.0164 11.03 19.9248 11.03H17.4094C17.3178 11.03 17.2402 11.1075 17.2402 11.1991V13.9823C17.2402 14.1232 17.1275 14.243 16.9795 14.243H16.2186C16.0777 14.243 15.9579 14.1302 15.9579 13.9823V10.1C15.9579 9.90971 16.1129 9.7547 16.3031 9.7547Z"
        fill="#FF4A4A"
    />
    <path
        d="M18.2831 11.8473H19.037C19.1779 11.8473 19.2977 11.96 19.2977 12.108V12.876C19.2977 13.0169 19.185 13.1367 19.037 13.1367H18.2831C18.1422 13.1367 18.0224 13.024 18.0224 12.876V12.1009C18.0224 11.96 18.1422 11.8473 18.2831 11.8473Z"
        fill="#FF4A4A"
    />
</svg>
