<svg viewBox="0 0 24 24" fill="none" xmlns="http://www.w3.org/2000/svg">
    <path
        d="M20.9865 13.2797C20.9344 12.8651 20.7955 12.5956 20.7086 12.4297C20.1701 11.4139 18.9021 9.27859 18.6762 8.8847C18.6068 8.78104 18.5199 8.61519 18.4504 8.38715C18.3636 8.13838 18.3288 7.8896 18.3115 7.82741C18.2941 7.72375 18.2941 7.72375 18.2767 7.64083C18.2767 7.59937 18.2246 7.30913 18.103 7.06035C17.9988 6.83231 17.8772 6.68719 17.7903 6.5628C17.0608 5.73356 16.0538 5.12804 15.8275 4.42749C15.7977 4.3354 15.7551 4.23635 15.7018 4.13405C15.696 4.12278 15.6368 2.46413 15.6307 2.45279C15.2698 1.78378 14.5249 2.64203 13.9167 2.74826C12.0233 3.07996 10.8224 4.38328 9.17222 5.66862C9.06129 5.76027 8.59691 6.33396 7.81087 7.06035C7.28684 7.54461 6.55873 8.71565 5.62654 10.5735L5.24996 12.2335L4.6209 14.3394C4.63752 14.4625 4.66902 14.8433 4.7154 15.4817C4.836 17.1418 5.63859 18.9681 5.84704 19.8388C6.4029 19.6315 11.019 20.6759 13.1382 21.0698C13.4753 21.1294 13.8685 21.1622 14.317 21.1317C14.4442 21.1231 12.7292 17.7714 9.17222 11.0768C13.1803 17.6937 15.2305 20.9902 15.3228 20.9664C15.896 20.8186 16.5346 20.5649 17.2377 20.1576C16.9134 20.0609 15.2781 17.8436 12.3317 13.5058C12.0044 12.9245 11.8408 12.3617 11.8408 11.8175C11.8408 11.2052 12.0757 10.5244 12.5455 9.7751C12.5652 10.2354 12.614 10.6122 12.6919 10.9054C12.8088 11.3451 14.266 13.135 14.7157 13.3004C15.443 13.568 15.1407 13.1119 16.2525 13.5058C16.4609 13.568 16.7041 13.6716 16.9647 13.9204C17.2947 14.2314 17.6368 14.6238 17.6368 14.6238C17.6889 14.7275 17.7063 14.7689 17.7584 14.8933C17.8279 15.0384 18.2767 15.6431 18.4678 15.8089C18.6589 15.9748 18.8326 16.0577 18.9542 16.0992C19.0584 16.1406 19.1452 16.1614 19.1626 16.1614C19.4058 16.2236 19.6143 16.2028 19.7185 16.2028C19.8373 16.1826 20.3433 15.6564 20.4406 15.5822C20.5164 15.5245 14.9616 11.0961 14.9765 11.0768C14.9984 11.0484 15.6111 10.5623 16.2525 11.5139C18.3408 14.6122 20.4156 15.6237 20.4406 15.5822C20.5197 15.4508 20.575 15.3331 20.6044 15.2699C20.7607 14.9382 20.8128 14.648 20.8997 14.1712C20.9865 13.8395 21.0213 13.5907 20.9865 13.2797ZM16.6773 5.15682C16.7239 5.18404 16.7243 5.0985 16.6952 4.99286C16.666 4.88722 16.5917 3.28548 16.5856 3.27414C16.4195 2.96628 16.1644 2.90267 15.8941 3.09869C15.8673 3.11816 15.8756 3.45929 15.9191 4.12209C16.1891 4.67454 16.4419 5.01945 16.6773 5.15682ZM17.1023 8.79914L16.1102 8.28242C15.9141 8.10407 15.7915 7.80682 15.7915 7.47985V7.0637C15.7915 6.88535 16.1279 6.72248 16.2054 6.87111L17.2623 8.63912C17.4339 8.90665 17.3559 8.90665 17.1023 8.79914ZM20.7076 13.6707C20.6727 13.9101 20.6924 13.8029 20.6771 13.8784C20.6465 14.0106 20.591 14.2994 20.5604 14.4127C20.5132 14.5189 20.4309 14.5189 20.4081 14.4275C20.4081 14.3898 20.3048 14.0448 20.2437 13.8938C20.1979 13.7805 20.349 13.388 20.4559 13.3125C20.5709 13.2431 20.7426 13.4313 20.7076 13.6707Z"
        fill="#222222"
    />
    <path
        d="M9.43127 10.8782C9.43127 10.8782 8.50888 10.1072 6.22689 11.2341C4.75241 11.9624 4.27459 13.5095 3.30404 14.8256C2.33353 16.1416 1.80892 16.085 1.80892 16.085C1.80892 16.085 3.94118 16.8932 5.90061 15.7614C7.85996 14.6295 8.7096 10.8782 8.7096 10.8782L9.43127 10.8782Z"
        fill="#222222"
    />
    <path
        fill-rule="evenodd"
        clip-rule="evenodd"
        d="M1.80893 16.085C2.27131 16.1535 2.89909 16.1306 3.69227 16.0164C4.88203 15.8451 5.36241 15.5572 5.57765 15.5147C5.72115 15.4865 5.94122 15.4865 6.23788 15.5147C5.95499 15.7326 5.65909 15.8998 5.35017 16.0164C4.88678 16.1912 4.64215 16.2817 4.12977 16.3391C3.61739 16.3965 3.30824 16.3765 2.6877 16.3058C2.27401 16.2587 1.98109 16.1851 1.80893 16.085Z"
        fill="#414141"
    />
    <path
        d="M7.68245 9.25976C6.00091 9.61695 4.98037 10.8834 3.57 11.8528C2.15972 12.8222 1.67597 12.6722 1.67597 12.6722C1.67597 12.6722 3.43243 13.7892 5.72652 13.1706C8.02057 12.5519 10.2848 8.70707 7.68245 9.25976Z"
        fill="#222222"
    />
    <path
        fill-rule="evenodd"
        clip-rule="evenodd"
        d="M1.67596 12.6721C2.109 12.829 2.49326 12.9257 2.82873 12.9624C3.33195 13.0175 3.52041 12.8947 3.89312 13.0348C4.14159 13.1283 4.26106 13.2382 4.25154 13.3646C4.07582 13.3725 3.84638 13.3565 3.56324 13.3166C3.13853 13.2567 3.12663 13.2465 2.78848 13.1582C2.45032 13.07 2.48764 13.0816 2.19676 12.96C2.00284 12.879 1.82924 12.783 1.67596 12.6721Z"
        fill="#414141"
    />
    <path
        d="M9.49075 7.16668C7.73243 7.19115 6.24824 8.33779 4.50732 9.0806C2.76655 9.82329 2.36112 9.5578 2.36112 9.5578C2.36112 9.5578 3.60571 11.139 6.05673 10.9641C8.50773 10.789 12.2119 7.12894 9.49075 7.16668Z"
        fill="#222222"
    />
    <path
        fill-rule="evenodd"
        clip-rule="evenodd"
        d="M2.36115 9.55774C2.68214 9.68155 2.98787 9.80008 3.27833 9.91334C3.71401 10.0832 3.86585 10.0833 4.09934 10.305C4.255 10.4527 4.48993 10.6507 4.80413 10.8988C4.36667 10.8208 4.04361 10.7332 3.83496 10.6361C3.52199 10.4904 3.49083 10.4681 3.23288 10.305C2.97493 10.1418 2.86196 10.0418 2.66191 9.86782C2.52854 9.75179 2.42829 9.64844 2.36115 9.55774Z"
        fill="#414141"
    />
    <path
        fill-rule="evenodd"
        clip-rule="evenodd"
        d="M14.3685 21.1433C13.9519 20.2205 13.5276 19.3435 13.0958 18.5123C12.6639 17.6811 11.8984 16.2251 10.7992 14.1442L9.17221 11.0768L10.9949 20.651L13.5466 21.1433H14.3685Z"
        fill="#414141"
    />
    <path
        fill-rule="evenodd"
        clip-rule="evenodd"
        d="M17.2377 20.1576C16.5461 19.3255 15.579 18.0504 14.3364 16.3322C13.0938 14.6141 12.4313 13.6699 12.3489 13.4998L12.1458 13.0323C12.0444 12.7987 11.9659 12.5558 11.9115 12.307L11.9085 12.293C11.8564 12.0546 11.8444 11.8091 11.873 11.5667C11.9017 11.324 11.9665 11.087 12.0654 10.8635L12.5549 9.7572L11.42 11.5719L15.3228 20.9664C15.5174 20.9363 15.8341 20.828 16.2729 20.6415C16.7116 20.455 17.0332 20.2937 17.2377 20.1576Z"
        fill="#414141"
    />
    <path
        fill-rule="evenodd"
        clip-rule="evenodd"
        d="M12.5455 9.77515C12.5497 9.97981 12.6511 10.231 12.8496 10.5289C13.1474 10.9756 14.2247 12.3631 14.6104 12.7334C14.8675 12.9802 15.2567 13.1914 15.778 13.367C15.6511 13.3462 15.5713 13.3357 15.5383 13.3357C15.4593 13.3357 15.3719 13.3538 15.2653 13.3705C15.032 13.4072 14.983 13.3891 14.7158 13.3005C14.4485 13.2118 13.9139 12.5937 13.3664 11.9654C12.8189 11.3371 12.7479 11.1984 12.6685 10.8922C12.6155 10.688 12.5745 10.3156 12.5455 9.77515Z"
        fill="#414141"
    />
    <path
        fill-rule="evenodd"
        clip-rule="evenodd"
        d="M17.5872 13.2106L14.8192 11.0279L15.3147 11.1834L17.5872 13.2106Z"
        fill="#414141"
    />
    <path
        fill-rule="evenodd"
        clip-rule="evenodd"
        d="M16.6308 5.1245L16.016 3.02625C15.9837 3.03873 15.9512 3.05384 15.9185 3.07159C15.8858 3.08934 15.8603 3.09409 15.8422 3.08583C15.8346 3.21941 15.8346 3.3818 15.8422 3.57298C15.8498 3.76416 15.8637 3.95369 15.8841 4.14158C15.9718 4.33495 16.0957 4.53915 16.2558 4.7542C16.416 4.96924 16.541 5.09268 16.6308 5.1245Z"
        fill="#414141"
    />
    <path
        fill-rule="evenodd"
        clip-rule="evenodd"
        d="M15.7703 6.25452L17.4914 9.04617L16.0414 6.4159L15.7703 6.25452Z"
        fill="#414141"
    />
    <path
        fill-rule="evenodd"
        clip-rule="evenodd"
        d="M20.1393 13.699C20.3189 13.9984 20.4292 14.2044 20.4703 14.3168C20.5113 14.4292 20.5113 14.5335 20.4703 14.6295"
        fill="#414141"
    />
    <path
        d="M15.5334 5.30966C16.1908 5.65147 16.4744 5.56176 17.0103 5.59783C17.6342 5.63982 18.2089 6.01456 18.2089 6.01456C18.2089 6.01456 17.7159 5.90731 17.3291 5.92473C16.2693 5.97244 15.5227 6.30646 14.4758 6.06877C12.9463 5.72147 14.4752 4.75946 15.5334 5.30966Z"
        fill="#222222"
    />
    <path
        d="M15.0038 5.97928C15.6613 5.63747 15.9448 5.72718 16.4808 5.69111C17.1046 5.64912 17.6793 5.27438 17.6793 5.27438C17.6793 5.27438 17.1863 5.38163 16.7995 5.36421C15.7397 5.3165 14.9932 4.98248 13.9462 5.22017C12.4168 5.56747 13.9456 6.52949 15.0038 5.97928Z"
        fill="#222222"
    />
    <path
        d="M16.5259 6.33379C17.0242 6.71307 18.0991 6.33379 18.0991 6.33379C18.0991 6.33379 17.6474 6.24903 17.3668 5.98109C17.0793 5.70642 16.4992 5.70673 16.2765 5.44207C15.9041 4.99937 16.0978 6.00795 16.5259 6.33379Z"
        fill="#222222"
    />
</svg>
