<svg viewBox="0 0 24 24" fill="none" xmlns="http://www.w3.org/2000/svg">
    <path
        d="M10.6971 20.1891L2.54068 3.57885C2.51084 3.51758 2.49704 3.44975 2.50057 3.3817C2.5041 3.31365 2.52485 3.24761 2.56087 3.18976C2.59689 3.13192 2.64701 3.08416 2.70652 3.05097C2.76604 3.01778 2.833 3.00025 2.90115 3H5.71907C5.7934 2.99984 5.86635 3.02012 5.92993 3.05864C5.9935 3.09716 6.04526 3.15242 6.07953 3.21838L12.0337 15.2689C12.1524 15.5123 12.337 15.7174 12.5666 15.8609C12.7962 16.0044 13.0615 16.0805 13.3322 16.0805C13.6029 16.0805 13.8682 16.0044 14.0978 15.8609C14.3274 15.7174 14.512 15.5123 14.6307 15.2689L20.5796 3.22628C20.6139 3.16031 20.6656 3.10505 20.7292 3.06653C20.7928 3.02801 20.8657 3.00773 20.9401 3.00789H21.2926C21.3406 3.00446 21.3886 3.01425 21.4314 3.03619C21.4742 3.05814 21.5102 3.0914 21.5354 3.13236C21.5607 3.17332 21.5742 3.22041 21.5745 3.26851C21.5748 3.31661 21.562 3.36389 21.5373 3.40519L13.2967 20.1891C13.1776 20.4323 12.9927 20.6373 12.7629 20.7806C12.5331 20.924 12.2677 21 11.9969 21C11.7261 21 11.4607 20.924 11.2309 20.7806C11.0011 20.6373 10.8162 20.4323 10.6971 20.1891Z"
        fill="url(#VeChain_a)"
    />
    <defs>
        <linearGradient
            id="VeChain_a"
            x1="2.49858"
            y1="11.9984"
            x2="21.5689"
            y2="11.9984"
            gradientUnits="userSpaceOnUse"
        >
            <stop stop-color="#9D4ABE" />
            <stop offset="0.03" stop-color="#9055C4" />
            <stop offset="0.15" stop-color="#6B74D6" />
            <stop offset="0.26" stop-color="#4C8FE5" />
            <stop offset="0.39" stop-color="#34A3F0" />
            <stop offset="0.52" stop-color="#22B2F9" />
            <stop offset="0.66" stop-color="#18BAFD" />
            <stop offset="0.83" stop-color="#15BDFF" />
            <stop offset="1" stop-color="#28BAD5" />
        </linearGradient>
    </defs>
</svg>
