<svg viewBox="0 0 24 24" fill="none" xmlns="http://www.w3.org/2000/svg">
    <path
        d="M6.42935 17.3303L7.02606 17.927C7.96319 17.4424 9.02446 17.1661 10.1538 17.1661C12.2243 17.1661 14.0785 18.0912 15.328 19.5489L17.7149 17.1621C16.2051 15.9246 14.2748 15.1837 12.1722 15.1837C9.9736 15.1877 7.96719 15.9967 6.42935 17.3303Z"
        fill="black"
    />
    <path
        d="M8.85627 19.7575L10.5103 21.4115C11.3272 22.2284 12.6528 22.2284 13.4698 21.4115L15.1358 19.7415C14.2868 19.0366 13.1935 18.6121 12.0041 18.6121C10.8066 18.6121 9.70529 19.0446 8.85627 19.7575Z"
        fill="black"
    />
    <path
        d="M10.362 9.1646C14.5951 9.1646 18.4157 10.9187 21.139 13.7381L21.3873 13.4898C22.2042 12.6728 22.2042 11.3472 21.3873 10.5302L13.4698 2.61274C12.6528 1.79575 11.3272 1.79575 10.5102 2.61274L2.58871 10.5302C2.25631 10.8626 2.06007 11.2831 2 11.7157C4.38686 10.1057 7.26632 9.1646 10.362 9.1646Z"
        fill="black"
    />
    <path
        d="M12.1722 11.1388C8.85223 11.1388 5.8246 12.3803 3.51783 14.4187L4.13858 15.0395C5.85264 13.838 7.93914 13.1332 10.1938 13.1332C13.3616 13.1332 16.2051 14.5309 18.1394 16.7375L20.6304 14.2465C18.3516 12.3122 15.3961 11.1388 12.1722 11.1388Z"
        fill="black"
    />
</svg>
