<svg viewBox="0 0 24 24" fill="none" xmlns="http://www.w3.org/2000/svg">
    <path
        d="M22 12.0218C21.9978 17.575 17.5516 22.0038 11.9827 22C6.44302 21.9962 1.99695 17.5303 2 11.9728C2.00304 6.44383 6.50749 1.99183 12.0903 2.00001C17.5576 2.00802 22.0022 6.50294 22 12.0218ZM19.7975 11.8836C19.7019 9.76239 18.9959 7.90271 17.4717 6.41472C15.4842 4.47451 13.0928 3.91481 10.4263 4.35337C7.42511 4.84699 4.139 7.78424 4.21005 12.1349C4.27839 16.3195 7.70474 19.7829 12.01 19.7632C16.4077 19.7431 19.8667 16.1653 19.7975 11.8836Z"
        fill="#030302"
    />
    <path
        d="M19.797 11.8837C19.8668 16.1652 16.4078 19.743 12.0101 19.7631C7.7048 19.7827 4.27845 16.3194 4.21012 12.1348C4.13907 7.78414 7.42519 4.84689 10.4264 4.35327C13.0929 3.91471 15.4843 4.47441 17.4717 6.41462C18.996 7.90261 19.702 9.76229 19.797 11.8837Z"
        fill="#DEA038"
    />
    <path
        d="M10.9196 16.7679C10.0038 16.7679 9.16077 16.7679 8.30982 16.7679C8.14081 15.7606 8.2608 14.89 8.93475 14.0754C10.1189 12.6441 11.0878 11.0397 12.3937 9.58206C11.0776 9.58206 9.85303 9.58206 8.59928 9.58206C8.59928 8.79168 8.59928 8.04531 8.59928 7.24403C9.34863 7.24403 10.1069 7.24403 10.9033 7.24403C10.9033 6.64178 10.9033 6.09282 10.9033 5.51255C11.6224 5.51255 12.3029 5.51255 13.0356 5.51255C13.0356 6.07283 13.0356 6.63222 13.0356 7.23481C13.9126 7.23481 14.739 7.23481 15.594 7.23481C15.6059 8.18752 15.7016 9.04393 15.0273 9.86912C13.8529 11.3063 12.8758 12.9051 11.612 14.4029C13.0404 14.4029 14.3832 14.4029 15.7451 14.4029C15.7451 15.2066 15.7451 15.9552 15.7451 16.7493C14.8579 16.7493 13.9789 16.7493 13.0572 16.7493C13.0572 17.3289 13.0572 17.8645 13.0572 18.4288C12.3313 18.4288 11.6483 18.4288 10.9195 18.4288C10.9196 17.8931 10.9196 17.358 10.9196 16.7679Z"
        fill="#030302"
    />
</svg>
