<svg viewBox="0 0 24 24" fill="none" xmlns="http://www.w3.org/2000/svg">
    <path
        d="M15.868 20.8524C15.7558 20.9515 15.6666 20.8572 15.5755 20.8135C13.7295 19.9284 11.8848 19.0406 10.0386 18.1558C8.67309 17.5014 7.3072 16.8477 5.93766 16.2018C5.77238 16.1238 5.69948 16.036 5.70232 15.8462C5.71316 15.1204 5.7101 14.3944 5.70452 13.6685C5.70332 13.5125 5.73854 13.4225 5.89696 13.346C8.05531 12.3033 10.2088 11.2506 12.3631 10.1995C12.4357 10.164 12.553 10.1491 12.5536 10.061C12.5543 9.97062 12.434 9.95802 12.3625 9.92364C10.2176 8.89178 8.07231 7.86079 5.92396 6.83621C5.76717 6.76143 5.69984 6.67821 5.7024 6.49825C5.71269 5.77248 5.70485 5.04646 5.70926 4.32057C5.7098 4.23367 5.6532 4.10785 5.80993 4.0802C5.81522 4.16237 5.88041 4.18495 5.94088 4.21361C6.1885 4.33095 6.43623 4.44804 6.683 4.56715C8.03217 5.21832 9.37988 5.87244 10.7303 6.52095C12.4108 7.328 14.0935 8.13059 15.7753 8.9351C15.7755 9.69599 15.7746 10.4569 15.777 11.2177C15.7774 11.3133 15.7452 11.4187 15.8316 11.499C15.3546 11.8042 14.8386 12.0356 14.3351 12.2905C12.6128 13.1625 10.8901 14.0339 9.16783 14.9061C9.11705 14.9318 9.04263 14.9464 9.03841 15.0115C9.0335 15.0874 9.11647 15.0826 9.16501 15.1061C10.7166 15.8547 12.2678 16.6042 13.8206 17.3501C14.4734 17.6637 15.1298 17.9696 15.7846 18.279C15.7818 19.0784 15.7788 19.8779 15.7764 20.6774C15.7762 20.7509 15.7616 20.8338 15.868 20.8524Z"
        fill="#4DC0BE"
    />
    <path
        d="M15.7752 8.93498C14.0934 8.13047 12.4107 7.32788 10.7302 6.52082C9.37975 5.87231 8.03204 5.21819 6.68289 4.56705C6.43612 4.44795 6.18838 4.33085 5.94077 4.2135C5.8803 4.18484 5.81511 4.16227 5.80981 4.0801C6.60846 3.72902 7.40779 3.37937 8.20522 3.02547C8.35073 2.96089 8.46391 3.03277 8.58247 3.08987C9.65466 3.60631 10.7251 4.1264 11.7984 4.64052C13.9363 5.66459 16.0757 6.68552 18.2143 7.70818C18.2363 7.71873 18.2555 7.73535 18.276 7.74914C18.292 7.84766 18.226 7.86944 18.1512 7.90108C17.9289 7.99513 17.7127 8.10355 17.4912 8.19944C16.92 8.4466 16.3473 8.69004 15.7752 8.93498Z"
        fill="#077A8D"
    />
    <path
        d="M15.8679 20.8523C15.7616 20.8337 15.7761 20.7508 15.7764 20.6773C15.7788 19.8778 15.7817 19.0783 15.7846 18.2789C15.787 18.2647 15.7944 18.254 15.8068 18.2469C15.8482 18.1686 15.8297 18.0839 15.8298 18.0021C15.8311 16.8219 15.8322 15.6418 15.8302 14.4616C15.8293 13.9385 15.8212 13.4153 15.8164 12.8921C15.9005 12.7473 16.0626 12.7342 16.1945 12.6747C16.854 12.3768 17.518 12.0887 18.1771 11.7897C18.3381 11.7166 18.3884 11.7345 18.3881 11.9248C18.3838 14.4671 18.3852 17.0094 18.388 19.5517C18.3881 19.6835 18.3522 19.7549 18.2187 19.8124C17.4317 20.1513 16.6508 20.5042 15.8679 20.8523Z"
        fill="#2E8D94"
    />
    <path
        d="M15.7751 8.93499C16.3472 8.69005 16.92 8.44661 17.4911 8.19944C17.7127 8.10356 17.9289 7.99514 18.1512 7.90108C18.2259 7.86945 18.2919 7.84768 18.276 7.74915C18.3987 7.78011 18.3851 7.88039 18.3852 7.97034C18.3862 8.71226 18.382 9.45421 18.3892 10.1961C18.3906 10.3415 18.3242 10.3988 18.2054 10.4507C17.4128 10.797 16.6225 11.1489 15.8314 11.4989C15.745 11.4186 15.7772 11.3132 15.7769 11.2176C15.7744 10.4568 15.7753 9.69587 15.7751 8.93499Z"
        fill="#2F8D94"
    />
</svg>
